<?xml version="1.0" standalone="no"?>
<!DOCTYPE svg PUBLIC "-//W3C//DTD SVG 1.1//EN" "http://www.w3.org/Graphics/SVG/1.1/DTD/svg11.dtd" >
<svg>
<metadata>
Created by FontForge 20110222 at Wed Jun  4 01:41:31 2014
 By Orthosie Webhosting
Copyright (c) 2008 by Dino dos Santos _DSType. All rights reserved.
</metadata>
<defs>
<font id="PreloBoldBold" horiz-adv-x="1085" >
  <font-face 
    font-family="PreloBoldBold"
    font-weight="400"
    font-stretch="normal"
    units-per-em="2048"
    panose-1="2 0 5 6 4 0 0 2 0 4"
    ascent="1536"
    descent="-512"
    x-height="1024"
    cap-height="1393"
    bbox="-150 -430 2753 1946"
    underline-thickness="102"
    underline-position="-102"
    unicode-range="U+0020-FB04"
  />
<missing-glyph horiz-adv-x="1024" 
d="M128 0v1946h768v-1946h-768zM256 128h512v1690h-512v-1690z" />
    <glyph glyph-name=".notdef" horiz-adv-x="1024" 
d="M128 0v1946h768v-1946h-768zM256 128h512v1690h-512v-1690z" />
    <glyph glyph-name=".null" horiz-adv-x="0" 
 />
    <glyph glyph-name="nonmarkingreturn" horiz-adv-x="368" 
 />
    <glyph glyph-name="space" unicode=" " horiz-adv-x="368" 
 />
    <glyph glyph-name="exclam" unicode="!" horiz-adv-x="440" 
d="M86 0v297h266v-297h-266zM86 1393h266l-14 -949h-236z" />
    <glyph glyph-name="quotedbl" unicode="&#x22;" horiz-adv-x="849" 
d="M86 1393h266l-30 -314h-205zM496 1393h266l-31 -314h-205z" />
    <glyph glyph-name="numbersign" unicode="#" horiz-adv-x="1249" 
d="M86 209l18 174h205l27 256h-205l19 174h204l23 211h190l-24 -211h225l25 211h188l-23 -211h205l-18 -174h-205l-27 -256h205l-18 -174h-205l-23 -209h-188l23 209h-226l-22 -209h-191l23 209h-205zM498 383h225l29 256h-226z" />
    <glyph glyph-name="dollar" unicode="$" horiz-adv-x="1228" 
d="M86 55l49 236q254 -62 479 -62q230 0 230 162q0 55 -45 90q-48 37 -103 57q-63 21 -122 36q-42 11 -54 14q-414 121 -414 436q0 192 134 288q124 89 325 99v186h113v-186q198 -11 428 -76l-64 -235q-245 61 -428 61q-211 0 -211 -145q0 -60 51 -93q31 -22 114 -58
q52 -17 129 -36l24 -6q194 -45 300 -135q120 -101 120 -278q0 -264 -225 -372q-103 -49 -238 -56v-187h-113v187q-257 8 -479 73z" />
    <glyph glyph-name="percent" unicode="%" horiz-adv-x="1556" 
d="M76 1108q0 141 76 220t217 79t217 -78.5t76 -220.5q0 -301 -293 -301q-141 0 -217 79.5t-76 221.5zM244 1108q0 -168 125 -168q127 0 127 168q0 166 -127 166q-125 0 -125 -166zM311 0l758 1393h174l-758 -1393h-174zM893 285q0 142 76 221.5t217 79.5q293 0 293 -301
q0 -142 -76 -221.5t-217 -79.5q-140 0 -216.5 80t-76.5 221zM1186 451q-125 0 -125 -166t125 -166q127 0 127 166t-127 166z" />
    <glyph glyph-name="ampersand" unicode="&#x26;" horiz-adv-x="1443" 
d="M84 365q0 137 97 241q69 74 218 156q-149 187 -149 303q0 170 129 262q121 86 287 86q172 0 273 -83q110 -89 110 -257q0 -189 -279 -344l277 -264q81 119 100 252h250q-26 -231 -178 -430l157 -164l-172 -189l-174 181q-193 -135 -446 -135q-216 0 -345 83
q-155 99 -155 302zM367 408q0 -96 72 -151q66 -50 165 -50q151 0 262 80l-331 342q-168 -100 -168 -221zM510 1075q0 -85 108 -201q181 103 181 209q0 67 -38 107.5t-104 40.5q-147 0 -147 -156z" />
    <glyph glyph-name="quotesingle" unicode="'" horiz-adv-x="440" 
d="M86 1393h266l-30 -314h-205z" />
    <glyph glyph-name="parenleft" unicode="(" horiz-adv-x="675" 
d="M94 696q0 546 361 983h174q-269 -466 -269 -983q0 -498 269 -983h-174q-361 435 -361 983z" />
    <glyph glyph-name="parenright" unicode=")" horiz-adv-x="675" 
d="M45 -287q270 481 270 983q0 521 -270 983h174q363 -437 363 -983t-363 -983h-174z" />
    <glyph glyph-name="asterisk" unicode="*" horiz-adv-x="845" 
d="M72 1085l45 150l250 -92l-21 250h154l-21 -250l250 92l45 -150l-258 -30l170 -197l-119 -92l-145 238l-143 -238l-119 92l170 197z" />
    <glyph glyph-name="plus" unicode="+" horiz-adv-x="1024" 
d="M86 432v221h315v314h222v-314h313v-221h-313v-315h-222v315h-315z" />
    <glyph glyph-name="comma" unicode="," horiz-adv-x="440" 
d="M86 0v297h266v-297l-127 -266h-82l52 266h-109z" />
    <glyph glyph-name="hyphen" unicode="-" horiz-adv-x="1024" 
d="M86 432v221h850v-221h-850z" />
    <glyph glyph-name="period" unicode="." horiz-adv-x="440" 
d="M86 0v297h266v-297h-266z" />
    <glyph glyph-name="slash" unicode="/" horiz-adv-x="1105" 
d="M55 0l758 1393h236l-758 -1393h-236z" />
    <glyph glyph-name="zero" unicode="0" horiz-adv-x="1208" 
d="M86 707q0 255 63 418q70 184 241 252q92 36 214 36q239 0 363 -134q111 -122 140 -347q13 -100 13 -225q0 -261 -61 -426q-72 -192 -241 -262q-92 -39 -214 -39q-237 0 -363 141q-111 124 -141 357q-14 102 -14 229zM369 707q0 -508 235 -508q236 0 236 508
q0 219 -48 345q-54 140 -188 140q-186 0 -224 -291q-11 -84 -11 -194z" />
    <glyph glyph-name="one" unicode="1" horiz-adv-x="778" 
d="M35 1178q293 110 432 225h195v-1403h-267v1090l-293 -134z" />
    <glyph glyph-name="two" unicode="2" horiz-adv-x="1126" 
d="M86 0v254q305 193 463 346q137 131 173 240q15 47 15 94q0 115 -61 174q-48 46 -125 57q-28 4 -59 4q-152 0 -326 -71l-80 213q250 102 467 102q208 0 332 -105q133 -113 133 -317q0 -291 -320 -570q-98 -85 -235 -181v-4h575v-236h-952z" />
    <glyph glyph-name="three" unicode="3" horiz-adv-x="1167" 
d="M86 80l80 203q189 -84 389 -84q144 0 202 69q50 58 50 125q0 193 -275 193h-184v221h172q145 0 204 69q50 58 50 140q0 88 -68 135q-59 41 -151 41q-169 0 -358 -84l-80 205q218 100 485 100q186 0 305 -89q131 -100 131 -280q0 -229 -241 -317v-4q130 -32 205 -120
q77 -92 77 -224q0 -210 -155 -312q-131 -87 -353 -87q-276 0 -485 100z" />
    <glyph glyph-name="four" unicode="4" horiz-adv-x="1208" 
d="M66 322v221q370 405 567 850h330v-850h178v-221h-178v-322h-267v322h-630zM338 543h358v504h-4q-135 -247 -354 -504z" />
    <glyph glyph-name="five" unicode="5" horiz-adv-x="1167" 
d="M86 82l80 205q189 -88 371 -88q119 0 190.5 63.5t71.5 181.5q0 90 -47 161q-54 79 -179 79q-130 0 -221 -98l-190 16l26 791h809v-236h-577l-19 -340l5 -2q116 96 262 96q201 0 309 -126q102 -119 102 -324q0 -240 -145 -364q-137 -117 -381 -117q-243 0 -467 102z" />
    <glyph glyph-name="six" unicode="6" horiz-adv-x="1167" 
d="M86 614q0 799 608 799q179 0 342 -57l-30 -205q-163 41 -289 41q-164 0 -267 -122q-98 -115 -98 -282l4 -2q120 146 297 146q211 0 323 -138q103 -127 103 -343t-131 -343.5t-348 -127.5q-216 0 -342 128q-117 117 -154 313q-18 91 -18 193zM377 590q-5 -39 -5 -77
q0 -103 31 -189q43 -125 183 -125q104 0 161 76q52 69 52 176q0 95 -42 166q-50 83 -175 83q-112 0 -205 -110z" />
    <glyph glyph-name="seven" unicode="7" horiz-adv-x="1024" 
d="M66 1157v236h890v-191q-289 -503 -393 -855q-49 -167 -78 -347h-297q45 272 184 599q130 304 296 554v4h-602z" />
    <glyph glyph-name="eight" unicode="8" horiz-adv-x="1208" 
d="M86 348q0 232 281 346v4q-240 119 -240 342q0 183 149 281q140 92 336 92q133 0 242 -46q126 -54 186 -157q39 -69 39 -155q0 -199 -241 -320v-4q282 -134 282 -354q0 -200 -154 -301q-146 -96 -370 -96q-213 0 -356 86q-154 92 -154 282zM360 377q0 -101 78 -155
q68 -46 174 -46q236 0 236 176q0 45 -26 92q-13 22 -70 66q-13 10 -47 26l-45 21q-55 25 -97 39q-203 -80 -203 -219zM393 1047q0 -111 125 -174q52 -27 119 -44q176 63 176 203q0 88 -66 139q-60 46 -151 46q-82 0 -139 -43q-64 -48 -64 -127z" />
    <glyph glyph-name="nine" unicode="9" horiz-adv-x="1167" 
d="M86 942q0 216 133 345q131 126 348 126q215 0 342 -129q116 -118 153 -313q17 -91 17 -193q0 -798 -606 -798q-176 0 -344 57l33 203q174 -41 289 -41q164 0 266 121q97 115 96 282l-4 2q-117 -143 -295 -143q-211 0 -324 138q-104 127 -104 343zM369 942q0 -95 42 -166
q50 -84 175 -84q112 0 205 111q5 39 5 77q0 103 -30 189q-44 123 -184 123q-104 0 -161 -75q-52 -68 -52 -175z" />
    <glyph glyph-name="colon" unicode=":" horiz-adv-x="440" 
d="M86 0v297h266v-297h-266zM86 645v297h266v-297h-266z" />
    <glyph glyph-name="semicolon" unicode=";" horiz-adv-x="440" 
d="M86 0v297h266v-297l-127 -266h-82l52 266h-109zM86 645v297h266v-297h-266z" />
    <glyph glyph-name="less" unicode="&#x3c;" horiz-adv-x="778" 
d="M86 432v160l604 330v-238l-321 -172l321 -174v-236z" />
    <glyph glyph-name="equal" unicode="=" horiz-adv-x="1024" 
d="M86 227v222h850v-222h-850zM86 637v221h850v-221h-850z" />
    <glyph glyph-name="greater" unicode="&#x3e;" horiz-adv-x="778" 
d="M86 86v238l324 188l-324 188v236l604 -344v-160z" />
    <glyph glyph-name="question" unicode="?" horiz-adv-x="983" 
d="M66 1333q202 80 430 80q193 0 296 -85q87 -72 113 -188q10 -49 10 -102q0 -136 -70 -225q-55 -71 -143 -135q-46 -34 -66 -52q-35 -31 -53 -62q-20 -34 -20 -72v-62h-235v62q0 128 63 211q35 46 92 94q88 73 98 82q62 59 62 133q0 149 -203 149q-131 0 -299 -57zM311 0
v297h267v-297h-267z" />
    <glyph glyph-name="at" unicode="@" horiz-adv-x="1699" 
d="M61 518q0 228 102 414q106 192 301 299q189 104 425 104q200 0 366 -78q178 -83 282 -241q101 -154 101 -348q0 -163 -67 -290q-74 -140 -213 -201q-96 -42 -215 -42h-168v80h-2q-90 -94 -234 -94q-111 0 -179 65.5t-68 175.5q0 112 72 174q62 53 167 69q45 7 96 7h148
v54q0 118 -144 118q-110 0 -264 -45l-39 140q195 65 357 65q299 0 299 -266v-389q126 0 198 86q63 77 83 187q8 48 8 97q0 152 -76 273.5t-213 187.5q-132 64 -293 64q-294 0 -478 -185.5t-184 -480.5q0 -265 171 -441.5t434 -176.5l-17 -146q-331 0 -543.5 218t-212.5 546z
M700 381q0 -102 119 -102q94 0 156 49v164h-139q-136 0 -136 -111z" />
    <glyph glyph-name="A" unicode="A" horiz-adv-x="1331" 
d="M45 0l451 1403h344l444 -1403h-311l-94 315h-441l-94 -315h-299zM496 551h325l-159 500h-5z" />
    <glyph glyph-name="B" unicode="B" horiz-adv-x="1249" 
d="M106 0v1393h590q196 0 311 -79q134 -92 134 -278q0 -235 -211 -313v-4q252 -75 252 -338q0 -194 -129 -293q-115 -88 -316 -88h-631zM389 250h301q195 0 195 170q0 168 -205 168h-291v-338zM389 840h277q178 0 178 151q0 150 -178 150h-277v-301z" />
    <glyph glyph-name="C" unicode="C" horiz-adv-x="1269" 
d="M86 707q0 252 79 418q87 184 290 252q109 36 252 36q241 0 501 -78l-63 -235q-260 61 -416 61q-346 0 -346 -454q0 -229 76 -349q81 -129 270 -129q150 0 416 62l63 -236q-259 -75 -501 -75q-280 0 -430 141q-134 125 -173 357q-18 103 -18 229z" />
    <glyph glyph-name="D" unicode="D" horiz-adv-x="1331" 
d="M106 0v1393h521q276 0 424 -127q134 -116 174 -336q18 -100 18 -223q0 -257 -79 -420q-89 -184 -289 -251q-108 -36 -248 -36h-521zM389 250h238q191 0 259 127q60 112 60 330q0 215 -60 319q-66 115 -259 115h-238v-891z" />
    <glyph glyph-name="E" unicode="E" horiz-adv-x="1146" 
d="M106 0v1393h943v-252h-660v-297h567v-250h-567v-344h670v-250h-953z" />
    <glyph glyph-name="F" unicode="F" horiz-adv-x="1095" 
d="M106 0v1393h922v-252h-639v-338h547v-250h-547v-553h-283z" />
    <glyph glyph-name="G" unicode="G" horiz-adv-x="1310" 
d="M86 707q0 252 79 418q87 184 290 252q109 36 252 36q238 0 495 -78l-61 -235q-262 61 -412 61q-346 0 -346 -454q0 -229 76 -349q81 -129 270 -129q98 0 193 39v228h-215v252h495v-672q-269 -96 -495 -96q-280 0 -430 141q-134 125 -173 357q-18 103 -18 229z" />
    <glyph glyph-name="H" unicode="H" horiz-adv-x="1310" 
d="M106 0v1393h283v-549h533v549h280v-1393h-280v594h-533v-594h-283z" />
    <glyph glyph-name="I" unicode="I" horiz-adv-x="495" 
d="M106 0v1393h283v-1393h-283z" />
    <glyph glyph-name="J" unicode="J" horiz-adv-x="720" 
d="M29 -2l22 235q54 -10 117 -10q164 0 164 162v1008h282v-1022q0 -391 -368 -391q-132 0 -217 18z" />
    <glyph glyph-name="K" unicode="K" horiz-adv-x="1302" 
d="M106 0v1393h283v-633l524 633h336l-485 -588l489 -805h-352l-342 580l-170 -205v-375h-283z" />
    <glyph glyph-name="L" unicode="L" horiz-adv-x="1105" 
d="M106 0v1393h283v-1143h649v-250h-932z" />
    <glyph glyph-name="M" unicode="M" horiz-adv-x="1638" 
d="M106 0v1393h375l344 -924h4l328 924h373v-1393h-281v885h-4l-332 -885h-204l-324 885h-4v-885h-275z" />
    <glyph glyph-name="N" unicode="N" horiz-adv-x="1331" 
d="M106 0v1393h283l557 -875h4v875h273v-1393h-281l-557 844h-4v-844h-275z" />
    <glyph glyph-name="O" unicode="O" horiz-adv-x="1413" 
d="M86 707q0 252 79 418q87 184 290 252q109 36 252 36q279 0 429 -135q134 -120 172 -346q17 -101 17 -225q0 -205 -51 -364q-52 -162 -189.5 -262.5t-377.5 -100.5q-280 0 -430 141q-134 127 -173 358q-18 103 -18 228zM383 707q0 -182 35 -291q41 -128 151 -175
q58 -26 138 -26q155 0 232 93q65 80 82 241q7 68 7 158q0 179 -34 285q-40 119 -148 163q-59 23 -139 23q-154 0 -232 -86q-69 -75 -85 -229q-7 -67 -7 -156z" />
    <glyph glyph-name="P" unicode="P" horiz-adv-x="1228" 
d="M106 0v1393h594q212 0 336.5 -119.5t124.5 -331.5q0 -213 -123.5 -331.5t-337.5 -118.5h-311v-492h-283zM389 741h281q202 0 202 201q0 199 -202 199h-281v-400z" />
    <glyph glyph-name="Q" unicode="Q" horiz-adv-x="1413" 
d="M86 707q0 252 79 418q87 184 290 252q109 36 252 36q279 0 429 -135q134 -120 172 -346q17 -101 17 -225q0 -254 -90 -412q-110 -195 -342 -215q18 -51 197 -53q108 -1 200 10v-252q-73 -9 -141 -9q-199 0 -334 63q-110 52 -166 141q-248 14 -385 157q-126 130 -161 350
q-17 101 -17 220zM383 707q0 -182 35 -291q41 -128 151 -175q58 -26 138 -26q155 0 232 93q65 80 82 241q7 68 7 158q0 179 -34 285q-40 119 -148 163q-59 23 -139 23q-154 0 -232 -86q-69 -75 -85 -229q-7 -67 -7 -156z" />
    <glyph glyph-name="R" unicode="R" horiz-adv-x="1259" 
d="M106 0v1393h594q213 0 337 -119t124 -330q0 -147 -68 -251q-72 -110 -208 -150l325 -543h-327l-293 496h-201v-496h-283zM389 748h277q206 0 206 196q0 197 -202 197h-281v-393z" />
    <glyph glyph-name="S" unicode="S" horiz-adv-x="1228" 
d="M86 55l49 236q264 -62 479 -62q89 0 152 34q78 42 78 124q0 45 -22 72q-30 35 -59 51q-42 21 -86 35q-47 14 -102 29q-24 6 -53 14q-416 117 -416 436q0 204 151 300q140 89 357 89q232 0 492 -78l-64 -235q-262 61 -428 61q-211 0 -211 -145q0 -59 47 -92
q53 -39 116 -59q110 -25 324 -96q163 -71 220 -200q31 -70 31 -159q0 -220 -152 -327q-147 -103 -375 -103q-269 0 -528 75z" />
    <glyph glyph-name="T" unicode="T" horiz-adv-x="1146" 
d="M66 1141v252h1013v-252h-364v-1141h-283v1141h-366z" />
    <glyph glyph-name="U" unicode="U" horiz-adv-x="1310" 
d="M106 492v901h283v-901q0 -121 50 -193q58 -84 218 -84q156 0 214 83q51 73 51 194v901h280v-901q0 -269 -150 -393q-143 -119 -397 -119t-397 119q-152 124 -152 393z" />
    <glyph glyph-name="V" unicode="V" horiz-adv-x="1331" 
d="M45 1393h313l316 -1051h2l311 1051h297l-444 -1403h-344z" />
    <glyph glyph-name="W" unicode="W" horiz-adv-x="1925" 
d="M45 1393h313l222 -1047h2l223 1047h330l229 -1047h2l215 1047h297l-340 -1403h-360l-213 950h-4l-213 -950h-361z" />
    <glyph glyph-name="X" unicode="X" horiz-adv-x="1331" 
d="M49 0l420 723l-397 670h329l258 -439h5l251 439h328l-397 -670l436 -723h-336l-301 492h-4l-279 -492h-313z" />
    <glyph glyph-name="Y" unicode="Y" horiz-adv-x="1269" 
d="M45 1393h322l274 -617h4l273 617h305l-447 -901v-492h-282v492z" />
    <glyph glyph-name="Z" unicode="Z" horiz-adv-x="1146" 
d="M61 0v205l621 936h-580v252h963v-205l-612 -938h632v-250h-1024z" />
    <glyph glyph-name="bracketleft" unicode="[" horiz-adv-x="614" 
d="M86 -287v1966h481v-159h-198v-1649h198v-158h-481z" />
    <glyph glyph-name="backslash" unicode="\" horiz-adv-x="1105" 
d="M55 1393h236l758 -1393h-236z" />
    <glyph glyph-name="bracketright" unicode="]" horiz-adv-x="614" 
d="M45 -129h201v1649h-201v159h481v-1966h-481v158z" />
    <glyph glyph-name="asciicircum" unicode="^" horiz-adv-x="778" 
d="M86 1044l221 390h162l221 -390h-143l-158 244l-160 -244h-143z" />
    <glyph glyph-name="underscore" unicode="_" horiz-adv-x="1024" 
d="M86 -123h850v-160h-850v160z" />
    <glyph glyph-name="grave" unicode="`" horiz-adv-x="557" 
d="M113 1393h219l112 -246h-143z" />
    <glyph glyph-name="a" unicode="a" horiz-adv-x="1034" 
d="M55 295q0 142 94 221q80 68 214 89q58 9 122 9h195v72q0 137 -199 137q-136 0 -321 -39l-39 213q235 47 422 47q201 0 298 -68q105 -74 105 -276v-700h-266v102h-4q-118 -122 -303 -122q-144 0 -231 85.5t-87 229.5zM322 317q0 -133 159 -133q117 0 199 64v207h-178
q-180 0 -180 -138z" />
    <glyph glyph-name="b" unicode="b" 
d="M86 -8v1442h266v-512h4q111 122 289 122q373 0 373 -532q0 -231 -86 -375q-94 -157 -303 -157q-173 0 -287 114h-4l-47 -102h-205zM352 264q79 -65 185 -65q115 0 160 92q40 83 40 221q0 311 -200 311q-102 0 -185 -63v-496z" />
    <glyph glyph-name="c" unicode="c" horiz-adv-x="983" 
d="M66 512q0 250 115 386q122 146 413 146q164 0 358 -49l-47 -213q-148 35 -232 40q-30 1 -79 1q-246 0 -246 -311q0 -313 246 -313q89 0 170 13q61 9 141 28l47 -211q-194 -49 -358 -49q-290 0 -413 146q-115 135 -115 386z" />
    <glyph glyph-name="d" unicode="d" 
d="M66 512q0 230 87 375q94 157 302 157q171 0 272 -114h4v504h266v-1434h-266v102h-4q-106 -122 -287 -122q-374 0 -374 532zM348 512q0 -313 199 -313q109 0 184 65v496q-78 63 -184 63q-114 0 -158 -91q-41 -83 -41 -220z" />
    <glyph glyph-name="e" unicode="e" 
d="M66 512q0 248 118 387q124 145 410 145q392 0 430 -331q5 -44 5 -84q0 -75 -13 -174h-660q11 -256 281 -256q172 0 319 41l31 -211q-170 -49 -389 -49q-532 0 -532 532zM356 623h398q5 32 5 58q0 159 -181 159q-205 0 -222 -217z" />
    <glyph glyph-name="f" unicode="f" horiz-adv-x="706" 
d="M31 834v174l137 16v104q0 155 66 228q70 78 258 78q70 0 178 -19l-23 -205q-72 11 -94 11q-67 0 -93 -23t-26 -88v-86h215v-190h-215v-834h-266v834h-137z" />
    <glyph glyph-name="g" unicode="g" horiz-adv-x="1136" 
d="M41 -164q0 131 160 209v4q-80 48 -80 135v6q0 133 155 216v4q-165 81 -165 286q0 182 130 271q111 77 302 77q79 0 147 -20h379v-160h-164q60 -63 60 -168q0 -178 -126 -267q-110 -77 -296 -77q-68 0 -131 21q-10 -11 -29 -45q-10 -26 -10 -47q-2 -54 61 -58l348 -24
q314 -22 314 -256q0 -226 -209 -314q-142 -59 -406 -59q-440 0 -440 266zM260 -119q0 -137 264 -137q102 0 179 28q110 39 110 122q0 87 -125 94l-358 20q-22 -19 -59 -73q-11 -24 -11 -54zM360 696q0 -170 183 -170q178 0 178 170q0 174 -178 174q-183 0 -183 -174z" />
    <glyph glyph-name="h" unicode="h" 
d="M86 0v1434h266v-543h4q143 153 334 153q307 0 307 -344v-700h-266v639q0 184 -164 184q-94 0 -215 -78v-745h-266z" />
    <glyph glyph-name="i" unicode="i" horiz-adv-x="440" 
d="M86 0v1024h266v-1024h-266zM86 1110v283h266v-283h-266z" />
    <glyph glyph-name="j" unicode="j" horiz-adv-x="522" 
d="M-68 -412l25 205q46 -10 94 -10q66 0 91.5 23t25.5 88v1130h266v-1149q0 -154 -64 -227q-70 -78 -257 -78q-93 0 -181 18zM168 1110v283h266v-283h-266z" />
    <glyph glyph-name="k" unicode="k" horiz-adv-x="1126" 
d="M86 0v1434h266v-768l385 358h322l-373 -369l393 -655h-313l-266 504l-148 -135v-369h-266z" />
    <glyph glyph-name="l" unicode="l" horiz-adv-x="440" 
d="M86 0v1434h266v-1434h-266z" />
    <glyph glyph-name="m" unicode="m" horiz-adv-x="1699" 
d="M86 0v1024h266v-133h4q139 153 320 153q207 0 274 -170q151 170 355 170q307 0 307 -344v-700h-266v639q0 184 -164 184q-84 0 -201 -80q0 -19 1 -58t1 -58v-627h-266v651q0 80 -44 128q-42 44 -120 44q-68 0 -142 -42q-23 -13 -59 -36v-745h-266z" />
    <glyph glyph-name="n" unicode="n" 
d="M86 0v1024h266v-133h4q143 153 334 153q307 0 307 -344v-700h-266v639q0 184 -164 184q-94 0 -215 -78v-745h-266z" />
    <glyph glyph-name="o" unicode="o" horiz-adv-x="1126" 
d="M563 -20q-497 0 -497 532t497 532q496 0 496 -532t-496 -532zM348 512q0 -313 215 -313t215 313q0 311 -215 311t-215 -311z" />
    <glyph glyph-name="p" unicode="p" 
d="M86 -410v1434h266v-102h4q111 122 289 122q373 0 373 -532q0 -231 -86 -375q-94 -157 -303 -157q-168 0 -273 114h-4v-504h-266zM352 264q79 -65 185 -65q115 0 160 92q40 83 40 221q0 311 -200 311q-102 0 -185 -63v-496z" />
    <glyph glyph-name="q" unicode="q" 
d="M66 512q0 230 87 375q94 157 302 157q172 0 288 -114h5l47 102h202v-1442h-266v512h-4q-106 -122 -287 -122q-374 0 -374 532zM348 512q0 -313 199 -313q109 0 184 65v496q-78 63 -184 63q-114 0 -158 -91q-41 -83 -41 -220z" />
    <glyph glyph-name="r" unicode="r" horiz-adv-x="757" 
d="M86 0v1024h266v-164h4q132 184 355 184v-251q-203 0 -359 -78v-715h-266z" />
    <glyph glyph-name="s" unicode="s" horiz-adv-x="983" 
d="M55 29l49 211q193 -47 388 -47q167 0 167 98q0 67 -176 100q-159 30 -242 72q-106 53 -144 153q-21 53 -21 121q0 307 405 307q236 0 430 -49l-47 -213q-203 49 -368 49q-154 0 -154 -86q0 -68 166 -104q64 -14 131 -32q58 -16 123 -45q49 -23 99 -72q39 -40 57 -110
q8 -34 8 -73q0 -329 -404 -329q-273 0 -467 49z" />
    <glyph glyph-name="t" unicode="t" horiz-adv-x="768" 
d="M31 834v174l137 16l33 287h233v-287h256v-190h-256v-494q0 -147 150 -147q45 0 94 10l22 -205q-86 -18 -208 -18q-169 0 -245 72q-79 74 -79 241v541h-137z" />
    <glyph glyph-name="u" unicode="u" 
d="M86 322v702h266v-641q0 -184 164 -184q91 0 215 80v745h266v-1024h-266v133h-4q-143 -153 -334 -153q-154 0 -233 96q-74 89 -74 246z" />
    <glyph glyph-name="v" unicode="v" horiz-adv-x="1146" 
d="M51 1024h297l230 -741h4l231 741h283l-363 -1034h-323z" />
    <glyph glyph-name="w" unicode="w" horiz-adv-x="1617" 
d="M51 1024h297l178 -741h4l156 741h258l168 -741h4l168 741h283l-297 -1034h-297l-164 626h-4l-158 -626h-297z" />
    <glyph glyph-name="x" unicode="x" horiz-adv-x="1116" 
d="M45 0l356 532l-325 492h307l190 -299h5l182 299h276l-325 -483l358 -541h-313l-215 336h-4l-207 -336h-285z" />
    <glyph glyph-name="y" unicode="y" horiz-adv-x="1146" 
d="M51 1024h297l234 -748h4l227 748h283l-363 -1061q-68 -198 -158 -285q-110 -108 -299 -108q-104 0 -184 18l25 219q52 -10 98 -10q150 0 215 189z" />
    <glyph glyph-name="z" unicode="z" horiz-adv-x="962" 
d="M39 0v188l522 631h-491v205h829v-190l-516 -629h541v-205h-885z" />
    <glyph glyph-name="braceleft" unicode="{" horiz-adv-x="696" 
d="M86 629v133q74 9 101 40q12 12 30 48q9 35 11 64q1 23 1 37v42q0 65 -10 193.5t-10 193.5q0 170 99 236q62 41 150 53q71 10 191 10v-112q-61 0 -92 -13q-39 -18 -56 -93q-9 -40 -9 -99q0 -70 13 -211t13 -211q0 -117 -59 -171q-50 -46 -146 -71v-4q96 -25 146 -71
q59 -54 59 -170q0 -70 -13 -211t-13 -211q0 -106 30 -160q21 -39 76 -44q17 -1 51 -1v-113q-120 0 -191 10q-88 12 -150 53.5t-86 130.5q-13 46 -13 105q0 65 10 193.5t10 193.5q0 45 -2 88q-2 32 -15 68q-9 24 -43 48q-26 18 -83 26z" />
    <glyph glyph-name="bar" unicode="|" horiz-adv-x="389" 
d="M106 -205v1802h175v-1802h-175z" />
    <glyph glyph-name="braceright" unicode="}" horiz-adv-x="696" 
d="M45 -174q46 0 71 5q30 6 54 34q21 25 31 90q4 33 4 76q0 70 -13.5 211t-13.5 211q0 116 59 170q49 45 146 71v4q-97 26 -146 71q-59 54 -59 171q0 70 13.5 211t13.5 211q0 78 -15 130q-11 36 -43 59q-21 14 -64 16h-38v112q121 0 192 -10q88 -13 149.5 -53.5t86.5 -130.5
q12 -46 12 -105q0 -65 -10 -193.5t-10 -193.5v-42q0 -47 5 -70.5t20 -57.5q12 -16 42 -39q35 -17 76 -22v-133q-57 -8 -83 -26q-17 -12 -42 -48q-14 -36 -15 -68q-3 -43 -3 -88q0 -65 10 -193.5t10 -193.5q0 -171 -98 -236q-62 -40 -150 -53q-71 -10 -192 -10v113z" />
    <glyph glyph-name="asciitilde" unicode="~" horiz-adv-x="940" 
d="M72 598q97 203 221 203q59 0 194 -45t179 -45q48 0 80 20q26 16 53 49l69 -80q-81 -163 -202 -163q-57 0 -183.5 40.5t-183.5 40.5q-67 0 -145 -83z" />
    <glyph glyph-name="uni00A0" unicode="&#xa0;" horiz-adv-x="368" 
 />
    <glyph glyph-name="exclamdown" unicode="&#xa1;" horiz-adv-x="440" 
d="M86 -369l16 947h236l14 -947h-266zM86 727v297h266v-297h-266z" />
    <glyph glyph-name="cent" unicode="&#xa2;" horiz-adv-x="1048" 
d="M82 512q0 234 130.5 377.5t362.5 152.5v187h113v-189q134 -11 279 -75l-31 -205q-139 53 -248 61v-620q103 5 248 63l31 -205q-152 -67 -279 -75v-189h-113v187q-232 9 -364 154q-129 142 -129 376zM362 512q0 -118 48 -198q56 -92 165 -109v612q-108 -15 -165 -108
q-48 -80 -48 -197z" />
    <glyph glyph-name="sterling" unicode="&#xa3;" horiz-adv-x="1263" 
d="M82 0v236h102v368h-102v205h102v215q0 205 143 300q134 89 349 89q301 0 506 -133l-109 -219q-193 100 -383 100q-239 0 -239 -172v-180h440v-205h-440v-368h686v-236h-1055z" />
    <glyph glyph-name="currency" unicode="&#xa4;" horiz-adv-x="1050" 
d="M143 928l17 16l162 -184q90 74 204 74q113 0 203 -74l160 184l18 -16l-159 -183q102 -96 102 -235q0 -140 -100 -234l155 -176l-18 -18l-158 178q-88 -72 -203 -72q-116 0 -204 72l-156 -178l-19 18l156 176q-98 95 -98 234q0 138 98 233zM317 721q-61 -61 -77 -108
q-11 -32 -11 -103q0 -123 87 -210t210 -87q122 0 210.5 87.5t88.5 209.5q0 123 -88 211t-211 88q-121 0 -209 -88z" />
    <glyph glyph-name="yen" unicode="&#xa5;" horiz-adv-x="1341" 
d="M82 1393h321l273 -617h4l274 617h306l-408 -815h285v-158h-326v-420h-281v420h-325v158h282z" />
    <glyph glyph-name="brokenbar" unicode="&#xa6;" horiz-adv-x="348" 
d="M86 41v819h174v-819h-174zM86 532v820h174v-820h-174z" />
    <glyph glyph-name="section" unicode="&#xa7;" horiz-adv-x="1220" 
d="M82 -252l47 236q266 -62 479 -62q89 0 153 34q79 42 79 124q0 45 -22 72q-30 35 -60 50q-50 24 -85 35t-103 30l-54 14q-414 117 -414 436h297q0 -82 98 -129q80 -39 220 -72q192 -45 300 -135q120 -101 120 -279q0 -219 -153 -327q-147 -103 -376 -103q-266 0 -526 76z
M102 1331q0 205 150 300q140 89 356 89q235 0 492 -78l-62 -235q-262 61 -430 61q-209 0 -209 -145q0 -58 46 -92q52 -39 116 -58q111 -26 326 -98q170 -76 224 -210q30 -75 26 -171h-297q0 45 -22 72q-30 35 -60 50q-50 24 -85 35t-103 30l-54 14q-414 117 -414 436z" />
    <glyph glyph-name="dieresis" unicode="&#xa8;" horiz-adv-x="935" 
d="M113 1157v236h219v-236h-219zM604 1157v236h219v-236h-219z" />
    <glyph glyph-name="copyright" unicode="&#xa9;" horiz-adv-x="1566" 
d="M158 335q-67 113 -85 193q-12 54 -12 168q0 194 95.5 359.5t262.5 261.5t363 96q195 0 361.5 -94t264 -260.5t97.5 -362.5q0 -194 -96 -359.5t-263 -261t-364 -95.5q-195 0 -361 94t-263 261zM182 696q0 -250 175 -427t425 -177t426 177.5t176 426.5q0 250 -176.5 423
t-425.5 173q-250 0 -425 -173q-80 -80 -127.5 -190.5t-47.5 -232.5zM436 705q0 170 93.5 261t263.5 91q149 0 266 -82l-58 -121q-96 61 -198 61q-197 0 -197 -210q0 -234 197 -234q102 0 198 61l58 -118q-117 -82 -266 -82q-173 0 -266 101q-91 98 -91 272z" />
    <glyph glyph-name="ordfeminine" unicode="&#xaa;" horiz-adv-x="598" 
d="M76 1028q0 90 71 127q63 33 144 33h98v35q0 69 -100 69q-65 0 -160 -18q-7 35 -20 106q122 23 210 23q104 0 150 -33q53 -40 53 -139v-350h-133v51q-66 -62 -153 -62q-71 0 -115.5 43.5t-44.5 114.5zM209 1040q0 -67 80 -67q58 0 100 33v102h-90q-90 0 -90 -68z" />
    <glyph glyph-name="guillemotleft" unicode="&#xab;" horiz-adv-x="1427" 
d="M86 432v160l604 344v-236l-321 -188l321 -188v-238zM737 432v160l604 344v-236l-323 -188l323 -188v-238z" />
    <glyph glyph-name="logicalnot" unicode="&#xac;" horiz-adv-x="1208" 
d="M127 432v221h952v-434h-219v213h-733z" />
    <glyph glyph-name="uni00AD" unicode="&#xad;" horiz-adv-x="1024" 
d="M86 432v221h850v-221h-850z" />
    <glyph glyph-name="uni00AD" unicode="&#x2212;" horiz-adv-x="1024" 
d="M86 432v221h850v-221h-850z" />
    <glyph glyph-name="registered" unicode="&#xae;" horiz-adv-x="1566" 
d="M158 335q-67 113 -85 193q-12 54 -12 168q0 194 95.5 359.5t262.5 261.5t363 96q195 0 361.5 -94t264 -260.5t97.5 -362.5q0 -194 -96 -359.5t-263 -261t-364 -95.5q-195 0 -361 94t-263 261zM182 696q0 -250 175 -427t425 -177t426 177.5t176 426.5q0 250 -176.5 423
t-425.5 173q-250 0 -425 -173q-80 -80 -127.5 -190.5t-47.5 -232.5zM508 344v705h295q126 0 200 -58q82 -64 82 -186q0 -174 -147 -219l176 -242h-199l-145 213h-100v-213h-162zM670 698h129q123 0 123 107q0 102 -119 102h-133v-209z" />
    <glyph glyph-name="macron" unicode="&#xaf;" horiz-adv-x="890" 
d="M113 1192v160h665v-160h-665z" />
    <glyph glyph-name="macron" unicode="&#x2c9;" horiz-adv-x="890" 
d="M113 1192v160h665v-160h-665z" />
    <glyph glyph-name="degree" unicode="&#xb0;" horiz-adv-x="532" 
d="M72 1198q0 80 57 137.5t137 57.5q81 0 138 -57t57 -138q0 -83 -56.5 -140t-138.5 -57q-81 0 -137.5 57.5t-56.5 139.5zM170 1198q0 -41 27.5 -69.5t68.5 -28.5t68.5 28.5t27.5 69.5t-27.5 68.5t-68.5 27.5t-68.5 -27.5t-27.5 -68.5z" />
    <glyph glyph-name="plusminus" unicode="&#xb1;" horiz-adv-x="1024" 
d="M86 41v219h315v195h-315v221h315v299h222v-299h313v-221h-313v-195h313v-219h-850z" />
    <glyph glyph-name="uni00B2" unicode="&#xb2;" horiz-adv-x="630" 
d="M76 1085v129q325 207 325 338q0 74 -45 98q-36 19 -77 19q-62 0 -162 -47l-41 102q123 68 241 68q102 0 163 -54q65 -57 65 -157q0 -180 -277 -375v-2h287v-119h-479z" />
    <glyph glyph-name="uni00B3" unicode="&#xb3;" horiz-adv-x="651" 
d="M76 1130l41 105q72 -36 125 -49q37 -10 73 -10q121 0 121 92q0 100 -135 100h-92v111h84q127 0 127 104q0 86 -96 86q-66 0 -128 -28q-20 -9 -63 -29l-41 104q114 66 244 66q93 0 153 -45q66 -50 66 -140q0 -114 -121 -157q141 -41 141 -174q0 -201 -256 -201
q-141 0 -243 65z" />
    <glyph glyph-name="acute" unicode="&#xb4;" horiz-adv-x="557" 
d="M113 1147l112 246h219l-188 -246h-143z" />
    <glyph glyph-name="uni00B5" unicode="&#xb5;" 
d="M-150 -412l25 205q46 -10 94 -10q117 0 117 147v1094h266v-647q0 -178 164 -178q91 0 215 80v745h266v-1024h-266v133h-4q-104 -111 -223 -133q-96 -18 -152 25v-97q0 -358 -338 -358q-76 0 -164 18z" />
    <glyph glyph-name="uni00B5" unicode="&#x3bc;" 
d="M-150 -412l25 205q46 -10 94 -10q117 0 117 147v1094h266v-647q0 -178 164 -178q91 0 215 80v745h266v-1024h-266v133h-4q-104 -111 -223 -133q-96 -18 -152 25v-97q0 -358 -338 -358q-76 0 -164 18z" />
    <glyph glyph-name="paragraph" unicode="&#xb6;" horiz-adv-x="1150" 
d="M72 999q0 184 114 291q111 103 297 103h596v-99h-168v-1294h-112v1294h-127v-690h-189q-182 0 -295 106q-116 108 -116 289z" />
    <glyph glyph-name="periodcentered" unicode="&#xb7;" horiz-adv-x="491" 
d="M127 502v266h235v-266h-235z" />
    <glyph glyph-name="periodcentered" unicode="&#x2219;" horiz-adv-x="491" 
d="M127 502v266h235v-266h-235z" />
    <glyph glyph-name="cedilla" unicode="&#xb8;" horiz-adv-x="600" 
d="M113 -395l14 84q71 -13 98 -13q99 0 99 80q0 72 -105 84v160h98v-109q170 -20 170 -149q0 -82 -65 -125q-56 -37 -143 -37q-83 0 -166 25z" />
    <glyph glyph-name="uni00B9" unicode="&#xb9;" horiz-adv-x="610" 
d="M61 1085v111h195v440q-49 -21 -145 -65l-35 104q150 57 217 113h98v-592h195v-111h-525z" />
    <glyph glyph-name="ordmasculine" unicode="&#xba;" horiz-adv-x="649" 
d="M76 1137q0 266 250 266q247 0 247 -266q0 -267 -247 -267q-250 0 -250 267zM217 1137q0 -156 109 -156q106 0 106 156q0 155 -106 155q-60 0 -84.5 -39.5t-24.5 -115.5z" />
    <glyph glyph-name="guillemotright" unicode="&#xbb;" horiz-adv-x="1427" 
d="M86 86v238l324 188l-324 188v236l604 -344v-160zM737 86v238l322 188l-322 188v236l604 -344v-160z" />
    <glyph glyph-name="onequarter" unicode="&#xbc;" horiz-adv-x="1638" 
d="M61 676v110h195v441q-25 -11 -73 -33l-72 -33l-33 105q152 59 215 112h98v-592h195v-110h-525zM487 0l758 1393h82l-758 -1393h-82zM1038 160v112q182 198 281 424h168v-424h90v-112h-90v-160h-135v160h-314zM1178 272h174v248q-70 -122 -174 -248z" />
    <glyph glyph-name="onehalf" unicode="&#xbd;" horiz-adv-x="1638" 
d="M61 676v110h195v441q-25 -11 -73 -33l-72 -33l-33 105q152 59 215 112h98v-592h195v-110h-525zM446 0l758 1393h82l-758 -1393h-82zM1100 0v129q323 207 323 338q0 74 -44 98q-36 19 -76 19q-64 0 -164 -47l-39 102q120 68 241 68q101 0 163.5 -56t62.5 -155
q0 -180 -277 -375v-2h287v-119h-477z" />
    <glyph glyph-name="threequarters" unicode="&#xbe;" horiz-adv-x="1638" 
d="M61 721l41 104q74 -36 126 -49q37 -10 73 -10q119 0 119 92q0 100 -135 100h-92v111h86q124 0 124 105q0 86 -96 86q-33 0 -85 -13q-10 -3 -28 -10l-24 -10q-17 -9 -53 -25l-39 105q112 65 241 65q94 0 153 -44q67 -50 67 -140q0 -115 -121 -158q141 -40 141 -174
q0 -201 -256 -201q-141 0 -242 66zM487 0l758 1393h82l-758 -1393h-82zM1038 160v112q182 198 281 424h168v-424h90v-112h-90v-160h-135v160h-314zM1178 272h174v248q-70 -122 -174 -248z" />
    <glyph glyph-name="questiondown" unicode="&#xbf;" horiz-adv-x="983" 
d="M66 -16q0 137 70 227q39 50 103 100q56 44 111 88q70 61 70 133v62h235v-62q0 -129 -62 -211q-35 -47 -92 -94q-95 -80 -98 -82q-63 -58 -63 -133q0 -151 203 -151q120 0 297 57l75 -227q-195 -80 -430 -80q-192 0 -295 85q-89 73 -113 187q-11 49 -11 101zM403 727v297
h267v-297h-267z" />
    <glyph glyph-name="Agrave" unicode="&#xc0;" horiz-adv-x="1331" 
d="M45 0l451 1403h344l444 -1403h-311l-94 315h-441l-94 -315h-299zM387 1700h219l113 -246h-144zM496 551h325l-159 500h-5z" />
    <glyph glyph-name="Aacute" unicode="&#xc1;" horiz-adv-x="1331" 
d="M45 0l451 1403h344l444 -1403h-311l-94 315h-441l-94 -315h-299zM496 551h325l-159 500h-5zM608 1477l113 245h219l-188 -245h-144z" />
    <glyph glyph-name="Acircumflex" unicode="&#xc2;" horiz-adv-x="1331" 
d="M45 0l451 1403h344l444 -1403h-311l-94 315h-441l-94 -315h-299zM362 1495l224 246h157l224 -246h-144l-159 133l-158 -133h-144zM496 551h325l-159 500h-5z" />
    <glyph glyph-name="Atilde" unicode="&#xc3;" horiz-adv-x="1331" 
d="M45 0l451 1403h344l444 -1403h-311l-94 315h-441l-94 -315h-299zM319 1546q89 187 222 187q56 0 195 -68q47 -23 75 -23q65 0 133 84l70 -79q-81 -164 -203 -164q-39 0 -132 42t-132 42q-63 0 -146 -86zM496 551h325l-159 500h-5z" />
    <glyph glyph-name="Adieresis" unicode="&#xc4;" horiz-adv-x="1331" 
d="M45 0l451 1403h344l444 -1403h-311l-94 315h-441l-94 -315h-299zM309 1501v236h219v-236h-219zM496 551h325l-159 500h-5zM801 1501v236h219v-236h-219z" />
    <glyph glyph-name="Aring" unicode="&#xc5;" horiz-adv-x="1331" 
d="M45 0l451 1403h344l444 -1403h-311l-94 315h-441l-94 -315h-299zM496 551h325l-159 500h-5zM502 1618q0 69 47 113.5t117 44.5q71 0 117 -44t46 -114t-46.5 -115t-116.5 -45t-117 45.5t-47 114.5zM586 1618q0 -35 22.5 -59.5t57.5 -24.5q79 0 79 84t-79 84
q-35 0 -57.5 -24.5t-22.5 -59.5z" />
    <glyph glyph-name="AE" unicode="&#xc6;" horiz-adv-x="1896" 
d="M45 0l670 1393h1083v-252h-659v-297h567v-250h-567v-344h669v-250h-952v387h-346l-182 -387h-283zM604 606h252v533h-4z" />
    <glyph glyph-name="Ccedilla" unicode="&#xc7;" horiz-adv-x="1269" 
d="M86 707q0 252 79 418q87 184 290 252q109 36 252 36q241 0 501 -78l-63 -235q-260 61 -416 61q-346 0 -346 -454q0 -229 76 -349q81 -129 270 -129q150 0 416 62l63 -236q-242 -72 -471 -75v-89q170 -19 170 -149q0 -83 -66 -126q-55 -36 -143 -36q-80 0 -166 25l17 84
q71 -13 98 -13q98 0 98 80q0 71 -104 84v142q-249 16 -384 157q-121 125 -155 349q-16 99 -16 219z" />
    <glyph glyph-name="Egrave" unicode="&#xc8;" horiz-adv-x="1146" 
d="M106 0v1393h943v-252h-660v-297h567v-250h-567v-344h670v-250h-953zM354 1700h219l113 -246h-143z" />
    <glyph glyph-name="Eacute" unicode="&#xc9;" horiz-adv-x="1146" 
d="M106 0v1393h943v-252h-660v-297h567v-250h-567v-344h670v-250h-953zM479 1477l113 245h219l-188 -245h-144z" />
    <glyph glyph-name="Ecircumflex" unicode="&#xca;" horiz-adv-x="1146" 
d="M106 0v1393h943v-252h-660v-297h567v-250h-567v-344h670v-250h-953zM285 1495l223 246h158l223 -246h-144l-159 133l-158 -133h-143z" />
    <glyph glyph-name="Edieresis" unicode="&#xcb;" horiz-adv-x="1146" 
d="M106 0v1393h943v-252h-660v-297h567v-250h-567v-344h670v-250h-953zM233 1501v236h220v-236h-220zM725 1501v236h219v-236h-219z" />
    <glyph glyph-name="Igrave" unicode="&#xcc;" horiz-adv-x="495" 
d="M-4 1700h219l113 -246h-144zM106 0v1393h283v-1393h-283z" />
    <glyph glyph-name="Iacute" unicode="&#xcd;" horiz-adv-x="495" 
d="M106 0v1393h283v-1393h-283zM176 1477l113 245h219l-189 -245h-143z" />
    <glyph glyph-name="Icircumflex" unicode="&#xce;" horiz-adv-x="495" 
d="M-53 1495l223 246h158l223 -246h-143l-160 133l-158 -133h-143zM104 0v1393h283v-1393h-283z" />
    <glyph glyph-name="Idieresis" unicode="&#xcf;" horiz-adv-x="495" 
d="M-109 1501v236h220v-236h-220zM109 0v1393h282v-1393h-282zM383 1501v236h219v-236h-219z" />
    <glyph glyph-name="Eth" unicode="&#xd0;" horiz-adv-x="1361" 
d="M4 627v159h133v607h520q276 0 425 -127q134 -116 174 -336q18 -100 18 -223q0 -254 -79 -420q-88 -183 -290 -251q-108 -36 -248 -36h-520v627h-133zM420 250h237q150 0 227 81q67 70 85 222q8 66 8 154q0 216 -60 319q-68 115 -260 115h-237v-355h225v-159h-225v-377z
" />
    <glyph glyph-name="Ntilde" unicode="&#xd1;" horiz-adv-x="1331" 
d="M106 0v1393h283l557 -875h4v875h273v-1393h-281l-557 844h-4v-844h-275zM319 1546q89 187 222 187q56 0 195 -68q47 -23 75 -23q65 0 133 84l70 -79q-81 -164 -203 -164q-39 0 -132 42t-132 42q-63 0 -146 -86z" />
    <glyph glyph-name="Ograve" unicode="&#xd2;" horiz-adv-x="1413" 
d="M86 707q0 252 79 418q87 184 290 252q109 36 252 36q279 0 429 -135q134 -120 172 -346q17 -101 17 -225q0 -205 -51 -364q-52 -162 -189.5 -262.5t-377.5 -100.5q-280 0 -430 141q-134 127 -173 358q-18 103 -18 228zM383 707q0 -182 35 -291q41 -128 151 -175
q58 -26 138 -26q155 0 232 93q65 80 82 241q7 68 7 158q0 179 -34 285q-40 119 -148 163q-59 23 -139 23q-154 0 -232 -86q-69 -75 -85 -229q-7 -67 -7 -156zM459 1700h219l113 -246h-144z" />
    <glyph glyph-name="Oacute" unicode="&#xd3;" horiz-adv-x="1413" 
d="M86 707q0 252 79 418q87 184 290 252q109 36 252 36q279 0 429 -135q134 -120 172 -346q17 -101 17 -225q0 -205 -51 -364q-52 -162 -189.5 -262.5t-377.5 -100.5q-280 0 -430 141q-134 127 -173 358q-18 103 -18 228zM383 707q0 -182 35 -291q41 -128 151 -175
q58 -26 138 -26q155 0 232 93q65 80 82 241q7 68 7 158q0 179 -34 285q-40 119 -148 163q-59 23 -139 23q-154 0 -232 -86q-69 -75 -85 -229q-7 -67 -7 -156zM629 1477l112 245h220l-189 -245h-143z" />
    <glyph glyph-name="Ocircumflex" unicode="&#xd4;" horiz-adv-x="1413" 
d="M86 707q0 252 79 418q87 184 290 252q109 36 252 36q279 0 429 -135q134 -120 172 -346q17 -101 17 -225q0 -205 -51 -364q-52 -162 -189.5 -262.5t-377.5 -100.5q-280 0 -430 141q-134 127 -173 358q-18 103 -18 228zM383 707q0 -182 35 -291q41 -128 151 -175
q58 -26 138 -26q155 0 232 93q65 80 82 241q7 68 7 158q0 179 -34 285q-40 119 -148 163q-59 23 -139 23q-154 0 -232 -86q-69 -75 -85 -229q-7 -67 -7 -156zM403 1495l224 246h157l224 -246h-144l-159 133l-158 -133h-144z" />
    <glyph glyph-name="Otilde" unicode="&#xd5;" horiz-adv-x="1413" 
d="M86 707q0 252 79 418q87 184 290 252q109 36 252 36q279 0 429 -135q134 -120 172 -346q17 -101 17 -225q0 -205 -51 -364q-52 -162 -189.5 -262.5t-377.5 -100.5q-280 0 -430 141q-134 127 -173 358q-18 103 -18 228zM360 1546q89 187 222 187q56 0 195 -68
q47 -23 75 -23q65 0 133 84l70 -79q-81 -164 -203 -164q-39 0 -132 42t-132 42q-63 0 -146 -86zM383 707q0 -182 35 -291q41 -128 151 -175q58 -26 138 -26q155 0 232 93q65 80 82 241q7 68 7 158q0 179 -34 285q-40 119 -148 163q-59 23 -139 23q-154 0 -232 -86
q-69 -75 -85 -229q-7 -67 -7 -156z" />
    <glyph glyph-name="Odieresis" unicode="&#xd6;" horiz-adv-x="1413" 
d="M86 707q0 252 79 418q87 184 290 252q109 36 252 36q279 0 429 -135q134 -120 172 -346q17 -101 17 -225q0 -205 -51 -364q-52 -162 -189.5 -262.5t-377.5 -100.5q-280 0 -430 141q-134 127 -173 358q-18 103 -18 228zM350 1501v236h219v-236h-219zM383 707
q0 -182 35 -291q41 -128 151 -175q58 -26 138 -26q155 0 232 93q65 80 82 241q7 68 7 158q0 179 -34 285q-40 119 -148 163q-59 23 -139 23q-154 0 -232 -86q-69 -75 -85 -229q-7 -67 -7 -156zM842 1501v236h219v-236h-219z" />
    <glyph glyph-name="multiply" unicode="&#xd7;" horiz-adv-x="1044" 
d="M86 262l281 281l-281 280l156 156l280 -281l281 281l155 -156l-280 -280l280 -281l-155 -156l-281 281l-280 -281z" />
    <glyph glyph-name="Oslash" unicode="&#xd8;" horiz-adv-x="1413" 
d="M72 -8l149 188q-135 180 -135 527q0 252 79 418q87 184 290 252q109 36 252 36q246 0 399 -117l151 195l82 -66l-157 -198q143 -167 143 -520q0 -205 -51 -364q-52 -162 -189.5 -262.5t-377.5 -100.5q-264 0 -412 129l-141 -183zM383 707q0 -184 37 -275l520 655
q-75 91 -233 91q-154 0 -232 -86q-69 -75 -85 -229q-7 -67 -7 -156zM465 319q72 -104 242 -104q155 0 232 93q65 80 82 241q7 68 7 158q0 180 -39 276z" />
    <glyph glyph-name="Ugrave" unicode="&#xd9;" horiz-adv-x="1310" 
d="M106 492v901h283v-901q0 -121 50 -193q58 -84 218 -84q156 0 214 83q51 73 51 194v901h280v-901q0 -269 -150 -393q-143 -119 -397 -119t-397 119q-152 124 -152 393zM397 1700h219l113 -246h-143z" />
    <glyph glyph-name="Uacute" unicode="&#xda;" horiz-adv-x="1310" 
d="M106 492v901h283v-901q0 -121 50 -193q58 -84 218 -84q156 0 214 83q51 73 51 194v901h280v-901q0 -269 -150 -393q-143 -119 -397 -119t-397 119q-152 124 -152 393zM580 1477l112 245h219l-188 -245h-143z" />
    <glyph glyph-name="Ucircumflex" unicode="&#xdb;" horiz-adv-x="1310" 
d="M106 492v901h283v-901q0 -121 50 -193q58 -84 218 -84q156 0 214 83q51 73 51 194v901h280v-901q0 -269 -150 -393q-143 -119 -397 -119t-397 119q-152 124 -152 393zM352 1495l223 246h158l223 -246h-143l-160 133l-157 -133h-144z" />
    <glyph glyph-name="Udieresis" unicode="&#xdc;" horiz-adv-x="1310" 
d="M106 492v901h283v-901q0 -121 50 -193q58 -84 218 -84q156 0 214 83q51 73 51 194v901h280v-901q0 -269 -150 -393q-143 -119 -397 -119t-397 119q-152 124 -152 393zM299 1501v236h219v-236h-219zM791 1501v236h219v-236h-219z" />
    <glyph glyph-name="Yacute" unicode="&#xdd;" horiz-adv-x="1269" 
d="M45 1393h322l274 -617h4l273 617h305l-447 -901v-492h-282v492zM582 1477l112 245h219l-188 -245h-143z" />
    <glyph glyph-name="Thorn" unicode="&#xde;" horiz-adv-x="1228" 
d="M106 0v1393h283v-236h297q212 0 341 -118q134 -122 134 -332q0 -212 -133 -333q-128 -118 -342 -118h-297v-256h-283zM389 506h266q217 0 217 201q0 198 -217 198h-266v-399z" />
    <glyph glyph-name="germandbls" unicode="&#xdf;" horiz-adv-x="1320" 
d="M31 834v174l137 16q0 183 100 285q89 89 242 114q67 11 145 11q199 0 318 -68q127 -74 127 -240q0 -103 -62 -174q-52 -59 -115 -109.5t-63 -94.5q0 -60 88 -93q316 -117 316 -340q0 -181 -136 -261q-125 -74 -301 -74q-139 0 -264 40l33 205q124 -41 223 -41
q164 0 164 127q0 65 -58 108q-49 36 -112 66q-30 14 -47 23q-85 47 -115 81q-43 49 -43 130q0 79 65 151q38 39 101 128q19 38 19 81q0 144 -160 144q-199 0 -199 -256v-967h-266v834h-137z" />
    <glyph glyph-name="agrave" unicode="&#xe0;" horiz-adv-x="1034" 
d="M55 295q0 142 94 221q80 68 214 89q58 9 122 9h195v72q0 137 -199 137q-136 0 -321 -39l-39 213q235 47 422 47q201 0 298 -68q105 -74 105 -276v-700h-266v102h-4q-118 -122 -303 -122q-144 0 -231 85.5t-87 229.5zM291 1393h219l113 -246h-144zM322 317
q0 -133 159 -133q117 0 199 64v207h-178q-180 0 -180 -138z" />
    <glyph glyph-name="aacute" unicode="&#xe1;" horiz-adv-x="1034" 
d="M55 295q0 142 94 221q80 68 214 89q58 9 122 9h195v72q0 137 -199 137q-136 0 -321 -39l-39 213q235 47 422 47q201 0 298 -68q105 -74 105 -276v-700h-266v102h-4q-118 -122 -303 -122q-144 0 -231 85.5t-87 229.5zM322 317q0 -133 159 -133q117 0 199 64v207h-178
q-180 0 -180 -138zM446 1147l113 246h219l-188 -246h-144z" />
    <glyph glyph-name="acircumflex" unicode="&#xe2;" horiz-adv-x="1034" 
d="M55 295q0 142 94 221q80 68 214 89q58 9 122 9h195v72q0 137 -199 137q-136 0 -321 -39l-39 213q235 47 422 47q201 0 298 -68q105 -74 105 -276v-700h-266v102h-4q-118 -122 -303 -122q-144 0 -231 85.5t-87 229.5zM233 1147l224 246h157l224 -246h-144l-159 133
l-158 -133h-144zM322 317q0 -133 159 -133q117 0 199 64v207h-178q-180 0 -180 -138z" />
    <glyph glyph-name="atilde" unicode="&#xe3;" horiz-adv-x="1034" 
d="M55 295q0 142 94 221q80 68 214 89q58 9 122 9h195v72q0 137 -199 137q-136 0 -321 -39l-39 213q235 47 422 47q201 0 298 -68q105 -74 105 -276v-700h-266v102h-4q-118 -122 -303 -122q-144 0 -231 85.5t-87 229.5zM205 1198q89 186 221 186q54 0 195 -67q47 -23 75 -23
q65 0 133 84l70 -80q-81 -163 -203 -163q-39 0 -132 42t-132 42q-62 0 -145 -86zM322 317q0 -133 159 -133q117 0 199 64v207h-178q-180 0 -180 -138z" />
    <glyph glyph-name="adieresis" unicode="&#xe4;" horiz-adv-x="1034" 
d="M55 295q0 142 94 221q80 68 214 89q58 9 122 9h195v72q0 137 -199 137q-136 0 -321 -39l-39 213q235 47 422 47q201 0 298 -68q105 -74 105 -276v-700h-266v102h-4q-118 -122 -303 -122q-144 0 -231 85.5t-87 229.5zM180 1157v236h219v-236h-219zM322 317
q0 -133 159 -133q117 0 199 64v207h-178q-180 0 -180 -138zM672 1157v236h219v-236h-219z" />
    <glyph glyph-name="aring" unicode="&#xe5;" horiz-adv-x="1034" 
d="M55 295q0 142 94 221q80 68 214 89q58 9 122 9h195v72q0 137 -199 137q-136 0 -321 -39l-39 213q235 47 422 47q201 0 298 -68q105 -74 105 -276v-700h-266v102h-4q-118 -122 -303 -122q-144 0 -231 85.5t-87 229.5zM322 317q0 -133 159 -133q117 0 199 64v207h-178
q-180 0 -180 -138zM365 1270q0 69 46.5 113t116.5 44q71 0 117.5 -43.5t46.5 -113.5t-46.5 -115t-117.5 -45q-70 0 -116.5 45.5t-46.5 114.5zM449 1270q0 -84 79 -84q80 0 80 84t-80 84q-35 0 -57 -24.5t-22 -59.5z" />
    <glyph glyph-name="ae" unicode="&#xe6;" horiz-adv-x="1699" 
d="M55 295q0 133 74 203.5t169 93t187 22.5h195v72q0 137 -199 137q-136 0 -321 -39q-6 36 -19.5 106.5t-19.5 106.5q188 38 358 45q64 3 115 -10q192 -19 266 -119q118 131 348 131q178 0 284 -66q92 -58 129 -170q24 -73 24 -182q0 -71 -15 -171h-659q11 -256 280 -256
q173 0 320 41l31 -211q-170 -49 -390 -49q-322 0 -448 190q-164 -190 -391 -190q-145 0 -231.5 85t-86.5 230zM322 317q0 -133 159 -133q126 0 215 78q-16 91 -16 193h-178q-180 0 -180 -138zM971 623h397q5 31 5 57q0 160 -181 160q-204 0 -221 -217z" />
    <glyph glyph-name="ccedilla" unicode="&#xe7;" horiz-adv-x="983" 
d="M66 512q0 250 115 386q122 146 413 146q164 0 358 -49l-47 -213q-148 35 -232 40q-30 1 -79 1q-246 0 -246 -311q0 -313 246 -313q89 0 170 13q61 9 141 28l47 -211q-181 -46 -346 -49v-89q170 -20 170 -149q0 -82 -66 -125q-56 -37 -143 -37q-80 0 -166 25l17 84
q72 -13 96 -13q98 0 98 80q0 72 -104 84v144q-242 20 -345 163q-97 134 -97 365z" />
    <glyph glyph-name="egrave" unicode="&#xe8;" 
d="M66 512q0 248 118 387q124 145 410 145q392 0 430 -331q12 -105 -8 -258h-660q11 -256 281 -256q172 0 319 41l31 -211q-170 -49 -389 -49q-532 0 -532 532zM332 1393h219l113 -246h-144zM356 623h398q7 46 4 79q-14 138 -180 138q-205 0 -222 -217z" />
    <glyph glyph-name="eacute" unicode="&#xe9;" 
d="M66 512q0 248 118 387q124 145 410 145q392 0 430 -331q12 -105 -8 -258h-660q11 -256 281 -256q172 0 319 41l31 -211q-170 -49 -389 -49q-532 0 -532 532zM356 623h398q7 46 4 79q-14 138 -180 138q-205 0 -222 -217zM535 1147l112 246h219l-188 -246h-143z" />
    <glyph glyph-name="ecircumflex" unicode="&#xea;" 
d="M66 512q0 248 118 387q124 145 410 145q392 0 430 -331q12 -105 -8 -258h-660q11 -256 281 -256q172 0 319 41l31 -211q-170 -49 -389 -49q-532 0 -532 532zM240 1147l223 246h158l223 -246h-144l-159 133l-158 -133h-143zM356 623h398q7 46 4 79q-14 138 -180 138
q-205 0 -222 -217z" />
    <glyph glyph-name="edieresis" unicode="&#xeb;" 
d="M66 512q0 248 118 387q124 145 410 145q392 0 430 -331q12 -105 -8 -258h-660q11 -256 281 -256q172 0 319 41l31 -211q-170 -49 -389 -49q-532 0 -532 532zM186 1157v236h220v-236h-220zM356 623h398q7 46 4 79q-14 138 -180 138q-205 0 -222 -217zM678 1157v236h219
v-236h-219z" />
    <glyph glyph-name="igrave" unicode="&#xec;" horiz-adv-x="440" 
d="M-33 1393h219l113 -246h-143zM86 0v1024h266v-1024h-266z" />
    <glyph glyph-name="iacute" unicode="&#xed;" horiz-adv-x="440" 
d="M86 0v1024h266v-1024h-266zM154 1147l112 246h219l-188 -246h-143z" />
    <glyph glyph-name="icircumflex" unicode="&#xee;" horiz-adv-x="440" 
d="M-82 1147l223 246h158l223 -246h-143l-160 133l-158 -133h-143zM86 0v1024h266v-1024h-266z" />
    <glyph glyph-name="idieresis" unicode="&#xef;" horiz-adv-x="440" 
d="M-135 1157v236h219v-236h-219zM86 0v1024h266v-1024h-266zM356 1157v236h219v-236h-219z" />
    <glyph glyph-name="eth" unicode="&#xf0;" horiz-adv-x="1126" 
d="M66 451q0 216 104 343q113 138 324 138q176 0 294 -146l5 2q0 199 -97 302l-112 -113l-90 92l86 86q-69 37 -150 37q-139 0 -289 -55l-32 204q175 72 344 72q179 0 307 -78l151 150l90 -90l-135 -135q193 -193 193 -646q0 -213 -73 -365q-82 -171 -242 -234
q-88 -35 -197 -35q-217 0 -349 127.5t-132 343.5zM348 451q0 -107 52 -176q57 -76 161 -76q140 0 184 125q30 86 30 189q0 38 -5 77q-93 110 -205 110q-125 0 -175 -83q-42 -71 -42 -166z" />
    <glyph glyph-name="ntilde" unicode="&#xf1;" 
d="M86 0v1024h266v-133h4q143 153 334 153q307 0 307 -344v-700h-266v639q0 184 -164 184q-94 0 -215 -78v-745h-266zM197 1198q89 186 221 186q54 0 195 -67q47 -23 75 -23q65 0 133 84l70 -80q-81 -163 -203 -163q-39 0 -132 42t-132 42q-62 0 -145 -86z" />
    <glyph glyph-name="ograve" unicode="&#xf2;" horiz-adv-x="1126" 
d="M563 -20q-497 0 -497 532t497 532q496 0 496 -532t-496 -532zM319 1393h220l112 -246h-143zM348 512q0 -313 215 -313t215 313q0 311 -215 311t-215 -311z" />
    <glyph glyph-name="oacute" unicode="&#xf3;" horiz-adv-x="1126" 
d="M563 -20q-497 0 -497 532t497 532q496 0 496 -532t-496 -532zM348 512q0 -313 215 -313t215 313q0 311 -215 311t-215 -311zM487 1147l113 246h219l-188 -246h-144z" />
    <glyph glyph-name="ocircumflex" unicode="&#xf4;" horiz-adv-x="1126" 
d="M563 -20q-497 0 -497 532t497 532q496 0 496 -532t-496 -532zM260 1147l223 246h158l223 -246h-143l-160 133l-158 -133h-143zM348 512q0 -313 215 -313t215 313q0 311 -215 311t-215 -311z" />
    <glyph glyph-name="otilde" unicode="&#xf5;" horiz-adv-x="1126" 
d="M563 -20q-497 0 -497 532t497 532q496 0 496 -532t-496 -532zM348 512q0 -313 215 -313t215 313q0 311 -215 311t-215 -311zM274 1147l113 246h219l-188 -246h-144zM629 1147l113 246h219l-188 -246h-144z" />
    <glyph glyph-name="odieresis" unicode="&#xf6;" horiz-adv-x="1126" 
d="M563 -20q-497 0 -497 532t497 532q496 0 496 -532t-496 -532zM199 1157v236h219v-236h-219zM348 512q0 -313 215 -313t215 313q0 311 -215 311t-215 -311zM690 1157v236h219v-236h-219z" />
    <glyph glyph-name="divide" unicode="&#xf7;" horiz-adv-x="1024" 
d="M86 432v221h850v-221h-850zM393 72v266h236v-266h-236zM393 748v266h236v-266h-236z" />
    <glyph glyph-name="oslash" unicode="&#xf8;" horiz-adv-x="1126" 
d="M51 -8l119 141q-104 129 -104 379q0 532 497 532q189 0 311 -88l119 142l82 -66l-123 -141q107 -136 107 -379q0 -532 -496 -532q-195 0 -311 86l-119 -140zM348 512q0 -86 23 -145l340 399q-51 57 -148 57q-215 0 -215 -311zM414 256q51 -57 149 -57q215 0 215 313
q0 84 -24 145z" />
    <glyph glyph-name="ugrave" unicode="&#xf9;" 
d="M86 322v702h266v-641q0 -184 164 -184q91 0 215 80v745h266v-1024h-266v133h-4q-143 -153 -334 -153q-154 0 -233 96q-74 89 -74 246zM268 1393h219l113 -246h-143z" />
    <glyph glyph-name="uacute" unicode="&#xfa;" 
d="M86 322v702h266v-641q0 -184 164 -184q91 0 215 80v745h266v-1024h-266v133h-4q-143 -153 -334 -153q-154 0 -233 96q-74 89 -74 246zM467 1147l113 246h219l-189 -246h-143z" />
    <glyph glyph-name="ucircumflex" unicode="&#xfb;" 
d="M86 322v702h266v-641q0 -184 164 -184q91 0 215 80v745h266v-1024h-266v133h-4q-143 -153 -334 -153q-154 0 -233 96q-74 89 -74 246zM240 1147l223 246h158l223 -246h-144l-159 133l-158 -133h-143z" />
    <glyph glyph-name="udieresis" unicode="&#xfc;" 
d="M86 322v702h266v-641q0 -184 164 -184q91 0 215 80v745h266v-1024h-266v133h-4q-143 -153 -334 -153q-154 0 -233 96q-74 89 -74 246zM186 1157v236h220v-236h-220zM678 1157v236h219v-236h-219z" />
    <glyph glyph-name="yacute" unicode="&#xfd;" horiz-adv-x="1146" 
d="M51 1024h297l234 -748h4l227 748h283l-363 -1061q-68 -198 -158 -285q-110 -108 -299 -108q-104 0 -184 18l25 219q52 -10 98 -10q150 0 215 189zM516 1147l113 246h219l-189 -246h-143z" />
    <glyph glyph-name="thorn" unicode="&#xfe;" 
d="M86 -410v1844h266v-512h4q111 122 289 122q373 0 373 -532q0 -231 -86 -375q-94 -157 -303 -157q-168 0 -273 114h-4v-504h-266zM352 264q79 -65 185 -65q115 0 160 92q40 83 40 221q0 311 -200 311q-102 0 -185 -63v-496z" />
    <glyph glyph-name="ydieresis" unicode="&#xff;" horiz-adv-x="1146" 
d="M51 1024h297l234 -748h4l227 748h283l-363 -1061q-68 -198 -158 -285q-110 -108 -299 -108q-104 0 -184 18l25 219q52 -10 98 -10q150 0 215 189zM217 1157v236h219v-236h-219zM709 1157v236h219v-236h-219z" />
    <glyph glyph-name="OE" unicode="&#x152;" horiz-adv-x="2060" 
d="M86 707q0 252 79 418q87 184 290 252q109 36 252 36q212 0 319 -153h2v133h936v-252h-661v-297h569v-250h-569v-344h671v-250h-946v137h-2q-78 -157 -319 -157q-214 0 -352 83q-123 73 -189 212q-58 120 -73 282q-7 70 -7 150zM383 707q0 -182 35 -291q41 -128 151 -175
q58 -26 138 -26q155 0 232 93q65 80 82 244q7 69 7 161q0 175 -35 282q-40 117 -149 160q-58 23 -137 23q-154 0 -232 -86q-69 -75 -85 -229q-7 -67 -7 -156z" />
    <glyph glyph-name="oe" unicode="&#x153;" horiz-adv-x="1798" 
d="M563 -20q-497 0 -497 532t497 532q245 0 359 -163q121 163 385 163q438 0 438 -407q0 -68 -16 -182h-660q13 -256 281 -256q174 0 319 41l33 -211q-172 -49 -389 -49q-272 0 -391 161q-113 -161 -359 -161zM348 512q0 -313 215 -313t215 313q0 311 -215 311t-215 -311z
M1069 623h397q7 40 7 61q0 156 -181 156q-203 0 -223 -217z" />
    <glyph glyph-name="Ydieresis" unicode="&#x178;" horiz-adv-x="1269" 
d="M45 1393h322l274 -617h4l273 617h305l-447 -901v-492h-282v492zM279 1501v236h219v-236h-219zM770 1501v236h219v-236h-219z" />
    <glyph glyph-name="circumflex" unicode="&#x2c6;" horiz-adv-x="829" 
d="M113 1147l223 246h158l223 -246h-144l-159 133l-158 -133h-143z" />
    <glyph glyph-name="tilde" unicode="&#x2dc;" horiz-adv-x="919" 
d="M113 1198q89 186 221 186q54 0 195 -67q47 -23 75 -23q65 0 133 84l70 -80q-81 -163 -203 -163q-39 0 -132 42t-132 42q-62 0 -145 -86z" />
    <glyph glyph-name="uni2000" unicode="&#x2000;" horiz-adv-x="896" 
 />
    <glyph glyph-name="uni2001" unicode="&#x2001;" horiz-adv-x="1792" 
 />
    <glyph glyph-name="uni2002" unicode="&#x2002;" horiz-adv-x="896" 
 />
    <glyph glyph-name="uni2003" unicode="&#x2003;" horiz-adv-x="1792" 
 />
    <glyph glyph-name="uni2004" unicode="&#x2004;" horiz-adv-x="597" 
 />
    <glyph glyph-name="uni2005" unicode="&#x2005;" horiz-adv-x="448" 
 />
    <glyph glyph-name="uni2006" unicode="&#x2006;" horiz-adv-x="298" 
 />
    <glyph glyph-name="uni2007" unicode="&#x2007;" horiz-adv-x="298" 
 />
    <glyph glyph-name="uni2008" unicode="&#x2008;" horiz-adv-x="224" 
 />
    <glyph glyph-name="uni2009" unicode="&#x2009;" horiz-adv-x="358" 
 />
    <glyph glyph-name="uni200A" unicode="&#x200a;" horiz-adv-x="99" 
 />
    <glyph glyph-name="uni2010" unicode="&#x2010;" horiz-adv-x="1024" 
d="M86 432v221h850v-221h-850z" />
    <glyph glyph-name="uni2011" unicode="&#x2011;" horiz-adv-x="1024" 
d="M86 432v221h850v-221h-850z" />
    <glyph glyph-name="figuredash" unicode="&#x2012;" horiz-adv-x="1024" 
d="M86 432v221h850v-221h-850z" />
    <glyph glyph-name="endash" unicode="&#x2013;" horiz-adv-x="1427" 
d="M86 432v221h1255v-221h-1255z" />
    <glyph glyph-name="emdash" unicode="&#x2014;" horiz-adv-x="1556" 
d="M86 432v221h1382v-221h-1382z" />
    <glyph glyph-name="quoteleft" unicode="&#x2018;" horiz-adv-x="440" 
d="M86 829v297l129 267h82l-51 -267h106v-297h-266z" />
    <glyph glyph-name="quoteright" unicode="&#x2019;" horiz-adv-x="440" 
d="M86 1096v297h266v-297l-127 -267h-82l52 267h-109z" />
    <glyph glyph-name="quotesinglbase" unicode="&#x201a;" horiz-adv-x="440" 
d="M86 -92v297h266v-297l-127 -266h-82l52 266h-109z" />
    <glyph glyph-name="quotedblleft" unicode="&#x201c;" horiz-adv-x="890" 
d="M86 829v297l129 267h82l-51 -267h106v-297h-266zM537 829v297q61 135 129 267h82l-52 -267h107v-297h-266z" />
    <glyph glyph-name="quotedblright" unicode="&#x201d;" horiz-adv-x="890" 
d="M86 1096v297h266v-297l-127 -267h-82l52 267h-109zM537 1096v297h266v-297l-127 -267h-82l51 267h-108z" />
    <glyph glyph-name="quotedblbase" unicode="&#x201e;" horiz-adv-x="890" 
d="M86 -92v297h266v-297l-127 -266h-82l52 266h-109zM537 -92v297h266v-297l-127 -266h-82l51 266h-108z" />
    <glyph glyph-name="bullet" unicode="&#x2022;" horiz-adv-x="522" 
d="M127 362v297h266v-297h-266z" />
    <glyph glyph-name="ellipsis" unicode="&#x2026;" horiz-adv-x="1259" 
d="M86 0v297h266v-297h-266zM496 0v297h266v-297h-266zM905 0v297h266v-297h-266z" />
    <glyph glyph-name="uni202F" unicode="&#x202f;" horiz-adv-x="358" 
 />
    <glyph glyph-name="guilsinglleft" unicode="&#x2039;" horiz-adv-x="778" 
d="M86 432v160l604 344v-236l-321 -188l321 -188v-238z" />
    <glyph glyph-name="guilsinglright" unicode="&#x203a;" horiz-adv-x="778" 
d="M86 86v238l324 188l-324 188v236l604 -344v-160z" />
    <glyph glyph-name="uni205F" unicode="&#x205f;" horiz-adv-x="448" 
 />
    <glyph glyph-name="Euro" unicode="&#x20ac;" horiz-adv-x="1433" 
d="M82 473v160h145q-2 23 -2 74v53h-143v160h166q50 233 204.5 363t391.5 130q288 0 508 -174l-95 -213q-181 135 -366 135q-247 0 -330 -241h361l-19 -160h-381v-53q0 -51 2 -74h398l-19 -160h-336q85 -244 324 -244q181 0 366 138l95 -213q-220 -174 -508 -174
q-233 0 -388 133q-148 128 -204 360h-170z" />
    <glyph glyph-name="trademark" unicode="&#x2122;" horiz-adv-x="1628" 
d="M72 1251v142h561v-142h-201v-563h-160v563h-200zM774 688v705h223l174 -441h3l159 441h223v-705h-159v442h-4l-172 -442h-123l-170 442h-2v-442h-152z" />
    <glyph glyph-name="uni25FC" unicode="&#x25fc;" horiz-adv-x="1024" 
d="M0 0v1024h1024v-1024h-1024z" />
    <glyph glyph-name="uniFB01" unicode="&#xfb01;" horiz-adv-x="1126" 
d="M31 834v174l137 16v49q0 168 91 261q98 100 339 100q82 0 198 -18q125 -19 191 -46l-24 -190q-140 41 -334 41q-130 0 -165 -44q-30 -37 -30 -104v-49h604v-1024h-266v834h-338v-834h-266v834h-137z" />
    <glyph glyph-name="uniFB02" unicode="&#xfb02;" horiz-adv-x="1126" 
d="M31 834v174l137 16v49q0 168 91 261q98 100 339 100q149 0 252 -33h188v-1401h-266v1198q-72 23 -143 23q-130 0 -165 -44q-30 -37 -30 -104v-49h225v-190h-225v-834h-266v834h-137z" />
    <glyph glyph-name="uniFB03" unicode="&#xfb03;" horiz-adv-x="1730" 
d="M31 834v174l137 16v96q0 167 79 242q76 72 245 72q70 0 178 -19l-23 -205q-72 11 -94 11q-119 0 -119 -148v-49h338v49q0 168 91 261q98 100 339 100q82 0 198 -18q125 -19 191 -46l-24 -190q-140 41 -334 41q-130 0 -165 -44q-30 -37 -30 -104v-49h604v-1024h-266v834
h-338v-834h-266v834h-338v-834h-266v834h-137z" />
    <glyph glyph-name="uniFB04" unicode="&#xfb04;" horiz-adv-x="1730" 
d="M1142 834v174l137 16v96q0 167 79 242q76 72 245 72q70 0 178 -19l-23 -205q-72 11 -94 11q-119 0 -119 -148v-49h338v49q0 168 91 261q98 100 339 100q149 0 252 -33h188v-1401h-266v1198q-72 23 -143 23q-130 0 -165 -44q-30 -37 -30 -104v-49h226v-190h-226v-834h-266
v834h-338v-834h-266v834h-137z" />
  </font>
</defs>
</svg>
