<?xml version="1.0" encoding="UTF-8" standalone="no"?>
<svg width="322px" height="304px" viewBox="0 0 322 304" version="1.1" xmlns="http://www.w3.org/2000/svg" xmlns:xlink="http://www.w3.org/1999/xlink" xmlns:sketch="http://www.bohemiancoding.com/sketch/ns">
    <!-- Generator: Sketch 3.0.2 (7799) - http://www.bohemiancoding.com/sketch -->
    <title>bigapplogo</title>
    <description>Created with Sketch.</description>
    <defs></defs>
    <g id="Welcome" stroke="none" stroke-width="1" fill="none" fill-rule="evenodd" sketch:type="MSPage">
        <g id="Mobile-Portrait" sketch:type="MSArtboardGroup" transform="translate(1.000000, 1.000000)" fill="#0A0B09">
            <g id="menu" sketch:type="MSLayerGroup" transform="translate(-106.000000, -205.000000)">
                <g id="bigapplogo" transform="translate(293.628906, 296.976562) rotate(-332.000000) translate(-293.628906, -296.976562) translate(78.628906, 74.976562)" sketch:type="MSShapeGroup">
                    <path d="M309,162.067767 C309,165.143678 307.96038,167.734886 305.876599,169.843688 C303.792819,171.943302 301.14837,173 297.934173,173 C296.465539,173 295.049113,172.715151 293.712134,172.143155 C292.361535,171.573457 291.19253,170.8085 290.196038,169.843688 C289.197276,168.869688 288.407346,167.734886 287.851217,166.411716 C287.281469,165.09314 287,163.643625 287,162.067767 C287,160.487313 287.281469,159.035502 287.851217,157.72152 C288.407346,156.39835 289.197276,155.240576 290.196038,154.229821 C291.19253,153.219067 292.361535,152.426543 293.712134,151.863736 C295.049113,151.289443 296.465539,151 297.934173,151 C301.14837,151 303.792819,152.058996 305.876599,154.165501 C307.96038,156.269709 309,158.899969 309,162.067767" id="Fill-3"></path>
                    <path d="M173,395.528807 C173,397.06668 172.478694,398.36523 171.436081,399.417808 C170.397849,400.470387 169.063919,401 167.464954,401 C166.726802,401 166.025886,400.855963 165.353445,400.567889 C164.674432,400.282031 164.085225,399.900886 163.592393,399.417808 C163.084229,398.93473 162.696535,398.36523 162.42055,397.702659 C162.135802,397.046737 162,396.317687 162,395.528807 C162,394.739927 162.135802,394.01531 162.42055,393.359388 C162.696535,392.692385 163.084229,392.118453 163.592393,391.610999 C164.085225,391.110193 164.674432,390.713537 165.353445,390.423247 C166.025886,390.139605 166.726802,390 167.464954,390 C169.063919,390 170.397849,390.525181 171.436081,391.582192 C172.478694,392.630338 173,393.951048 173,395.528807" id="Fill-4"></path>
                    <path d="M167,326.531036 C167,328.069528 166.47859,329.364168 165.431388,330.421604 C164.401713,331.46574 163.069707,332 161.461661,332 C160.727743,332 160.020116,331.847037 159.349731,331.572148 C158.674965,331.281741 158.090022,330.900443 157.588329,330.421604 C157.093209,329.933898 156.701056,329.364168 156.425015,328.703547 C156.13802,328.042926 156,327.320234 156,326.531036 C156,325.737404 156.13802,325.012495 156.425015,324.351874 C156.701056,323.695687 157.093209,323.11709 157.588329,322.611649 C158.090022,322.106207 158.674965,321.713825 159.349731,321.423418 C160.020116,321.144095 160.727743,321 161.461661,321 C163.069707,321 164.401713,321.525393 165.431388,322.578396 C166.47859,323.635832 167,324.95264 167,326.531036" id="Fill-5"></path>
                    <path d="M219,266.533253 C219,268.073962 218.489544,269.370818 217.43577,270.428255 C216.399522,271.474607 215.069707,272 213.466043,272 C212.71898,272 212.026688,271.860339 211.354113,271.574365 C210.679347,271.290609 210.090022,270.904877 209.592711,270.428255 C209.099781,269.942765 208.701056,269.370818 208.420633,268.707981 C208.13583,268.049577 208,267.329101 208,266.533253 C208,265.744055 208.13583,265.019146 208.420633,264.360742 C208.701056,263.700121 209.099781,263.125957 209.592711,262.616082 C210.090022,262.115075 210.679347,261.718259 211.354113,261.425635 C212.026688,261.146312 212.71898,261 213.466043,261 C215.069707,261 216.399522,261.532044 217.43577,262.58283 C218.489544,263.635832 219,264.954857 219,266.533253" id="Fill-6"></path>
                    <path d="M111,191.532112 C111,193.07127 110.476816,194.366821 109.434826,195.418764 C108.397214,196.475136 107.070647,197 105.46607,197 C104.726169,197 104.027861,196.85605 103.355821,196.565935 C102.677214,196.289108 102.094925,195.903765 101.595821,195.418764 C101.096716,194.931548 100.709254,194.366821 100.426866,193.702436 C100.142289,193.044695 100,192.324945 100,191.532112 C100,190.743708 100.142289,190.019529 100.426866,189.359573 C100.709254,188.706261 101.096716,188.123817 101.595821,187.621099 C102.094925,187.111737 102.677214,186.71975 103.355821,186.436279 C104.027861,186.150594 104.726169,186 105.46607,186 C107.070647,186 108.397214,186.538152 109.434826,187.58788 C110.476816,188.639823 111,189.955305 111,191.532112" id="Fill-7"></path>
                    <path d="M161,143.533239 C161,145.071112 160.478901,146.360798 159.434514,147.417808 C158.396696,148.472603 157.069865,149 155.467158,149 C154.735868,149 154.026473,148.851531 153.354299,148.570105 C152.675557,148.282031 152.095342,147.900886 151.593949,147.417808 C151.103503,146.932514 150.707205,146.360798 150.422572,145.704875 C150.140127,145.044521 150,144.322119 150,143.533239 C150,142.742143 150.140127,142.017526 150.422572,141.35274 C150.707205,140.703465 151.103503,140.111805 151.593949,139.615431 C152.095342,139.110193 152.675557,138.715753 153.354299,138.427679 C154.026473,138.144037 154.735868,138 155.467158,138 C157.069865,138 158.396696,138.525181 159.434514,139.575544 C160.478901,140.63477 161,141.953263 161,143.533239" id="Fill-8"></path>
                    <path d="M256,110.538787 C256,112.072537 255.478798,113.362482 254.436393,114.419706 C253.396178,115.476929 252.071272,116 250.468246,116 C249.730241,116 249.020705,115.85815 248.357157,115.572235 C247.6739,115.288535 247.09576,114.902881 246.592076,114.419706 C246.103723,113.93653 245.709536,113.362482 245.420466,112.713077 C245.142345,112.043724 245,111.321177 245,110.538787 C245,109.745315 245.142345,109.024985 245.420466,108.360064 C245.709536,107.706226 246.103723,107.123313 246.592076,106.615757 C247.09576,106.11485 247.6739,105.718114 248.357157,105.427765 C249.020705,105.148499 249.730241,105 250.468246,105 C252.071272,105 253.396178,105.531936 254.436393,106.578078 C255.478798,107.635301 256,108.956276 256,110.538787" id="Fill-9"></path>
                    <path d="M344.180758,212.925776 L390.986137,233.545911 C392.323369,234.312534 393.151503,234.951012 393.49769,235.468089 C393.830301,235.989663 394,236.915905 394,238.240072 L394,247.909414 C394,248.67154 393.830301,249.262807 393.49769,249.694454 C393.151503,250.123853 392.465917,250.101371 391.416043,249.622513 L327.285478,220.463861 C325.952771,219.798405 324.94815,219.166672 324.278403,218.543931 C323.619969,217.930183 323.185538,217.100612 323,216.052969 L323,211.22167 C323,209.609739 323.346187,208.463176 324.061187,207.808961 C324.780713,207.143506 325.860002,206.480298 327.285478,205.810346 L391.271232,176.370674 C392.418401,175.898561 393.151503,175.880575 393.49769,176.298733 C393.830301,176.73038 394,177.416069 394,178.367042 L394,187.463102 C394,188.512993 393.850664,189.367295 393.565569,190.02151 C393.278212,190.686965 392.615252,191.262495 391.560853,191.730112 L344.180758,212.925776" id="Fill-14"></path>
                    <path d="M140.681912,346.061034 C139.956601,345.720216 139.498511,345.329412 139.303148,344.856811 C139.107786,344.393299 139,343.79346 139,343.061838 L139,336.659009 C139,335.993278 139.110032,335.509317 139.343568,335.21167 C139.574859,334.914022 140.089088,334.929927 140.881765,335.261656 L185.031392,355.949292 C186.021676,356.41962 186.762706,356.887676 187.25448,357.348916 C187.748499,357.821517 188,358.61903 188,359.748273 L188,363.147362 C187.867513,363.878984 187.559874,364.462918 187.108519,364.896893 C186.643692,365.328595 185.95431,365.783019 185.031392,366.251075 L140.782961,386.736492 C140.055405,387.072765 139.574859,387.086398 139.343568,386.781934 C139.110032,386.491103 139,386.070761 139,385.532269 L139,378.74318 C139,377.807068 139.110032,377.159514 139.343568,376.789159 C139.574859,376.421076 140.156455,375.973468 141.072636,375.439521 L173.379268,360.941135 L140.681912,346.061034" id="Fill-15"></path>
                    <path d="M224.699699,310.316126 C225.398895,312.323822 224.878407,313.444711 223.124834,313.681043 L202.265124,318.974878 L216.106071,335.052204 C217.044289,335.999782 217.424044,336.796558 217.249803,337.43578 C217.066627,338.088506 216.519333,338.700719 215.58335,339.290423 L208.573522,344.58651 C207.402984,345.540841 206.556354,345.939229 206.022463,345.824439 C205.499742,345.716402 204.943513,345.061425 204.364945,343.884266 C204.130391,343.528643 203.491509,342.412256 202.432663,340.526102 C201.378285,338.644449 200.178707,336.639004 198.84063,334.52327 C197.500318,332.403035 196.267232,330.42685 195.163709,328.605968 C194.046783,326.778334 193.434708,325.688957 193.318548,325.337835 L182.265448,344.237639 C181.691348,345.419299 181.101612,346 180.514108,346 C179.931073,346 179.229644,345.716402 178.414288,345.122196 C178.175266,345.007406 177.717326,344.656284 177.011429,344.057576 C176.316701,343.470123 175.519216,342.821898 174.648013,342.117404 C173.77011,341.412909 172.948052,340.793945 172.190776,340.26051 C171.429033,339.733827 170.988964,339.344442 170.881739,339.119364 C169.93682,338.529659 169.4208,337.964714 169.297938,337.43578 C169.184012,336.906847 169.530259,336.16634 170.350082,335.227764 L184.199964,318.794816 L164.213691,313.681043 C163.166015,313.325419 162.486924,312.945037 162.198757,312.530894 C161.908356,312.119001 161.935162,311.274958 162.285877,309.971756 L164.915121,301.493066 C165.386463,299.48537 166.673162,298.960938 168.775217,299.899514 L188.229833,308.207144 L186.132246,286.475859 C185.897692,284.828287 186.831442,284 188.93573,284 L198.224086,284 C199.396859,284 200.122861,284.182313 200.415495,284.528933 C200.703662,284.886808 200.79525,285.530531 200.683557,286.475859 L198.751275,308.375953 L218.036119,299.899514 C219.316116,299.316561 220.227528,299.192768 220.756951,299.550643 C221.279672,299.899514 221.654959,300.543237 221.891747,301.493066 L224.699699,310.316126" id="Fill-16"></path>
                    <path d="M361.525276,168.289843 C361.199878,168.755194 360.457704,169 359.280924,169 L320.725762,169 C319.548982,169 318.804579,168.755194 318.485868,168.289843 C318.162699,167.804643 318,167.050377 318,165.996169 L318,153.012652 C318,151.843761 318.162699,151.058619 318.485868,150.635171 C318.804579,150.213929 319.548982,150 320.725762,150 L359.280924,150 C360.457704,150 361.199878,150.213929 361.525276,150.635171 C361.846216,151.058619 362,151.843761 362,153.012652 L362,165.996169 C362,167.050377 361.846216,167.804643 361.525276,168.289843" id="Fill-17"></path>
                    <path d="M139.793024,269.700716 C139.656507,269.900239 139.332831,270 138.826399,270 L122.180206,270 C121.669371,270 121.347897,269.900239 121.21138,269.700716 C121.072662,269.499071 121,269.176439 121,268.730698 L121,263.265057 C121,262.781109 121.072662,262.452109 121.21138,262.273813 C121.347897,262.097639 121.669371,262 122.180206,262 L138.826399,262 C139.332831,262 139.656507,262.097639 139.793024,262.273813 C139.933944,262.452109 140,262.781109 140,263.265057 L140,268.730698 C140,269.176439 139.933944,269.499071 139.793024,269.700716" id="Fill-18"></path>
                    <path d="M78.7952254,193.698113 C78.6543052,193.897954 78.3328312,194 77.8263994,194 L61.1780044,194 C60.6671688,194 60.3545023,193.897954 60.2091784,193.698113 C60.0682582,193.498273 60,193.177252 60,192.735052 L60,187.262822 C60,186.771725 60.0682582,186.437948 60.2091784,186.267871 C60.3545023,186.082913 60.6671688,186 61.1780044,186 L77.8263994,186 C78.3328312,186 78.6543052,186.082913 78.7952254,186.267871 C78.9317418,186.437948 79,186.771725 79,187.262822 L79,192.735052 C79,193.177252 78.9317418,193.498273 78.7952254,193.698113" id="Fill-19"></path>
                    <path d="M51.7973568,226.70457 C51.6629956,226.900106 51.339207,227 50.8303965,227 L34.1740088,227 C33.6696035,227 33.3480176,226.900106 33.2114537,226.70457 C33.0704846,226.498406 33,226.175345 33,225.731137 L33,220.260361 C33,219.777896 33.0704846,219.442083 33.2114537,219.261424 C33.3480176,219.091392 33.6696035,219 34.1740088,219 L50.8303965,219 C51.339207,219 51.6629956,219.091392 51.7973568,219.261424 C51.9405286,219.442083 52,219.777896 52,220.260361 L52,225.731137 C52,226.175345 51.9405286,226.498406 51.7973568,226.70457" id="Fill-20"></path>
                    <path d="M334.78862,193.698113 C334.656507,193.897954 334.332831,194 333.826399,194 L317.178004,194 C316.667169,194 316.343493,193.897954 316.202573,193.698113 C316.07046,193.498273 316,193.177252 316,192.735052 L316,187.262822 C316,186.771725 316.07046,186.437948 316.202573,186.267871 C316.343493,186.082913 316.667169,186 317.178004,186 L333.826399,186 C334.332831,186 334.656507,186.082913 334.78862,186.267871 C334.933944,186.437948 335,186.771725 335,187.262822 L335,192.735052 C335,193.177252 334.933944,193.498273 334.78862,193.698113" id="Fill-21"></path>
                    <path d="M285.786418,385.70457 C285.656507,385.904357 285.335033,386 284.826399,386 L268.178004,386 C267.667169,386 267.3523,385.904357 267.21138,385.70457 C267.068258,385.498406 267,385.179596 267,384.737513 L267,379.264612 C267,378.77577 267.068258,378.446334 267.21138,378.263549 C267.3523,378.091392 267.667169,378 268.178004,378 L284.826399,378 C285.335033,378 285.656507,378.091392 285.786418,378.263549 C285.931742,378.446334 286,378.77577 286,379.264612 L286,384.737513 C286,385.179596 285.931742,385.498406 285.786418,385.70457" id="Fill-22"></path>
                    <path d="M200.792976,169.704413 C200.65863,169.904306 200.337081,170 199.826127,170 L183.178278,170 C182.667324,170 182.345775,169.904306 182.209227,169.704413 C182.066072,169.502392 182,169.183413 182,168.736842 L182,163.263158 C182,162.774056 182.066072,162.446571 182.209227,162.26369 C182.345775,162.082935 182.667324,162 183.178278,162 L199.826127,162 C200.337081,162 200.65863,162.082935 200.792976,162.26369 C200.927321,162.446571 201,162.774056 201,163.263158 L201,168.736842 C201,169.183413 200.927321,169.502392 200.792976,169.704413" id="Fill-23"></path>
                    <path d="M137.206929,357.295273 C137.341212,357.099841 137.669216,357 138.173329,357 L154.820067,357 C155.328583,357 155.652184,357.099841 155.782065,357.295273 C155.927355,357.505576 156,357.822092 156,358.266065 L156,363.736059 C156,364.224642 155.927355,364.553903 155.782065,364.730218 C155.652184,364.912905 155.328583,365 154.820067,365 L138.173329,365 C137.669216,365 137.341212,364.912905 137.206929,364.730218 C137.06384,364.553903 137,364.224642 137,363.736059 L137,358.266065 C137,357.822092 137.06384,357.505576 137.206929,357.295273" id="Fill-27"></path>
                    <path d="M225.297477,194.784266 C225.095618,194.649983 225,194.326382 225,193.817866 L225,177.17553 C225,176.667014 225.095618,176.347816 225.297477,176.20913 C225.501461,176.070444 225.822311,176 226.268526,176 L231.733599,176 C232.22656,176 232.553785,176.070444 232.732271,176.20913 C232.910757,176.347816 233,176.667014 233,177.17553 L233,193.817866 C233,194.326382 232.910757,194.649983 232.732271,194.784266 C232.553785,194.927355 232.22656,195 231.733599,195 L226.268526,195 C225.822311,195 225.501461,194.927355 225.297477,194.784266" id="Fill-29"></path>
                    <path d="M138.227624,232.846995 C138.075138,232.747991 138,232.507232 138,232.135969 L138,219.864031 C138,219.488267 138.075138,219.258759 138.227624,219.153005 C138.377901,219.054002 138.620994,219 138.950276,219 L143.051934,219 C143.412155,219 143.666298,219.054002 143.801105,219.153005 C143.940331,219.258759 144,219.488267 144,219.864031 L144,232.135969 C144,232.507232 143.940331,232.747991 143.801105,232.846995 C143.666298,232.950498 143.412155,233 143.051934,233 L138.950276,233 C138.620994,233 138.377901,232.950498 138.227624,232.846995" id="Fill-30"></path>
                    <path d="M150.125564,316.837368 C149.881418,317.716853 149.63275,318.298667 149.347913,318.578298 C149.063075,318.862439 148.484358,319 147.600458,319 L142.538942,319 C140.775662,319 139.927932,318.359554 140.004793,317.076408 L141.700254,287.403927 C141.783896,286.758971 141.976049,286.197453 142.292535,285.717119 C142.615803,285.241295 143.223908,285 144.107808,285 L156.633873,285 C157.680538,285 158.358722,285.241295 158.68199,285.717119 C159.000737,286.197453 159.075337,286.758971 158.926137,287.403927 L150.125564,316.837368" id="Fill-33"></path>
                    <path d="M366.073901,249.146403 C367.269706,249.474829 368.05785,249.83311 368.433804,250.218953 C368.812023,250.602498 369,251.397149 369,252.605202 L369,259.534283 C369,261.945796 368.132588,263.101025 366.406824,262.993081 L326.238639,260.682622 C325.384816,260.576975 324.61932,260.301373 323.973857,259.858114 C323.314805,259.419449 323,258.597238 323,257.386888 L323,240.244476 C323,238.815941 323.314805,237.881193 323.973857,237.442527 C324.61932,237.003861 325.384816,236.891324 326.238639,237.104915 L366.073901,249.146403" id="Fill-34"></path>
                    <path d="M129.324541,219.076454 C129.008809,220.265347 128.662166,221.05115 128.297861,221.43386 C127.924723,221.812042 127.158577,222 125.992799,222 L119.335939,222 C117.011006,222 115.904841,221.128145 116.006405,219.398021 L118.229774,179.247379 C118.335754,178.384581 118.598496,177.623689 119.026831,176.973761 C119.441919,176.323832 120.230144,176 121.400338,176 L137.882414,176 C139.260152,176 140.152149,176.323832 140.580485,176.973761 C140.99778,177.623689 141.10376,178.384581 140.898424,179.247379 L129.324541,219.076454" id="Fill-35"></path>
                    <path d="M259,314.339663 C259,315.312977 258.697157,316.442112 258.098303,317.742875 C257.497171,319.039122 256.921087,320.175032 256.388266,321.146088 L240.695091,346.603562 C240.153162,347.680757 239.467781,348.514059 238.648056,349.1125 C237.830609,349.708683 236.386982,350 234.321731,350 L222.715795,350 C221.511255,350 220.689254,349.708683 220.263452,349.1125 C219.828543,348.514059 219.928731,347.631075 220.589065,346.438709 L240.531146,314.664854 L221.401959,282.570324 C220.86003,281.592494 220.773503,280.759192 221.162872,280.054612 C221.543134,279.354548 222.271778,279 223.364744,279 L234.811289,279 C236.769521,279 238.158499,279.298092 238.971392,279.889758 C239.795671,280.485941 240.576687,281.377958 241.348594,282.570324 L256.222044,307.040935 C256.763973,308.014249 257.362828,309.12306 258.01633,310.369625 C258.676664,311.611673 259,312.939536 259,314.339663 L259,314.339663 Z M289,314.339663 C289,315.312977 288.69713,316.442112 288.09822,317.742875 C287.501588,319.039122 286.930006,320.175032 286.38575,321.146088 L270.693419,346.603562 C270.149163,347.680757 269.468274,348.514059 268.650751,349.1125 C267.833229,349.708683 266.384916,350 264.319477,350 L252.707926,350 C251.50783,350 250.688031,349.708683 250.26219,349.1125 C249.824964,348.514059 249.93427,347.631075 250.592387,346.438709 L270.529459,314.664854 L251.403078,282.570324 C250.861099,281.592494 250.774565,280.759192 251.159415,280.054612 C251.539711,279.354548 252.268422,279 253.36832,279 L264.804525,279 C266.874519,279 268.295505,279.298092 269.05382,279.889758 C269.82352,280.485941 270.584112,281.377958 271.351536,282.570324 L286.22179,307.040935 C286.763769,308.014249 287.367232,309.12306 288.023072,310.369625 C288.674357,311.611673 289,312.939536 289,314.339663 L289,314.339663 Z" id="Fill-37"></path>
                    <path d="M200,390.059779 C200,392.57048 199.127233,394.689299 197.390448,396.416236 C195.647102,398.140959 193.507838,399 190.948596,399 C188.457164,399 186.348524,398.140959 184.611739,396.416236 C182.872767,394.689299 182,392.57048 182,390.059779 C182,387.540221 182.872767,385.401476 184.611739,383.641328 C186.348524,381.878967 188.457164,381 190.948596,381 C193.507838,381 195.647102,381.867897 197.390448,383.583764 C199.127233,385.310701 200,387.467159 200,390.059779 L200,390.059779 Z M229,390.059779 C229,392.57048 228.129315,394.689299 226.385756,396.416236 C224.644385,398.140959 222.500486,399 219.947496,399 C218.735537,399 217.589208,398.769742 216.484443,398.302583 C215.381867,397.830996 214.423675,397.208856 213.607681,396.416236 C212.791687,395.62583 212.15508,394.689299 211.691298,393.615498 C211.225328,392.532841 211,391.346125 211,390.059779 C211,388.757934 211.225328,387.573432 211.691298,386.495203 C212.15508,385.419188 212.791687,384.469373 213.607681,383.641328 C214.423675,382.817712 215.381867,382.169004 216.484443,381.701845 C217.589208,381.230258 218.735537,381 219.947496,381 C222.572679,381 224.742829,381.867897 226.444823,383.583764 C228.149003,385.310701 229,387.467159 229,390.059779 L229,390.059779 Z M258,390.059779 C258,392.57048 257.149107,394.689299 255.442946,396.416236 C253.741159,398.140959 251.604083,399 249.055778,399 C246.500911,399 244.348524,398.140959 242.611739,396.416236 C240.87058,394.689299 240,392.57048 240,390.059779 C240,387.540221 240.87058,385.401476 242.611739,383.641328 C244.348524,381.878967 246.500911,381 249.055778,381 C251.604083,381 253.741159,381.867897 255.442946,383.583764 C257.149107,385.310701 258,387.467159 258,390.059779 L258,390.059779 Z" id="Fill-38"></path>
                    <path d="M127.883164,144 C128.593255,144 129.423585,144.2108 130.374155,144.65034 C131.322455,145.078667 132.157323,145.491297 132.867414,145.877016 L151.509009,157.145839 C152.30531,157.538285 152.91558,158.045102 153.348894,158.668531 C153.782208,159.296446 154,160.314565 154,161.72513 L154,170.051725 C154,170.915107 153.782208,171.502656 153.348894,171.812128 C152.91558,172.126085 152.259936,172.045353 151.386501,171.578902 L128.114567,157.262451 L104.613499,170.991354 C103.894333,171.3838 103.286331,171.446592 102.769076,171.168515 C102.256359,170.888196 102,170.367924 102,169.585274 L102,161.373049 C102,159.960241 102.22006,158.966791 102.651106,158.374757 C103.082152,157.789451 103.74687,157.224328 104.613499,156.674903 L122.533659,145.993629 C123.246019,145.610152 124.065006,145.172855 124.970202,144.704161 C125.882204,144.233225 126.85546,144 127.883164,144" id="Fill-39"></path>
                    <path d="M296,125.796093 C296,127.050904 295.617751,128.520824 294.846547,130.199133 C294.077578,131.884164 293.34214,133.351844 292.644703,134.615617 L272.533039,167.592479 C271.82666,168.990696 270.923569,170.079692 269.808117,170.848263 C268.681489,171.619075 266.8686,172 264.36051,172 L249.479622,172 C247.937213,172 246.895529,171.619075 246.338921,170.848263 C245.775606,170.079692 245.9142,168.923474 246.756936,167.377369 L272.318443,126.21287 L247.805326,84.6181499 C247.098948,83.3610989 247.000592,82.2788251 247.487903,81.3690876 C247.979686,80.4571095 248.916307,80 250.317887,80 L264.986415,80 C267.498975,80 269.282804,80.3898875 270.324489,81.1517366 C271.37735,81.9270301 272.389975,83.0787666 273.362363,84.6181499 L292.441284,116.337961 C293.140956,117.597253 293.903219,119.040284 294.74819,120.64689 C295.577514,122.253495 296,123.974378 296,125.796093" id="Fill-40"></path>
                    <path d="M199.331031,369.617364 C199.110344,369.360036 199,368.872231 199,368.171851 L199,361.821437 C199,361.188185 199.110344,360.720519 199.331031,360.434102 C199.558475,360.145446 200.026873,360 200.736226,360 L287.261522,360 C287.970875,360 288.441525,360.145446 288.666717,360.434102 C288.896412,360.720519 289,361.188185 289,361.821437 L289,368.171851 C289,368.872231 288.896412,369.360036 288.666717,369.617364 C288.441525,369.870217 287.970875,370 287.261522,370 L200.736226,370 C200.026873,370 199.558475,369.870217 199.331031,369.617364" id="Fill-41"></path>
                    <path d="M208.252454,441.779965 C207.769843,438.577291 206.346702,436.082026 203.960583,434.29417 C201.590177,432.501764 197.736023,431.616934 192.382408,431.616934 L170.303514,431.616934 C164.579522,431.616934 159.681581,430.784421 155.609691,429.114845 C151.533311,427.452094 148.222375,425.077384 145.66117,421.99299 C143.111188,418.917696 141.221148,415.253273 140.006764,410.997447 C138.785646,406.748445 138.127948,402.026321 138,396.849271 C138,395.620973 138.610559,395 139.827188,395 L152.045104,395 C153.268466,395 153.941877,395.736979 154.060846,397.220035 C154.424488,402.397085 155.946397,405.906833 158.617592,407.758379 C161.291033,409.60765 164.579522,410.533423 168.476326,410.533423 L191.650635,410.533423 C198.095175,410.533423 203.201874,411.738975 206.981953,414.136431 C210.744074,416.542986 213.484856,419.654675 215.193074,423.478321 L215.736292,423.478321 C217.442266,419.534119 220.212229,416.388311 224.041692,414.05227 C227.873399,411.71168 232.944182,410.533423 239.283222,410.533423 L258.073626,410.533423 C262.08491,410.533423 265.373399,409.60765 267.925626,407.758379 C270.480097,405.906833 271.885281,402.331121 272.123219,397.035791 C272.246678,395.675564 273.039058,395 274.49587,395 L286.004459,395 C287.335568,395 288,395.675564 288,397.035791 C287.88552,402.456225 287.212109,407.298904 286.004459,411.552456 C284.781097,415.806007 282.922483,419.413564 280.430863,422.370578 C277.934754,425.320769 274.709116,427.604494 270.760685,429.208105 C266.803274,430.811717 261.96594,431.616934 256.246438,431.616934 L238.908356,431.616934 C233.678199,431.616934 229.875673,432.447173 227.514246,434.114474 C225.134862,435.772677 223.709476,438.211076 223.222375,441.41375 C223.094427,442.519218 222.84751,443.228902 222.488357,443.5428 C222.122471,443.845325 221.518646,444 220.670148,444 L210.811415,444 C209.2289,444 208.373668,443.269845 208.252454,441.779965" id="Fill-42"></path>
                    <path d="M43,287.707861 C43,288.927505 42.8422597,289.782606 42.5448066,290.264163 C42.2360864,290.754721 41.4158369,291 40.0795514,291 L3.11424379,291 C1.76443769,291 0.912640184,290.698464 0.552090976,290.088642 C0.184781469,289.47657 1.13686838e-13,288.63272 1.13686838e-13,287.536841 L1.13686838e-13,146.46991 C1.13686838e-13,145.36953 0.184781469,144.514429 0.552090976,143.909107 C0.912640184,143.294785 1.76443769,143 3.11424379,143 L40.0795514,143 C41.4158369,143 42.2360864,143.272282 42.5448066,143.816847 C42.8422597,144.368162 43,145.128752 43,146.100867 L43,155.968283 C43,157.064163 42.8197254,157.829253 42.4524159,158.252303 C42.082853,158.682104 41.2333089,158.891379 39.8947699,158.891379 L20.6752437,158.891379 L20.6752437,275.106371 L40.0795514,275.106371 C41.4158369,275.106371 42.2360864,275.317896 42.5448066,275.740946 C42.8422597,276.168496 43,276.933587 43,278.027216 L43,287.707861" id="Fill-43"></path>
                    <path d="M367.310366,281.4 C364.398579,286.254679 360.948157,290.064424 356.945577,292.840448 C352.929474,295.616473 348.253036,297 342.909501,297 C339.779105,297 336.69829,296.479776 333.680579,295.44157 C330.665122,294.398879 327.667694,293.217163 324.706325,291.885209 C321.74721,290.555498 318.871483,289.376024 316.085903,288.333333 C313.295816,287.290643 310.677011,286.770418 308.245263,286.770418 C305.565608,286.770418 303.13386,287.355671 300.929737,288.508236 C298.718852,289.663044 296.510221,291.391893 294.303844,293.710479 C293.143186,294.865287 291.982527,295.035705 290.826377,294.226218 L284.022441,289.023976 C282.864037,287.990254 282.685994,286.889263 283.508596,285.732212 C287.215941,280.765416 291.026956,277.07003 294.91009,274.64157 C298.806746,272.208624 303.185695,271 308.073982,271 C311.317063,271 314.519578,271.547132 317.649975,272.645882 C320.787132,273.742389 323.838649,274.930832 326.79551,276.197758 C329.761386,277.473652 332.607815,278.659853 335.332545,279.754118 C338.061782,280.852868 340.649035,281.4 343.078529,281.4 C345.758184,281.4 347.984845,280.648814 349.796824,279.150927 C351.597534,277.646313 353.551497,275.560931 355.631666,272.903752 C356.560193,271.634584 357.781701,271.459681 359.293937,272.383527 L366.787507,277.58577 C367.592079,278.16878 368,278.747305 368,279.316861 C368,279.899871 367.772376,280.594998 367.310366,281.4" id="Fill-44"></path>
                    <path d="M429.370761,291.111878 C428.950511,291.703959 428.082752,292 426.778841,292 L390.678241,292 C389.496998,292 388.74282,291.762716 388.449781,291.297186 C388.152199,290.815838 388,289.988732 388,288.793271 L388,279.378729 C388,278.309819 388.152199,277.573108 388.449781,277.157295 C388.74282,276.739223 389.553789,276.535836 390.857699,276.535836 L409.800746,276.535836 L409.800746,163.466424 L390.857699,163.466424 C389.553789,163.466424 388.74282,163.235919 388.449781,162.76135 C388.152199,162.289041 388,161.572668 388,160.625791 L388,151.204469 C388,150.018047 388.152199,149.190942 388.449781,148.709593 C388.74282,148.246324 389.553789,148 390.857699,148 L426.778841,148 C428.082752,148 428.950511,148.30056 429.370761,148.894901 C429.786468,149.486982 430,150.314088 430,151.385258 L430,288.621522 C430,289.688172 429.786468,290.517537 429.370761,291.111878" id="Fill-45"></path>
                    <path d="M95.8275274,181.401101 C95.5261804,181.721701 95.0921507,181.888681 94.5096963,181.888681 L86.1506892,181.888681 C85.4108147,181.888681 84.8058717,181.779588 84.3358603,181.559175 C83.8523557,181.338763 83.434068,180.911296 83.0675041,180.254511 L69.7587593,157.823647 L69.4349237,157.823647 L56.4567611,179.818139 C55.9350259,180.690884 55.4852542,181.274197 55.0849574,181.559175 C54.6711674,181.855285 53.9965099,182 53.0474916,182 L44.4658474,182 C43.7304707,182 43.2717035,181.812983 43.0962926,181.454535 C42.9051396,181.091633 42.9995917,180.657488 43.3706533,180.149871 L63.8262705,147.050152 C64.3322637,146.250879 64.8787363,145.545114 65.4701861,144.926178 C66.0571382,144.305015 66.8599807,144 67.8899579,144 L70.7527548,144 C72.068337,144 72.9813736,144.211507 73.5008599,144.652332 C74.0068531,145.088704 74.5600723,145.776658 75.1492732,146.71842 L95.6026416,179.927232 C96.041169,180.579564 96.1176302,181.06937 95.8275274,181.401101" id="Fill-46"></path>
                    <path d="M310,226.1787 C310,240.580617 306.710789,251.654141 300.112203,259.390222 C293.518097,267.135354 283.681834,271 270.598931,271 C259.658049,271 250.975698,268.192022 244.547397,262.557965 L238.753189,269.221539 C237.789728,270.196751 236.922613,270.248792 236.183213,269.382188 L233.449673,266.780114 C232.3697,266.022118 232.3697,265.105735 233.449673,264.021915 L239.557566,257.034779 C236.983109,253.357935 235.076353,248.972873 233.848501,243.879595 C232.609445,238.78858 232,233.054965 232,226.665175 C232,219.524178 232.96122,213.181904 234.890383,207.663243 C236.824026,202.137794 239.501551,197.481212 242.93192,193.688971 C246.369011,189.901256 250.46484,187.009559 255.244054,185.002568 C260.009824,182.997839 265.295415,182 271.080662,182 C281.804205,182 290.491038,184.921112 297.138918,190.76786 L303.246811,183.622337 C303.789038,183.083821 304.270769,182.810037 304.696484,182.810037 C305.115477,182.810037 305.608411,183.029516 306.146156,183.461687 L308.877456,186.059236 C309.412961,186.597753 309.681834,187.034449 309.681834,187.358011 C309.681834,187.681573 309.412961,188.170311 308.877456,188.821961 L302.122027,196.451696 C307.374009,203.818961 310,213.731733 310,226.1787 L310,226.1787 Z M251,226.354701 C251,232.43911 251.638195,237.654963 252.907914,242 L285,204.190716 C283.514585,202.236467 281.651145,200.714234 279.418574,199.628541 C277.179333,198.545109 274.464225,198 271.27325,198 C267.868803,198 264.891302,198.735105 262.331851,200.203054 C259.779071,201.666478 257.651014,203.654655 255.945455,206.15175 C254.24879,208.648846 252.999084,211.645813 252.196337,215.110985 C251.400262,218.587467 251,222.339896 251,226.354701 L251,226.354701 Z M290,227.268283 C290,224.529107 289.86276,221.853739 289.60599,219.226227 C289.335937,216.598716 288.835677,214.187694 288.100781,212 L256,249.929149 C259.067969,253.980941 263.782812,256 270.140104,256 C273.838932,256 276.96888,255.204682 279.514453,253.620883 C282.051172,252.032525 284.094271,249.933706 285.637109,247.301637 C287.164453,244.674125 288.277865,241.638699 288.966276,238.183965 C289.656901,234.740626 290,231.099026 290,227.268283 L290,227.268283 Z" id="Fill-47"></path>
                    <path d="M128.940102,246.012406 C129.194315,247.034902 128.638645,247.629116 127.286587,247.792805 C124.39125,248.304053 121.909854,249.151649 119.819902,250.335592 C117.734449,251.52402 115.885213,252.920983 114.272193,254.528724 C112.663672,256.138707 111.28012,257.937045 110.135033,259.925979 C108.980947,261.923883 107.903351,263.98233 106.875248,266.094592 C108.072077,267.531916 109.705344,269.417705 111.790797,271.747471 C113.878499,274.081723 115.885213,276.384582 117.842434,278.66726 C120.148355,281.382705 122.605005,284.183358 125.239379,287.058008 C125.576831,287.403324 125.705063,287.885423 125.621825,288.52224 C125.538587,289.152331 125.061655,289.477467 124.220275,289.477467 L112.868393,289.477467 C111.941525,289.477467 111.154138,289.369836 110.517478,289.152331 C109.880819,288.946038 109.268906,288.506544 108.661493,287.815911 C107.052972,286.129689 105.608678,284.56231 104.33311,283.122742 C103.228518,281.936557 102.209413,280.792976 101.273546,279.691998 C100.33543,278.591021 99.7887582,277.954203 99.6110335,277.786029 C96.5514698,281.346828 92.8844926,284.438982 88.589855,287.058008 C84.290718,289.686003 79.1726978,291 73.2245459,291 C65.7443625,291 59.8389545,288.988642 55.5060723,284.961442 C51.1776895,280.940969 49,275.373297 49,268.2517 C49,265.121426 49.5129269,262.157084 50.5320316,259.356431 C51.5533859,256.560262 52.9121922,253.932267 54.6107,251.481416 C56.3114575,249.021594 58.3249204,246.78152 60.6600874,244.743255 C62.9997538,242.711716 65.4541538,240.935802 67.9985411,239.408784 C65.7038682,236.697823 63.6634092,233.607911 61.8749142,230.127836 C60.0954179,226.661215 59.2000456,223.268591 59.2000456,219.965658 C59.2000456,216.752419 59.7917112,213.846377 60.9862909,211.258744 C62.1741215,208.677838 63.8141377,206.473641 65.8995903,204.650637 C67.9737946,202.834361 70.3989488,201.432913 73.1638046,200.46199 C75.9219113,199.488825 78.8329962,199 81.8925599,199 C85.0353618,199 87.9509461,199.466402 90.630314,200.396963 C93.3051826,201.325282 95.6223522,202.621341 97.5728241,204.273928 C99.5322947,205.928758 101.082324,207.917692 102.234159,210.245217 C103.383746,212.572741 103.955164,215.182798 103.955164,218.061932 C103.955164,221.104755 103.466984,223.862804 102.486124,226.320383 C101.507513,228.77572 100.231945,231.020278 98.6616689,233.056302 C97.0823941,235.090083 95.3163959,236.883936 93.3681737,238.458042 C91.4109527,240.023179 89.4177369,241.440323 87.3795276,242.711716 C89.5009751,245.507885 91.4109527,247.902679 93.1117102,249.893856 C94.810218,251.88279 96.5109755,253.853786 98.2094834,255.802359 C100.675132,251.393965 103.70095,247.496819 107.259943,244.110922 C110.839183,240.718297 114.953846,238.431134 119.628679,237.251676 C120.733272,236.910844 121.774873,236.677643 122.755733,236.547588 C123.729844,236.422019 124.809691,236.314387 126.00202,236.235906 C126.856899,236.235906 127.40807,236.610373 127.660034,237.377245 L128.940102,246.012406 L128.940102,246.012406 Z M74.4493381,278 C75.9768151,278 77.5312475,277.702782 79.1058965,277.11058 C80.6693141,276.522848 82.181067,275.74293 83.6231849,274.77306 C85.0608103,273.800956 86.4220618,272.674655 87.6934617,271.414271 C88.9716005,270.147183 90.0655435,268.797411 91,267.360484 C88.3763337,264.240811 85.826795,261.161362 83.3648616,258.115435 C80.9096671,255.078446 78.4432411,252.032519 75.9768151,249 C74.2876053,250.099484 72.6545527,251.274948 71.0799037,252.544271 C69.5119936,253.813593 68.1350181,255.181244 66.9444846,256.6651 C65.7539511,258.140017 64.8037706,259.744548 64.078219,261.469754 C63.3594063,263.201664 63,265.038607 63,266.980581 C63,270.69916 63.9793823,273.459043 65.9246691,275.273638 C67.8834336,277.090468 70.7115122,278 74.4493381,278 L74.4493381,278 Z M90,219.324858 C90,217.337421 89.3209926,215.453086 87.9539544,213.667464 C86.5959395,211.884036 84.5453822,211 81.8203291,211 C79.095276,211 76.9409501,211.785323 75.3618631,213.358161 C73.7850318,214.935387 73,216.966697 73,219.456476 C73,221.770765 73.7241242,224.153056 75.1746285,226.598963 C76.620621,229.047064 78.1568471,231.177086 79.7787951,233 C80.8886677,232.335328 82.0301221,231.554392 83.2302282,230.637451 C84.4235669,229.727091 85.526672,228.71363 86.5553344,227.592681 C87.5704618,226.471732 88.4073779,225.232326 89.0435244,223.863496 C89.6774151,222.492472 90,220.981055 90,219.324858 L90,219.324858 Z" id="Fill-48"></path>
                    <path d="M223.505882,210.510584 C223.295345,211.481011 222.997457,212.15963 222.630136,212.532871 C222.240418,212.915161 221.631203,213.107436 220.773375,213.107436 L207.431126,213.107436 L201.959393,239.897088 L215.308361,239.897088 C216.914269,239.897088 217.554841,240.767983 217.236795,242.500726 L215.78991,248.992857 C215.467384,250.612496 214.611796,251.429102 213.216426,251.429102 L199.708434,251.429102 L195.531282,271.894016 C195.318505,272.755864 195.07885,273.325904 194.80336,273.590566 C194.543548,273.862014 193.86938,274 192.794295,274 L185.082802,274 C184.220494,274 183.579923,273.862014 183.161088,273.590566 C182.724335,273.325904 182.610107,272.69705 182.831843,271.722099 L186.852212,251.429102 L165.787271,251.429102 L161.605639,271.894016 C161.390622,272.755864 161.153208,273.325904 160.886676,273.590566 C160.611186,273.862014 160.004211,274 159.032155,274 L151.320662,274 C150.458354,274 149.784187,273.862014 149.307118,273.590566 C148.825569,273.325904 148.686704,272.69705 148.91292,271.722099 L153.083353,251.429102 L139.904606,251.429102 C138.294218,251.429102 137.707401,250.612496 138.135195,248.992857 L139.423057,242.335595 C139.629115,241.473748 139.873249,240.844894 140.14202,240.471653 C140.408552,240.089364 141.08048,239.897088 142.148845,239.897088 L155.341031,239.897088 L160.803805,213.107436 L147.298053,213.107436 C146.225208,213.107436 145.580157,212.894802 145.36962,212.455961 C145.154603,212.028431 145.100849,211.376955 145.215076,210.510584 L146.650762,204.009405 C146.8613,203.258399 147.13903,202.661214 147.457076,202.229159 C147.779601,201.790318 148.480646,201.577684 149.553491,201.577684 L163.213787,201.577684 L167.397658,181.12408 C167.608196,180.248661 167.899364,179.685406 168.277884,179.41622 C168.654163,179.14251 169.270097,179 170.125686,179 L177.523612,179 C178.598697,179 179.349017,179.14251 179.772331,179.41622 C180.197886,179.685406 180.314353,180.30295 180.099336,181.275639 L175.917705,201.577684 L197.139429,201.577684 L201.318821,181.12408 C201.533838,180.248661 201.80037,179.685406 202.127375,179.41622 C202.440941,179.14251 203.088232,179 204.051328,179 L211.451495,179 C212.412352,179 213.108917,179.14251 213.543431,179.41622 C213.971225,179.685406 214.076493,180.30295 213.863716,181.275639 L209.679845,201.577684 L222.863071,201.577684 C223.835127,201.577684 224.453301,201.790318 224.715353,202.229159 C224.981884,202.661214 225.058036,203.312689 224.957247,204.17906 L223.505882,210.510584 L223.505882,210.510584 Z M173.694109,213 L168,240 L189.471299,240 L195,213 L173.694109,213 L173.694109,213 Z" id="Fill-49"></path>
                    <path d="M184,104.002263 C184,108.344569 183.490932,112.281835 182.46825,115.791433 C181.447841,119.312344 179.891092,122.360331 177.800276,124.953496 C175.70946,127.544398 173.036852,129.533396 169.786997,130.915964 C166.534869,132.307584 162.725948,133 158.357961,133 C149.812887,133 143.449534,130.388733 139.267902,125.161673 C135.086271,119.934613 133,112.931258 133,104.140293 C133,99.7934613 133.53634,95.8109395 134.597656,92.2085674 C135.668063,88.5926186 137.245265,85.5242665 139.333809,82.9763577 C141.435988,80.4329744 144.074506,78.4711298 147.278909,77.07951 C150.485584,75.6924157 154.269507,75 158.642039,75 C163.096386,75 166.934851,75.6924157 170.134709,77.07951 C173.339111,78.4711298 175.963994,80.4171348 178.013903,82.9039482 C180.059267,85.4043383 181.561472,88.4387484 182.536429,92.0003901 C183.513658,95.559769 184,99.5603933 184,104.002263 L184,104.002263 Z M170,103.571719 C170,101.151498 169.789788,98.8200726 169.380544,96.5888253 C168.969064,94.357578 168.304883,92.3836072 167.392471,90.6578057 C166.482296,88.9365578 165.22773,87.5636576 163.622065,86.5391053 C162.025345,85.5122762 160.079761,85 157.792024,85 C155.508759,85 153.610138,85.5122762 152.100634,86.5391053 C150.600075,87.5636576 149.383526,88.9137899 148.466642,90.5849486 C147.55423,92.2674912 146.914648,94.2186942 146.545658,96.4522183 C146.187849,98.6857424 146,101.012615 146,103.432835 C146,105.848502 146.187849,108.175374 146.545658,110.413451 C146.914648,112.646976 147.581066,114.623223 148.535967,116.342194 C149.495341,118.063442 150.72978,119.436342 152.24823,120.460895 C153.748789,121.485447 155.692136,122 158.071562,122 C160.357063,122 162.248975,121.485447 163.758479,120.460895 C165.265747,119.436342 166.482296,118.063442 167.392471,116.342194 C168.304883,114.623223 168.969064,112.669743 169.380544,110.474925 C169.789788,108.29149 170,105.991939 170,103.571719 L170,103.571719 Z M169.453925,169.651663 C168.98555,170.474931 168.473974,171.073262 167.916926,171.448906 C167.357604,171.808804 166.568641,172 165.545491,172 L159.831764,172 C158.995054,172 158.440279,171.790809 158.156071,171.379175 C157.878683,170.963043 157.96963,170.387206 158.440279,169.651663 L215.736703,74.208876 C216.202805,73.3766111 216.596149,72.8097712 216.923557,72.481364 C217.246418,72.1574555 217.876224,72 218.80388,72 L225.358864,72 C225.915913,72 226.379741,72.1889466 226.752622,72.548845 C227.12323,72.9244888 227.077757,73.5655577 226.613929,74.4765504 L169.453925,169.651663 L169.453925,169.651663 Z M251,140.998869 C251,145.345531 250.4955,149.275855 249.468318,152.798892 C248.445682,156.315141 246.891275,159.353958 244.800553,161.951547 C242.714375,164.542348 240.039613,166.531268 236.78763,167.91152 C233.535647,169.300823 229.731441,170 225.361376,170 C216.80532,170 210.449069,167.382047 206.269896,162.152928 C202.09754,156.935123 200,149.927515 200,141.143682 C200,136.792494 200.534043,132.810128 201.60213,129.203371 C202.670217,125.596614 204.249621,122.523856 206.347162,119.978309 C208.431067,117.432762 211.078558,115.470994 214.282818,114.083954 C217.487078,112.692389 221.273104,112 225.638624,112 C230.09959,112 233.928794,112.692389 237.139872,114.083954 C240.341859,115.470994 242.964353,117.403347 245.01417,119.912691 C247.052625,122.408458 248.566126,125.435961 249.545584,129.004252 C250.511407,132.56123 251,136.55491 251,140.998869 L251,140.998869 Z M238,140.570593 C238,138.13854 237.798695,135.815793 237.387139,133.581856 C236.971109,131.34792 236.30904,129.373584 235.394222,127.64291 C234.48164,125.93273 233.222367,124.555022 231.623113,123.523449 C230.023858,122.510094 228.077912,122 225.794222,122 C223.506058,122 221.613793,122.510094 220.101771,123.523449 C218.591985,124.555022 217.372973,125.905404 216.462628,127.572317 C215.552283,129.252893 214.912582,131.206733 214.547996,133.445224 C214.181174,135.679161 214,138.006462 214,140.424852 C214,142.843242 214.181174,145.170544 214.547996,147.404481 C214.912582,149.638417 215.579124,151.621861 216.534203,153.338872 C217.495993,155.062715 218.730662,156.442701 220.235974,157.460611 C221.74576,158.492184 223.691705,159 226.067102,159 C228.355266,159 230.252004,158.492184 231.759553,157.460611 C233.273812,156.442701 234.48164,155.062715 235.394222,153.338872 C236.30904,151.621861 236.971109,149.668021 237.387139,147.475074 C237.798695,145.286681 238,142.986706 238,140.570593 L238,140.570593 Z" id="Fill-50"></path>
                    <path d="M38.7061052,264.847122 C38.3967665,265.679628 38.1122652,266.243583 37.8480854,266.54794 C37.5793897,266.845584 37.0284507,267 36.1907524,267 L31.5122866,267 C29.7601199,267 28.9201637,266.357717 29.0059656,265.079866 L30.7129734,237.260298 C30.7897436,236.658298 30.9816691,236.125673 31.2864919,235.671376 C31.5913147,235.22603 32.1603173,235 33.0025315,235 L44.7528868,235 C45.8118639,235 46.4779582,235.246171 46.7511697,235.731799 C47.0130916,236.224142 47.0672823,236.736625 46.9182578,237.260298 L38.7061052,264.847122 L38.7061052,264.847122 Z M48,201.498867 C48,202.797257 47.753857,204.041264 47.2660464,205.221825 C46.7782358,206.402385 46.0912731,207.412999 45.2297727,208.251401 C44.3593216,209.094335 43.3613238,209.765057 42.2357791,210.254502 C41.1035214,210.755277 39.8571429,211 38.5011188,211 C35.7868331,211 33.5290307,210.084556 31.7232364,208.251401 C29.910729,206.422779 29,204.172689 29,201.498867 C29,198.827311 29.910729,196.577221 31.7232364,194.739535 C33.5290307,192.908646 35.7868331,192 38.5011188,192 C41.1415617,192 43.3814627,192.908646 45.2297727,194.739535 C47.075845,196.577221 48,198.827311 48,201.498867 L48,201.498867 Z" id="Fill-51"></path>
                </g>
            </g>
        </g>
    </g>
</svg>