<?xml version="1.0" encoding="UTF-8" standalone="no"?>
<!-- Created with Inkscape (http://www.inkscape.org/) -->

<svg
   xmlns:sketch="http://www.bohemiancoding.com/sketch/ns"
   xmlns:dc="http://purl.org/dc/elements/1.1/"
   xmlns:cc="http://creativecommons.org/ns#"
   xmlns:rdf="http://www.w3.org/1999/02/22-rdf-syntax-ns#"
   xmlns:svg="http://www.w3.org/2000/svg"
   xmlns="http://www.w3.org/2000/svg"
   xmlns:sodipodi="http://sodipodi.sourceforge.net/DTD/sodipodi-0.dtd"
   xmlns:inkscape="http://www.inkscape.org/namespaces/inkscape"
   width="333.46222"
   height="287.53043"
   id="svg2"
   version="1.1"
   inkscape:version="0.48.4 r"
   sodipodi:docname="fallers_.svg">
  <defs
     id="defs4" />
  <sodipodi:namedview
     id="base"
     pagecolor="#ffffff"
     bordercolor="#666666"
     borderopacity="1.0"
     inkscape:pageopacity="0.0"
     inkscape:pageshadow="2"
     inkscape:zoom="0.98994949"
     inkscape:cx="451.07822"
     inkscape:cy="87.648845"
     inkscape:document-units="px"
     inkscape:current-layer="Welcome"
     showgrid="false"
     inkscape:window-width="1600"
     inkscape:window-height="838"
     inkscape:window-x="-8"
     inkscape:window-y="-8"
     inkscape:window-maximized="1"
     fit-margin-top="0"
     fit-margin-left="0"
     fit-margin-right="0"
     fit-margin-bottom="0" />
  <metadata
     id="metadata7">
    <rdf:RDF>
      <cc:Work
         rdf:about="">
        <dc:format>image/svg+xml</dc:format>
        <dc:type
           rdf:resource="http://purl.org/dc/dcmitype/StillImage" />
        <dc:title></dc:title>
      </cc:Work>
    </rdf:RDF>
  </metadata>
  <g
     inkscape:label="Layer 1"
     inkscape:groupmode="layer"
     id="layer1"
     transform="translate(0.3635066,-0.04507228)">
    <g
       sketch:type="MSPage"
       id="Welcome"
       style="opacity:0.4;fill:none;stroke:none"
       transform="translate(-0.7578866,-0.76034064)">
      <g
         transform="matrix(1.1743534,0,0,1.1743534,-8.1250347,-370.22596)"
         sketch:type="MSArtboardGroup"
         id="Mobile-Portrait"
         style="fill:#b4b5b4">
        <g
           sketch:type="MSLayerGroup"
           id="content">
          <g
             sketch:type="MSShapeGroup"
             id="header">
            <g
               transform="translate(6,317)"
               id="fallers.svg">
              <g
                 transform="matrix(0,1,-1,0,173,-0.333534)"
                 id="faller2">
                <path
                   id="Fill-1"
                   d="m 167.35438,85.365156 c 0.97071,0.975503 1.45751,2.21261 1.45751,3.71132 0,0.688985 -0.13128,1.349223 -0.39481,1.974963 -0.26352,0.632448 -0.61998,1.18057 -1.0627,1.648198 -0.44942,0.464753 -0.9755,0.827932 -1.58591,1.093369 -0.60562,0.26352 -1.2764,0.396717 -2.00563,0.396717 -0.73019,0 -1.40001,-0.133197 -2.01042,-0.396717 -0.60657,-0.265437 -1.14319,-0.628616 -1.60795,-1.093369 -0.46763,-0.467628 -0.83464,-1.01575 -1.09624,-1.648198 -0.2664,-0.62574 -0.39863,-1.285978 -0.39863,-1.974963 0,-1.49871 0.48775,-2.735817 1.46133,-3.71132 0.97551,-0.975503 2.18962,-1.46038 3.65191,-1.46038 1.42014,0 2.61604,0.484877 3.59154,1.46038 z"
                   inkscape:connector-curvature="0"
                   style="opacity:0.2" />
                <path
                   id="Fill-2"
                   d="m 41.662037,46.068092 c 1.420133,0 2.616035,0.485835 3.591538,1.46038 0.972629,0.974545 1.461339,2.210693 1.461339,3.71132 0,0.69186 -0.133198,1.350181 -0.398634,1.978796 -0.261604,0.629573 -0.6152,1.177695 -1.062705,1.643406 -0.447505,0.464754 -0.975503,0.832724 -1.585911,1.094327 -0.605617,0.264478 -1.274479,0.397676 -2.005627,0.397676 -0.728274,0 -1.40001,-0.133198 -2.006585,-0.397676 -0.610409,-0.261603 -1.148948,-0.629573 -1.613701,-1.094327 -0.465712,-0.465711 -0.832724,-1.013833 -1.094327,-1.643406 -0.266395,-0.628615 -0.398634,-1.286936 -0.398634,-1.978796 0,-1.500627 0.489668,-2.736775 1.463255,-3.71132 0.973587,-0.974545 2.187695,-1.46038 3.649992,-1.46038"
                   inkscape:connector-curvature="0" />
                <path
                   id="Fill-4"
                   d="m 119.15705,112.71854 c 0.7369,0 1.35305,0.25106 1.86189,0.75702 0.50116,0.50116 0.75414,1.14511 0.75414,1.92225 0,0.36031 -0.069,0.69857 -0.20602,1.02629 -0.13607,0.32581 -0.32198,0.60946 -0.54812,0.85285 -0.2319,0.23861 -0.50884,0.43026 -0.82314,0.56633 -0.31431,0.13703 -0.66312,0.20507 -1.03875,0.20507 -0.38235,0 -0.72636,-0.068 -1.04258,-0.20507 -0.31623,-0.13607 -0.59316,-0.32772 -0.83464,-0.56633 -0.24148,-0.24339 -0.42834,-0.52704 -0.56921,-0.85285 -0.13511,-0.32772 -0.20219,-0.66598 -0.20219,-1.02629 0,-0.77714 0.24915,-1.42109 0.75415,-1.92225 0.50596,-0.50596 1.13649,-0.75702 1.89447,-0.75702"
                   inkscape:connector-curvature="0" />
                <path
                   id="Fill-5"
                   d="m 91.047606,88.458402 c 0.733065,0 1.354972,0.251063 1.858056,0.757021 0.506916,0.505959 0.757979,1.145114 0.757979,1.925134 0,0.35647 -0.06899,0.699526 -0.206025,1.023416 -0.136072,0.325806 -0.320057,0.60945 -0.551954,0.852846 -0.229981,0.238606 -0.503084,0.431215 -0.819308,0.567287 -0.316224,0.138947 -0.659279,0.205067 -1.038748,0.205067 -0.378511,0 -0.726357,-0.06612 -1.042581,-0.205067 -0.314308,-0.136072 -0.59316,-0.328681 -0.832723,-0.567287 -0.243397,-0.243396 -0.43409,-0.52704 -0.57112,-0.852846 -0.135114,-0.32389 -0.204108,-0.666946 -0.204108,-1.023416 0,-0.78002 0.254895,-1.419175 0.756063,-1.925134 0.505958,-0.505958 1.13649,-0.757021 1.894469,-0.757021"
                   inkscape:connector-curvature="0" />
                <path
                   id="Fill-6"
                   d="m 32.733978,115.38152 c 0.737856,0 1.356889,0.2549 1.862847,0.75894 0.501168,0.50404 0.756063,1.14416 0.756063,1.92418 0,0.35551 -0.06995,0.69761 -0.207941,1.02246 -0.135114,0.32676 -0.320057,0.60945 -0.548122,0.85284 -0.232855,0.24244 -0.505958,0.43026 -0.820266,0.56633 -0.316224,0.13607 -0.66407,0.20698 -1.042581,0.20698 -0.379469,0 -0.726357,-0.0709 -1.040664,-0.20698 -0.314308,-0.13607 -0.59316,-0.32389 -0.836557,-0.56633 -0.239563,-0.24339 -0.428339,-0.52608 -0.567286,-0.85284 -0.134156,-0.32485 -0.20315,-0.66695 -0.20315,-1.02246 0,-0.78002 0.250104,-1.42014 0.756063,-1.92418 0.505,-0.50404 1.137448,-0.75894 1.891594,-0.75894"
                   inkscape:connector-curvature="0" />
                <path
                   id="Fill-7"
                   d="m 17.252416,70.930008 c 0.73594,0 1.354972,0.252021 1.859973,0.75798 0.504042,0.504042 0.757979,1.146072 0.757979,1.924175 0,0.356471 -0.07091,0.700484 -0.205066,1.022458 -0.137031,0.326764 -0.321974,0.610408 -0.552913,0.852846 -0.231898,0.243397 -0.505001,0.431215 -0.819308,0.567287 -0.316224,0.13703 -0.664071,0.20315 -1.040665,0.20315 -0.381385,0 -0.728273,-0.06612 -1.042581,-0.20315 -0.314307,-0.136072 -0.593159,-0.32389 -0.834639,-0.567287 -0.241481,-0.242438 -0.42834,-0.526082 -0.569204,-0.852846 -0.132239,-0.321974 -0.204108,-0.665987 -0.204108,-1.022458 0,-0.778103 0.252979,-1.420133 0.75798,-1.924175 0.504042,-0.505959 1.13649,-0.75798 1.892552,-0.75798"
                   inkscape:connector-curvature="0" />
                <path
                   id="Fill-8"
                   d="m 53.177383,-0.25681224 c 0.735939,0 1.354972,0.25106271 1.86093,0.75797941 0.501167,0.50404193 0.756063,1.14415603 0.756063,1.92225883 0,0.357429 -0.06804,0.7004841 -0.204108,1.0243742 -0.138947,0.3267648 -0.321974,0.6094499 -0.551955,0.8528466 -0.232856,0.2433967 -0.505958,0.4302563 -0.820266,0.5672867 -0.316224,0.135114 -0.66407,0.2060248 -1.040664,0.2060248 -0.379469,0 -0.726357,-0.070911 -1.040665,-0.2060248 C 51.822411,4.7309031 51.539726,4.5440435 51.300162,4.3006468 51.058682,4.0572501 50.869906,3.774565 50.732875,3.4478002 50.596803,3.1239101 50.529725,2.780855 50.529725,2.423426 c 0,-0.7781028 0.250105,-1.4182169 0.754147,-1.92225883 0.505,-0.5069167 1.137448,-0.75797941 1.893511,-0.75797941"
                   inkscape:connector-curvature="0" />
                <path
                   id="Fill-9"
                   d="m 62.157187,-0.25681224 c 0.735939,0 1.354014,0.25106271 1.860931,0.75797941 0.501167,0.50404193 0.754146,1.14415603 0.754146,1.92225883 0,0.357429 -0.06516,0.7004841 -0.202192,1.0243742 -0.138947,0.3267648 -0.321973,0.6094499 -0.551954,0.8528466 -0.231898,0.2433967 -0.506917,0.4302563 -0.822183,0.5672867 -0.314308,0.135114 -0.660238,0.2060248 -1.038748,0.2060248 -0.377552,0 -0.726357,-0.070911 -1.042581,-0.2060248 C 60.800298,4.7309031 60.523363,4.5440435 60.279966,4.3006468 60.036569,4.0572501 59.84971,3.774565 59.711721,3.4478002 59.574691,3.1239101 59.509529,2.780855 59.509529,2.423426 c 0,-0.7781028 0.252021,-1.4182169 0.756063,-1.92225883 0.503084,-0.5069167 1.133616,-0.75797941 1.891595,-0.75797941"
                   inkscape:connector-curvature="0" />
                <path
                   id="Fill-10"
                   d="m 71.678405,-0.25681224 c 0.733065,0 1.354972,0.25106271 1.858056,0.75797941 0.507875,0.50404193 0.757979,1.14415603 0.757979,1.92225883 0,0.357429 -0.06708,0.7004841 -0.205066,1.0243742 -0.133198,0.3267648 -0.320057,0.6094499 -0.552913,0.8528466 -0.228065,0.2433967 -0.503084,0.4302563 -0.819308,0.5672867 -0.312391,0.135114 -0.663112,0.2060248 -1.038748,0.2060248 -0.380427,0 -0.726357,-0.070911 -1.040664,-0.2060248 C 70.3196,4.7309031 70.042664,4.5440435 69.799268,4.3006468 69.561621,4.0572501 69.370928,3.774565 69.233897,3.4478002 69.097825,3.1239101 69.029789,2.780855 69.029789,2.423426 c 0,-0.7781028 0.249146,-1.4182169 0.756063,-1.92225883 0.502125,-0.5069167 1.134574,-0.75797941 1.892553,-0.75797941"
                   inkscape:connector-curvature="0" />
                <path
                   id="Fill-11"
                   d="m 162.42608,96.868045 c 0.4475,0 0.75414,0.06133 0.91513,0.188776 0.16674,0.119782 0.24531,0.402467 0.24531,0.851888 l 0,25.863291 c 0,0.44942 -0.0786,0.73307 -0.24531,0.85285 -0.16099,0.12266 -0.46763,0.18973 -0.91513,0.18973 l -3.8541,0 c -0.44847,0 -0.75415,-0.0671 -0.91514,-0.18877 -0.1629,-0.11979 -0.24435,-0.40439 -0.24435,-0.85381 l 0,-25.863291 c 0,-0.449421 0.0815,-0.732106 0.24435,-0.851888 0.16099,-0.127448 0.46667,-0.188776 0.91514,-0.188776 l 3.8541,0 0,0 z m 11.55559,-0.0642 c 0.44846,0 0.75415,0.0642 0.91897,0.185901 0.16482,0.121698 0.24339,0.408216 0.24339,0.85668 l 0,25.925574 c 0,0.44942 -0.0786,0.73307 -0.24339,0.85285 -0.16482,0.12266 -0.44943,0.18973 -0.85764,0.18973 l -3.9116,0 c -0.40821,0 -0.69473,-0.0537 -0.85764,-0.15523 -0.16002,-0.10062 -0.24435,-0.37564 -0.24435,-0.8241 l 0,-25.988824 c 0,-0.448464 0.0843,-0.734982 0.24435,-0.85668 0.16291,-0.121698 0.47051,-0.185901 0.91801,-0.185901 l 3.7899,0 0,0 z"
                   inkscape:connector-curvature="0"
                   style="opacity:0.2" />
                <path
                   id="Fill-12"
                   d="M 65.627027,29.60336 75.361936,7.6526215 C 75.721281,7.0240065 76.022173,6.6330386 76.269403,6.4758848 76.5128,6.3206476 76.948806,6.2401542 77.575504,6.2401542 l 4.567042,0 c 0.355512,0 0.636281,0.080493 0.840389,0.2357306 0.200275,0.1571538 0.188776,0.4829604 -0.03354,0.974545 L 69.185027,37.52621 c -0.314308,0.624782 -0.6152,1.096243 -0.905551,1.409592 -0.290351,0.311433 -0.685152,0.514583 -1.17482,0.602742 l -2.283521,0 c -0.761813,0 -1.299393,-0.164819 -1.611784,-0.505 -0.312392,-0.328681 -0.624782,-0.838473 -0.93909,-1.507334 L 48.373652,7.5175076 c -0.227106,-0.5385391 -0.23573,-0.8835108 -0.0345,-1.0406645 0.202192,-0.1561955 0.526082,-0.2366889 0.973587,-0.2366889 l 4.294897,0 c 0.494459,0 0.898843,0.065161 1.209318,0.20315 0.314307,0.1312809 0.583577,0.4446301 0.80685,0.9419643 L 65.627027,29.60336"
                   inkscape:connector-curvature="0" />
                <path
                   id="Fill-13"
                   d="m 128.3515,125.31096 c -0.15715,0.34689 -0.3421,0.56249 -0.55962,0.65544 -0.2204,0.0901 -0.49925,0.13991 -0.83943,0.13991 l -2.98784,0 c -0.31239,0 -0.53662,-0.0537 -0.67748,-0.1629 -0.13991,-0.1102 -0.13224,-0.3536 0.023,-0.72444 l 9.66113,-20.86504 c 0.22039,-0.46571 0.43792,-0.81547 0.65448,-1.04929 0.21944,-0.23573 0.59221,-0.35264 1.12116,-0.35264 l 1.58879,0 c 0.33922,0.0623 0.61232,0.2022 0.8126,0.42355 0.20411,0.21657 0.41396,0.53854 0.63245,0.97838 l 9.56817,20.91391 c 0.15715,0.34018 0.16194,0.56537 0.024,0.67557 -0.13703,0.10924 -0.33538,0.1629 -0.58357,0.1629 l -3.17278,0 c -0.43793,0 -0.73882,-0.0537 -0.90939,-0.1629 -0.1744,-0.1102 -0.38426,-0.38331 -0.63245,-0.81644 l -6.77006,-15.26691 -6.9531,15.4509"
                   inkscape:connector-curvature="0" />
                <path
                   id="Fill-15"
                   d="m 44.58088,20.878452 c 0.229023,0.149488 0.344972,0.505959 0.344972,1.064621 l 0,18.357284 c 0,0.558662 -0.115949,0.912258 -0.344972,1.066537 -0.229981,0.150446 -0.597951,0.23094 -1.103909,0.23094 l -6.246862,0 c -0.557704,0 -0.940048,-0.08049 -1.142239,-0.23094 -0.200276,-0.154279 -0.304725,-0.507875 -0.304725,-1.066537 l 0,-18.357284 c 0,-0.558662 0.104449,-0.915133 0.304725,-1.064621 0.202191,-0.155237 0.584535,-0.228065 1.142239,-0.228065 l 6.246862,0 c 0.505958,0 0.873928,0.07283 1.103909,0.228065"
                   inkscape:connector-curvature="0" />
                <path
                   id="Fill-16"
                   d="m 56.625183,33.629947 c 0.0987,0.06612 0.149488,0.225189 0.149488,0.467628 l 0,8.023466 c 0,0.245313 -0.05079,0.40055 -0.149488,0.465712 -0.09774,0.06708 -0.260645,0.101574 -0.481044,0.101574 l -2.731026,0 c -0.247229,0 -0.411091,-0.0345 -0.49925,-0.101574 -0.09008,-0.06516 -0.133198,-0.220399 -0.133198,-0.465712 l 0,-8.023466 c 0,-0.242439 0.04312,-0.401509 0.133198,-0.467628 0.08816,-0.06516 0.252021,-0.0987 0.49925,-0.0987 l 2.731026,0 c 0.220399,0 0.383302,0.03354 0.481044,0.0987"
                   inkscape:connector-curvature="0" />
                <path
                   id="Fill-17"
                   d="m 147.32398,56.450781 c 0.0977,0.06708 0.14757,0.221356 0.14757,0.469544 l 0,8.019633 c 0,0.24723 -0.0498,0.402467 -0.14757,0.470503 -0.10061,0.06516 -0.2616,0.09678 -0.48487,0.09678 l -2.73007,0 c -0.2434,0 -0.40822,-0.03162 -0.50021,-0.09678 -0.0872,-0.06804 -0.13224,-0.223273 -0.13224,-0.470503 l 0,-8.019633 c 0,-0.248188 0.045,-0.402467 0.13224,-0.469544 0.092,-0.06516 0.25681,-0.09678 0.50021,-0.09678 l 2.73007,0 c 0.22327,0 0.38426,0.03162 0.48487,0.09678"
                   inkscape:connector-curvature="0" />
                <path
                   id="Fill-18"
                   d="m 45.477807,96.835464 c 0.09966,0.06612 0.147571,0.221357 0.147571,0.465712 l 0,8.023464 c 0,0.24723 -0.04791,0.40151 -0.147571,0.46763 -0.100617,0.0671 -0.259687,0.0997 -0.482961,0.0997 l -2.730067,0 c -0.245313,0 -0.410133,-0.0326 -0.498292,-0.0997 -0.09199,-0.0661 -0.133198,-0.2204 -0.133198,-0.46763 l 0,-8.023464 c 0,-0.244355 0.04121,-0.399592 0.133198,-0.465712 0.08816,-0.06708 0.252979,-0.09966 0.498292,-0.09966 l 2.730067,0 c 0.223274,0 0.382344,0.03258 0.482961,0.09966"
                   inkscape:connector-curvature="0" />
                <path
                   id="Fill-19"
                   d="m 51.411319,19.444903 c 0.0987,0.06804 0.151405,0.221357 0.151405,0.468587 l 0,8.022507 c 0,0.243397 -0.0527,0.402467 -0.151405,0.467629 -0.09966,0.06229 -0.260645,0.09966 -0.48296,0.09966 l -2.731026,0 c -0.24148,0 -0.410133,-0.03737 -0.500209,-0.09966 -0.08528,-0.06516 -0.132239,-0.224232 -0.132239,-0.467629 l 0,-8.022507 c 0,-0.24723 0.04696,-0.400551 0.132239,-0.468587 0.09008,-0.0642 0.258729,-0.0987 0.500209,-0.0987 l 2.731026,0 c 0.222315,0 0.383302,0.0345 0.48296,0.0987"
                   inkscape:connector-curvature="0" />
                <path
                   id="Fill-20"
                   d="m 70.137532,14.442814 c -0.06324,0.100617 -0.218483,0.150446 -0.465712,0.150446 l -8.02155,0 c -0.247229,0 -0.40055,-0.04983 -0.467628,-0.150446 -0.06612,-0.09774 -0.101575,-0.260645 -0.101575,-0.482002 l 0,-2.728151 c 0,-0.246272 0.03546,-0.413008 0.101575,-0.502126 0.06708,-0.0872 0.220399,-0.13128 0.467628,-0.13128 l 8.02155,0 c 0.247229,0 0.402467,0.04408 0.465712,0.13128 0.06995,0.08912 0.101575,0.255854 0.101575,0.502126 l 0,2.728151 c 0,0.221357 -0.03162,0.38426 -0.101575,0.482002"
                   inkscape:connector-curvature="0" />
                <path
                   id="Fill-21"
                   d="m 133.48008,127.10577 c -0.0987,-0.0661 -0.14757,-0.22519 -0.14757,-0.46667 l 0,-8.02442 c 0,-0.24532 0.0489,-0.3996 0.14757,-0.46572 0.0997,-0.0661 0.2616,-0.10061 0.48296,-0.10061 l 2.73103,0 c 0.24435,0 0.41109,0.0345 0.49925,0.10061 0.0901,0.0661 0.13319,0.2204 0.13319,0.46572 l 0,8.02442 c 0,0.24148 -0.0431,0.40055 -0.13319,0.46667 -0.0882,0.0671 -0.2549,0.0987 -0.49925,0.0987 l -2.73103,0 c -0.22136,0 -0.3833,-0.0316 -0.48296,-0.0987"
                   inkscape:connector-curvature="0" />
                <path
                   id="Fill-22"
                   d="m 92.179305,4.2556088 c -0.06516,0.101575 -0.216566,0.1485295 -0.465712,0.1485295 l -8.02155,0 c -0.247229,0 -0.398634,-0.046955 -0.467628,-0.1485295 -0.06612,-0.096784 -0.09966,-0.259687 -0.09966,-0.4810438 l 0,-2.731984 c 0,-0.24148012 0.03354,-0.40821643 0.09966,-0.49829237 0.06899,-0.0910342 0.220399,-0.13032263 0.467628,-0.13032263 l 8.02155,0 c 0.249146,0 0.40055,0.0392884 0.465712,0.13032263 0.06804,0.0900759 0.101575,0.25681225 0.101575,0.49829237 l 0,2.731984 c 0,0.2213568 -0.03354,0.3842601 -0.101575,0.4810438"
                   inkscape:connector-curvature="0" />
                <path
                   id="Fill-23"
                   d="m 57.253798,85.307661 c -0.06708,0.0987 -0.220399,0.146613 -0.465712,0.146613 l -8.023466,0 c -0.24723,0 -0.40055,-0.04791 -0.468586,-0.146613 -0.06708,-0.100617 -0.100617,-0.262562 -0.100617,-0.485835 l 0,-2.730068 c 0,-0.242438 0.03354,-0.412049 0.100617,-0.496376 0.06804,-0.09199 0.221356,-0.136072 0.468586,-0.136072 l 8.023466,0 c 0.245313,0 0.398634,0.04408 0.465712,0.136072 0.06516,0.08433 0.09774,0.253938 0.09774,0.496376 l 0,2.730068 c 0,0.223273 -0.03258,0.385218 -0.09774,0.485835"
                   inkscape:connector-curvature="0" />
                <path
                   id="Fill-24"
                   d="m 53.860618,122.56364 c -0.06708,0.0987 -0.220398,0.14662 -0.465711,0.14662 l -8.02155,0 c -0.24723,0 -0.402467,-0.0479 -0.468587,-0.14662 -0.06708,-0.10061 -0.100616,-0.26256 -0.100616,-0.48679 l 0,-2.72911 c 0,-0.24244 0.03354,-0.41205 0.100616,-0.49638 0.06612,-0.092 0.221357,-0.13607 0.468587,-0.13607 l 8.02155,0 c 0.245313,0 0.398633,0.0441 0.465711,0.13607 0.06708,0.0843 0.09966,0.25394 0.09966,0.49638 l 0,2.72911 c 0,0.22423 -0.03258,0.38618 -0.09966,0.48679"
                   inkscape:connector-curvature="0" />
                <path
                   id="Fill-25"
                   d="m 74.889516,126.26921 c -0.04791,0.0757 -0.15907,0.10829 -0.334431,0.10829 l -5.788816,0 c -0.174402,0 -0.286518,-0.0326 -0.337305,-0.10829 -0.04695,-0.0719 -0.07091,-0.18686 -0.07091,-0.34784 l 0,-1.96922 c 0,-0.17248 0.02396,-0.29322 0.07091,-0.35934 0.05079,-0.0623 0.162903,-0.0958 0.337305,-0.0958 l 5.788816,0 c 0.175361,0 0.286519,0.0335 0.334431,0.0958 0.04887,0.0661 0.07187,0.18686 0.07187,0.35934 l 0,1.96922 c 0,0.16098 -0.023,0.27597 -0.07187,0.34784"
                   inkscape:connector-curvature="0" />
                <path
                   id="Fill-26"
                   d="m 11.622671,77.847648 c 0.0987,0.06229 0.147571,0.220399 0.147571,0.462837 l 0,8.027299 c 0,0.242439 -0.04887,0.397676 -0.147571,0.465712 -0.101575,0.06612 -0.261604,0.0987 -0.484877,0.0987 l -2.7300678,0 c -0.2433967,0 -0.4082165,-0.03258 -0.4963759,-0.0987 -0.090076,-0.06804 -0.1351139,-0.223273 -0.1351139,-0.465712 l 0,-8.027299 c 0,-0.242438 0.045038,-0.40055 0.1351139,-0.462837 0.088159,-0.07091 0.2529792,-0.100616 0.4963759,-0.100616 l 2.7300678,0 c 0.223273,0 0.383302,0.0297 0.484877,0.100616"
                   inkscape:connector-curvature="0" />
                <path
                   id="Fill-27"
                   d="m 3.9825063,95.804382 c 0.099658,0.06708 0.1523624,0.221357 0.1523624,0.468587 l 0,8.022511 c 0,0.24531 -0.052704,0.40055 -0.1523624,0.46571 -0.1006168,0.0671 -0.259687,0.10157 -0.4810439,0.10157 l -2.73198393,0 c -0.24531318,0 -0.40821647,-0.0345 -0.49829241,-0.10157 -0.0881594,-0.0652 -0.13223914,-0.2204 -0.13223914,-0.46571 l 0,-8.022511 c 0,-0.24723 0.0440797,-0.401509 0.13223914,-0.468587 0.0900759,-0.06612 0.25297923,-0.09774 0.49829241,-0.09774 l 2.73198393,0 c 0.2213569,0 0.3804271,0.03162 0.4810439,0.09774"
                   inkscape:connector-curvature="0" />
                <path
                   id="Fill-28"
                   d="m 114.42902,120.70942 c 0.41205,0.11403 0.68515,0.23573 0.81835,0.36701 0.13224,0.13224 0.19836,0.40343 0.19836,0.82027 l 0,2.37359 c 0,0.83081 -0.30377,1.22465 -0.90651,1.18728 l -13.96369,-0.79056 c -0.30089,-0.0412 -0.56728,-0.1332 -0.791517,-0.28364 -0.226148,-0.15141 -0.338263,-0.43409 -0.338263,-0.84901 l 0,-5.87794 c 0,-0.49158 0.112115,-0.81068 0.338263,-0.96496 0.224237,-0.14757 0.490627,-0.18782 0.791517,-0.1102 l 13.85349,4.12816"
                   inkscape:connector-curvature="0" />
                <path
                   id="Fill-29"
                   d="m 82.729956,19.353869 c 0.15332,-0.557704 0.316224,-0.928549 0.494459,-1.10391 0.179194,-0.180151 0.544289,-0.267353 1.103909,-0.267353 l 3.200571,0 c 1.115408,0 1.649156,0.407259 1.600285,1.217942 l -1.067496,18.813413 c -0.04983,0.4063 -0.177277,0.761813 -0.381385,1.066538 -0.204108,0.306641 -0.583577,0.457087 -1.143198,0.457087 l -7.920932,0 c -0.658321,0 -1.093369,-0.150446 -1.298435,-0.457087 -0.198359,-0.304725 -0.251063,-0.660238 -0.151405,-1.066538 l 5.563627,-18.660092"
                   inkscape:connector-curvature="0" />
                <path
                   id="Fill-31"
                   d="m 113.21491,69.838556 c 0.45613,0 0.98796,0.137989 1.59837,0.418757 0.60945,0.278852 1.1432,0.543331 1.60028,0.799185 l 11.95902,7.310524 c 0.50884,0.254896 0.90172,0.57112 1.17866,0.954422 0.28268,0.378511 0.41971,1.055997 0.41971,2.016168 l 0,5.410305 c 0,0.557705 -0.13703,0.938132 -0.41971,1.140323 -0.27694,0.206025 -0.69378,0.155238 -1.25532,-0.151404 l -14.9296,-9.291237 -15.082933,8.914643 c -0.455171,0.252979 -0.849972,0.289393 -1.179612,0.112116 -0.331556,-0.179194 -0.493501,-0.521291 -0.493501,-1.029166 l 0,-5.329812 c 0,-0.917049 0.137989,-1.562913 0.416841,-1.94334 0.278852,-0.381386 0.700484,-0.749355 1.256272,-1.106784 L 109.78532,71.1322 c 0.45517,-0.252021 0.97933,-0.530873 1.56099,-0.837515 0.58646,-0.304725 1.2074,-0.456129 1.8686,-0.456129 l 0,0 z m 0,-14.169711 c 0.45613,0 0.98796,0.139905 1.59837,0.418757 0.60945,0.278852 1.1432,0.548122 1.60028,0.797268 l 11.95902,7.314358 c 0.50884,0.256812 0.90172,0.573036 1.17866,0.952505 0.28268,0.382343 0.41971,1.055996 0.41971,2.020001 l 0,5.406472 c 0,0.559621 -0.13703,0.941964 -0.41971,1.14224 -0.27694,0.20315 -0.69378,0.15332 -1.25532,-0.152363 l -14.9296,-9.292195 -15.082933,8.913685 c -0.455171,0.254895 -0.849972,0.291309 -1.179612,0.114032 -0.331556,-0.177277 -0.493501,-0.518416 -0.493501,-1.029166 l 0,-5.331728 c 0,-0.964005 0.137989,-1.626159 0.416841,-1.977838 0.278852,-0.357429 0.700484,-0.714858 1.256272,-1.07037 l 11.501933,-6.931056 c 0.45517,-0.253938 0.97933,-0.53279 1.56099,-0.838473 0.58646,-0.302808 1.2074,-0.456129 1.8686,-0.456129 l 0,0 z"
                   inkscape:connector-curvature="0"
                   style="opacity:0.5" />
                <path
                   id="Fill-54"
                   d="m 190.21491,67.187803 c 0.45613,0 0.98796,0.137989 1.59837,0.418757 0.60945,0.278852 1.1432,0.543331 1.60028,0.799185 l 11.95902,7.310524 c 0.50884,0.254896 0.90172,0.57112 1.17866,0.954422 0.28268,0.37851 0.41971,1.055996 0.41971,2.016168 l 0,5.410305 c 0,0.557705 -0.13703,0.938132 -0.41971,1.140323 -0.27694,0.206025 -0.69378,0.155238 -1.25532,-0.151404 l -14.92961,-9.291237 -15.08292,8.914643 c -0.45517,0.252979 -0.84998,0.289393 -1.17961,0.112116 -0.33156,-0.179194 -0.49351,-0.521291 -0.49351,-1.029166 l 0,-5.329812 c 0,-0.91705 0.13799,-1.562913 0.41684,-1.94334 0.27886,-0.381386 0.70049,-0.749355 1.25628,-1.106784 l 11.50193,-6.931056 c 0.45517,-0.252021 0.97933,-0.530873 1.56099,-0.837515 0.58646,-0.304725 1.2074,-0.456129 1.8686,-0.456129 l 0,0 z m 0,-14.169711 c 0.45613,0 0.98796,0.139905 1.59837,0.418757 0.60945,0.278852 1.1432,0.548122 1.60028,0.797268 l 11.95902,7.314357 c 0.50884,0.256813 0.90172,0.573037 1.17866,0.952506 0.28268,0.382343 0.41971,1.055996 0.41971,2.02 l 0,5.406473 c 0,0.559621 -0.13703,0.941964 -0.41971,1.14224 -0.27694,0.20315 -0.69378,0.15332 -1.25532,-0.152363 l -14.92961,-9.292195 -15.08292,8.913685 c -0.45517,0.254895 -0.84998,0.291309 -1.17961,0.114032 -0.33156,-0.177277 -0.49351,-0.518416 -0.49351,-1.029166 l 0,-5.331729 c 0,-0.964004 0.13799,-1.626158 0.41684,-1.977837 0.27886,-0.357429 0.70049,-0.714858 1.25628,-1.070371 l 11.50193,-6.931055 c 0.45517,-0.253938 0.97933,-0.53279 1.56099,-0.838473 0.58646,-0.302808 1.2074,-0.456129 1.8686,-0.456129 l 0,0 z"
                   inkscape:connector-curvature="0"
                   style="opacity:0.2" />
                <path
                   id="Fill-32"
                   d="m 148.94343,97.23314 c 1.20549,0 2.21932,0.420673 3.05013,1.266812 0.8241,0.842306 1.23711,1.884888 1.23711,3.127748 0,1.20644 -0.41301,2.2289 -1.23711,3.0712 -0.83081,0.84614 -1.84464,1.27065 -3.05013,1.27065 -1.20548,0 -2.22985,-0.42451 -3.07504,-1.27065 -0.8423,-0.8423 -1.26393,-1.86476 -1.26393,-3.0712 0,-1.24286 0.41205,-2.285442 1.2371,-3.127748 0.82794,-0.846139 1.86285,-1.266812 3.10187,-1.266812 l 0,0 z m 0,-13.638839 c 1.20549,0 2.21932,0.419716 3.05013,1.265855 0.8241,0.843264 1.23711,1.883928 1.23711,3.124868 0,0.588368 -0.1102,1.147989 -0.33444,1.680779 -0.2271,0.533748 -0.52416,0.995626 -0.90267,1.392344 -0.38139,0.398634 -0.83081,0.70815 -1.34539,0.932381 -0.5165,0.224232 -1.08762,0.33539 -1.70474,0.33539 -0.61999,0 -1.18727,-0.111158 -1.70569,-0.33539 -0.5165,-0.224231 -0.97454,-0.533747 -1.36935,-0.932381 -0.3948,-0.396718 -0.70623,-0.858596 -0.93046,-1.392344 -0.22231,-0.53279 -0.33347,-1.092411 -0.33347,-1.680779 0,-1.274479 0.41205,-2.325684 1.2371,-3.149783 0.82794,-0.82889 1.86285,-1.24094 3.10187,-1.24094 l 0,0 z m 0,-13.535346 c 1.20549,0 2.21932,0.412049 3.05013,1.239023 0.8241,0.824099 1.23711,1.859014 1.23711,3.098037 0,1.239023 -0.41301,2.282563 -1.23711,3.124868 -0.83081,0.842306 -1.84464,1.267771 -3.05013,1.267771 -1.20548,0 -2.22985,-0.425465 -3.07504,-1.267771 -0.8423,-0.842305 -1.26393,-1.885845 -1.26393,-3.124868 0,-1.239023 0.41205,-2.273938 1.2371,-3.098037 0.82794,-0.826974 1.86285,-1.239023 3.10187,-1.239023 l 0,0 z"
                   inkscape:connector-curvature="0"
                   style="opacity:0.1" />
                <path
                   id="Fill-33"
                   d="m 24.830294,51.987231 c 0.595076,0 1.293644,0.180151 2.088995,0.548121 0.795352,0.363179 1.491044,0.709109 2.088995,1.039706 l 15.615718,9.549008 c 0.665029,0.336347 1.179611,0.765645 1.54279,1.296518 0.363178,0.527999 0.548122,1.38947 0.548122,2.585371 l 0,7.063295 c 0,0.728274 -0.184944,1.227524 -0.548122,1.490086 -0.363179,0.264479 -0.909384,0.202192 -1.64149,-0.198358 L 25.028653,63.224683 5.3336453,74.862685 C 4.7328196,75.199033 4.2220699,75.245029 3.7918136,75.014089 3.3596408,74.78315 3.1440335,74.33277 3.1440335,73.671575 l 0,-6.963637 c 0,-1.195902 0.1839848,-2.038207 0.5471634,-2.538416 0.3660532,-0.496376 0.9132166,-0.978378 1.6424484,-1.441215 L 20.353328,53.679508 c 0.596993,-0.336347 1.278312,-0.700484 2.040125,-1.09816 0.759895,-0.395759 1.576328,-0.594117 2.436841,-0.594117"
                   inkscape:connector-curvature="0" />
                <path
                   id="Fill-34"
                   d="m 139.40018,97.783178 c -0.1217,0.102533 -0.35073,0.15907 -0.68324,0.15907 l -3.01179,0 c -0.3009,0 -0.52225,-0.05654 -0.65832,-0.15907 -0.13895,-0.1102 -0.20795,-0.331556 -0.20795,-0.661196 l 0,-40.771818 c 0,-0.341139 0.069,-0.557704 0.20795,-0.665029 0.13607,-0.110199 0.35742,-0.160987 0.65832,-0.160987 l 3.01179,0 c 0.33251,0 0.56154,0.05079 0.68324,0.160987 0.11978,0.107325 0.18111,0.32389 0.18111,0.665029 l 0,40.771818 c 0,0.32964 -0.0613,0.550996 -0.18111,0.661196"
                   inkscape:connector-curvature="0" />
                <path
                   id="Fill-36"
                   d="m 71.509752,45.380065 c 6.752821,0 11.948477,1.562913 15.577388,4.684907 3.630826,3.125826 5.446719,7.780069 5.446719,13.975185 0,5.184158 -1.319517,9.296028 -3.962383,12.34232 l 3.122952,2.740608 c 0.459004,0.459963 0.484877,0.865304 0.0757,1.221775 l -1.220816,1.294602 c -0.353596,0.506917 -0.783853,0.506917 -1.291728,0 l -3.276272,-2.894887 c -1.725817,1.216983 -3.78319,2.122534 -6.169244,2.703236 -2.38797,0.584535 -5.075874,0.874887 -8.07617,0.874887 -3.350058,0 -6.319689,-0.455171 -8.909851,-1.368388 -2.591121,-0.916092 -4.773067,-2.184821 -6.550629,-3.810021 -1.780437,-1.623283 -3.137326,-3.569498 -4.076415,-5.826188 -0.938131,-2.259564 -1.409593,-4.761567 -1.409593,-7.504092 0,-5.075875 1.372221,-9.19062 4.111871,-12.339445 l -3.350058,-2.894887 c -0.25298,-0.252979 -0.380427,-0.482002 -0.380427,-0.687068 0,-0.199318 0.101575,-0.430257 0.303766,-0.685153 l 1.217942,-1.294602 c 0.256812,-0.253937 0.459004,-0.377552 0.610408,-0.377552 0.151404,0 0.382344,0.123615 0.685152,0.377552 l 3.58004,3.201529 c 3.455466,-2.491462 8.102042,-3.734318 13.941646,-3.734318 l 0,0 z m -0.02971,27.95612 c 2.855599,0 5.302023,-0.305683 7.340231,-0.916091 L 61.082983,57.111976 c -0.917049,0.709109 -1.631907,1.599327 -2.14074,2.665865 -0.508834,1.067495 -0.765646,2.362097 -0.765646,3.883806 0,1.627116 0.34593,3.046291 1.034915,4.264233 0.688985,1.221775 1.617534,2.237524 2.790438,3.048208 1.171945,0.813558 2.575788,1.409592 4.205779,1.789061 1.631908,0.382344 3.389347,0.573036 5.272317,0.573036 l 0,0 z m 0.282685,-18.89199 c -1.272562,0 -2.521168,0.06708 -3.745817,0.191651 -1.219858,0.127448 -2.344849,0.367012 -3.364432,0.721566 l 17.66255,15.38957 c 1.885845,-1.474754 2.831642,-3.734319 2.831642,-6.783485 0,-1.776604 -0.372761,-3.273398 -1.112534,-4.492298 -0.736898,-1.219858 -1.716234,-2.195361 -2.941841,-2.934176 -1.223692,-0.732106 -2.637117,-1.264896 -4.245069,-1.596452 -1.604118,-0.331556 -3.295437,-0.496376 -5.084499,-0.496376 l 0,0 z"
                   inkscape:connector-curvature="0"
                   style="opacity:0.8" />
                <path
                   id="Fill-37"
                   d="m 64.159939,86.067557 c 0.457088,0.104449 0.771395,0.242438 0.948672,0.419715 0.180152,0.176319 0.270228,0.471461 0.270228,0.876803 l 0,6.322564 12.56751,2.590163 0,-6.324481 c 0,-0.761812 0.408216,-1.066537 1.217941,-0.912258 l 3.045334,0.685152 c 0.763728,0.150446 1.144156,0.55962 1.144156,1.216983 l 0,6.400183 9.59692,1.978796 c 0.408216,0.103491 0.673653,0.217523 0.801101,0.342096 0.129364,0.129365 0.188776,0.446547 0.188776,0.952507 l 0,3.6567 c 0,0.40438 -0.05941,0.71102 -0.188776,0.91417 -0.127448,0.20315 -0.418758,0.25682 -0.875845,0.15428 l -9.522176,-1.90692 0,9.97926 9.59692,1.98071 c 0.408216,0.10158 0.673653,0.21561 0.801101,0.34114 0.129364,0.12841 0.188776,0.42067 0.188776,0.87968 l 0,3.65574 c 0,0.40438 -0.05941,0.72636 -0.188776,0.95346 -0.127448,0.22423 -0.418758,0.29131 -0.875845,0.18782 l -9.522176,-1.97879 0,6.2459 c 0,0.76085 -0.380428,1.04066 -1.144156,0.83847 l -3.123911,-0.61041 c -0.403425,-0.10349 -0.693776,-0.21752 -0.873928,-0.34305 -0.177277,-0.12745 -0.265436,-0.44559 -0.265436,-0.95155 l 0,-6.24782 -12.56751,-2.5892 0,6.3973 c 0,0.51171 -0.103492,0.81356 -0.305683,0.9161 -0.204108,0.10349 -0.51075,0.12936 -0.913217,0.0738 l -3.050124,-0.68515 c -0.352638,-0.0977 -0.635323,-0.22711 -0.836557,-0.37851 -0.202191,-0.15332 -0.305683,-0.48584 -0.305683,-0.99179 l 0,-6.47589 -9.597878,-1.97879 c -0.403426,-0.1035 -0.671737,-0.23957 -0.797268,-0.4178 -0.128406,-0.17824 -0.190693,-0.46859 -0.190693,-0.87681 l 0,-3.50433 c 0,-0.5098 0.06229,-0.86339 0.190693,-1.06846 0.125531,-0.20219 0.417799,-0.25298 0.874886,-0.15044 l 9.52026,1.97975 0,-10.054966 -9.597878,-1.981671 c -0.403426,-0.09966 -0.671737,-0.224231 -0.797268,-0.37851 -0.128406,-0.152363 -0.190693,-0.457088 -0.190693,-0.913217 l 0,-3.505295 c 0,-0.455171 0.06229,-0.786727 0.190693,-0.988919 0.125531,-0.20315 0.417799,-0.254896 0.874886,-0.155237 l 9.52026,1.982629 0,-6.245904 c 0,-0.460921 0.103492,-0.750313 0.305683,-0.873928 0.201234,-0.129365 0.506917,-0.166737 0.916092,-0.115949 l 2.970589,0.684194 0,0 z m 1.2189,23.613313 12.56751,2.66682 0,-10.05305 -12.56751,-2.593995 0,9.980225 0,0 z"
                   inkscape:connector-curvature="0"
                   style="opacity:0.3" />
                <path
                   id="Fill-38"
                   d="m 100.03699,153.75866 -19.866532,-8.80923 c -0.569204,-0.32581 -0.923758,-0.59795 -1.06558,-0.82218 -0.140863,-0.21944 -0.21369,-0.61424 -0.21369,-1.18153 l 0,-4.13391 c 0,-0.32198 0.07283,-0.57591 0.21369,-0.76086 0.141822,-0.18111 0.436965,-0.17057 0.882553,0.0316 l 27.220179,12.45635 c 0.56633,0.2846 0.9918,0.5577 1.27544,0.81931 0.28173,0.26352 0.46571,0.62094 0.54525,1.06462 l 0,2.06695 c 0,0.68803 -0.14853,1.17482 -0.45613,1.45751 -0.29802,0.28268 -0.75894,0.56633 -1.36456,0.85093 l -27.160767,12.57709 c -0.486794,0.20507 -0.799185,0.21369 -0.941006,0.0307 -0.141822,-0.18302 -0.214649,-0.47625 -0.214649,-0.88159 l 0,-3.88668 c 0,-0.44751 0.05941,-0.81356 0.184943,-1.09433 0.118823,-0.2846 0.401508,-0.52895 0.851888,-0.73019 l 20.108971,-9.05455"
                   inkscape:connector-curvature="0"
                   style="opacity:0.4" />
                <path
                   id="Fill-39"
                   d="m 103.68124,161.9067 c 0.0604,-0.0901 0.2041,-0.13607 0.42354,-0.13607 l 7.26166,0 c 0.22135,0 0.36318,0.046 0.42163,0.13607 0.0604,0.0882 0.091,0.23573 0.091,0.43505 l 0,2.47134 c 0,0.22423 -0.0307,0.37372 -0.091,0.45325 -0.0585,0.0815 -0.20028,0.11979 -0.42163,0.11979 l -7.26166,0 c -0.21944,0 -0.36317,-0.0383 -0.42354,-0.11979 -0.0585,-0.0795 -0.0891,-0.22902 -0.0891,-0.45325 l 0,-2.47134 c 0,-0.19932 0.0307,-0.34689 0.0891,-0.43505"
                   inkscape:connector-curvature="0" />
                <path
                   id="Fill-40"
                   d="m 150.45364,161.3375 c 0.0891,0.0613 0.13224,0.20027 0.13224,0.42259 l 0,7.26165 c 0,0.22328 -0.0431,0.36222 -0.13224,0.42259 -0.092,0.0613 -0.2386,0.092 -0.44079,0.092 l -2.47038,0 c -0.21944,0 -0.37277,-0.0307 -0.44943,-0.092 -0.0834,-0.0604 -0.12361,-0.19931 -0.12361,-0.42259 l 0,-7.26165 c 0,-0.22232 0.0403,-0.36126 0.12361,-0.42259 0.0767,-0.0584 0.22999,-0.0882 0.44943,-0.0882 l 2.47038,0 c 0.20219,0 0.3488,0.0297 0.44079,0.0882"
                   inkscape:connector-curvature="0" />
                <path
                   id="Fill-41"
                   d="m 184.17271,164.40871 c 0.0882,0.0613 0.13128,0.19931 0.13128,0.42163 l 0,7.26069 c 0,0.22328 -0.0431,0.36414 -0.13128,0.42259 -0.091,0.0613 -0.23861,0.092 -0.4408,0.092 l -2.47134,0 c -0.21848,0 -0.3718,-0.0307 -0.44846,-0.092 -0.0824,-0.0584 -0.12266,-0.19931 -0.12266,-0.42259 l 0,-7.26069 c 0,-0.22232 0.0403,-0.36031 0.12266,-0.42163 0.0767,-0.0604 0.22998,-0.0901 0.44846,-0.0901 l 2.47134,0 c 0.20219,0 0.34976,0.0297 0.4408,0.0901"
                   inkscape:connector-curvature="0" />
                <path
                   id="Fill-42"
                   d="m 187.5266,145.37585 c 0.068,0.0441 0.0977,0.14374 0.0977,0.30281 l 0,5.23974 c 0,0.15715 -0.0297,0.25968 -0.0977,0.30472 -0.0652,0.0422 -0.16961,0.0642 -0.31527,0.0642 l -1.78235,0 c -0.1562,0 -0.26544,-0.022 -0.32485,-0.0642 -0.0575,-0.045 -0.0872,-0.14757 -0.0872,-0.30472 l 0,-5.23974 c 0,-0.15907 0.0297,-0.25873 0.0872,-0.30281 0.0594,-0.0441 0.16865,-0.0642 0.32485,-0.0642 l 1.78235,0 c 0.14566,0 0.25011,0.0201 0.31527,0.0642"
                   inkscape:connector-curvature="0"
                   style="opacity:0.1" />
                <path
                   id="Fill-43"
                   d="m 89.761628,137.83343 c -0.162903,-0.1629 -0.242438,-0.4935 -0.242438,-0.99946 l 0,-2.89776 c 0,-1.00904 0.368928,-1.49105 1.101993,-1.44697 l 17.028187,0.96497 c 0.36701,0.045 0.68898,0.16002 0.96592,0.34593 0.27693,0.18398 0.41205,0.52799 0.41205,1.03491 l 0,7.16775 c 0,0.59603 -0.13512,0.98987 -0.41205,1.17577 -0.27694,0.1792 -0.59891,0.22711 -0.96592,0.13799 l -16.888282,-5.03658 c -0.505,-0.13895 -0.84039,-0.28556 -0.99946,-0.44655 z"
                   inkscape:connector-curvature="0" />
                <path
                   id="Fill-53"
                   d="m 202.76163,148.14501 c -0.16291,-0.16291 -0.24244,-0.49351 -0.24244,-0.99946 l 0,-2.89777 c 0,-1.00904 0.36893,-1.49104 1.10199,-1.44696 l 17.02819,0.96496 c 0.36701,0.045 0.68898,0.16003 0.96592,0.34593 0.27693,0.18399 0.41205,0.528 0.41205,1.03492 l 0,7.16774 c 0,0.59604 -0.13512,0.98988 -0.41205,1.17578 -0.27694,0.17919 -0.59891,0.22711 -0.96592,0.13799 l -16.88828,-5.03659 c -0.505,-0.13894 -0.84039,-0.28556 -0.99946,-0.44654 z"
                   inkscape:connector-curvature="0"
                   style="opacity:0.1" />
                <path
                   id="Fill-44"
                   d="m 114.31595,148.4346 c 0,-6.11175 1.41534,-10.8139 4.24027,-14.0988 2.82877,-3.2849 7.04126,-4.9283 12.64896,-4.9283 4.69258,0 8.41252,1.19398 11.16942,3.58579 l 2.48092,-2.82686 c 0.41684,-0.41588 0.78385,-0.43888 1.10487,-0.068 l 1.1729,1.10487 c 0.45901,0.32005 0.45901,0.7091 0,1.16907 l -2.61987,2.96484 c 1.10104,1.56195 1.92035,3.4248 2.44643,5.58375 0.52895,2.16086 0.79247,4.59483 0.79247,7.3086 0,3.03288 -0.413,5.72078 -1.23998,8.06468 -0.82889,2.34485 -1.97688,4.31981 -3.4478,5.92968 -1.46804,1.61082 -3.23027,2.83835 -5.27327,3.68928 -2.04492,0.84805 -4.30927,1.27543 -6.79211,1.27543 -4.59387,0 -8.31765,-1.2419 -11.1675,-3.72186 l -2.61987,3.03192 c -0.22902,0.22902 -0.436,0.34401 -0.62191,0.34401 -0.18015,0 -0.38905,-0.091 -0.61999,-0.27406 l -1.17194,-1.10295 c -0.22903,-0.2319 -0.3421,-0.41492 -0.3421,-0.55195 0,-0.13703 0.11307,-0.34593 0.3421,-0.61999 l 2.89776,-3.24082 c -2.25477,-3.12679 -3.37976,-7.33257 -3.37976,-12.6183 l 0,0 z m 25.30175,0.0278 c 0,-2.58537 -0.27694,-4.79894 -0.82889,-6.64358 l -13.8554,16.05268 c 0.64203,0.82985 1.44792,1.47763 2.41384,1.93855 0.96592,0.46092 2.13691,0.69282 3.51584,0.69282 1.47187,0 2.75594,-0.31335 3.85793,-0.93622 1.10582,-0.62478 2.02479,-1.46421 2.75977,-2.52595 0.73498,-1.06079 1.27544,-2.33144 1.61849,-3.80715 0.34689,-1.47667 0.51842,-3.06737 0.51842,-4.77115 l 0,0 z m -17.09814,-0.25585 c 0,1.15182 0.0604,2.2816 0.17345,3.38934 0.11595,1.10487 0.33251,2.12254 0.65257,3.04629 l 13.92919,-15.98656 c -1.33485,-1.70665 -3.37977,-2.56237 -6.13954,-2.56237 -1.60699,0 -2.96292,0.33731 -4.06492,1.00617 -1.10486,0.6679 -1.98742,1.55333 -2.65724,2.66299 -0.66119,1.10774 -1.14415,2.38701 -1.44504,3.84164 -0.29898,1.45176 -0.44847,2.98305 -0.44847,4.6025 l 0,0 z"
                   inkscape:connector-curvature="0"
                   style="opacity:0.3" />
                <path
                   id="Fill-52"
                   d="m 95.198007,39.933389 c 0,-3.667965 0.849417,-6.489963 2.544802,-8.461394 1.697685,-1.971431 4.225811,-2.957721 7.591271,-2.957721 2.81625,0 5.04877,0.71657 6.70333,2.152011 l 1.48892,-1.696535 c 0.25017,-0.249592 0.47043,-0.263394 0.66309,-0.04083 l 0.70392,0.663086 c 0.27547,0.192083 0.27547,0.425572 0,0.701618 l -1.57232,1.779349 c 0.66079,0.937407 1.1525,2.055394 1.46822,3.351087 0.31746,1.296842 0.47561,2.757588 0.47561,4.386261 0,1.82018 -0.24787,3.433326 -0.74418,4.840012 -0.49746,1.407261 -1.18642,2.592535 -2.06919,3.558697 -0.88105,0.966737 -1.93865,1.703436 -3.16476,2.214121 -1.22725,0.508961 -2.58621,0.765454 -4.07628,0.765454 -2.75702,0 -4.99184,-0.745325 -6.702178,-2.233675 l -1.572314,1.819605 c -0.137448,0.137448 -0.261669,0.20646 -0.373237,0.20646 -0.108118,0 -0.23349,-0.05463 -0.372088,-0.164478 L 95.48728,50.154579 c -0.137448,-0.139173 -0.205309,-0.249016 -0.205309,-0.331255 0,-0.08224 0.06786,-0.20761 0.205309,-0.372088 L 97.226372,47.50626 C 95.87317,45.62972 95.198007,43.105622 95.198007,39.933389 l 0,0 z m 15.184843,0.01668 c 0,-1.55161 -0.1662,-2.880083 -0.49745,-3.987144 l -8.31532,9.634017 c 0.38531,0.498033 0.86897,0.886798 1.44866,1.16342 0.5797,0.276621 1.28247,0.415795 2.11003,0.415795 0.88335,0 1.65398,-0.188057 2.31534,-0.56187 0.66366,-0.374963 1.21518,-0.878747 1.65628,-1.515954 0.4411,-0.636632 0.76545,-1.39921 0.97134,-2.284858 0.20818,-0.886224 0.31112,-1.840884 0.31112,-2.863406 l 0,0 z m -10.26144,-0.15355 c 0,0.691266 0.0362,1.369304 0.10409,2.034116 0.0696,0.663086 0.19956,1.273839 0.39164,1.828231 l 8.3596,-9.594334 c -0.80111,-1.024247 -2.02836,-1.537808 -3.68464,-1.537808 -0.96444,0 -1.7782,0.202434 -2.43956,0.603851 -0.66309,0.400842 -1.19275,0.932231 -1.59474,1.598193 -0.39682,0.664812 -0.68667,1.432566 -0.86725,2.305562 -0.17943,0.871271 -0.26914,1.790275 -0.26914,2.762189 l 0,0 z"
                   inkscape:connector-curvature="0"
                   style="opacity:0.3" />
                <path
                   id="Fill-60"
                   d="m 206.97095,118.15228 c 0,-3.66796 0.84942,-6.48996 2.5448,-8.46139 1.69769,-1.97143 4.22581,-2.95772 7.59128,-2.95772 2.81624,0 5.04877,0.71657 6.70332,2.15201 l 1.48893,-1.69654 c 0.25016,-0.24959 0.47042,-0.26339 0.66308,-0.0408 l 0.70392,0.66309 c 0.27547,0.19208 0.27547,0.42557 0,0.70162 l -1.57231,1.77935 c 0.66078,0.9374 1.15249,2.05539 1.46822,3.35108 0.31745,1.29685 0.4756,2.75759 0.4756,4.38626 0,1.82018 -0.24786,3.43333 -0.74417,4.84002 -0.49746,1.40726 -1.18643,2.59253 -2.0692,3.55869 -0.88105,0.96674 -1.93865,1.70344 -3.16476,2.21412 -1.22725,0.50896 -2.5862,0.76546 -4.07628,0.76546 -2.75701,0 -4.99184,-0.74533 -6.70217,-2.23368 l -1.57232,1.81961 c -0.13745,0.13745 -0.26167,0.20646 -0.37324,0.20646 -0.10811,0 -0.23348,-0.0546 -0.37208,-0.16448 l -0.70335,-0.66194 c -0.13744,-0.13917 -0.20531,-0.24901 -0.20531,-0.33125 0,-0.0822 0.0679,-0.20761 0.20531,-0.37209 l 1.7391,-1.94498 c -1.35321,-1.87654 -2.02837,-4.40063 -2.02837,-7.57287 l 0,0 z m 15.18485,0.0167 c 0,-1.55161 -0.1662,-2.88008 -0.49746,-3.98714 l -8.31532,9.63401 c 0.38531,0.49804 0.86897,0.8868 1.44867,1.16342 0.57969,0.27663 1.28246,0.4158 2.11003,0.4158 0.88334,0 1.65397,-0.18806 2.31534,-0.56187 0.66366,-0.37496 1.21517,-0.87875 1.65627,-1.51596 0.4411,-0.63663 0.76546,-1.3992 0.97134,-2.28485 0.20819,-0.88623 0.31113,-1.84089 0.31113,-2.86341 l 0,0 z m -10.26145,-0.15355 c 0,0.69127 0.0362,1.36931 0.10409,2.03412 0.0696,0.66308 0.19956,1.27384 0.39164,1.82823 l 8.35961,-9.59434 c -0.80111,-1.02424 -2.02837,-1.5378 -3.68465,-1.5378 -0.96443,0 -1.77819,0.20243 -2.43956,0.60385 -0.66308,0.40084 -1.19275,0.93223 -1.59474,1.59819 -0.39681,0.66481 -0.68666,1.43257 -0.86724,2.30556 -0.17943,0.87127 -0.26915,1.79028 -0.26915,2.76219 l 0,0 z"
                   inkscape:connector-curvature="0"
                   style="opacity:0.3" />
              </g>
              <g
                 transform="matrix(0,-1,1,0,129.41016,286.86644)"
                 id="faller">
                <path
                   id="path3044"
                   d="m 250.48385,101.18192 c 1.71256,0 3.15472,0.58472 4.33109,1.76109 1.17059,1.17637 1.75762,2.66822 1.75762,4.47553 0,0.83086 -0.15831,1.62705 -0.47609,2.38164 -0.31778,0.76268 -0.74766,1.42366 -1.28153,1.98758 -0.54196,0.56045 -1.17637,0.99842 -1.91247,1.31851 -0.73033,0.31778 -1.53923,0.47841 -2.41862,0.47841 -0.88054,0 -1.68829,-0.16063 -2.42439,-0.47841 -0.73147,-0.32009 -1.3786,-0.75806 -1.93905,-1.31851 -0.56392,-0.56392 -1.0065,-1.2249 -1.32197,-1.98758 -0.32125,-0.75459 -0.48072,-1.55078 -0.48072,-2.38164 0,-1.80731 0.58819,-3.29916 1.76225,-4.47553 1.17637,-1.17637 2.64048,-1.76109 4.40388,-1.76109"
                   inkscape:connector-curvature="0" />
                <path
                   id="path3046"
                   d="m 103.24082,55.554142 c 1.71256,0 3.15471,0.585876 4.33109,1.761093 1.1729,1.175217 1.76224,2.665905 1.76224,4.475532 0,0.834323 -0.16062,1.628201 -0.48071,2.386257 -0.31548,0.759211 -0.74188,1.420198 -1.28153,1.981806 -0.53966,0.560453 -1.17638,1.004193 -1.91248,1.319664 -0.73032,0.318938 -1.53691,0.479562 -2.41861,0.479562 -0.87823,0 -1.68829,-0.160624 -2.41977,-0.479562 -0.7361,-0.315471 -1.385529,-0.759211 -1.945982,-1.319664 -0.561608,-0.561608 -1.004192,-1.222595 -1.319664,-1.981806 -0.321249,-0.758056 -0.480718,-1.551934 -0.480718,-2.386257 0,-1.809627 0.590498,-3.300315 1.764559,-4.475532 1.174065,-1.175217 2.638175,-1.761093 4.401575,-1.761093"
                   inkscape:connector-curvature="0" />
                <path
                   id="Fill-3"
                   d="m 235.77457,132.74869 c 0.88748,0 1.63629,0.30045 2.24412,0.90943 0.60899,0.6113 0.91406,1.38322 0.91406,2.3227 0,0.43103 -0.082,0.84357 -0.24614,1.23416 -0.16755,0.3952 -0.39058,0.7361 -0.66792,1.02961 -0.27849,0.28889 -0.60783,0.51885 -0.98685,0.6841 -0.38134,0.16178 -0.80082,0.24729 -1.25727,0.24729 -0.45529,0 -0.8713,-0.0855 -1.25495,-0.24729 -0.38134,-0.16525 -0.7153,-0.39521 -1.0065,-0.6841 -0.29121,-0.29351 -0.51885,-0.63441 -0.6841,-1.02961 -0.16409,-0.39059 -0.24614,-0.80313 -0.24614,-1.23416 0,-0.93948 0.30276,-1.7114 0.91406,-2.3227 0.60552,-0.60898 1.36357,-0.90943 2.27763,-0.90943"
                   inkscape:connector-curvature="0" />
                <path
                   id="path3049"
                   d="m 196.69311,135.92882 c 0.88864,0 1.63167,0.30276 2.24528,0.91291 0.60437,0.60436 0.90944,1.3809 0.90944,2.31807 0,0.4345 -0.0832,0.84242 -0.24845,1.23762 -0.16409,0.3929 -0.38827,0.73495 -0.66099,1.02846 -0.27965,0.28774 -0.61361,0.51885 -0.99264,0.68294 -0.37902,0.16525 -0.79965,0.2473 -1.25264,0.2473 -0.46107,0 -0.87592,-0.0821 -1.25726,-0.2473 -0.38134,-0.16409 -0.7153,-0.3952 -1.0065,-0.68294 -0.29121,-0.29351 -0.51654,-0.63556 -0.68641,-1.02846 -0.16294,-0.3952 -0.24383,-0.80312 -0.24383,-1.23762 0,-0.93717 0.30045,-1.71371 0.90944,-2.31807 0.61014,-0.61015 1.37051,-0.91291 2.28456,-0.91291"
                   inkscape:connector-curvature="0" />
                <path
                   id="Fill-59"
                   d="m 181.32285,51.510795 c 0.88863,0 1.63166,0.30276 2.24527,0.912902 0.60437,0.604364 0.90944,1.380909 0.90944,2.318078 0,0.434495 -0.0832,0.842412 -0.24845,1.237618 -0.16409,0.392895 -0.38827,0.734944 -0.66099,1.028459 -0.27965,0.287738 -0.61361,0.518852 -0.99263,0.682944 -0.37903,0.165247 -0.79966,0.247292 -1.25264,0.247292 -0.46108,0 -0.87593,-0.08205 -1.25727,-0.247292 -0.38134,-0.164092 -0.71529,-0.395206 -1.0065,-0.682944 -0.2912,-0.293515 -0.51654,-0.635564 -0.68641,-1.028459 -0.16294,-0.395206 -0.24383,-0.803123 -0.24383,-1.237618 0,-0.937169 0.30045,-1.713714 0.90944,-2.318078 0.61014,-0.610142 1.37051,-0.912902 2.28457,-0.912902"
                   inkscape:connector-curvature="0" />
                <path
                   id="Fill-55"
                   d="m 33.693115,51.510795 c 0.888635,0 1.631668,0.30276 2.245277,0.912902 0.604365,0.604364 0.909436,1.380909 0.909436,2.318078 0,0.434495 -0.0832,0.842412 -0.248449,1.237618 -0.164091,0.392895 -0.388272,0.734944 -0.660987,1.028459 -0.279648,0.287738 -0.613609,0.518852 -0.992637,0.682944 -0.379027,0.165247 -0.799656,0.247292 -1.25264,0.247292 -0.461073,0 -0.875924,-0.08205 -1.257263,-0.247292 -0.381339,-0.164092 -0.715299,-0.395206 -1.006503,-0.682944 -0.291205,-0.293515 -0.516541,-0.635564 -0.68641,-1.028459 -0.162936,-0.395206 -0.243826,-0.803123 -0.243826,-1.237618 0,-0.937169 0.300449,-1.713714 0.909435,-2.318078 0.610143,-0.610142 1.370509,-0.912902 2.284567,-0.912902"
                   inkscape:connector-curvature="0" />
                <path
                   id="path3053"
                   d="m 162.79555,106.6732 c 0.88402,0 1.63398,0.30276 2.24066,0.9129 0.6113,0.61014 0.91406,1.38091 0.91406,2.32155 0,0.42987 -0.0832,0.84356 -0.24845,1.23415 -0.16409,0.39289 -0.38596,0.73494 -0.66561,1.02846 -0.27734,0.28773 -0.60668,0.52 -0.98802,0.68409 -0.38133,0.16756 -0.79503,0.2473 -1.25264,0.2473 -0.45645,0 -0.87592,-0.0797 -1.25726,-0.2473 -0.37903,-0.16409 -0.7153,-0.39636 -1.00419,-0.68409 -0.29352,-0.29352 -0.52348,-0.63557 -0.68872,-1.02846 -0.16294,-0.39059 -0.24614,-0.80428 -0.24614,-1.23415 0,-0.94064 0.30738,-1.71141 0.91175,-2.32155 0.61014,-0.61014 1.37051,-0.9129 2.28456,-0.9129"
                   inkscape:connector-curvature="0" />
                <path
                   id="path3055"
                   d="m 73.804925,85.535468 c 0.88748,0 1.63398,0.303915 2.242966,0.914058 0.607831,0.607831 0.914058,1.382064 0.914058,2.320389 0,0.429873 -0.08551,0.844723 -0.247292,1.232996 -0.165247,0.39405 -0.388273,0.736099 -0.666766,1.028459 -0.279648,0.293516 -0.608986,0.520008 -0.988014,0.684099 -0.381339,0.165247 -0.800812,0.244981 -1.254952,0.244981 -0.459918,0 -0.878235,-0.07973 -1.257262,-0.244981 -0.379028,-0.164091 -0.7153,-0.390583 -1.006504,-0.684099 -0.291204,-0.29236 -0.516541,-0.634409 -0.68641,-1.028459 -0.159469,-0.388273 -0.246137,-0.803123 -0.246137,-1.232996 0,-0.938325 0.305071,-1.712558 0.914058,-2.320389 0.607831,-0.610143 1.370509,-0.914058 2.282255,-0.914058"
                   inkscape:connector-curvature="0"
                   style="opacity:0.1" />
                <path
                   id="path3057"
                   d="m 117.12733,-0.3096934 c 0.88748,0 1.63398,0.30275997 2.24413,0.91405776 0.60436,0.60783104 0.91174,1.37975344 0.91174,2.31807824 0,0.4310285 -0.082,0.8447234 -0.24614,1.2353068 -0.16755,0.3940502 -0.38827,0.7349441 -0.6656,1.0284595 -0.28081,0.2935153 -0.61015,0.518852 -0.98917,0.6840988 -0.38134,0.1629357 -0.80082,0.2484481 -1.25496,0.2484481 -0.4576,0 -0.87592,-0.085512 -1.25495,-0.2484481 -0.37903,-0.1652468 -0.71992,-0.3905835 -1.00881,-0.6840988 -0.29121,-0.2935154 -0.51885,-0.6344093 -0.6841,-1.0284595 -0.16409,-0.3905834 -0.24498,-0.8042783 -0.24498,-1.2353068 0,-0.9383248 0.3016,-1.7102472 0.90943,-2.31807824 0.60899,-0.61129779 1.37167,-0.91405776 2.28341,-0.91405776"
                   inkscape:connector-curvature="0" />
                <path
                   id="path3059"
                   d="m 127.9562,-0.3096934 c 0.88748,0 1.63283,0.30275997 2.24412,0.91405776 0.60437,0.60783104 0.90944,1.37975344 0.90944,2.31807824 0,0.4310285 -0.0786,0.8447234 -0.24383,1.2353068 -0.16755,0.3940502 -0.38827,0.7349441 -0.66561,1.0284595 -0.27964,0.2935153 -0.61129,0.518852 -0.99148,0.6840988 -0.37903,0.1629357 -0.79619,0.2484481 -1.25264,0.2484481 -0.45529,0 -0.87592,-0.085512 -1.25726,-0.2484481 -0.37903,-0.1652468 -0.71299,-0.3905835 -1.0065,-0.6840988 -0.29352,-0.2935154 -0.51886,-0.6344093 -0.68526,-1.0284595 -0.16524,-0.3905834 -0.24382,-0.8042783 -0.24382,-1.2353068 0,-0.9383248 0.30391,-1.7102472 0.91174,-2.31807824 0.60668,-0.61129779 1.36705,-0.91405776 2.2811,-0.91405776"
                   inkscape:connector-curvature="0" />
                <path
                   id="path3061"
                   d="m 139.43797,-0.3096934 c 0.88401,0 1.63398,0.30275997 2.24065,0.91405776 0.61246,0.60783104 0.91406,1.37975344 0.91406,2.31807824 0,0.4310285 -0.0809,0.8447234 -0.24729,1.2353068 -0.16062,0.3940502 -0.38596,0.7349441 -0.66677,1.0284595 -0.27502,0.2935153 -0.60667,0.518852 -0.98801,0.6840988 -0.37672,0.1629357 -0.79966,0.2484481 -1.25264,0.2484481 -0.45876,0 -0.87592,-0.085512 -1.25495,-0.2484481 -0.38365,-0.1652468 -0.71761,-0.3905835 -1.01113,-0.6840988 -0.28658,-0.2935154 -0.51654,-0.6344093 -0.68179,-1.0284595 -0.16409,-0.3905834 -0.24613,-0.8042783 -0.24613,-1.2353068 0,-0.9383248 0.30045,-1.7102472 0.91174,-2.31807824 0.60552,-0.61129779 1.3682,-0.91405776 2.28226,-0.91405776"
                   inkscape:connector-curvature="0" />
                <path
                   id="path3063"
                   d="m 207.78083,151.1142 c -0.18951,0.41832 -0.41254,0.67832 -0.67485,0.79041 -0.26578,0.10863 -0.60206,0.16872 -1.01228,0.16872 l -3.60308,0 c -0.37672,0 -0.64712,-0.0647 -0.81699,-0.19645 -0.16871,-0.13289 -0.15947,-0.42641 0.0277,-0.87361 l 11.65048,-25.16144 c 0.26578,-0.5616 0.52809,-0.98339 0.78925,-1.26535 0.26463,-0.28427 0.71415,-0.42525 1.35202,-0.42525 l 1.91594,0 c 0.40907,0.0751 0.73841,0.24383 0.97993,0.51076 0.24613,0.26116 0.4992,0.64944 0.76267,1.17984 l 11.53839,25.22037 c 0.18952,0.41023 0.1953,0.68179 0.0289,0.81468 -0.16524,0.13173 -0.40445,0.19645 -0.70374,0.19645 l -3.8261,0 c -0.5281,0 -0.89095,-0.0647 -1.09664,-0.19645 -0.21031,-0.13289 -0.46338,-0.46223 -0.76268,-0.98455 l -8.16412,-18.41058 -8.38483,18.63245"
                   inkscape:connector-curvature="0" />
                <path
                   id="Fill-14"
                   d="m 187.41618,103.22266 c 1.14286,-0.40214 1.77843,-0.0971 1.91247,0.9025 l 3.01258,11.95324 9.14058,-7.93069 c 0.5304,-0.53734 0.98686,-0.75459 1.35202,-0.65752 0.37093,0.0994 0.71992,0.42063 1.05619,0.95334 l 3.01373,4.01909 c 0.53388,0.67023 0.76961,1.15326 0.69912,1.45602 -0.0635,0.30045 -0.43103,0.61823 -1.10357,0.95219 -0.20107,0.13751 -0.83548,0.50152 -1.90669,1.10357 -1.07469,0.60321 -2.21177,1.29078 -3.41472,2.0627 -1.20526,0.76845 -2.32732,1.46989 -3.36503,2.10545 -1.03654,0.63903 -1.65478,0.99264 -1.85585,1.05619 l 10.74336,6.32907 c 0.67254,0.33281 1.0065,0.66908 1.0065,1.00188 0,0.33859 -0.16755,0.7361 -0.50267,1.20642 -0.0636,0.13867 -0.26694,0.39983 -0.60321,0.80312 -0.33627,0.4033 -0.70374,0.85744 -1.10588,1.3578 -0.40214,0.50036 -0.75343,0.97068 -1.05157,1.40633 -0.30276,0.4345 -0.52001,0.68641 -0.65521,0.74881 -0.33627,0.54197 -0.65174,0.83895 -0.9545,0.90597 -0.30045,0.067 -0.71761,-0.13173 -1.25496,-0.60205 l -9.33702,-7.933 -2.9132,11.44941 c -0.20107,0.60321 -0.41832,0.98917 -0.6529,1.15326 -0.23458,0.16756 -0.71761,0.15022 -1.45717,-0.0485 l -4.82105,-1.50802 c -1.13824,-0.26694 -1.441,-1.00304 -0.90597,-2.20945 l 4.72167,-11.14781 -12.35191,1.20642 c -0.93717,0.13289 -1.40634,-0.40214 -1.40634,-1.60625 l 0,-5.32256 c 0,-0.66908 0.1017,-1.08624 0.30276,-1.25495 0.20107,-0.16525 0.56855,-0.21725 1.10358,-0.15601 l 12.4536,1.10935 -4.82336,-11.04611 c -0.33165,-0.73726 -0.39867,-1.25496 -0.1976,-1.55772 0.1976,-0.30044 0.56623,-0.51769 1.10357,-0.65174 l 5.01865,-1.60971"
                   inkscape:connector-curvature="0" />
                <path
                   id="Fill-56"
                   d="m 14.491808,134.22266 c 1.142861,-0.40214 1.778426,-0.0971 1.912473,0.9025 l 3.012577,11.95324 9.140577,-7.93069 c 0.530408,-0.53734 0.986859,-0.75459 1.35202,-0.65752 0.370939,0.0994 0.719922,0.42063 1.056193,0.95334 l 3.013733,4.01909 c 0.533874,0.67023 0.769611,1.15326 0.699121,1.45602 -0.06356,0.30045 -0.431028,0.61823 -1.103571,0.95219 -0.20107,0.13751 -0.835479,0.50152 -1.906695,1.10357 -1.074682,0.60321 -2.211765,1.29077 -3.414716,2.0627 -1.205262,0.76845 -2.327323,1.46988 -3.365027,2.10545 -1.036548,0.63903 -1.65478,0.99264 -1.855849,1.05619 L 33.776,158.52781 c 0.672543,0.33281 1.006504,0.66908 1.006504,1.00188 0,0.33859 -0.167558,0.7361 -0.502674,1.20642 -0.06356,0.13867 -0.266937,0.39983 -0.603209,0.80312 -0.336272,0.4033 -0.703744,0.85744 -1.105883,1.3578 -0.402139,0.50036 -0.753433,0.97068 -1.051571,1.40633 -0.30276,0.4345 -0.520007,0.68641 -0.655209,0.74881 -0.336272,0.54197 -0.651743,0.83895 -0.954503,0.90597 -0.300449,0.067 -0.71761,-0.13173 -1.254952,-0.60205 l -9.337024,-7.933 -2.913198,11.44941 c -0.20107,0.60321 -0.418318,0.98917 -0.652899,1.15326 -0.234581,0.16756 -0.71761,0.15022 -1.457177,-0.0485 L 9.4731574,168.4692 c -1.1382388,-0.26694 -1.4409988,-1.00304 -0.9059687,-2.20945 l 4.7216683,-11.14781 -12.3519128,1.20642 c -0.93716920797,0.13289 -1.4063316,-0.40214 -1.4063316,-1.60625 l 0,-5.32256 c 0,-0.66908 0.10169037,-1.08624 0.30275997,-1.25496 0.20106959,-0.16524 0.56854161,-0.21724 1.10357163,-0.156 l 12.4536038,1.10935 -4.8233593,-11.04611 c -0.3316493,-0.73726 -0.3986725,-1.25496 -0.1976029,-1.55772 0.1976029,-0.30045 0.5662305,-0.51769 1.1035716,-0.65174 l 5.0186506,-1.60971"
                   inkscape:connector-curvature="0"
                   style="opacity:0.1" />
                <path
                   id="path3067"
                   d="m 106.76069,25.177611 c 0.27619,0.180269 0.41601,0.610142 0.41601,1.283841 l 0,22.1373 c 0,0.673699 -0.13982,1.100105 -0.41601,1.286152 -0.27733,0.181425 -0.72107,0.278493 -1.33122,0.278493 l -7.533172,0 c -0.672543,0 -1.133616,-0.09707 -1.377442,-0.278493 -0.241515,-0.186047 -0.367472,-0.612453 -0.367472,-1.286152 l 0,-22.1373 c 0,-0.673699 0.125957,-1.103572 0.367472,-1.283841 0.243826,-0.187203 0.704899,-0.275026 1.377442,-0.275026 l 7.533172,0 c 0.61015,0 1.05389,0.08782 1.33122,0.275026"
                   inkscape:connector-curvature="0"
                   style="opacity:0.2" />
                <path
                   id="path3069"
                   d="m 121.28508,40.554813 c 0.11903,0.07973 0.18027,0.271559 0.18027,0.563919 l 0,9.675608 c 0,0.295826 -0.0612,0.483029 -0.18027,0.561608 -0.11786,0.08089 -0.31431,0.122491 -0.58009,0.122491 l -3.29339,0 c -0.29813,0 -0.49574,-0.0416 -0.60205,-0.122491 -0.10862,-0.07858 -0.16062,-0.265782 -0.16062,-0.561608 l 0,-9.675608 c 0,-0.29236 0.052,-0.484185 0.16062,-0.563919 0.10631,-0.07858 0.30392,-0.119024 0.60205,-0.119024 l 3.29339,0 c 0.26578,0 0.46223,0.04044 0.58009,0.119024"
                   inkscape:connector-curvature="0" />
                <path
                   id="path3071"
                   d="m 107.84231,116.77521 c 0.12018,0.0797 0.17796,0.26694 0.17796,0.56161 l 0,9.67561 c 0,0.29813 -0.0578,0.48418 -0.17796,0.56392 -0.12134,0.0809 -0.31316,0.12018 -0.58241,0.12018 l -3.29222,0 c -0.29583,0 -0.49459,-0.0393 -0.6009,-0.12018 -0.11094,-0.0797 -0.16063,-0.26579 -0.16063,-0.56392 l 0,-9.67561 c 0,-0.29467 0.0497,-0.48187 0.16063,-0.56161 0.10631,-0.0809 0.30507,-0.12018 0.6009,-0.12018 l 3.29222,0 c 0.26925,0 0.46107,0.0393 0.58241,0.12018"
                   inkscape:connector-curvature="0" />
                <path
                   id="path3073"
                   d="m 137.57981,17.416787 c -0.0763,0.121335 -0.26347,0.181425 -0.56161,0.181425 l -9.6733,0 c -0.29813,0 -0.48302,-0.06009 -0.56391,-0.181425 -0.0797,-0.117868 -0.12249,-0.314316 -0.12249,-0.581253 l 0,-3.289914 c 0,-0.296983 0.0427,-0.498052 0.12249,-0.60552 0.0809,-0.105157 0.26578,-0.158314 0.56391,-0.158314 l 9.6733,0 c 0.29814,0 0.48534,0.05316 0.56161,0.158314 0.0844,0.107468 0.12249,0.308537 0.12249,0.60552 l 0,3.289914 c 0,0.266937 -0.0381,0.463385 -0.12249,0.581253"
                   inkscape:connector-curvature="0" />
                <path
                   id="path3075"
                   d="m 213.96545,153.27859 c -0.11902,-0.0797 -0.17795,-0.27156 -0.17795,-0.56277 l 0,-9.67676 c 0,-0.29583 0.0589,-0.48187 0.17795,-0.56161 0.12018,-0.0797 0.31548,-0.12133 0.58241,-0.12133 l 3.29338,0 c 0.29468,0 0.49575,0.0416 0.60206,0.12133 0.10862,0.0797 0.16062,0.26578 0.16062,0.56161 l 0,9.67676 c 0,0.29121 -0.052,0.48303 -0.16062,0.56277 -0.10631,0.0809 -0.30738,0.11902 -0.60206,0.11902 l -3.29338,0 c -0.26693,0 -0.46223,-0.0381 -0.58241,-0.11902"
                   inkscape:connector-curvature="0" />
                <path
                   id="path3077"
                   d="m 164.16029,5.131897 c -0.0786,0.1224906 -0.26116,0.1791137 -0.56161,0.1791137 l -9.6733,0 c -0.29814,0 -0.48072,-0.056623 -0.56392,-0.1791137 -0.0797,-0.1167129 -0.12018,-0.3131602 -0.12018,-0.5800974 l 0,-3.2945368 c 0,-0.29120429 0.0405,-0.49227388 0.12018,-0.60089768 0.0832,-0.10977938 0.26578,-0.15715785 0.56392,-0.15715785 l 9.6733,0 c 0.30045,0 0.48303,0.0473785 0.56161,0.15715785 0.082,0.1086238 0.12249,0.30969339 0.12249,0.60089768 l 0,3.2945368 c 0,0.2669372 -0.0404,0.4633845 -0.12249,0.5800974"
                   inkscape:connector-curvature="0" />
                <path
                   id="path3079"
                   d="m 122.04314,102.87368 c -0.0809,0.11902 -0.26578,0.1768 -0.56161,0.1768 l -9.67561,0 c -0.29814,0 -0.48303,-0.0578 -0.56507,-0.1768 -0.0809,-0.12134 -0.12134,-0.31663 -0.12134,-0.58588 l 0,-3.292225 c 0,-0.29236 0.0404,-0.496896 0.12134,-0.598586 0.082,-0.110935 0.26693,-0.164092 0.56507,-0.164092 l 9.67561,0 c 0.29583,0 0.48072,0.05316 0.56161,0.164092 0.0786,0.10169 0.11787,0.306226 0.11787,0.598586 l 0,3.292225 c 0,0.26925 -0.0393,0.46454 -0.11787,0.58588"
                   inkscape:connector-curvature="0" />
                <path
                   id="path3081"
                   d="m 117.95126,147.80117 c -0.0809,0.11903 -0.26579,0.17681 -0.56161,0.17681 l -9.6733,0 c -0.29813,0 -0.48534,-0.0578 -0.56507,-0.17681 -0.0809,-0.12133 -0.12134,-0.31662 -0.12134,-0.58703 l 0,-3.29107 c 0,-0.29236 0.0405,-0.49689 0.12134,-0.59858 0.0797,-0.11094 0.26694,-0.16409 0.56507,-0.16409 l 9.6733,0 c 0.29582,0 0.48072,0.0531 0.56161,0.16409 0.0809,0.10169 0.12018,0.30622 0.12018,0.59858 l 0,3.29107 c 0,0.27041 -0.0393,0.4657 -0.12018,0.58703"
                   inkscape:connector-curvature="0"
                   style="opacity:0.1" />
                <path
                   id="path3083"
                   d="m 143.31029,152.26977 c -0.0578,0.0913 -0.19182,0.13058 -0.40329,0.13058 l -6.98081,0 c -0.21032,0 -0.34552,-0.0393 -0.40677,-0.13058 -0.0566,-0.0867 -0.0855,-0.22533 -0.0855,-0.41947 l 0,-2.3747 c 0,-0.208 0.0289,-0.35361 0.0855,-0.43334 0.0613,-0.0751 0.19645,-0.11556 0.40677,-0.11556 l 6.98081,0 c 0.21147,0 0.34551,0.0404 0.40329,0.11556 0.0589,0.0797 0.0867,0.22534 0.0867,0.43334 l 0,2.3747 c 0,0.19414 -0.0277,0.3328 -0.0867,0.41947"
                   inkscape:connector-curvature="0" />
                <path
                   id="path3085"
                   d="m 67.015938,93.877545 c 0.119023,0.07511 0.177958,0.265782 0.177958,0.558142 l 0,9.680233 c 0,0.29236 -0.05893,0.47956 -0.177958,0.56161 -0.122491,0.0797 -0.315472,0.11902 -0.58472,0.11902 l -3.292226,0 c -0.293515,0 -0.492274,-0.0393 -0.598586,-0.11902 -0.108624,-0.0821 -0.162936,-0.26925 -0.162936,-0.56161 l 0,-9.680233 c 0,-0.29236 0.05431,-0.48303 0.162936,-0.558142 0.106312,-0.08551 0.305071,-0.121335 0.598586,-0.121335 l 3.292226,0 c 0.269248,0 0.462229,0.03582 0.58472,0.121335"
                   inkscape:connector-curvature="0"
                   style="opacity:0.1" />
                <path
                   id="path3087"
                   d="m 57.802559,115.53182 c 0.120179,0.0809 0.183736,0.26693 0.183736,0.56507 l 0,9.67445 c 0,0.29583 -0.06356,0.48303 -0.183736,0.56161 -0.121335,0.0809 -0.31316,0.12249 -0.580097,0.12249 l -3.294537,0 c -0.295827,0 -0.492274,-0.0416 -0.600898,-0.12249 -0.106313,-0.0786 -0.159469,-0.26578 -0.159469,-0.56161 l 0,-9.67445 c 0,-0.29814 0.05316,-0.48418 0.159469,-0.56507 0.108624,-0.0797 0.305071,-0.11787 0.600898,-0.11787 l 3.294537,0 c 0.266937,0 0.458762,0.0381 0.580097,0.11787"
                   inkscape:connector-curvature="0"
                   style="opacity:0.1" />
                <path
                   id="path3089"
                   d="m 189.99152,145.56514 c 0.4969,0.13751 0.82623,0.28427 0.98686,0.44259 0.15947,0.15946 0.2392,0.48649 0.2392,0.98917 l 0,2.86235 c 0,1.00188 -0.36631,1.47682 -1.09317,1.43175 l -16.839,-0.95334 c -0.36285,-0.0497 -0.6841,-0.16063 -0.9545,-0.34205 -0.27272,-0.18258 -0.40792,-0.52348 -0.40792,-1.02384 l 0,-7.08828 c 0,-0.59281 0.1352,-0.97762 0.40792,-1.16366 0.2704,-0.17796 0.59165,-0.2265 0.9545,-0.13289 l 16.70611,4.9782"
                   inkscape:connector-curvature="0" />
                <path
                   id="Fill-57"
                   d="m 97.169443,13.78305 c 0.496896,0.137513 0.826234,0.284271 0.986859,0.442584 0.159469,0.159469 0.239204,0.486496 0.239204,0.98917 l 0,2.862353 c 0,1.001881 -0.366317,1.476821 -1.093172,1.431754 L 80.463333,18.555564 c -0.362849,-0.04969 -0.684099,-0.160625 -0.954502,-0.34205 -0.272716,-0.18258 -0.407917,-0.523474 -0.407917,-1.023837 l 0,-7.088281 c 0,-0.5928085 0.135201,-0.9776141 0.407917,-1.1636613 0.270403,-0.1779581 0.591653,-0.2264922 0.954502,-0.1328908 l 16.70611,4.9782061"
                   inkscape:connector-curvature="0"
                   style="opacity:0.3" />
                <path
                   id="path3092"
                   d="m 152.76519,23.339095 c 0.18489,-0.672543 0.38133,-1.119749 0.59627,-1.331219 0.21609,-0.217248 0.65637,-0.322405 1.33122,-0.322405 l 3.85961,0 c 1.34509,0 1.98874,0.491119 1.92981,1.468733 l -1.28731,22.687353 c -0.0601,0.489962 -0.21378,0.91868 -0.45992,1.286152 -0.24613,0.369783 -0.70374,0.551208 -1.3786,0.551208 l -9.55196,0 c -0.79387,0 -1.3185,-0.181425 -1.5658,-0.551208 -0.2392,-0.367472 -0.30276,-0.79619 -0.18258,-1.286152 l 6.70926,-22.502462"
                   inkscape:connector-curvature="0"
                   style="opacity:0.41213852" />
                <path
                   id="Fill-30"
                   d="m 264.44779,89.518726 c 0.49112,0.0624 0.91984,0.218403 1.28846,0.462229 0.36516,0.243826 0.54774,0.702588 0.54774,1.377442 l 0,9.458363 c 0,0.85743 -0.18258,1.41095 -0.54774,1.65709 -0.36862,0.24382 -0.79734,0.27271 -1.28846,0.0878 l -21.95241,-6.701163 c -0.67485,-0.18258 -1.13246,-0.38365 -1.3786,-0.602053 -0.24382,-0.212625 -0.36978,-0.655209 -0.36978,-1.330064 l 0,-3.859612 c 0,-1.286152 0.52116,-1.922872 1.56349,-1.922872 l 22.1373,1.37282 0,0 z m 0,-18.28 c 0.49112,0.06125 0.91984,0.20107 1.28846,0.411384 0.36516,0.218403 0.54774,0.660988 0.54774,1.335842 l 0,9.551961 c 0,0.79619 -0.18258,1.317353 -0.54774,1.558867 -0.36862,0.246137 -0.79734,0.314316 -1.28846,0.183736 l -21.95241,-6.703475 c -0.67485,-0.180269 -1.13246,-0.397517 -1.3786,-0.643654 -0.24382,-0.241514 -0.36978,-0.703744 -0.36978,-1.378598 l 0,-3.767166 c 0,-1.40402 0.52116,-2.04883 1.56349,-1.922872 l 22.1373,1.373975 0,0 z"
                   inkscape:connector-curvature="0" />
                <path
                   id="path3095"
                   d="m 189.52741,84.219271 c 0.55005,0 1.1914,0.166402 1.92749,0.504985 0.73495,0.336272 1.3786,0.65521 1.92981,0.963747 l 14.42154,8.815862 c 0.61361,0.307382 1.0874,0.688721 1.42136,1.15095 0.34089,0.456451 0.50614,1.273441 0.50614,2.431325 l 0,6.52436 c 0,0.67254 -0.16525,1.13131 -0.50614,1.37513 -0.33396,0.24845 -0.83664,0.18721 -1.5138,-0.18258 L 189.70999,94.598622 171.52128,105.34891 c -0.5489,0.30507 -1.02499,0.34899 -1.42251,0.1352 -0.39983,-0.21609 -0.59512,-0.62863 -0.59512,-1.24108 l 0,-6.427294 c 0,-1.105883 0.1664,-1.884739 0.50268,-2.343501 0.33627,-0.459918 0.84472,-0.903658 1.51495,-1.334686 l 13.87034,-8.358255 c 0.54889,-0.303916 1.18099,-0.640187 1.88242,-1.009971 0.70721,-0.367472 1.45603,-0.550052 2.25337,-0.550052 l 0,0 z m 0,-17.087449 c 0.55005,0 1.1914,0.168714 1.92749,0.504985 0.73495,0.336272 1.3786,0.660988 1.92981,0.961436 l 14.42154,8.820485 c 0.61361,0.309693 1.0874,0.691032 1.42136,1.148639 0.34089,0.461073 0.50614,1.27344 0.50614,2.435946 l 0,6.51974 c 0,0.674854 -0.16525,1.135927 -0.50614,1.377442 -0.33396,0.244981 -0.83664,0.184891 -1.5138,-0.183736 L 189.70999,77.511173 171.52128,88.260308 c -0.5489,0.307382 -1.02499,0.351294 -1.42251,0.137513 -0.39983,-0.213781 -0.59512,-0.625165 -0.59512,-1.241085 l 0,-6.429605 c 0,-1.162506 0.1664,-1.961006 0.50268,-2.385101 0.33627,-0.431029 0.84472,-0.862057 1.51495,-1.290775 L 185.39162,68.693 c 0.54889,-0.306226 1.18099,-0.642498 1.88242,-1.011125 0.70721,-0.365161 1.45603,-0.550053 2.25337,-0.550053 l 0,0 z"
                   inkscape:connector-curvature="0"
                   style="opacity:0.2" />
                <path
                   id="path3097"
                   d="m 232.61293,117.25477 c 1.45371,0 2.6763,0.5073 3.67818,1.52767 0.9938,1.01575 1.49185,2.27301 1.49185,3.77179 0,1.45487 -0.49805,2.68786 -1.49185,3.70361 -1.00188,1.02037 -2.22447,1.53229 -3.67818,1.53229 -1.45371,0 -2.68902,-0.51192 -3.70824,-1.53229 -1.01574,-1.01575 -1.5242,-2.24874 -1.5242,-3.70361 0,-1.49878 0.4969,-2.75604 1.49185,-3.77179 0.99841,-1.02037 2.24643,-1.52767 3.74059,-1.52767 l 0,0 z m 0,-16.44726 c 1.45371,0 2.6763,0.50614 3.67818,1.52651 0.9938,1.01691 1.49185,2.27186 1.49185,3.76833 0,0.70952 -0.13289,1.38437 -0.4033,2.02687 -0.27387,0.64365 -0.6321,1.20064 -1.08855,1.67905 -0.45991,0.48071 -1.00188,0.85396 -1.62242,1.12437 -0.62285,0.2704 -1.31157,0.40445 -2.05576,0.40445 -0.74766,0 -1.43176,-0.13405 -2.05692,-0.40445 -0.62286,-0.27041 -1.17522,-0.64366 -1.65132,-1.12437 -0.47609,-0.47841 -0.85165,-1.0354 -1.12206,-1.67905 -0.26809,-0.6425 -0.40214,-1.31735 -0.40214,-2.02687 0,-1.53692 0.4969,-2.80458 1.49185,-3.79837 0.99841,-0.99957 2.24643,-1.49647 3.74059,-1.49647 l 0,0 z m 0,-16.322457 c 1.45371,0 2.6763,0.496896 3.67818,1.494155 0.9938,0.993792 1.49185,2.24181 1.49185,3.735965 0,1.494155 -0.49805,2.752574 -1.49185,3.768322 -1.00188,1.015748 -2.22447,1.528822 -3.67818,1.528822 -1.45371,0 -2.68902,-0.513074 -3.70824,-1.528822 -1.01574,-1.015748 -1.5242,-2.274167 -1.5242,-3.768322 0,-1.494155 0.4969,-2.742173 1.49185,-3.735965 0.99841,-0.997259 2.24643,-1.494155 3.74059,-1.494155 l 0,0 z"
                   inkscape:connector-curvature="0" />
                <path
                   id="path3099"
                   d="m 82.943192,62.692113 c 0.71761,0 1.560022,0.217248 2.519147,0.660987 0.959125,0.437962 1.798071,0.855124 2.519148,1.253797 L 106.8127,76.122175 c 0.80196,0.405606 1.4225,0.923303 1.86047,1.56349 0.43796,0.63672 0.66098,1.67558 0.66098,3.117734 l 0,8.517724 c 0,0.878235 -0.22302,1.480288 -0.66098,1.796915 -0.43797,0.318938 -1.09664,0.243826 -1.9795,-0.239203 L 83.182395,76.24351 59.431916,90.277937 c -0.724544,0.405606 -1.340464,0.461073 -1.859316,0.18258 -0.521163,-0.278493 -0.781167,-0.821611 -0.781167,-1.618957 l 0,-8.397544 c 0,-1.442154 0.22187,-2.457902 0.659832,-3.061111 0.441428,-0.598587 1.10126,-1.17984 1.980651,-1.737981 l 18.112442,-10.91207 c 0.719921,-0.405606 1.541533,-0.844723 2.460213,-1.324286 0.916369,-0.477252 1.900917,-0.716455 2.938621,-0.716455"
                   inkscape:connector-curvature="0"
                   style="opacity:0.2" />
                <path
                   id="path3101"
                   d="m 221.10458,117.91807 c -0.14676,0.12365 -0.42294,0.19183 -0.82392,0.19183 l -3.63197,0 c -0.36285,0 -0.62978,-0.0682 -0.79387,-0.19183 -0.16756,-0.13289 -0.25076,-0.39983 -0.25076,-0.79734 l 0,-49.167296 c 0,-0.411384 0.0832,-0.672543 0.25076,-0.801967 0.16409,-0.132891 0.43102,-0.194136 0.79387,-0.194136 l 3.63197,0 c 0.40098,0 0.67716,0.06124 0.82392,0.194136 0.14445,0.129424 0.2184,0.390583 0.2184,0.801967 l 0,49.167296 c 0,0.39751 -0.0739,0.66445 -0.2184,0.79734"
                   inkscape:connector-curvature="0" />
                <path
                   id="Fill-35"
                   d="m 171.1619,22.219346 c 2.77106,1.650157 4.94469,3.611164 6.52783,5.886486 1.58544,2.277633 2.37585,4.929671 2.37585,7.96536 0,1.778426 -0.29813,3.525651 -0.89094,5.242832 -0.59397,1.71718 -1.27113,3.410094 -2.02919,5.096074 -0.75574,1.681358 -1.43291,3.315337 -2.02687,4.892694 -0.59397,1.585445 -0.88979,3.070355 -0.88979,4.453576 0,1.518422 0.32934,2.902797 0.98917,4.153127 0.65867,1.254951 1.64784,2.505281 2.96751,3.762543 0.66098,0.658677 0.75805,1.315042 0.29351,1.97834 l -2.9652,3.857301 c -0.59165,0.657521 -1.21913,0.759211 -1.8778,0.298138 -2.83578,-2.110076 -4.94585,-4.272152 -6.33138,-6.481606 -1.38784,-2.209454 -2.07657,-4.697402 -2.07657,-7.470775 0,-1.844294 0.31432,-3.658543 0.93717,-5.436968 0.62979,-1.78536 1.30464,-3.511785 2.0315,-5.193143 0.72454,-1.683669 1.39824,-3.302626 2.02456,-4.851093 0.62979,-1.547311 0.94064,-3.014888 0.94064,-4.398108 0,-1.517267 -0.42872,-2.787241 -1.28384,-3.812233 -0.85859,-1.020371 -2.04768,-2.128565 -3.56379,-3.313026 -0.72454,-0.528097 -0.82392,-1.22144 -0.29582,-2.076564 l 2.96519,-4.254818 c 0.33396,-0.459917 0.6633,-0.689876 0.99149,-0.689876 0.33164,0 0.72685,0.132891 1.18677,0.391739"
                   inkscape:connector-curvature="0" />
                <path
                   id="path3104"
                   d="m 139.23459,54.724441 c 8.14332,0 14.40883,1.884739 18.78498,5.649594 4.37847,3.769477 6.56828,9.382092 6.56828,16.852867 0,6.251647 -1.59123,11.210208 -4.77829,14.883773 l 3.76601,3.304937 c 0.55351,0.554675 0.58472,1.043482 0.0913,1.473355 l -1.4722,1.561178 c -0.42641,0.611298 -0.94526,0.611298 -1.55772,0 l -3.9509,-3.490984 c -2.08118,1.467577 -4.5622,2.559593 -7.43957,3.25987 -2.87969,0.704899 -6.12107,1.055037 -9.73917,1.055037 -4.03988,0 -7.621,-0.548897 -10.74451,-1.650157 -3.12466,-1.104728 -5.7559,-2.634705 -7.89949,-4.594556 -2.14705,-1.95754 -3.78335,-4.304507 -4.9158,-7.02588 -1.13131,-2.72484 -1.69985,-5.742039 -1.69985,-9.049288 0,-6.121066 1.65478,-11.083094 4.95856,-14.880305 l -4.03988,-3.490984 c -0.30507,-0.305071 -0.45876,-0.581253 -0.45876,-0.828546 0,-0.240359 0.12249,-0.518852 0.36631,-0.826234 l 1.46873,-1.561178 c 0.3097,-0.306227 0.55352,-0.455296 0.7361,-0.455296 0.18258,0 0.46108,0.149069 0.82624,0.455296 l 4.31722,3.860767 c 4.16699,-3.004488 9.77036,-4.503266 16.81242,-4.503266 l 0,0 z m -0.0358,33.712669 c 3.4436,0 6.39378,-0.368627 8.85168,-1.104727 L 126.66081,68.872114 c -1.10589,0.855124 -1.96794,1.92865 -2.58155,3.214802 -0.61361,1.287308 -0.9233,2.848486 -0.9233,4.683535 0,1.962162 0.41716,3.673565 1.24801,5.142298 0.83086,1.473354 1.95061,2.698261 3.36503,3.675875 1.41326,0.981081 3.10618,1.699847 5.07181,2.157454 1.96794,0.461073 4.08726,0.691032 6.35796,0.691032 l 0,0 z m 0.34089,-22.782109 c -1.5346,0 -3.04031,0.08089 -4.51713,0.231114 -1.47105,0.153691 -2.82769,0.442584 -4.05722,0.870146 l 21.29951,18.558493 c 2.27417,-1.778426 3.41472,-4.503266 3.41472,-8.180297 0,-2.142432 -0.44952,-3.947436 -1.34162,-5.417324 -0.88864,-1.471043 -2.06963,-2.647416 -3.54761,-3.538362 -1.47566,-0.882858 -3.18013,-1.525356 -5.11918,-1.925184 -1.93443,-0.399828 -3.97402,-0.598586 -6.13147,-0.598586 l 0,0 z"
                   inkscape:connector-curvature="0"
                   style="opacity:0.6" />
                <path
                   id="path3106"
                   d="m 130.37135,103.79005 c 0.55121,0.12595 0.93023,0.29235 1.14402,0.50614 0.21724,0.21262 0.32587,0.56854 0.32587,1.05734 l 0,7.62447 15.15533,3.12351 0,-7.62678 c 0,-0.91867 0.49227,-1.28615 1.46873,-1.1001 l 3.67241,0.82623 c 0.92099,0.18143 1.37975,0.67486 1.37975,1.46758 l 0,7.71807 11.57306,2.38626 c 0.49227,0.1248 0.81237,0.26231 0.96606,0.41254 0.156,0.156 0.22765,0.53849 0.22765,1.14864 l 0,4.40966 c 0,0.48765 -0.0717,0.85743 -0.22765,1.10241 -0.15369,0.24499 -0.50499,0.3097 -1.05619,0.18605 l -11.48293,-2.29959 0,12.03413 11.57306,2.38857 c 0.49227,0.12249 0.81237,0.26001 0.96606,0.41139 0.156,0.15484 0.22765,0.50729 0.22765,1.06081 l 0,4.40851 c 0,0.48765 -0.0717,0.87592 -0.22765,1.14979 -0.15369,0.27041 -0.50499,0.3513 -1.05619,0.2265 l -11.48293,-2.38626 0,7.53202 c 0,0.91753 -0.45876,1.25495 -1.37975,1.01113 l -3.76717,-0.7361 c -0.48649,-0.12481 -0.83663,-0.26232 -1.05388,-0.4137 -0.21378,-0.15369 -0.32009,-0.53734 -0.32009,-1.14748 l 0,-7.53433 -15.15533,-3.12236 0,7.7146 c 0,0.61708 -0.12481,0.98108 -0.36863,1.10473 -0.24614,0.1248 -0.61592,0.156 -1.10126,0.089 l -3.67819,-0.82624 c -0.42525,-0.11787 -0.76614,-0.27387 -1.00881,-0.45645 -0.24383,-0.18489 -0.36863,-0.58587 -0.36863,-1.19602 l 0,-7.80935 -11.57421,-2.38626 c -0.4865,-0.1248 -0.81006,-0.28889 -0.96144,-0.50383 -0.15485,-0.21494 -0.22996,-0.56508 -0.22996,-1.05735 l 0,-4.22593 c 0,-0.61476 0.0751,-1.04117 0.22996,-1.28846 0.15138,-0.24383 0.50383,-0.30507 1.05504,-0.18143 l 11.48061,2.38742 0,-12.12542 -11.57421,-2.38973 c -0.4865,-0.12018 -0.81006,-0.2704 -0.96144,-0.45645 -0.15485,-0.18373 -0.22996,-0.55121 -0.22996,-1.10126 l 0,-4.22708 c 0,-0.5489 0.0751,-0.94873 0.22996,-1.19255 0.15138,-0.24498 0.50383,-0.30738 1.05504,-0.18721 l 11.48061,2.39088 0,-7.53202 c 0,-0.55583 0.1248,-0.90481 0.36863,-1.05388 0.24267,-0.156 0.61129,-0.20107 1.10472,-0.13982 l 3.58228,0.82508 0,0 z m 1.46989,28.47561 15.15533,3.21596 0,-12.12311 -15.15533,-3.12814 0,12.03529 0,0 z"
                   inkscape:connector-curvature="0"
                   style="opacity:0.6" />
                <path
                   id="path3108"
                   d="M 173.63598,185.41968 149.67865,174.7965 c -0.68641,-0.39289 -1.11397,-0.72108 -1.28499,-0.99148 -0.16987,-0.26463 -0.2577,-0.74072 -0.2577,-1.42482 l 0,-4.98514 c 0,-0.38827 0.0878,-0.6945 0.2577,-0.91752 0.17102,-0.21841 0.52694,-0.2057 1.06428,0.0381 l 32.82519,15.02128 c 0.68294,0.34321 1.19601,0.67255 1.53806,0.98802 0.33974,0.31778 0.56161,0.74881 0.65752,1.28384 l 0,2.49257 c 0,0.8297 -0.17911,1.41673 -0.55005,1.75763 -0.35938,0.34089 -0.91521,0.68294 -1.64553,1.02614 l -32.75355,15.16689 c -0.58703,0.24729 -0.96374,0.25769 -1.13477,0.037 -0.17102,-0.22072 -0.25885,-0.57432 -0.25885,-1.06313 l 0,-4.687 c 0,-0.53965 0.0716,-0.98108 0.22303,-1.31966 0.14329,-0.34321 0.48418,-0.63788 1.0273,-0.88055 l 24.24969,-10.919"
                   inkscape:connector-curvature="0"
                   style="opacity:0.4" />
                <path
                   id="Fill-58"
                   d="m 140.18153,34.701 -12.84877,-5.69741 c -0.36814,-0.210717 -0.59744,-0.386728 -0.68917,-0.53175 -0.0911,-0.141924 -0.1382,-0.397264 -0.1382,-0.764159 l 0,-2.673624 c 0,-0.208238 0.0471,-0.372473 0.1382,-0.492086 0.0917,-0.117134 0.28261,-0.110316 0.5708,0.02045 l 17.60477,8.056199 c 0.36627,0.184068 0.64144,0.360698 0.82489,0.529891 0.18221,0.170433 0.3012,0.401602 0.35264,0.688548 l 0,1.336813 c 0,0.444984 -0.0961,0.75982 -0.295,0.942647 -0.19275,0.182828 -0.49085,0.366276 -0.88253,0.550343 l -17.56635,8.134289 c -0.31484,0.132627 -0.51688,0.138205 -0.6086,0.01983 -0.0917,-0.118373 -0.13882,-0.308018 -0.13882,-0.570175 l 0,-2.513728 c 0,-0.289425 0.0384,-0.526172 0.11961,-0.70776 0.0768,-0.184067 0.25968,-0.342105 0.55096,-0.472254 L 140.18153,34.701"
                   inkscape:connector-curvature="0"
                   style="opacity:0.2" />
                <path
                   id="path3111"
                   d="m 279.14089,175.31073 c 0.082,0.0532 0.11787,0.17334 0.11787,0.36516 l 0,6.31867 c 0,0.18952 -0.0358,0.31316 -0.11787,0.36747 -0.0786,0.0508 -0.20453,0.0774 -0.38018,0.0774 l -2.14936,0 c -0.18836,0 -0.3201,-0.0266 -0.39174,-0.0774 -0.0693,-0.0543 -0.10516,-0.17795 -0.10516,-0.36747 l 0,-6.31867 c 0,-0.19182 0.0358,-0.312 0.10516,-0.36516 0.0716,-0.0532 0.20338,-0.0774 0.39174,-0.0774 l 2.14936,0 c 0.17565,0 0.3016,0.0243 0.38018,0.0774"
                   inkscape:connector-curvature="0" />
                <path
                   id="path3113"
                   d="m 162.45004,166.75372 c -0.60899,-0.16756 -1.01344,-0.34436 -1.20526,-0.5385 -0.19645,-0.19645 -0.29236,-0.59512 -0.29236,-1.20526 l 0,-3.49445 c 0,-1.21682 0.44489,-1.79807 1.3289,-1.74492 l 20.53453,1.16366 c 0.44258,0.0543 0.83085,0.19299 1.16481,0.41717 0.33396,0.22187 0.4969,0.63672 0.4969,1.24801 l 0,8.64369 c 0,0.71876 -0.16294,1.1937 -0.4969,1.41788 -0.33396,0.2161 -0.72223,0.27387 -1.16481,0.16641 l -20.36581,-6.07369"
                   inkscape:connector-curvature="0" />
                <path
                   id="Fill-45"
                   d="m 235.26381,187.02246 c 0.11209,-0.49921 0.26347,-0.84242 0.45645,-1.03655 0.19298,-0.19645 0.51539,-0.29467 0.95681,-0.29467 l 6.90108,0 2.82653,-13.71665 -6.90108,0 c -0.83201,0 -1.16481,-0.44489 -0.99725,-1.32891 l 0.74881,-3.32342 c 0.16293,-0.83432 0.61014,-1.24802 1.32775,-1.24802 l 6.98543,0 2.15977,-10.47642 c 0.11325,-0.44374 0.23689,-0.73379 0.37209,-0.87361 0.14329,-0.14098 0.48765,-0.20569 1.04117,-0.20569 l 3.99135,0 c 0.44143,0 0.77539,0.0647 0.9961,0.20569 0.22419,0.13982 0.28081,0.45761 0.16987,0.95681 l -2.08118,10.39322 10.89242,0 2.16092,-10.47642 c 0.11094,-0.44374 0.23574,-0.73379 0.3721,-0.87361 0.13982,-0.14098 0.45992,-0.20569 0.96028,-0.20569 l 3.98903,0 c 0.44143,0 0.79388,0.0647 1.04233,0.20569 0.24383,0.13982 0.31663,0.45761 0.20454,0.95681 l -2.16092,10.39322 6.81787,0 c 0.8297,0 1.13593,0.4137 0.91637,1.24802 l -0.66792,3.40894 c -0.11209,0.44143 -0.23805,0.7569 -0.3744,0.95335 -0.13867,0.19413 -0.4865,0.29004 -1.03886,0.29004 l -6.81788,0 -2.82653,13.71665 6.98197,0 c 0.55929,0 0.88863,0.11324 0.99957,0.3328 0.11209,0.22418 0.14213,0.55814 0.0809,0.99842 l -0.74766,3.3292 c -0.10631,0.38365 -0.24845,0.69219 -0.41254,0.9129 -0.16871,0.22072 -0.5304,0.33281 -1.08392,0.33281 l -7.06748,0 -2.15977,10.47526 c -0.11209,0.44143 -0.26116,0.73263 -0.45414,0.87015 -0.19414,0.14098 -0.51307,0.208 -0.95912,0.208 l -3.82379,0 c -0.55583,0 -0.94295,-0.067 -1.16598,-0.208 -0.22071,-0.13752 -0.27618,-0.4553 -0.16524,-0.95451 l 2.16207,-10.3909 -10.97447,0 -2.16438,10.47526 c -0.10747,0.44143 -0.24267,0.73263 -0.41254,0.87015 -0.16525,0.14098 -0.49921,0.208 -0.99495,0.208 l -3.82726,0 c -0.49805,0 -0.85859,-0.067 -1.0793,-0.208 -0.22187,-0.13752 -0.2785,-0.4553 -0.16987,-0.95451 l 2.16439,-10.3909 -6.81672,0 c -0.50268,0 -0.81815,-0.11209 -0.95335,-0.33281 -0.14329,-0.22071 -0.18374,-0.55352 -0.12712,-1.00188 l 0.74766,-3.24022 0,0 z m 25.77042,-1.33122 2.91204,-13.71665 -10.97216,0 -2.83115,13.71665 10.89127,0 0,0 z"
                   inkscape:connector-curvature="0" />
                <path
                   id="Fill-46"
                   d="m 70.992262,124.08999 c 2.166698,0 4.121927,0.25307 5.867997,0.76036 1.751847,0.50614 3.271425,1.27575 4.557577,2.31115 1.288463,1.03886 2.277633,2.35967 2.96751,3.9717 0.693343,1.60855 1.036548,3.49792 1.036548,5.65999 0,4.23402 -1.300018,7.38642 -3.897745,9.45605 -2.602349,2.07194 -6.089867,3.10618 -10.459086,3.10618 -2.164387,0 -4.143882,-0.26347 -5.936175,-0.79272 -1.800382,-0.53157 -3.329204,-1.31158 -4.5934,-2.34697 -1.267663,-1.03539 -2.242967,-2.34812 -2.933999,-3.93588 -0.689877,-1.58891 -1.035393,-3.4621 -1.035393,-5.62764 0,-2.2083 0.345516,-4.10575 1.035393,-5.6935 0.691032,-1.58892 1.657091,-2.88893 2.900487,-3.90006 1.24224,-1.01344 2.751418,-1.75878 4.520599,-2.24297 1.774959,-0.48302 3.760233,-0.72569 5.969687,-0.72569 l 0,0 z m 0.0728,6.55556 c -1.196017,0 -2.349279,0.10515 -3.450539,0.31316 -1.107038,0.20684 -2.083497,0.54196 -2.93631,1.00303 -0.851656,0.45992 -1.531133,1.09433 -2.036118,1.8963 -0.508452,0.80659 -0.760367,1.78305 -0.760367,2.93515 0,1.15095 0.251915,2.10777 0.760367,2.86351 0.504985,0.76152 1.174062,1.37051 1.99914,1.83043 0.828546,0.46107 1.799226,0.77885 2.900487,0.96374 1.103572,0.18374 2.256833,0.2785 3.450539,0.2785 1.199484,0 2.350434,-0.0948 3.454006,-0.2785 1.10126,-0.18489 2.082341,-0.51423 2.933998,-0.99957 0.850501,-0.48187 1.529978,-1.10357 2.039585,-1.86393 0.50383,-0.75806 0.7569,-1.73799 0.7569,-2.93516 0,-1.14748 -0.25307,-2.10314 -0.7569,-2.86582 -0.509607,-0.75574 -1.189084,-1.36473 -2.039585,-1.82465 -0.851657,-0.46107 -1.815404,-0.79619 -2.900486,-1.00303 -1.081616,-0.20801 -2.218699,-0.31316 -3.414717,-0.31316 l 0,0 z m 32.995058,0.55352 c 0.41254,0.23111 0.71299,0.48418 0.89788,0.76267 0.18258,0.27619 0.27734,0.66677 0.27734,1.16944 l 0,2.82884 c 0,0.41948 -0.104,0.69219 -0.31085,0.83317 -0.208,0.1352 -0.4969,0.0924 -0.86437,-0.14098 L 56.29107,108.27944 c -0.413695,-0.22995 -0.702588,-0.42062 -0.862057,-0.58472 -0.162936,-0.16062 -0.246137,-0.47263 -0.246137,-0.93254 l 0,-3.2437 c 0,-0.27733 0.09938,-0.50614 0.277338,-0.69103 0.184891,-0.18258 0.508451,-0.15947 0.968369,0.0705 l 47.631537,28.30113 0,0 z M 89.425953,90.539096 c 2.164387,0 4.120771,0.256537 5.867996,0.762678 1.748381,0.504985 3.267959,1.273441 4.556422,2.313456 1.288459,1.033082 2.277629,2.356212 2.967509,3.96708 0.69334,1.612023 1.03655,3.49792 1.03655,5.65884 0,4.23864 -1.30002,7.38642 -3.900057,9.45605 -2.600038,2.07194 -6.087556,3.10618 -10.459086,3.10618 -2.162076,0 -4.141571,-0.26001 -5.938486,-0.79042 -1.79576,-0.52809 -3.324582,-1.31157 -4.589934,-2.34696 -1.264196,-1.03771 -2.24181,-2.34928 -2.931687,-3.93588 -0.691032,-1.58429 -1.03886,-3.46325 -1.03886,-5.62417 0,-2.21061 0.347828,-4.110375 1.03886,-5.698131 0.689877,-1.585446 1.653624,-2.885465 2.89702,-3.897746 1.244551,-1.012281 2.753729,-1.761092 4.52291,-2.246433 1.772648,-0.483029 3.761388,-0.724544 5.970843,-0.724544 l 0,0 z m 0.06933,6.559029 c -1.198328,0 -2.349279,0.101691 -3.45285,0.309694 -1.103572,0.211469 -2.078875,0.541963 -2.931687,1.003036 -0.851657,0.459918 -1.531134,1.092016 -2.03843,1.896295 -0.504985,0.80775 -0.758056,1.78767 -0.758056,2.934 0,1.1521 0.253071,2.10545 0.758056,2.86582 0.507296,0.76036 1.174061,1.37282 2.000296,1.82811 0.829701,0.46223 1.79807,0.78579 2.901642,0.96375 1.103572,0.1872 2.256833,0.27734 3.451695,0.27734 1.198328,0 2.349278,-0.0901 3.450539,-0.27734 1.103571,-0.17796 2.083497,-0.51423 2.936309,-0.99726 0.84819,-0.48303 1.529978,-1.10357 2.036119,-1.86047 0.504985,-0.76268 0.760366,-1.73682 0.760366,-2.93515 0,-1.15326 -0.255381,-2.10777 -0.760366,-2.86467 -0.506141,-0.760365 -1.187929,-1.370507 -2.036119,-1.830425 -0.852812,-0.461073 -1.81656,-0.791567 -2.900486,-1.003036 -1.080461,-0.208003 -2.218699,-0.309694 -3.417028,-0.309694 l 0,0 z"
                   inkscape:connector-curvature="0"
                   style="opacity:0.2" />
              </g>
            </g>
          </g>
        </g>
      </g>
    </g>
  </g>
</svg>
