<?xml version="1.0" encoding="UTF-8" standalone="no"?>
<svg width="314px" height="289px" viewBox="0 0 314 289" version="1.1" xmlns="http://www.w3.org/2000/svg" xmlns:xlink="http://www.w3.org/1999/xlink" xmlns:sketch="http://www.bohemiancoding.com/sketch/ns">
    <!-- Generator: Sketch 3.0.2 (7799) - http://www.bohemiancoding.com/sketch -->
    <title>fallers.svg</title>
    <description>Created with Sketch.</description>
    <defs></defs>
    <g id="Welcome" stroke="none" stroke-width="1" fill="none" fill-rule="evenodd" sketch:type="MSPage">
        <g id="Mobile-Portrait" sketch:type="MSArtboardGroup" transform="translate(-6.000000, -316.000000)" fill="#B4B5B4">
            <g id="content" sketch:type="MSLayerGroup">
                <g id="header" sketch:type="MSShapeGroup">
                    <g id="fallers.svg" transform="translate(6.000000, 317.000000)">
                        <g id="faller2" transform="translate(86.500000, 113.166466) rotate(-270.000000) translate(-86.500000, -113.166466) translate(-27.000000, 26.666466)">
                            <path d="M167.354381,85.365156 C168.325093,86.3406592 168.811886,87.5777659 168.811886,89.0764762 C168.811886,89.7654613 168.680605,90.4256987 168.417085,91.051439 C168.153565,91.6838871 167.797095,92.2320087 167.354381,92.699637 C166.904959,93.1643905 166.378878,93.527569 165.768469,93.7930055 C165.162853,94.0565255 164.492074,94.1897229 163.762843,94.1897229 C163.032652,94.1897229 162.362833,94.0565255 161.752424,93.7930055 C161.145849,93.527569 160.609227,93.1643905 160.144473,92.699637 C159.676845,92.2320087 159.309833,91.6838871 159.04823,91.051439 C158.781835,90.4256987 158.649596,89.7654613 158.649596,89.0764762 C158.649596,87.5777659 159.137347,86.3406592 160.110934,85.365156 C161.086437,84.3896528 162.300546,83.9047759 163.762843,83.9047759 C165.182976,83.9047759 166.378878,84.3896528 167.354381,85.365156 Z" id="Fill-1" opacity="0.2"></path>
                            <path d="M41.6620368,46.0680916 C43.0821702,46.0680916 44.278072,46.5539267 45.2535752,47.5284717 C46.2262036,48.5030167 46.7149135,49.7391651 46.7149135,51.2397919 C46.7149135,51.9316517 46.5817161,52.5899727 46.3162796,53.2185877 C46.0546761,53.848161 45.7010801,54.3962827 45.2535752,54.8619944 C44.8060703,55.3267479 44.278072,55.6947177 43.6676638,55.9563212 C43.0620468,56.2207995 42.3931851,56.3539969 41.6620368,56.3539969 C40.9337633,56.3539969 40.2620268,56.2207995 39.6554516,55.9563212 C39.0450434,55.6947177 38.5065043,55.3267479 38.0417508,54.8619944 C37.576039,54.3962827 37.2090275,53.848161 36.947424,53.2185877 C36.6810292,52.5899727 36.5487901,51.9316517 36.5487901,51.2397919 C36.5487901,49.7391651 37.0384582,48.5030167 38.0120449,47.5284717 C38.9856316,46.5539267 40.1997402,46.0680916 41.6620368,46.0680916" id="Fill-2"></path>
                            <path d="M119.157047,112.718535 C119.893945,112.718535 120.510103,112.969597 121.018936,113.475556 C121.520103,113.976723 121.773083,114.62067 121.773083,115.397815 C121.773083,115.758118 121.704088,116.096382 121.567058,116.424105 C121.430986,116.749912 121.245084,117.033555 121.018936,117.276952 C120.787039,117.515557 120.510103,117.707208 120.195796,117.84328 C119.881488,117.980311 119.532683,118.048347 119.157047,118.048347 C118.774704,118.048347 118.43069,117.980311 118.114466,117.84328 C117.798242,117.707208 117.521307,117.515557 117.279827,117.276952 C117.038346,117.033555 116.851487,116.749912 116.710623,116.424105 C116.575509,116.096382 116.508432,115.758118 116.508432,115.397815 C116.508432,114.62067 116.757578,113.976723 117.262578,113.475556 C117.768537,112.969597 118.399068,112.718535 119.157047,112.718535" id="Fill-4"></path>
                            <path d="M91.047606,88.458402 C91.7806708,88.458402 92.402578,88.7094647 92.9056617,89.2154231 C93.4125784,89.7213816 93.6636411,90.3605374 93.6636411,91.1405567 C93.6636411,91.4970274 93.5946468,91.8400826 93.4576164,92.1639726 C93.3215442,92.4897792 93.1375593,92.7734226 92.9056617,93.0168193 C92.6756806,93.2554247 92.402578,93.4480338 92.086354,93.584106 C91.77013,93.7230529 91.4270748,93.7891725 91.047606,93.7891725 C90.6690954,93.7891725 90.321249,93.7230529 90.0050249,93.584106 C89.6907174,93.4480338 89.4118653,93.2554247 89.1723017,93.0168193 C88.928905,92.7734226 88.7382123,92.4897792 88.6011819,92.1639726 C88.466068,91.8400826 88.3970737,91.4970274 88.3970737,91.1405567 C88.3970737,90.3605374 88.6519694,89.7213816 89.1531366,89.2154231 C89.659095,88.7094647 90.2896266,88.458402 91.047606,88.458402" id="Fill-5"></path>
                            <path d="M32.7339784,115.381524 C33.4718344,115.381524 34.0908669,115.63642 34.5968254,116.140462 C35.0979926,116.644504 35.3528883,117.284618 35.3528883,118.064637 C35.3528883,118.42015 35.2829357,118.762247 35.144947,119.087095 C35.0098331,119.41386 34.82489,119.696545 34.5968254,119.939942 C34.3639695,120.18238 34.0908669,120.370198 33.7765594,120.50627 C33.4603354,120.642342 33.1124889,120.713253 32.7339784,120.713253 C32.3545095,120.713253 32.0076214,120.642342 31.6933138,120.50627 C31.3790063,120.370198 31.1001542,120.18238 30.8567575,119.939942 C30.6171939,119.696545 30.4284177,119.41386 30.2894708,119.087095 C30.1553151,118.762247 30.0863208,118.42015 30.0863208,118.064637 C30.0863208,117.284618 30.3364253,116.644504 30.8423837,116.140462 C31.3473839,115.63642 31.979832,115.381524 32.7339784,115.381524" id="Fill-6"></path>
                            <path d="M17.2524165,70.9300082 C17.988356,70.9300082 18.6073885,71.1820291 19.1123887,71.6879876 C19.6164307,72.1920295 19.8703681,72.8340601 19.8703681,73.6121629 C19.8703681,73.9686336 19.7994573,74.312647 19.6653016,74.6346206 C19.5282712,74.9613854 19.3433281,75.2450288 19.1123887,75.4874672 C18.8804911,75.7308639 18.6073885,75.9186818 18.293081,76.0547539 C17.976857,76.1917844 17.6290105,76.2579039 17.2524165,76.2579039 C16.8710311,76.2579039 16.5241429,76.1917844 16.2098354,76.0547539 C15.8955279,75.9186818 15.6166758,75.7308639 15.3751956,75.4874672 C15.1337155,75.2450288 14.9468558,74.9613854 14.8059924,74.6346206 C14.6737532,74.312647 14.6018841,73.9686336 14.6018841,73.6121629 C14.6018841,72.8340601 14.8548634,72.1920295 15.3598636,71.6879876 C15.8639055,71.1820291 16.4963536,70.9300082 17.2524165,70.9300082" id="Fill-7"></path>
                            <path d="M53.1773828,-0.256812242 C53.9133223,-0.256812242 54.5323548,-0.00574952782 55.0383133,0.501167175 C55.5394804,1.00520911 55.7943762,1.64532321 55.7943762,2.42342597 C55.7943762,2.78085495 55.7263401,3.12391011 55.5902679,3.44780018 C55.451321,3.77456501 55.2682944,4.05725013 55.0383133,4.30064681 C54.8054574,4.54404348 54.5323548,4.73090314 54.2180473,4.86793355 C53.9018233,5.00304745 53.5539768,5.0739583 53.1773828,5.0739583 C52.7979139,5.0739583 52.4510258,5.00304745 52.1367182,4.86793355 C51.8224107,4.73090314 51.5397256,4.54404348 51.3001619,4.30064681 C51.0586818,4.05725013 50.8699056,3.77456501 50.7328752,3.44780018 C50.596803,3.12391011 50.5297252,2.78085495 50.5297252,2.42342597 C50.5297252,1.64532321 50.7798297,1.00520911 51.2838716,0.501167175 C51.7888718,-0.00574952782 52.4213199,-0.256812242 53.1773828,-0.256812242" id="Fill-8"></path>
                            <path d="M62.157187,-0.256812242 C62.8931265,-0.256812242 63.5112008,-0.00574952782 64.0181175,0.501167175 C64.5192846,1.00520911 64.7722639,1.64532321 64.7722639,2.42342597 C64.7722639,2.78085495 64.7071025,3.12391011 64.5700721,3.44780018 C64.4311252,3.77456501 64.2480986,4.05725013 64.0181175,4.30064681 C63.7862198,4.54404348 63.5112008,4.73090314 63.195935,4.86793355 C62.8816275,5.00304745 62.5356975,5.0739583 62.157187,5.0739583 C61.7796346,5.0739583 61.4308299,5.00304745 61.1146059,4.86793355 C60.8002984,4.73090314 60.5233628,4.54404348 60.2799661,4.30064681 C60.0365695,4.05725013 59.8497098,3.77456501 59.7117211,3.44780018 C59.5746907,3.12391011 59.5095294,2.78085495 59.5095294,2.42342597 C59.5095294,1.64532321 59.7615504,1.00520911 60.2655923,0.501167175 C60.768676,-0.00574952782 61.3992075,-0.256812242 62.157187,-0.256812242" id="Fill-9"></path>
                            <path d="M71.678405,-0.256812242 C72.4114698,-0.256812242 73.0333771,-0.00574952782 73.5364608,0.501167175 C74.0443357,1.00520911 74.2944402,1.64532321 74.2944402,2.42342597 C74.2944402,2.78085495 74.2273624,3.12391011 74.0893737,3.44780018 C73.9561763,3.77456501 73.7693166,4.05725013 73.5364608,4.30064681 C73.3083962,4.54404348 73.0333771,4.73090314 72.7171531,4.86793355 C72.404762,5.00304745 72.0540408,5.0739583 71.678405,5.0739583 C71.2979779,5.0739583 70.952048,5.00304745 70.6377405,4.86793355 C70.3196,4.73090314 70.0426644,4.54404348 69.7992677,4.30064681 C69.5616205,4.05725013 69.3709279,3.77456501 69.2338975,3.44780018 C69.0978253,3.12391011 69.0297892,2.78085495 69.0297892,2.42342597 C69.0297892,1.64532321 69.2789354,1.00520911 69.7858521,0.501167175 C70.2879775,-0.00574952782 70.9204256,-0.256812242 71.678405,-0.256812242" id="Fill-10"></path>
                            <path d="M162.426077,96.8680446 C162.873582,96.8680446 163.180224,96.9293729 163.34121,97.0568208 C163.507947,97.1766026 163.586524,97.4592878 163.586524,97.9087092 L163.586524,123.772002 C163.586524,124.221423 163.507947,124.505067 163.34121,124.624848 C163.180224,124.747505 162.873582,124.814583 162.426077,124.814583 L158.571977,124.814583 C158.123514,124.814583 157.817831,124.747505 157.656844,124.625807 C157.493941,124.506025 157.412489,124.221423 157.412489,123.772002 L157.412489,97.9087092 C157.412489,97.4592878 157.493941,97.1766026 157.656844,97.0568208 C157.817831,96.9293729 158.123514,96.8680446 158.571977,96.8680446 L162.426077,96.8680446 L162.426077,96.8680446 Z M173.98167,96.8038416 C174.430133,96.8038416 174.735816,96.8680446 174.900636,96.989743 C175.065456,97.1114413 175.144033,97.3979595 175.144033,97.8464226 L175.144033,123.772002 C175.144033,124.221423 175.065456,124.505067 174.900636,124.624848 C174.735816,124.747505 174.451215,124.814583 174.042998,124.814583 L170.131403,124.814583 C169.723186,124.814583 169.436668,124.760921 169.273765,124.659346 C169.113736,124.558729 169.02941,124.28371 169.02941,123.835247 L169.02941,97.8464226 C169.02941,97.3979595 169.113736,97.1114413 169.273765,96.989743 C169.436668,96.8680446 169.744268,96.8038416 170.191773,96.8038416 L173.98167,96.8038416 L173.98167,96.8038416 Z" id="Fill-11" opacity="0.2"></path>
                            <path d="M65.627027,29.6033605 L75.3619358,7.65262152 C75.7212813,7.02400648 76.0221733,6.63303859 76.269403,6.47588483 C76.5127997,6.32064758 76.9488055,6.24015419 77.5755041,6.24015419 L82.1425457,6.24015419 C82.4980581,6.24015419 82.7788267,6.32064758 82.982935,6.47588483 C83.1832102,6.63303859 83.1717111,6.95884517 82.9493961,7.45042979 L69.1850265,37.5262098 C68.8707189,38.1509918 68.569827,38.6224531 68.2794758,38.9358024 C67.9891247,39.2472351 67.5943238,39.4503851 67.1046556,39.5385445 L64.8211349,39.5385445 C64.0593224,39.5385445 63.5217416,39.3737247 63.2093506,39.0335443 C62.8969595,38.704863 62.5845685,38.1950715 62.270261,37.5262098 L48.3736523,7.51750762 C48.1465459,6.97896851 48.1379216,6.63399684 48.3391551,6.47684308 C48.5413468,6.32064758 48.8652369,6.24015419 49.3127418,6.24015419 L53.6076391,6.24015419 C54.1020985,6.24015419 54.5064819,6.3053155 54.8169565,6.44330417 C55.131264,6.57458506 55.4005335,6.88793432 55.6238069,7.38526848 L65.627027,29.6033605" id="Fill-12"></path>
                            <path d="M128.351501,125.310959 C128.194347,125.657847 128.009404,125.873454 127.79188,125.966405 C127.571481,126.056481 127.292629,126.10631 126.952449,126.10631 L123.964611,126.10631 C123.65222,126.10631 123.427988,126.052648 123.287125,125.943407 C123.14722,125.833208 123.154886,125.589811 123.310123,125.218966 L132.971246,104.35393 C133.191645,103.888218 133.409169,103.538455 133.625734,103.304641 C133.845175,103.06891 134.217936,102.952003 134.746892,102.952003 L136.335678,102.952003 C136.6749,103.01429 136.948003,103.154195 137.148278,103.375552 C137.352387,103.592117 137.562244,103.914091 137.780726,104.35393 L147.348899,125.267837 C147.506053,125.608018 147.510844,125.833208 147.372855,125.943407 C147.235825,126.052648 147.037466,126.10631 146.789278,126.10631 L143.616497,126.10631 C143.178575,126.10631 142.877683,126.052648 142.707113,125.943407 C142.532711,125.833208 142.322853,125.560105 142.074665,125.126974 L135.304596,109.860061 L128.351501,125.310959" id="Fill-13"></path>
                            <path d="M44.5808804,20.878452 C44.8099033,21.0279397 44.9258521,21.3844105 44.9258521,21.9430729 L44.9258521,40.300357 C44.9258521,40.8590194 44.8099033,41.2126154 44.5808804,41.3668944 C44.3508993,41.5173404 43.9829295,41.5978337 43.4769711,41.5978337 L37.2301091,41.5978337 C36.6724049,41.5978337 36.2900613,41.5173404 36.0878696,41.3668944 C35.8875944,41.2126154 35.7831446,40.8590194 35.7831446,40.300357 L35.7831446,21.9430729 C35.7831446,21.3844105 35.8875944,21.0279397 36.0878696,20.878452 C36.2900613,20.7232148 36.6724049,20.6503874 37.2301091,20.6503874 L43.4769711,20.6503874 C43.9829295,20.6503874 44.3508993,20.7232148 44.5808804,20.878452" id="Fill-15"></path>
                            <path d="M56.6251829,33.6299465 C56.7238832,33.696066 56.7746707,33.8551363 56.7746707,34.0975747 L56.7746707,42.1210408 C56.7746707,42.366354 56.7238832,42.5215912 56.6251829,42.5867525 C56.527441,42.6538304 56.3645377,42.6883275 56.1441391,42.6883275 L53.4131134,42.6883275 C53.1658837,42.6883275 53.0020222,42.6538304 52.9138627,42.5867525 C52.8237868,42.5215912 52.7806654,42.366354 52.7806654,42.1210408 L52.7806654,34.0975747 C52.7806654,33.8551363 52.8237868,33.696066 52.9138627,33.6299465 C53.0020222,33.5647851 53.1658837,33.5312462 53.4131134,33.5312462 L56.1441391,33.5312462 C56.3645377,33.5312462 56.527441,33.5647851 56.6251829,33.6299465" id="Fill-16"></path>
                            <path d="M147.323984,56.4507806 C147.421726,56.5178584 147.471555,56.6721374 147.471555,56.9203254 L147.471555,64.9399584 C147.471555,65.1871881 147.421726,65.3424254 147.323984,65.4104615 C147.223368,65.4756228 147.062381,65.5072452 146.839107,65.5072452 L144.10904,65.5072452 C143.865643,65.5072452 143.700823,65.4756228 143.608831,65.4104615 C143.52163,65.3424254 143.476592,65.1871881 143.476592,64.9399584 L143.476592,56.9203254 C143.476592,56.6721374 143.52163,56.5178584 143.608831,56.4507806 C143.700823,56.3856193 143.865643,56.3539969 144.10904,56.3539969 L146.839107,56.3539969 C147.062381,56.3539969 147.223368,56.3856193 147.323984,56.4507806" id="Fill-17"></path>
                            <path d="M45.4778068,96.835464 C45.5774653,96.9015836 45.625378,97.0568208 45.625378,97.3011757 L45.625378,105.324642 C45.625378,105.571872 45.5774653,105.72615 45.4778068,105.79227 C45.37719,105.859348 45.2181198,105.891929 44.9948464,105.891929 L42.264779,105.891929 C42.0194658,105.891929 41.854646,105.859348 41.7664866,105.79227 C41.6744941,105.72615 41.6332892,105.571872 41.6332892,105.324642 L41.6332892,97.3011757 C41.6332892,97.0568208 41.6744941,96.9015836 41.7664866,96.835464 C41.854646,96.7683862 42.0194658,96.7358055 42.264779,96.7358055 L44.9948464,96.7358055 C45.2181198,96.7358055 45.37719,96.7683862 45.4778068,96.835464" id="Fill-18"></path>
                            <path d="M51.4113195,19.4449031 C51.5100197,19.5129392 51.5627237,19.6662599 51.5627237,19.9134896 L51.5627237,27.9359974 C51.5627237,28.1793941 51.5100197,28.3384644 51.4113195,28.4036257 C51.311661,28.4659122 51.1506742,28.5032841 50.9283591,28.5032841 L48.1973334,28.5032841 C47.9558533,28.5032841 47.7872004,28.4659122 47.6971245,28.4036257 C47.6118398,28.3384644 47.5648854,28.1793941 47.5648854,27.9359974 L47.5648854,19.9134896 C47.5648854,19.6662599 47.6118398,19.5129392 47.6971245,19.4449031 C47.7872004,19.3807 47.9558533,19.3462028 48.1973334,19.3462028 L50.9283591,19.3462028 C51.1506742,19.3462028 51.311661,19.3807 51.4113195,19.4449031" id="Fill-19"></path>
                            <path d="M70.1375316,14.4428139 C70.0742868,14.5434306 69.9190495,14.5932599 69.6718198,14.5932599 L61.6502703,14.5932599 C61.4030406,14.5932599 61.2497198,14.5434306 61.182642,14.4428139 C61.1165224,14.3450719 61.081067,14.1821686 61.081067,13.9608118 L61.081067,11.2326608 C61.081067,10.9863894 61.1165224,10.8196531 61.182642,10.7305354 C61.2497198,10.6433342 61.4030406,10.5992545 61.6502703,10.5992545 L69.6718198,10.5992545 C69.9190495,10.5992545 70.0742868,10.6433342 70.1375316,10.7305354 C70.2074842,10.8196531 70.2391066,10.9863894 70.2391066,11.2326608 L70.2391066,13.9608118 C70.2391066,14.1821686 70.2074842,14.3450719 70.1375316,14.4428139" id="Fill-20"></path>
                            <path d="M133.48008,127.10577 C133.381379,127.03965 133.332508,126.88058 133.332508,126.6391 L133.332508,118.614675 C133.332508,118.369362 133.381379,118.215083 133.48008,118.148964 C133.579738,118.082844 133.741683,118.048347 133.96304,118.048347 L136.694066,118.048347 C136.938421,118.048347 137.105157,118.082844 137.193316,118.148964 C137.283392,118.215083 137.326514,118.369362 137.326514,118.614675 L137.326514,126.6391 C137.326514,126.88058 137.283392,127.03965 137.193316,127.10577 C137.105157,127.172848 136.938421,127.20447 136.694066,127.20447 L133.96304,127.20447 C133.741683,127.20447 133.579738,127.172848 133.48008,127.10577" id="Fill-21"></path>
                            <path d="M92.1793047,4.25560884 C92.1141434,4.35718383 91.9627392,4.40413831 91.713593,4.40413831 L83.6920434,4.40413831 C83.4448137,4.40413831 83.2934095,4.35718383 83.2244151,4.25560884 C83.1582956,4.15882512 83.1247567,3.99592183 83.1247567,3.77456501 L83.1247567,1.04258104 C83.1247567,0.801100876 83.1582956,0.634364569 83.2244151,0.544288633 C83.2934095,0.453254443 83.4448137,0.413966003 83.6920434,0.413966003 L91.713593,0.413966003 C91.9627392,0.413966003 92.1141434,0.453254443 92.1793047,0.544288633 C92.2473408,0.634364569 92.2808797,0.801100876 92.2808797,1.04258104 L92.2808797,3.77456501 C92.2808797,3.99592183 92.2473408,4.15882512 92.1793047,4.25560884" id="Fill-22"></path>
                            <path d="M57.253798,85.3076607 C57.1867202,85.4063609 57.0333994,85.4542737 56.7880862,85.4542737 L48.7646202,85.4542737 C48.5173905,85.4542737 48.3640697,85.4063609 48.2960337,85.3076607 C48.2289558,85.207044 48.1954169,85.0450989 48.1954169,84.8218256 L48.1954169,82.0917582 C48.1954169,81.8493197 48.2289558,81.6797087 48.2960337,81.5953823 C48.3640697,81.5033898 48.5173905,81.4593101 48.7646202,81.4593101 L56.7880862,81.4593101 C57.0333994,81.4593101 57.1867202,81.5033898 57.253798,81.5953823 C57.3189593,81.6797087 57.35154,81.8493197 57.35154,82.0917582 L57.35154,84.8218256 C57.35154,85.0450989 57.3189593,85.207044 57.253798,85.3076607" id="Fill-23"></path>
                            <path d="M53.8606183,122.563643 C53.7935405,122.662343 53.6402198,122.710256 53.3949066,122.710256 L45.373357,122.710256 C45.1261273,122.710256 44.9708901,122.662343 44.9047705,122.563643 C44.8376927,122.463026 44.8041538,122.301081 44.8041538,122.076849 L44.8041538,119.34774 C44.8041538,119.105302 44.8376927,118.935691 44.9047705,118.851364 C44.9708901,118.759372 45.1261273,118.715292 45.373357,118.715292 L53.3949066,118.715292 C53.6402198,118.715292 53.7935405,118.759372 53.8606183,118.851364 C53.9276961,118.935691 53.9602768,119.105302 53.9602768,119.34774 L53.9602768,122.076849 C53.9602768,122.301081 53.9276961,122.463026 53.8606183,122.563643" id="Fill-24"></path>
                            <path d="M74.8895163,126.269213 C74.8416036,126.344916 74.730446,126.377496 74.5550854,126.377496 L68.7662692,126.377496 C68.5918668,126.377496 68.4797511,126.344916 68.4289636,126.269213 C68.3820091,126.197344 68.3580527,126.082354 68.3580527,125.921367 L68.3580527,123.952154 C68.3580527,123.779668 68.3820091,123.658928 68.4289636,123.592808 C68.4797511,123.530522 68.5918668,123.496983 68.7662692,123.496983 L74.5550854,123.496983 C74.730446,123.496983 74.8416036,123.530522 74.8895163,123.592808 C74.9383873,123.658928 74.9613854,123.779668 74.9613854,123.952154 L74.9613854,125.921367 C74.9613854,126.082354 74.9383873,126.197344 74.8895163,126.269213" id="Fill-25"></path>
                            <path d="M11.6226705,77.8476484 C11.7213707,77.9099349 11.7702417,78.0680469 11.7702417,78.3104854 L11.7702417,86.3377844 C11.7702417,86.5802229 11.7213707,86.7354601 11.6226705,86.8034962 C11.5210955,86.8696158 11.361067,86.9021964 11.1377936,86.9021964 L8.40772618,86.9021964 C8.1643295,86.9021964 7.9995097,86.8696158 7.91135027,86.8034962 C7.82127434,86.7354601 7.77623637,86.5802229 7.77623637,86.3377844 L7.77623637,78.3104854 C7.77623637,78.0680469 7.82127434,77.9099349 7.91135027,77.8476484 C7.9995097,77.7767375 8.1643295,77.7470316 8.40772618,77.7470316 L11.1377936,77.7470316 C11.361067,77.7470316 11.5210955,77.7767375 11.6226705,77.8476484" id="Fill-26"></path>
                            <path d="M3.98250627,95.804382 C4.08216475,95.8714598 4.13486875,96.0257388 4.13486875,96.2729685 L4.13486875,104.295476 C4.13486875,104.54079 4.08216475,104.696027 3.98250627,104.761188 C3.88188953,104.828266 3.72281926,104.862763 3.50146244,104.862763 L0.769478473,104.862763 C0.524165286,104.862763 0.361261998,104.828266 0.271186062,104.761188 C0.183026635,104.696027 0.138946922,104.54079 0.138946922,104.295476 L0.138946922,96.2729685 C0.138946922,96.0257388 0.183026635,95.8714598 0.271186062,95.804382 C0.361261998,95.7382624 0.524165286,95.70664 0.769478473,95.70664 L3.50146244,95.70664 C3.72281926,95.70664 3.88188953,95.7382624 3.98250627,95.804382" id="Fill-27"></path>
                            <path d="M114.429019,120.70942 C114.841069,120.823452 115.114171,120.945151 115.247369,121.076432 C115.379608,121.208671 115.445727,121.479857 115.445727,121.896697 L115.445727,124.270294 C115.445727,125.101101 115.141961,125.494944 114.539218,125.457572 L100.575532,124.667012 C100.27464,124.625807 100.008245,124.533814 99.7840135,124.383368 C99.5578654,124.231964 99.4457496,123.949279 99.4457496,123.534355 L99.4457496,117.656421 C99.4457496,117.164836 99.5578654,116.845737 99.7840135,116.691458 C100.008245,116.543887 100.27464,116.50364 100.575532,116.581259 L114.429019,120.70942" id="Fill-28"></path>
                            <path d="M82.7299557,19.3538689 C82.8832765,18.7961647 83.0461798,18.4253201 83.2244151,18.2499595 C83.4036088,18.0698077 83.7687038,17.9826065 84.3283245,17.9826065 L87.528895,17.9826065 C88.6443034,17.9826065 89.1780512,18.3898647 89.1291802,19.2005481 L88.0616845,38.0139614 C88.0118553,38.4202614 87.8844074,38.7757738 87.6802992,39.0804988 C87.476191,39.3871403 87.0967221,39.5375863 86.5371014,39.5375863 L78.6161686,39.5375863 C77.9578477,39.5375863 77.5228001,39.3871403 77.3177336,39.0804988 C77.1193748,38.7757738 77.0666708,38.4202614 77.1663293,38.0139614 L82.7299557,19.3538689" id="Fill-29"></path>
                            <path d="M113.21491,69.8385561 C113.67104,69.8385561 114.202871,69.9765448 114.813279,70.2573134 C115.422729,70.5361655 115.956477,70.8006438 116.413564,71.0564978 L128.372582,78.3670224 C128.881416,78.6219181 129.2743,78.9381421 129.551236,79.321444 C129.833921,79.6999546 129.970951,80.3774406 129.970951,81.3376118 L129.970951,86.7479174 C129.970951,87.3056216 129.833921,87.6860487 129.551236,87.8882404 C129.2743,88.0942652 128.857459,88.0434777 128.295922,87.7368362 L113.366315,78.4455993 L98.2833867,87.3602421 C97.8282158,87.6132214 97.4334149,87.649635 97.1037753,87.4723579 C96.7722192,87.2931643 96.6102741,86.9510674 96.6102741,86.4431925 L96.6102741,81.1133802 C96.6102741,80.1963305 96.7482628,79.5504669 97.0271149,79.1700398 C97.305967,78.7886544 97.7275991,78.4206846 98.2833867,78.0632557 L109.785317,71.1321999 C110.240488,70.8801789 110.764653,70.6013268 111.346314,70.2946853 C111.932766,69.9899604 112.553715,69.8385561 113.21491,69.8385561 L113.21491,69.8385561 Z M113.21491,55.6688448 C113.67104,55.6688448 114.202871,55.80875 114.813279,56.0876021 C115.422729,56.3664542 115.956477,56.6357238 116.413564,56.88487 L128.372582,64.1992276 C128.881416,64.4560398 129.2743,64.7722639 129.551236,65.1517327 C129.833921,65.5340763 129.970951,66.2077293 129.970951,67.1717335 L129.970951,72.5782061 C129.970951,73.1378268 129.833921,73.5201704 129.551236,73.7204457 C129.2743,73.9235956 128.857459,73.8737664 128.295922,73.5680832 L113.366315,64.275888 L98.2833867,73.1895726 C97.8282158,73.4444683 97.4334149,73.480882 97.1037753,73.3036049 C96.7722192,73.1263278 96.6102741,72.7851891 96.6102741,72.2744394 L96.6102741,66.9427106 C96.6102741,65.9787065 96.7482628,65.3165525 97.0271149,64.964873 C97.305967,64.6074441 97.7275991,64.2500151 98.2833867,63.8945026 L109.785317,56.9634468 C110.240488,56.7095094 110.764653,56.4306573 111.346314,56.124974 C111.932766,55.8221656 112.553715,55.6688448 113.21491,55.6688448 L113.21491,55.6688448 Z" id="Fill-31" opacity="0.5"></path>
                            <path d="M190.21491,67.1878031 C190.67104,67.1878031 191.202871,67.3257917 191.813279,67.6065603 C192.422729,67.8854124 192.956477,68.1498907 193.413564,68.4057447 L205.372582,75.7162693 C205.881416,75.971165 206.2743,76.2873891 206.551236,76.6706909 C206.833921,77.0492015 206.970951,77.7266875 206.970951,78.6868587 L206.970951,84.0971644 C206.970951,84.6548686 206.833921,85.0352956 206.551236,85.2374874 C206.2743,85.4435121 205.857459,85.3927246 205.295922,85.0860831 L190.366315,75.7948462 L175.283387,84.7094891 C174.828216,84.9624683 174.433415,84.998882 174.103775,84.8216049 C173.772219,84.6424112 173.610274,84.3003143 173.610274,83.7924394 L173.610274,78.4626271 C173.610274,77.5455774 173.748263,76.8997138 174.027115,76.5192867 C174.305967,76.1379014 174.727599,75.7699316 175.283387,75.4125026 L186.785317,68.4814468 C187.240488,68.2294258 187.764653,67.9505737 188.346314,67.6439323 C188.932766,67.3392073 189.553715,67.1878031 190.21491,67.1878031 L190.21491,67.1878031 Z M190.21491,53.0180917 C190.67104,53.0180917 191.202871,53.1579969 191.813279,53.436849 C192.422729,53.7157011 192.956477,53.9849707 193.413564,54.2341169 L205.372582,61.5484745 C205.881416,61.8052868 206.2743,62.1215108 206.551236,62.5009796 C206.833921,62.8833232 206.970951,63.5569762 206.970951,64.5209804 L206.970951,69.9274531 C206.970951,70.4870738 206.833921,70.8694174 206.551236,71.0696926 C206.2743,71.2728426 205.857459,71.2230133 205.295922,70.9173301 L190.366315,61.6251349 L175.283387,70.5388195 C174.828216,70.7937152 174.433415,70.8301289 174.103775,70.6528518 C173.772219,70.4755747 173.610274,70.1344361 173.610274,69.6236863 L173.610274,64.2919575 C173.610274,63.3279534 173.748263,62.6657994 174.027115,62.31412 C174.305967,61.956691 174.727599,61.599262 175.283387,61.2437495 L186.785317,54.3126938 C187.240488,54.0587563 187.764653,53.7799042 188.346314,53.474221 C188.932766,53.1714125 189.553715,53.0180917 190.21491,53.0180917 L190.21491,53.0180917 Z" id="Fill-54" opacity="0.2"></path>
                            <path d="M148.943435,97.2331397 C150.148919,97.2331397 151.162752,97.6538134 151.993559,98.4999523 C152.817658,99.3422581 153.230666,100.384839 153.230666,101.627695 C153.230666,102.834138 152.817658,103.856596 151.993559,104.698902 C151.162752,105.54504 150.148919,105.969547 148.943435,105.969547 C147.73795,105.969547 146.713576,105.54504 145.868395,104.698902 C145.02609,103.856596 144.604458,102.834138 144.604458,101.627695 C144.604458,100.384839 145.016507,99.3422581 145.841564,98.4999523 C146.669496,97.6538134 147.704411,97.2331397 148.943435,97.2331397 L148.943435,97.2331397 Z M148.943435,83.5943014 C150.148919,83.5943014 151.162752,84.014017 151.993559,84.8601558 C152.817658,85.7034199 153.230666,86.7440844 153.230666,87.9850242 C153.230666,88.5733925 153.120467,89.1330132 152.896235,89.6658028 C152.669129,90.1995506 152.37207,90.6614294 151.993559,91.0581468 C151.612174,91.4567807 151.162752,91.766297 150.64817,91.9905285 C150.13167,92.2147601 149.560551,92.3259177 148.943435,92.3259177 C148.323444,92.3259177 147.756157,92.2147601 147.237741,91.9905285 C146.721242,91.766297 146.263196,91.4567807 145.868395,91.0581468 C145.473595,90.6614294 145.162162,90.1995506 144.93793,89.6658028 C144.715615,89.1330132 144.604458,88.5733925 144.604458,87.9850242 C144.604458,86.7105455 145.016507,85.6593402 145.841564,84.8352412 C146.669496,84.0063509 147.704411,83.5943014 148.943435,83.5943014 L148.943435,83.5943014 Z M148.943435,70.0589547 C150.148919,70.0589547 151.162752,70.4710042 151.993559,71.2979779 C152.817658,72.1220769 153.230666,73.1569919 153.230666,74.3960152 C153.230666,75.6350384 152.817658,76.6785777 151.993559,77.5208835 C151.162752,78.3631894 150.148919,78.7886544 148.943435,78.7886544 C147.73795,78.7886544 146.713576,78.3631894 145.868395,77.5208835 C145.02609,76.6785777 144.604458,75.6350384 144.604458,74.3960152 C144.604458,73.1569919 145.016507,72.1220769 145.841564,71.2979779 C146.669496,70.4710042 147.704411,70.0589547 148.943435,70.0589547 L148.943435,70.0589547 Z" id="Fill-32" opacity="0.1"></path>
                            <path d="M24.8302941,51.9872305 C25.4253703,51.9872305 26.1239379,52.1673824 26.9192892,52.5353522 C27.7146406,52.8985307 28.4103334,53.2444606 29.0082843,53.5750584 L44.6240019,63.1240659 C45.2890306,63.4604133 45.8036133,63.8897113 46.1667919,64.4205844 C46.5299704,64.9485827 46.7149135,65.8100536 46.7149135,67.0059554 L46.7149135,74.0692503 C46.7149135,74.7975239 46.5299704,75.2967745 46.1667919,75.5593363 C45.8036133,75.8238146 45.2574082,75.761528 44.5253017,75.3609776 L25.0286528,63.2246826 L5.3336453,74.8626852 C4.73281965,75.1990326 4.22206993,75.2450288 3.79181359,75.0140894 C3.35964075,74.78315 3.14403346,74.3327704 3.14403346,73.6715747 L3.14403346,66.7079382 C3.14403346,65.5120364 3.32801835,64.6697306 3.69119686,64.1695217 C4.05725013,63.6731458 4.60441353,63.1911437 5.3336453,62.7283067 L20.3533285,53.6795082 C20.9503211,53.3431608 21.6316402,52.9790241 22.3934526,52.5813484 C23.1533485,52.1855892 23.9697815,51.9872305 24.8302941,51.9872305" id="Fill-33"></path>
                            <path d="M139.400177,97.7831778 C139.278478,97.8857111 139.049455,97.9422481 138.716941,97.9422481 L135.705147,97.9422481 C135.404255,97.9422481 135.182898,97.8857111 135.046826,97.7831778 C134.907879,97.6729785 134.838885,97.4516217 134.838885,97.1219821 L134.838885,56.3501639 C134.838885,56.0090252 134.907879,55.7924597 135.046826,55.6851352 C135.182898,55.5749359 135.404255,55.5241484 135.705147,55.5241484 L138.716941,55.5241484 C139.049455,55.5241484 139.278478,55.5749359 139.400177,55.6851352 C139.519958,55.7924597 139.581287,56.0090252 139.581287,56.3501639 L139.581287,97.1219821 C139.581287,97.4516217 139.519958,97.6729785 139.400177,97.7831778" id="Fill-34"></path>
                            <path d="M71.5097522,45.3800648 C78.2625726,45.3800648 83.4582293,46.9429781 87.0871396,50.0649717 C90.7179664,53.1907983 92.5338589,57.8450411 92.5338589,64.0401573 C92.5338589,69.2243149 91.2143423,73.3361855 88.571476,76.382477 L91.6944279,79.1230853 C92.1534318,79.5830475 92.1793047,79.9883892 91.77013,80.34486 L90.5493136,81.639462 C90.1957176,82.1463787 89.7654613,82.1463787 89.2575863,81.639462 L85.9813137,78.7445747 C84.2554971,79.9615581 82.1981244,80.8671087 79.8120704,81.447811 C77.4240998,82.0323464 74.7361956,82.3226975 71.7359003,82.3226975 C68.3858421,82.3226975 65.416211,81.8675266 62.8260487,80.9543099 C60.2349282,80.0382185 58.0529824,78.7694893 56.27542,77.1442895 C54.4949829,75.5210061 53.1380943,73.574791 52.1990048,71.3181013 C51.2608735,69.0585369 50.7894122,66.556534 50.7894122,63.8140092 C50.7894122,58.7381344 52.1616329,54.623389 54.9012829,51.4745643 L51.5512247,48.579677 C51.2982454,48.3266978 51.1707976,48.0976749 51.1707976,47.8926085 C51.1707976,47.6932915 51.2723726,47.4623521 51.4745643,47.2074564 L52.6925059,45.9128544 C52.9493182,45.6589169 53.1515099,45.535302 53.3029141,45.535302 C53.4543184,45.535302 53.6852577,45.6589169 53.9880662,45.9128544 L57.5681055,49.1143831 C61.0235717,46.6229211 65.6701485,45.3800648 71.5097522,45.3800648 L71.5097522,45.3800648 Z M71.4800463,73.3361855 C74.3356451,73.3361855 76.7820692,73.0305023 78.8202768,72.4200941 L61.0829835,57.1119763 C60.1659338,57.8210847 59.4510759,58.7113033 58.9422427,59.7778407 C58.4334094,60.8453364 58.1765972,62.1399384 58.1765972,63.6616467 C58.1765972,65.2887631 58.5225271,66.7079382 59.2115122,67.9258799 C59.9004973,69.1476545 60.829046,70.1634044 62.0019497,70.9740879 C63.1738951,71.7876461 64.5777382,72.3836804 66.2077293,72.7631493 C67.839637,73.1454929 69.597076,73.3361855 71.4800463,73.3361855 L71.4800463,73.3361855 Z M71.7627314,54.4441954 C70.4901693,54.4441954 69.2415635,54.5112732 68.0169141,54.6358463 C66.7970559,54.7632942 65.672065,55.0028579 64.652482,55.3574121 L82.3150315,70.7469815 C84.2008766,69.2722276 85.1466739,67.0126632 85.1466739,63.963497 C85.1466739,62.1868929 84.7739129,60.6900991 84.0341403,59.4711992 C83.2972425,58.2513411 82.3179063,57.2758378 81.0922986,56.5370235 C79.8686074,55.804917 78.4551818,55.2721274 76.8472305,54.9405713 C75.2431123,54.6090152 73.5517928,54.4441954 71.7627314,54.4441954 L71.7627314,54.4441954 Z" id="Fill-36" opacity="0.8"></path>
                            <path d="M64.1599392,86.0675566 C64.6170266,86.1720064 64.9313341,86.3099951 65.1086112,86.4872722 C65.2887631,86.663591 65.378839,86.9587335 65.378839,87.3640752 L65.378839,93.6866393 L77.9463486,96.2768015 L77.9463486,89.9523209 C77.9463486,89.1905085 78.3545651,88.8857835 79.1642902,89.0400625 L82.2096235,89.7252146 C82.9733524,89.8756606 83.3537795,90.2848353 83.3537795,90.942198 L83.3537795,97.3423807 L92.9506997,99.3211765 C93.3589162,99.424668 93.6243527,99.5387003 93.7518006,99.6632734 C93.8811649,99.7926378 93.9405767,100.10982 93.9405767,100.615779 L93.9405767,104.272478 C93.9405767,104.676862 93.8811649,104.983503 93.7518006,105.186653 C93.6243527,105.389803 93.3330433,105.443465 92.8759558,105.340932 L83.3537795,103.434005 L83.3537795,113.413269 L92.9506997,115.393982 C93.3589162,115.495557 93.6243527,115.609589 93.7518006,115.73512 C93.8811649,115.863526 93.9405767,116.155794 93.9405767,116.614798 L93.9405767,120.270539 C93.9405767,120.674923 93.8811649,120.996896 93.7518006,121.224003 C93.6243527,121.448234 93.3330433,121.515312 92.8759558,121.411821 L83.3537795,119.433025 L83.3537795,125.678929 C83.3537795,126.439783 82.9733524,126.719593 82.2096235,126.517401 L79.0857134,125.906993 C78.6822882,125.803502 78.391937,125.689469 78.2117851,125.563938 C78.034508,125.43649 77.9463486,125.11835 77.9463486,124.612391 L77.9463486,118.364571 L65.378839,115.775367 L65.378839,122.172675 C65.378839,122.684383 65.2753475,122.986233 65.0731558,123.088766 C64.8690476,123.192258 64.5624061,123.218131 64.1599392,123.162552 L61.1098146,122.4774 C60.7571769,122.379658 60.4744918,122.250293 60.2732583,122.098889 C60.0710666,121.945568 59.9675751,121.613054 59.9675751,121.107096 L59.9675751,114.631211 L50.3696967,112.652415 C49.9662715,112.548924 49.6979602,112.412851 49.5724288,112.234616 C49.4440227,112.056381 49.3817362,111.766029 49.3817362,111.357813 L49.3817362,107.853476 C49.3817362,107.343684 49.4440227,106.990088 49.5724288,106.785022 C49.6979602,106.58283 49.9902279,106.532043 50.4473153,106.634576 L59.9675751,108.61433 L59.9675751,98.5593641 L50.3696967,96.5776935 C49.9662715,96.478035 49.6979602,96.3534619 49.5724288,96.1991829 C49.4440227,96.0468204 49.3817362,95.7420954 49.3817362,95.2859662 L49.3817362,91.7806708 C49.3817362,91.3254998 49.4440227,90.9939437 49.5724288,90.791752 C49.6979602,90.588602 49.9902279,90.5368563 50.4473153,90.6365147 L59.9675751,92.6191436 L59.9675751,86.3732399 C59.9675751,85.9123194 60.0710666,85.6229265 60.2732583,85.4993116 C60.4744918,85.3699473 60.7801751,85.3325753 61.1893498,85.3833628 L64.1599392,86.0675566 L64.1599392,86.0675566 Z M65.378839,109.680867 L77.9463486,112.34769 L77.9463486,102.294641 L65.378839,99.7006453 L65.378839,109.680867 L65.378839,109.680867 Z" id="Fill-37" opacity="0.3"></path>
                            <path d="M100.036993,153.758664 L80.1704576,144.949429 C79.6012544,144.623623 79.2467001,144.351478 79.1048785,144.127247 C78.964015,143.907806 78.8911877,143.513006 78.8911877,142.945719 L78.8911877,138.811808 C78.8911877,138.489835 78.964015,138.235897 79.1048785,138.050954 C79.2467001,137.869844 79.5418426,137.880385 79.987431,138.082577 L107.207612,150.538929 C107.773941,150.82353 108.199406,151.096633 108.483049,151.358236 C108.764776,151.621756 108.948761,151.979185 109.028296,152.422857 L109.028296,154.489812 C109.028296,155.177839 108.879767,155.664633 108.572167,155.947318 C108.27415,156.230003 107.813229,156.513646 107.207612,156.798248 L80.0468428,169.37534 C79.5600494,169.580406 79.2476584,169.589031 79.1058367,169.406004 C78.964015,169.222977 78.8911877,168.929752 78.8911877,168.52441 L78.8911877,164.637729 C78.8911877,164.190224 78.9505995,163.824171 79.0761308,163.543402 C79.1949544,163.258801 79.4776395,163.014446 79.9280192,162.813212 L100.036993,153.758664" id="Fill-38" opacity="0.4"></path>
                            <path d="M103.681235,161.906703 C103.741605,161.816627 103.885343,161.770631 104.104784,161.770631 L111.366437,161.770631 C111.587794,161.770631 111.729616,161.816627 111.788069,161.906703 C111.848439,161.994863 111.879104,162.142434 111.879104,162.341751 L111.879104,164.81309 C111.879104,165.037321 111.848439,165.186809 111.788069,165.266344 C111.729616,165.347796 111.587794,165.386126 111.366437,165.386126 L104.104784,165.386126 C103.885343,165.386126 103.741605,165.347796 103.681235,165.266344 C103.622782,165.186809 103.592117,165.037321 103.592117,164.81309 L103.592117,162.341751 C103.592117,162.142434 103.622782,161.994863 103.681235,161.906703" id="Fill-39"></path>
                            <path d="M150.453644,161.3375 C150.542762,161.398828 150.585883,161.537775 150.585883,161.76009 L150.585883,169.021744 C150.585883,169.245017 150.542762,169.383964 150.453644,169.444334 C150.361651,169.505663 150.215038,169.536327 150.012847,169.536327 L147.542466,169.536327 C147.323026,169.536327 147.169705,169.505663 147.093045,169.444334 C147.009677,169.383964 146.96943,169.245017 146.96943,169.021744 L146.96943,161.76009 C146.96943,161.537775 147.009677,161.398828 147.093045,161.3375 C147.169705,161.279047 147.323026,161.249341 147.542466,161.249341 L150.012847,161.249341 C150.215038,161.249341 150.361651,161.279047 150.453644,161.3375" id="Fill-40"></path>
                            <path d="M184.172708,164.408706 C184.260867,164.470034 184.303989,164.608023 184.303989,164.830338 L184.303989,172.091034 C184.303989,172.314307 184.260867,172.45517 184.172708,172.513624 C184.081674,172.574952 183.934103,172.605616 183.731911,172.605616 L181.260572,172.605616 C181.04209,172.605616 180.888769,172.574952 180.812109,172.513624 C180.729699,172.45517 180.689452,172.314307 180.689452,172.091034 L180.689452,164.830338 C180.689452,164.608023 180.729699,164.470034 180.812109,164.408706 C180.888769,164.348336 181.04209,164.31863 181.260572,164.31863 L183.731911,164.31863 C183.934103,164.31863 184.081674,164.348336 184.172708,164.408706" id="Fill-41"></path>
                            <path d="M187.526599,145.375853 C187.594635,145.419932 187.624341,145.519591 187.624341,145.678661 L187.624341,150.918397 C187.624341,151.075551 187.594635,151.178084 187.526599,151.223122 C187.461438,151.265286 187.356988,151.287325 187.211333,151.287325 L185.42898,151.287325 C185.272784,151.287325 185.163543,151.265286 185.104132,151.223122 C185.046636,151.178084 185.01693,151.075551 185.01693,150.918397 L185.01693,145.678661 C185.01693,145.519591 185.046636,145.419932 185.104132,145.375853 C185.163543,145.331773 185.272784,145.31165 185.42898,145.31165 L187.211333,145.31165 C187.356988,145.31165 187.461438,145.331773 187.526599,145.375853" id="Fill-42" opacity="0.1"></path>
                            <path d="M89.7616283,137.83343 C89.598725,137.670527 89.5191898,137.339929 89.5191898,136.833971 L89.5191898,133.936209 C89.5191898,132.927167 89.8881179,132.445165 90.6211827,132.489244 L107.649368,133.454207 C108.016379,133.499245 108.338353,133.614235 108.615288,133.800137 C108.892224,133.984121 109.027338,134.328135 109.027338,134.835052 L109.027338,142.002796 C109.027338,142.598831 108.892224,142.992673 108.615288,143.178575 C108.338353,143.357768 108.016379,143.405681 107.649368,143.316563 L90.7610878,138.279977 C90.2560877,138.14103 89.9206985,137.994417 89.7616283,137.83343 Z" id="Fill-43"></path>
                            <path d="M202.761628,148.145006 C202.598725,147.982103 202.51919,147.651505 202.51919,147.145547 L202.51919,144.247785 C202.51919,143.238742 202.888118,142.75674 203.621183,142.80082 L220.649368,143.765782 C221.016379,143.81082 221.338353,143.925811 221.615288,144.111712 C221.892224,144.295697 222.027338,144.639711 222.027338,145.146627 L222.027338,152.314372 C222.027338,152.910406 221.892224,153.304249 221.615288,153.490151 C221.338353,153.669344 221.016379,153.717257 220.649368,153.628139 L203.761088,148.591553 C203.256088,148.452606 202.920699,148.305993 202.761628,148.145006 Z" id="Fill-53" opacity="0.1"></path>
                            <path d="M114.315945,148.434601 C114.315945,142.322853 115.731287,137.620698 118.556222,134.335801 C121.38499,131.050904 125.597477,129.407497 131.205183,129.407497 C135.897756,129.407497 139.6177,130.601483 142.374599,132.993286 L144.85552,130.166435 C145.272361,129.750552 145.639373,129.727554 145.960388,130.098399 L147.133292,131.203267 C147.592296,131.523324 147.592296,131.912375 147.133292,132.372337 L144.513423,135.337177 C145.614458,136.899132 146.433766,138.761979 146.959847,140.920927 C147.488804,143.081791 147.752324,145.515758 147.752324,148.229535 C147.752324,151.262411 147.339316,153.950315 146.512343,156.294206 C145.683452,158.639055 144.535463,160.614018 143.064542,162.223886 C141.596496,163.834712 139.834266,165.062236 137.791267,165.913166 C135.746352,166.761221 133.481996,167.188603 130.999158,167.188603 C126.405286,167.188603 122.681508,165.946705 119.831659,163.466742 L117.211791,166.49866 C116.982768,166.727682 116.775785,166.842673 116.589883,166.842673 C116.409731,166.842673 116.200832,166.751639 115.969893,166.568612 L114.797947,165.465661 C114.568924,165.233763 114.45585,165.050737 114.45585,164.913706 C114.45585,164.776676 114.568924,164.567776 114.797947,164.293716 L117.695709,161.052898 C115.440936,157.926114 114.315945,153.720334 114.315945,148.434601 L114.315945,148.434601 Z M139.6177,148.462391 C139.6177,145.87702 139.340765,143.663452 138.78881,141.818811 L124.933406,157.871493 C125.575437,158.701342 126.381329,159.349122 127.34725,159.810042 C128.313171,160.270963 129.484158,160.50286 130.863086,160.50286 C132.334965,160.50286 133.619026,160.189511 134.721019,159.566645 C135.826845,158.941863 136.745811,158.102432 137.480793,157.040686 C138.215774,155.979898 138.75623,154.709253 139.099285,153.233541 C139.446173,151.75687 139.6177,150.166167 139.6177,148.462391 L139.6177,148.462391 Z M122.519563,148.206537 C122.519563,149.358359 122.579933,150.488141 122.693007,151.595883 C122.808956,152.700751 123.025521,153.718417 123.345578,154.642175 L137.274768,138.655613 C135.939919,136.948961 133.895004,136.09324 131.13523,136.09324 C129.528237,136.09324 128.172307,136.430546 127.070314,137.099407 C125.965447,137.767311 125.082894,138.652738 124.413074,139.762397 C123.751878,140.870139 123.268918,142.149409 122.968026,143.60404 C122.669051,145.055796 122.519563,146.587086 122.519563,148.206537 L122.519563,148.206537 Z" id="Fill-44" opacity="0.3"></path>
                            <path d="M95.1980067,39.9333895 C95.1980067,36.265424 96.0474242,33.4434256 97.7428086,31.4719948 C99.4404935,29.500564 101.968618,28.5142736 105.334082,28.5142736 C108.15033,28.5142736 110.382854,29.2308438 112.037407,30.6662846 L113.526332,28.96975 C113.776499,28.7201581 113.996761,28.7063558 114.189418,28.9289181 L114.893336,29.5920044 C115.168807,29.7840866 115.168807,30.0175758 114.893336,30.2936221 L113.321022,32.0729706 C113.981808,33.0103779 114.473516,34.1283655 114.789244,35.4240579 C115.106697,36.7209005 115.264848,38.1816455 115.264848,39.8103188 C115.264848,41.6304992 115.016982,43.2436448 114.520674,44.6503309 C114.023215,46.057592 113.33425,47.2428658 112.451476,48.2090279 C111.570429,49.1757651 110.512826,49.9124637 109.28672,50.4231494 C108.059465,50.9321098 106.700512,51.1886029 105.210437,51.1886029 C102.453424,51.1886029 100.218599,50.4432778 98.508262,48.9549281 L96.9359482,50.7745334 C96.7985002,50.9119814 96.6742793,50.980993 96.5627106,50.980993 C96.4545925,50.980993 96.3292214,50.9263589 96.1906232,50.8165154 L95.4872802,50.1545794 C95.3498321,50.015406 95.2819707,49.9055626 95.2819707,49.8233238 C95.2819707,49.741085 95.3498321,49.615714 95.4872802,49.4512364 L97.226372,47.50626 C95.8731699,45.6297202 95.1980067,43.1056217 95.1980067,39.9333895 L95.1980067,39.9333895 Z M110.382854,39.9500673 C110.382854,38.3984569 110.216651,37.069984 109.885396,35.9629233 L101.570076,45.5969397 C101.95539,46.0949732 102.439047,46.4837385 103.018744,46.7603599 C103.598441,47.0369813 104.301209,47.1761546 105.128773,47.1761546 C106.012121,47.1761546 106.78275,46.9880981 107.444111,46.6142854 C108.107773,46.2393225 108.65929,45.7355379 109.100389,45.098331 C109.541488,44.4616992 109.865843,43.6991213 110.071727,42.8134727 C110.279912,41.927249 110.382854,40.9725888 110.382854,39.9500673 L110.382854,39.9500673 Z M100.121408,39.7965165 C100.121408,40.4877825 100.157639,41.1658212 100.2255,41.8306328 C100.295087,42.493719 100.425059,43.1044715 100.617141,43.6588645 L108.976743,34.0645298 C108.175634,33.0402829 106.948378,32.5267218 105.2921,32.5267218 C104.327663,32.5267218 103.513902,32.7291557 102.852541,33.1305731 C102.189455,33.5314153 101.659791,34.0628045 101.257798,34.7287662 C100.860982,35.3935778 100.571133,36.1613316 100.390553,37.034328 C100.211123,37.9055992 100.121408,38.8246034 100.121408,39.7965165 L100.121408,39.7965165 Z" id="Fill-52" opacity="0.3"></path>
                            <path d="M206.970951,118.152284 C206.970951,114.484319 207.820369,111.66232 209.515753,109.690889 C211.213438,107.719459 213.741562,106.733168 217.107027,106.733168 C219.923274,106.733168 222.155799,107.449738 223.810351,108.885179 L225.299276,107.188644 C225.549443,106.939053 225.769705,106.92525 225.962362,107.147813 L226.666281,107.810899 C226.941752,108.002981 226.941752,108.23647 226.666281,108.512517 L225.093967,110.291865 C225.754753,111.229272 226.24646,112.34726 226.562188,113.642952 C226.879641,114.939795 227.037793,116.40054 227.037793,118.029213 C227.037793,119.849394 226.789926,121.462539 226.293618,122.869225 C225.79616,124.276486 225.107194,125.46176 224.224421,126.427922 C223.343373,127.39466 222.285771,128.131358 221.059665,128.642044 C219.832409,129.151004 218.473456,129.407497 216.983381,129.407497 C214.226368,129.407497 211.991543,128.662172 210.281206,127.173823 L208.708893,128.993428 C208.571445,129.130876 208.447224,129.199887 208.335655,129.199887 C208.227537,129.199887 208.102166,129.145253 207.963568,129.03541 L207.260225,128.373474 C207.122777,128.2343 207.054915,128.124457 207.054915,128.042218 C207.054915,127.959979 207.122777,127.834608 207.260225,127.670131 L208.999316,125.725154 C207.646114,123.848615 206.970951,121.324516 206.970951,118.152284 L206.970951,118.152284 Z M222.155799,118.168962 C222.155799,116.617351 221.989596,115.288878 221.65834,114.181818 L213.34302,123.815834 C213.728335,124.313868 214.211991,124.702633 214.791688,124.979254 C215.371385,125.255876 216.074153,125.395049 216.901717,125.395049 C217.785065,125.395049 218.555695,125.206993 219.217056,124.83318 C219.880717,124.458217 220.432235,123.954432 220.873334,123.317225 C221.314433,122.680594 221.638787,121.918016 221.844672,121.032367 C222.052856,120.146143 222.155799,119.191483 222.155799,118.168962 L222.155799,118.168962 Z M211.894352,118.015411 C211.894352,118.706677 211.930583,119.384716 211.998445,120.049527 C212.068031,120.712613 212.198003,121.323366 212.390085,121.877759 L220.749688,112.283424 C219.948578,111.259177 218.721323,110.745616 217.065045,110.745616 C216.100608,110.745616 215.286846,110.94805 214.625485,111.349468 C213.962399,111.75031 213.432735,112.281699 213.030743,112.947661 C212.633926,113.612472 212.344078,114.380226 212.163497,115.253223 C211.984067,116.124494 211.894352,117.043498 211.894352,118.015411 L211.894352,118.015411 Z" id="Fill-60" opacity="0.3"></path>
                        </g>
                        <g id="faller" transform="translate(233.410156, 147.366436) rotate(-90.000000) translate(-233.410156, -147.366436) translate(93.910156, 43.366436)">
                            <path d="M250.483854,101.181918 C252.196412,101.181918 253.638567,101.766638 254.814939,102.94301 C255.985534,104.119383 256.572565,105.611227 256.572565,107.418542 C256.572565,108.249399 256.414251,109.045588 256.096469,109.800177 C255.778687,110.562855 255.348814,111.223842 254.814939,111.787761 C254.272976,112.348214 253.638567,112.786176 252.902467,113.106269 C252.172145,113.424052 251.363244,113.584676 250.483854,113.584676 C249.603308,113.584676 248.795563,113.424052 248.059463,113.106269 C247.327986,112.786176 246.680865,112.348214 246.120413,111.787761 C245.556493,111.223842 245.113909,110.562855 244.798438,109.800177 C244.477189,109.045588 244.31772,108.249399 244.31772,107.418542 C244.31772,105.611227 244.905906,104.119383 246.079968,102.94301 C247.25634,101.766638 248.72045,101.181918 250.483854,101.181918" id="Fill-1"></path>
                            <path d="M103.240821,55.5541424 C104.953379,55.5541424 106.395533,56.1400176 107.571906,57.3152347 C108.744812,58.4904518 109.334154,59.9811402 109.334154,61.7907666 C109.334154,62.6250898 109.173529,63.4189681 108.853436,64.1770236 C108.537964,64.9362346 108.111558,65.597222 107.571906,66.1588302 C107.032254,66.7192828 106.395533,67.1630226 105.659434,67.4784939 C104.929112,67.7974318 104.122522,67.9580564 103.240821,67.9580564 C102.362586,67.9580564 101.552529,67.7974318 100.821052,67.4784939 C100.084952,67.1630226 99.4355207,66.7192828 98.8750681,66.1588302 C98.3134599,65.597222 97.8708757,64.9362346 97.5554045,64.1770236 C97.2341553,63.4189681 97.0746863,62.6250898 97.0746863,61.7907666 C97.0746863,59.9811402 97.6651838,58.4904518 98.8392454,57.3152347 C100.013307,56.1400176 101.477417,55.5541424 103.240821,55.5541424" id="Fill-2"></path>
                            <path d="M235.774573,132.748689 C236.662053,132.748689 237.410864,133.049138 238.018695,133.658124 C238.627681,134.269422 238.932752,135.041345 238.932752,135.980825 C238.932752,136.411853 238.850707,136.824393 238.686615,137.214976 C238.519057,137.610182 238.296032,137.951076 238.018695,138.244591 C237.740202,138.533484 237.410864,138.763443 237.031836,138.92869 C236.650497,139.09047 236.231024,139.175983 235.774573,139.175983 C235.319278,139.175983 234.903271,139.09047 234.519621,138.92869 C234.138283,138.763443 233.804322,138.533484 233.513118,138.244591 C233.221914,137.951076 232.994266,137.610182 232.829019,137.214976 C232.664928,136.824393 232.582882,136.411853 232.582882,135.980825 C232.582882,135.041345 232.885642,134.269422 233.49694,133.658124 C234.10246,133.049138 234.860515,132.748689 235.774573,132.748689" id="Fill-3"></path>
                            <path d="M196.693115,135.928824 C197.58175,135.928824 198.324783,136.231584 198.938392,136.841726 C199.542756,137.446091 199.847828,138.222635 199.847828,139.159804 C199.847828,139.5943 199.764626,140.002217 199.59938,140.397423 C199.435288,140.790317 199.211107,141.132367 198.938392,141.425882 C198.658744,141.713619 198.324783,141.944734 197.945755,142.108825 C197.566728,142.274072 197.146099,142.356118 196.693115,142.356118 C196.232042,142.356118 195.817191,142.274072 195.435852,142.108825 C195.054513,141.944734 194.720553,141.713619 194.429349,141.425882 C194.138144,141.132367 193.912808,140.790317 193.742939,140.397423 C193.580003,140.002217 193.499113,139.5943 193.499113,139.159804 C193.499113,138.222635 193.799562,137.446091 194.408548,136.841726 C195.018691,136.231584 195.779057,135.928824 196.693115,135.928824" id="Fill-4"></path>
                            <path d="M181.322847,51.5107946 C182.211482,51.5107946 182.954515,51.8135546 183.568124,52.4236968 C184.172488,53.0280612 184.477559,53.8046058 184.477559,54.741775 C184.477559,55.1762702 184.394358,55.5841873 184.229111,55.9793931 C184.06502,56.3722877 183.840839,56.7143371 183.568124,57.0078525 C183.288475,57.29559 182.954515,57.5267045 182.575487,57.6907958 C182.196459,57.8560426 181.775831,57.9380882 181.322847,57.9380882 C180.861773,57.9380882 180.446923,57.8560426 180.065584,57.6907958 C179.684245,57.5267045 179.350285,57.29559 179.05908,57.0078525 C178.767876,56.7143371 178.54254,56.3722877 178.37267,55.9793931 C178.209735,55.5841873 178.128845,55.1762702 178.128845,54.741775 C178.128845,53.8046058 178.429293,53.0280612 179.03828,52.4236968 C179.648422,51.8135546 180.408789,51.5107946 181.322847,51.5107946" id="Fill-59"></path>
                            <path d="M33.693115,51.5107946 C34.5817501,51.5107946 35.3247832,51.8135546 35.9383921,52.4236968 C36.5427565,53.0280612 36.8478276,53.8046058 36.8478276,54.741775 C36.8478276,55.1762702 36.7646264,55.5841873 36.5993795,55.9793931 C36.4352882,56.3722877 36.2111072,56.7143371 35.9383921,57.0078525 C35.6587436,57.29559 35.3247832,57.5267045 34.9457554,57.6907958 C34.5667277,57.8560426 34.1460993,57.9380882 33.693115,57.9380882 C33.2320416,57.9380882 32.8171911,57.8560426 32.4358522,57.6907958 C32.0545133,57.5267045 31.7205529,57.29559 31.4293487,57.0078525 C31.1381444,56.7143371 30.9128078,56.3722877 30.7429387,55.9793931 C30.5800029,55.5841873 30.4991129,55.1762702 30.4991129,54.741775 C30.4991129,53.8046058 30.7995617,53.0280612 31.4085483,52.4236968 C32.0186906,51.8135546 32.7790572,51.5107946 33.693115,51.5107946" id="Fill-55"></path>
                            <path d="M162.795555,106.673198 C163.679567,106.673198 164.429534,106.975958 165.036209,107.5861 C165.647507,108.196242 165.950267,108.967009 165.950267,109.907645 C165.950267,110.337518 165.867066,110.751213 165.701819,111.141796 C165.537728,111.534691 165.315858,111.87674 165.036209,112.170256 C164.758872,112.457993 164.429534,112.690263 164.048195,112.854355 C163.666856,113.021913 163.253161,113.101647 162.795555,113.101647 C162.339104,113.101647 161.919631,113.021913 161.538292,112.854355 C161.159264,112.690263 160.822993,112.457993 160.534099,112.170256 C160.240584,111.87674 160.010625,111.534691 159.845378,111.141796 C159.682443,110.751213 159.599241,110.337518 159.599241,109.907645 C159.599241,108.967009 159.906624,108.196242 160.510988,107.5861 C161.12113,106.975958 161.881497,106.673198 162.795555,106.673198" id="Fill-5"></path>
                            <path d="M73.8049252,85.535468 C74.6924048,85.535468 75.4389046,85.8393835 76.0478912,86.4495257 C76.6557223,87.0573568 76.961949,87.8315903 76.961949,88.7699151 C76.961949,89.199788 76.8764366,89.6146385 76.7146565,90.0029108 C76.5494096,90.396961 76.3263842,90.7390104 76.0478912,91.0313702 C75.7682427,91.3248856 75.4389046,91.5513778 75.0598768,91.7154691 C74.6785379,91.8807159 74.2590652,91.9604504 73.8049252,91.9604504 C73.3450074,91.9604504 72.9266902,91.8807159 72.5476625,91.7154691 C72.1686347,91.5513778 71.8323632,91.3248856 71.5411589,91.0313702 C71.2499547,90.7390104 71.0246181,90.396961 70.8547489,90.0029108 C70.6952799,89.6146385 70.608612,89.199788 70.608612,88.7699151 C70.608612,87.8315903 70.9136831,87.0573568 71.5226698,86.4495257 C72.1305008,85.8393835 72.8931786,85.535468 73.8049252,85.535468" id="Fill-7" opacity="0.1"></path>
                            <path d="M117.127334,-0.309693399 C118.014814,-0.309693399 118.761313,-0.00693343431 119.371456,0.604364357 C119.97582,1.21219543 120.283202,1.98411779 120.283202,2.92244256 C120.283202,3.35347106 120.201156,3.76716598 120.037065,4.15774944 C119.869507,4.55179963 119.648793,4.89269348 119.371456,5.18620886 C119.090651,5.47972425 118.761313,5.70506087 118.382286,5.87030772 C118.000947,6.03324342 117.581474,6.11875578 117.127334,6.11875578 C116.669727,6.11875578 116.25141,6.03324342 115.872382,5.87030772 C115.493355,5.70506087 115.152461,5.47972425 114.863568,5.18620886 C114.572363,4.89269348 114.344716,4.55179963 114.179469,4.15774944 C114.015378,3.76716598 113.934487,3.35347106 113.934487,2.92244256 C113.934487,1.98411779 114.236092,1.21219543 114.843923,0.604364357 C115.45291,-0.00693343431 116.215587,-0.309693399 117.127334,-0.309693399" id="Fill-8"></path>
                            <path d="M127.956203,-0.309693399 C128.843682,-0.309693399 129.589027,-0.00693343431 130.200324,0.604364357 C130.804689,1.21219543 131.10976,1.98411779 131.10976,2.92244256 C131.10976,3.35347106 131.031181,3.76716598 130.865934,4.15774944 C130.698376,4.55179963 130.477662,4.89269348 130.200324,5.18620886 C129.920676,5.47972425 129.589027,5.70506087 129.208843,5.87030772 C128.829815,6.03324342 128.412654,6.11875578 127.956203,6.11875578 C127.500907,6.11875578 127.080279,6.03324342 126.69894,5.87030772 C126.319912,5.70506087 125.985952,5.47972425 125.692436,5.18620886 C125.398921,4.89269348 125.173584,4.55179963 125.007182,4.15774944 C124.841935,3.76716598 124.763356,3.35347106 124.763356,2.92244256 C124.763356,1.98411779 125.067272,1.21219543 125.675103,0.604364357 C126.281778,-0.00693343431 127.042145,-0.309693399 127.956203,-0.309693399" id="Fill-9"></path>
                            <path d="M139.43797,-0.309693399 C140.321983,-0.309693399 141.071949,-0.00693343431 141.678625,0.604364357 C142.291078,1.21219543 142.592683,1.98411779 142.592683,2.92244256 C142.592683,3.35347106 142.511793,3.76716598 142.34539,4.15774944 C142.184766,4.55179963 141.959429,4.89269348 141.678625,5.18620886 C141.403599,5.47972425 141.071949,5.70506087 140.69061,5.87030772 C140.313894,6.03324342 139.890954,6.11875578 139.43797,6.11875578 C138.979208,6.11875578 138.562046,6.03324342 138.183018,5.87030772 C137.799368,5.70506087 137.465408,5.47972425 137.171893,5.18620886 C136.885311,4.89269348 136.655352,4.55179963 136.490105,4.15774944 C136.326014,3.76716598 136.243968,3.35347106 136.243968,2.92244256 C136.243968,1.98411779 136.544417,1.21219543 137.155715,0.604364357 C137.761234,-0.00693343431 138.523912,-0.309693399 139.43797,-0.309693399" id="Fill-10"></path>
                            <path d="M207.780832,151.114201 C207.591318,151.532518 207.368293,151.792522 207.105978,151.904612 C206.840196,152.013236 206.503925,152.073326 206.093696,152.073326 L202.490622,152.073326 C202.113905,152.073326 201.843501,152.008614 201.673632,151.876879 C201.504918,151.743988 201.514163,151.450472 201.701366,151.003266 L213.351846,125.841833 C213.617628,125.280225 213.879943,124.858441 214.141102,124.576481 C214.405728,124.29221 214.855246,124.15123 215.493122,124.15123 L217.409061,124.15123 C217.818134,124.226343 218.147472,124.395056 218.388986,124.661993 C218.635123,124.923153 218.888194,125.311425 219.151664,125.841833 L230.690055,151.0622 C230.879568,151.472428 230.885346,151.743988 230.718944,151.876879 C230.553697,152.008614 230.314494,152.073326 230.0152,152.073326 L226.1891,152.073326 C225.661004,152.073326 225.298154,152.008614 225.092462,151.876879 C224.882148,151.743988 224.629077,151.41465 224.329784,150.892331 L216.165665,132.481752 L207.780832,151.114201" id="Fill-13"></path>
                            <path d="M187.41618,103.222659 C188.559041,102.82052 189.194606,103.125591 189.328652,104.125161 L192.341229,116.078402 L201.481807,108.147708 C202.012215,107.610367 202.468666,107.39312 202.833827,107.490188 C203.204765,107.589567 203.553748,107.910816 203.89002,108.443535 L206.903753,112.462616 C207.437627,113.132848 207.673364,113.615877 207.602874,113.918637 C207.539317,114.219086 207.171845,114.536868 206.499302,114.870829 C206.298233,115.008342 205.663823,115.372347 204.592608,115.9744 C203.517925,116.577609 202.380842,117.265175 201.177891,118.037097 C199.972629,118.805552 198.850569,119.506985 197.812865,120.14255 C196.776316,120.781581 196.158085,121.135186 195.957015,121.198743 L206.700372,127.527813 C207.372915,127.860618 207.706875,128.196889 207.706875,128.529694 C207.706875,128.868277 207.539317,129.265794 207.204201,129.736112 C207.140645,129.87478 206.937264,130.13594 206.600993,130.539234 C206.264721,130.942529 205.897249,131.396669 205.49511,131.897032 C205.092971,132.397395 204.741677,132.867713 204.443539,133.303364 C204.140779,133.737859 203.923531,133.989774 203.788329,134.052175 C203.452058,134.594138 203.136587,134.89112 202.833827,134.958143 C202.533378,135.025166 202.116216,134.826408 201.578875,134.35609 L192.24185,126.423086 L189.328652,137.872497 C189.127583,138.475706 188.910335,138.861667 188.675754,139.025758 C188.441173,139.193316 187.958143,139.175983 187.218577,138.977224 L182.397529,137.469202 C181.25929,137.202265 180.95653,136.466165 181.49156,135.259748 L186.213229,124.111941 L173.861316,125.318358 C172.924147,125.451249 172.454984,124.916219 172.454984,123.712113 L172.454984,118.389546 C172.454984,117.72047 172.556675,117.303308 172.757744,117.134595 C172.958814,116.969348 173.326286,116.917347 173.861316,116.978593 L186.314919,118.087942 L181.49156,107.041826 C181.159911,106.30457 181.092888,105.786874 181.293957,105.484114 C181.49156,105.183665 181.860188,104.966418 182.397529,104.832371 L187.41618,103.222659" id="Fill-14"></path>
                            <path d="M14.4918083,134.222659 C15.6346694,133.82052 16.2702342,134.125591 16.4042806,135.125161 L19.4168578,147.078402 L28.5574353,139.147708 C29.0878431,138.610367 29.5442942,138.39312 29.909455,138.490188 C30.2803938,138.589567 30.6293766,138.910816 30.9656482,139.443535 L33.979381,143.462616 C34.5132554,144.132848 34.7489922,144.615877 34.6785023,144.918637 C34.6149458,145.219086 34.2474738,145.536868 33.5749306,145.870829 C33.373861,146.008342 32.7394518,146.372347 31.6682362,146.9744 C30.5935539,147.577609 29.4564707,148.265175 28.2535198,149.037097 C27.0482578,149.805552 25.926197,150.506985 24.888493,151.14255 C23.8519446,151.781581 23.2337134,152.135186 23.0326438,152.198743 L33.7760002,158.527813 C34.4485434,158.860618 34.7825038,159.196889 34.7825038,159.529694 C34.7825038,159.868277 34.6149458,160.265794 34.2798298,160.736112 C34.2162733,160.87478 34.0128926,161.13594 33.676621,161.539234 C33.3403494,161.942529 32.9728774,162.396669 32.5707382,162.897032 C32.1685991,163.397395 31.817305,163.867713 31.5191674,164.303364 C31.2164074,164.737859 30.9991598,164.989774 30.8639578,165.052175 C30.5276863,165.594138 30.212215,165.89112 29.909455,165.958143 C29.6090062,166.025166 29.1918446,165.826408 28.6545034,165.35609 L19.3174786,157.423086 L16.4042806,168.872497 C16.203211,169.475706 15.9859634,169.861667 15.7513822,170.025758 C15.516801,170.193316 15.0337717,170.175983 14.2942054,169.977224 L9.47315741,168.469202 C8.33491861,168.202265 8.03215864,167.466165 8.56718866,166.259748 L13.2888574,155.111941 L0.936944196,156.318358 C-0.000225007972,156.451249 -0.469387396,155.916219 -0.469387396,154.712113 L-0.469387396,149.389546 C-0.469387396,148.72047 -0.367697026,148.303308 -0.166627431,148.134595 C0.0344421636,147.969348 0.401914182,147.917347 0.936944196,147.978593 L13.3905478,149.087942 L8.56718866,138.041826 C8.23553938,137.30457 8.16851618,136.786874 8.36958578,136.484114 C8.56718866,136.183665 8.93581625,135.966418 9.47315741,135.832371 L14.4918083,134.222659" id="Fill-56" opacity="0.1"></path>
                            <path d="M106.760694,25.1776111 C107.036876,25.3578804 107.1767,25.7877533 107.1767,26.461452 L107.1767,48.5987522 C107.1767,49.2724509 107.036876,49.6988571 106.760694,49.8849043 C106.483357,50.0663292 106.039617,50.1633972 105.429475,50.1633972 L97.8962983,50.1633972 C97.2237552,50.1633972 96.7626818,50.0663292 96.518856,49.8849043 C96.2773414,49.6988571 96.151384,49.2724509 96.151384,48.5987522 L96.151384,26.461452 C96.151384,25.7877533 96.2773414,25.3578804 96.518856,25.1776111 C96.7626818,24.9904084 97.2237552,24.9025849 97.8962983,24.9025849 L105.429475,24.9025849 C106.039617,24.9025849 106.483357,24.9904084 106.760694,25.1776111" id="Fill-15" opacity="0.2"></path>
                            <path d="M121.285083,40.5548129 C121.404107,40.6345474 121.465353,40.8263724 121.465353,41.1187322 L121.465353,50.7943398 C121.465353,51.0901663 121.404107,51.277369 121.285083,51.3559479 C121.167215,51.436838 120.970768,51.4784386 120.704986,51.4784386 L117.411605,51.4784386 C117.113467,51.4784386 116.915864,51.436838 116.809552,51.3559479 C116.700928,51.277369 116.648927,51.0901663 116.648927,50.7943398 L116.648927,41.1187322 C116.648927,40.8263724 116.700928,40.6345474 116.809552,40.5548129 C116.915864,40.4762339 117.113467,40.4357889 117.411605,40.4357889 L120.704986,40.4357889 C120.970768,40.4357889 121.167215,40.4762339 121.285083,40.5548129" id="Fill-16"></path>
                            <path d="M107.84231,116.775212 C107.962489,116.854946 108.020268,117.042149 108.020268,117.33682 L108.020268,127.012428 C108.020268,127.310565 107.962489,127.496612 107.84231,127.576347 C107.720975,127.657237 107.52915,127.696526 107.259901,127.696526 L103.967676,127.696526 C103.671849,127.696526 103.473091,127.657237 103.366778,127.576347 C103.255843,127.496612 103.206153,127.310565 103.206153,127.012428 L103.206153,117.33682 C103.206153,117.042149 103.255843,116.854946 103.366778,116.775212 C103.473091,116.694322 103.671849,116.655032 103.967676,116.655032 L107.259901,116.655032 C107.52915,116.655032 107.720975,116.694322 107.84231,116.775212" id="Fill-18"></path>
                            <path d="M137.57981,17.416787 C137.503542,17.5381221 137.316339,17.5982119 137.018201,17.5982119 L127.344905,17.5982119 C127.046767,17.5982119 126.861876,17.5381221 126.780986,17.416787 C126.701251,17.2989186 126.658495,17.1024713 126.658495,16.8355341 L126.658495,13.5456195 C126.658495,13.2486374 126.701251,13.0475678 126.780986,12.9400996 C126.861876,12.8349425 127.046767,12.7817862 127.344905,12.7817862 L137.018201,12.7817862 C137.316339,12.7817862 137.503542,12.8349425 137.57981,12.9400996 C137.664166,13.0475678 137.7023,13.2486374 137.7023,13.5456195 L137.7023,16.8355341 C137.7023,17.1024713 137.664166,17.2989186 137.57981,17.416787" id="Fill-20"></path>
                            <path d="M213.965455,153.278588 C213.846431,153.198853 213.787497,153.007028 213.787497,152.715824 L213.787497,143.039061 C213.787497,142.743234 213.846431,142.557187 213.965455,142.477453 C214.085635,142.397718 214.280927,142.356118 214.547864,142.356118 L217.841245,142.356118 C218.135916,142.356118 218.336986,142.397718 218.443298,142.477453 C218.551922,142.557187 218.603923,142.743234 218.603923,143.039061 L218.603923,152.715824 C218.603923,153.007028 218.551922,153.198853 218.443298,153.278588 C218.336986,153.359478 218.135916,153.397612 217.841245,153.397612 L214.547864,153.397612 C214.280927,153.397612 214.085635,153.359478 213.965455,153.278588" id="Fill-21"></path>
                            <path d="M164.160286,5.13189696 C164.081707,5.25438764 163.899126,5.31101068 163.598677,5.31101068 L153.925381,5.31101068 C153.627243,5.31101068 153.444663,5.25438764 153.361462,5.13189696 C153.281727,5.01518415 153.241282,4.81873685 153.241282,4.55179963 L153.241282,1.25726276 C153.241282,0.966058514 153.281727,0.764988919 153.361462,0.656365115 C153.444663,0.546585738 153.627243,0.49920727 153.925381,0.49920727 L163.598677,0.49920727 C163.899126,0.49920727 164.081707,0.546585738 164.160286,0.656365115 C164.242331,0.764988919 164.282776,0.966058514 164.282776,1.25726276 L164.282776,4.55179963 C164.282776,4.81873685 164.242331,5.01518415 164.160286,5.13189696" id="Fill-22"></path>
                            <path d="M122.043139,102.873676 C121.962249,102.9927 121.777357,103.050479 121.481531,103.050479 L111.805923,103.050479 C111.507785,103.050479 111.322894,102.9927 111.240848,102.873676 C111.159958,102.752341 111.119513,102.557049 111.119513,102.287801 L111.119513,98.9955751 C111.119513,98.7032153 111.159958,98.498679 111.240848,98.3969886 C111.322894,98.2860537 111.507785,98.2328973 111.805923,98.2328973 L121.481531,98.2328973 C121.777357,98.2328973 121.962249,98.2860537 122.043139,98.3969886 C122.121718,98.498679 122.161007,98.7032153 122.161007,98.9955751 L122.161007,102.287801 C122.161007,102.557049 122.121718,102.752341 122.043139,102.873676" id="Fill-23"></path>
                            <path d="M117.951257,147.801175 C117.870367,147.920199 117.685475,147.977977 117.389649,147.977977 L107.716352,147.977977 C107.418215,147.977977 107.231012,147.920199 107.151278,147.801175 C107.070387,147.67984 107.029942,147.484548 107.029942,147.214144 L107.029942,143.923074 C107.029942,143.630714 107.070387,143.426178 107.151278,143.324487 C107.231012,143.213552 107.418215,143.160396 107.716352,143.160396 L117.389649,143.160396 C117.685475,143.160396 117.870367,143.213552 117.951257,143.324487 C118.032147,143.426178 118.071437,143.630714 118.071437,143.923074 L118.071437,147.214144 C118.071437,147.484548 118.032147,147.67984 117.951257,147.801175" id="Fill-24" opacity="0.1"></path>
                            <path d="M143.310293,152.269773 C143.252514,152.361063 143.118468,152.400353 142.906998,152.400353 L135.926186,152.400353 C135.715871,152.400353 135.580669,152.361063 135.519424,152.269773 C135.462801,152.183105 135.433912,152.044437 135.433912,151.8503 L135.433912,149.475599 C135.433912,149.267596 135.462801,149.121994 135.519424,149.04226 C135.580669,148.967147 135.715871,148.926702 135.926186,148.926702 L142.906998,148.926702 C143.118468,148.926702 143.252514,148.967147 143.310293,149.04226 C143.369227,149.121994 143.396961,149.267596 143.396961,149.475599 L143.396961,151.8503 C143.396961,152.044437 143.369227,152.183105 143.310293,152.269773" id="Fill-25"></path>
                            <path d="M67.0159375,93.877545 C67.1349614,93.9526572 67.1938956,94.1433267 67.1938956,94.4356865 L67.1938956,104.115916 C67.1938956,104.408276 67.1349614,104.595479 67.0159375,104.677525 C66.8934468,104.757259 66.7004662,104.796548 66.4312178,104.796548 L63.1389921,104.796548 C62.8454767,104.796548 62.6467183,104.757259 62.5404056,104.677525 C62.4317818,104.595479 62.3774699,104.408276 62.3774699,104.115916 L62.3774699,94.4356865 C62.3774699,94.1433267 62.4317818,93.9526572 62.5404056,93.877545 C62.6467183,93.7920326 62.8454767,93.7562099 63.1389921,93.7562099 L66.4312178,93.7562099 C66.7004662,93.7562099 66.8934468,93.7920326 67.0159375,93.877545" id="Fill-26" opacity="0.1"></path>
                            <path d="M57.8025588,115.531816 C57.9227384,115.612706 57.9862948,115.798753 57.9862948,116.096891 L57.9862948,125.771343 C57.9862948,126.067169 57.9227384,126.254372 57.8025588,126.332951 C57.6812237,126.413841 57.4893987,126.455442 57.2224615,126.455442 L53.9279246,126.455442 C53.6320981,126.455442 53.4356508,126.413841 53.327027,126.332951 C53.2207143,126.254372 53.167558,126.067169 53.167558,125.771343 L53.167558,116.096891 C53.167558,115.798753 53.2207143,115.612706 53.327027,115.531816 C53.4356508,115.452081 53.6320981,115.413948 53.9279246,115.413948 L57.2224615,115.413948 C57.4893987,115.413948 57.6812237,115.452081 57.8025588,115.531816" id="Fill-27" opacity="0.1"></path>
                            <path d="M189.991521,145.565142 C190.488417,145.702655 190.817755,145.849413 190.97838,146.007726 C191.137849,146.167195 191.217583,146.494222 191.217583,146.996896 L191.217583,149.859249 C191.217583,150.86113 190.851267,151.336071 190.124412,151.291003 L173.285411,150.337656 C172.922561,150.287967 172.601312,150.177032 172.330908,149.995607 C172.058193,149.813026 171.922991,149.472132 171.922991,148.97177 L171.922991,141.883489 C171.922991,141.29068 172.058193,140.905874 172.330908,140.719827 C172.601312,140.541869 172.922561,140.493335 173.285411,140.586936 L189.991521,145.565142" id="Fill-28"></path>
                            <path d="M97.1694433,13.7830497 C97.6663394,13.9205629 97.9956775,14.0673206 98.1563021,14.225634 C98.3157711,14.385103 98.3955056,14.7121299 98.3955056,15.2148039 L98.3955056,18.0771567 C98.3955056,19.079038 98.0291891,19.5539782 97.3023341,19.5089109 L80.4633333,18.5555637 C80.1004836,18.5058741 79.7792345,18.3949391 79.5088305,18.2135143 C79.2361154,18.0309338 79.1009135,17.69004 79.1009135,17.1896771 L79.1009135,10.1013961 C79.1009135,9.50858749 79.2361154,9.12378189 79.5088305,8.93773473 C79.7792345,8.75977658 80.1004836,8.71124254 80.4633333,8.80484391 L97.1694433,13.7830497" id="Fill-57" opacity="0.3"></path>
                            <path d="M152.765186,23.3390955 C152.950078,22.6665523 153.146525,22.2193458 153.361462,22.0078761 C153.577554,21.7906285 154.017827,21.6854714 154.692681,21.6854714 L158.552293,21.6854714 C159.897379,21.6854714 160.541033,22.1765896 160.482099,23.1542039 L159.194791,45.8415565 C159.134701,46.3315192 158.98101,46.7602366 158.734873,47.1277086 C158.488736,47.4974917 158.03113,47.6789166 157.356275,47.6789166 L147.804314,47.6789166 C147.010436,47.6789166 146.485806,47.4974917 146.238513,47.1277086 C145.99931,46.7602366 145.935754,46.3315192 146.055933,45.8415565 L152.765186,23.3390955" id="Fill-29" opacity="0.412138526"></path>
                            <path d="M264.447791,89.518726 C264.938909,89.5811269 265.367626,89.7371291 265.736254,89.9809549 C266.101415,90.2247807 266.283995,90.6835429 266.283995,91.3583972 L266.283995,100.816757 C266.283995,101.674192 266.101415,102.227711 265.736254,102.473848 C265.367626,102.717674 264.938909,102.746563 264.447791,102.561671 L242.495382,95.8605072 C241.820528,95.6779268 241.362921,95.4768572 241.116784,95.258454 C240.872958,95.0458287 240.747001,94.6032445 240.747001,93.9283902 L240.747001,90.0687784 C240.747001,88.7826264 241.268164,88.145906 242.31049,88.145906 L264.447791,89.518726 L264.447791,89.518726 Z M264.447791,71.2387264 C264.938909,71.2999717 265.367626,71.439796 265.736254,71.6501102 C266.101415,71.8685134 266.283995,72.3110976 266.283995,72.9859518 L266.283995,82.5379132 C266.283995,83.3341026 266.101415,83.8552657 265.736254,84.0967803 C265.367626,84.3429173 264.938909,84.411096 264.447791,84.2805163 L242.495382,77.5770409 C241.820528,77.3967716 241.362921,77.179524 241.116784,76.9333871 C240.872958,76.6918725 240.747001,76.2296435 240.747001,75.5547893 L240.747001,71.7876233 C240.747001,70.3836028 241.268164,69.7387934 242.31049,69.8647508 L264.447791,71.2387264 L264.447791,71.2387264 Z" id="Fill-30"></path>
                            <path d="M189.527411,84.219271 C190.077463,84.219271 190.718806,84.3856734 191.454905,84.7242561 C192.189849,85.0605277 192.833503,85.3794657 193.384711,85.6880035 L207.806255,94.5038652 C208.419864,94.8112475 208.893648,95.1925864 209.227609,95.6548153 C209.568502,96.1112664 209.733749,96.9282561 209.733749,98.0861396 L209.733749,104.610501 C209.733749,105.283044 209.568502,105.741807 209.227609,105.985632 C208.893648,106.234081 208.390974,106.172835 207.713809,105.803052 L189.709991,94.5986222 L171.521282,105.348912 C170.972385,105.653983 170.496289,105.697895 170.098772,105.484114 C169.698944,105.268022 169.503652,104.855483 169.503652,104.243029 L169.503652,97.8157357 C169.503652,96.7098529 169.670055,95.9309971 170.006326,95.4722349 C170.342598,95.0123171 170.85105,94.5685773 171.521282,94.1375488 L185.391617,85.7792937 C185.940514,85.4753782 186.572612,85.1391066 187.274044,84.7693235 C187.981255,84.4018514 188.730066,84.219271 189.527411,84.219271 L189.527411,84.219271 Z M189.527411,67.1318221 C190.077463,67.1318221 190.718806,67.3005357 191.454905,67.6368073 C192.189849,67.9730788 192.833503,68.2977947 193.384711,68.5982435 L207.806255,77.4187275 C208.419864,77.7284209 208.893648,78.1097598 209.227609,78.5673665 C209.568502,79.0284399 209.733749,79.8408072 209.733749,81.0033131 L209.733749,87.5230525 C209.733749,88.1979067 209.568502,88.6589801 209.227609,88.9004947 C208.893648,89.1454761 208.390974,89.0853863 207.713809,88.7167587 L189.709991,77.5111733 L171.521282,88.2603076 C170.972385,88.5676899 170.496289,88.6116016 170.098772,88.3978208 C169.698944,88.1840399 169.503652,87.7726561 169.503652,87.156736 L169.503652,80.7271313 C169.503652,79.5646254 169.670055,78.7661249 170.006326,78.3420299 C170.342598,77.9110014 170.85105,77.4799729 171.521282,77.0512555 L185.391617,68.6930004 C185.940514,68.3867738 186.572612,68.0505022 187.274044,67.6818746 C187.981255,67.3167137 188.730066,67.1318221 189.527411,67.1318221 L189.527411,67.1318221 Z" id="Fill-31" opacity="0.2"></path>
                            <path d="M232.612927,117.254774 C234.066637,117.254774 235.289233,117.762071 236.291114,118.782441 C237.284906,119.798189 237.782958,121.055452 237.782958,122.554229 C237.782958,124.009095 237.284906,125.242091 236.291114,126.257839 C235.289233,127.278209 234.066637,127.790128 232.612927,127.790128 C231.159217,127.790128 229.92391,127.278209 228.904695,126.257839 C227.888947,125.242091 227.380495,124.009095 227.380495,122.554229 C227.380495,121.055452 227.877391,119.798189 228.872339,118.782441 C229.870754,117.762071 231.118772,117.254774 232.612927,117.254774 L232.612927,117.254774 Z M232.612927,100.807513 C234.066637,100.807513 235.289233,101.313653 236.291114,102.334024 C237.284906,103.350927 237.782958,104.605879 237.782958,106.102345 C237.782958,106.811867 237.650067,107.486721 237.379663,108.129219 C237.105792,108.772873 236.747565,109.329859 236.291114,109.808266 C235.831196,110.288984 235.289233,110.662234 234.66869,110.932638 C234.045837,111.203042 233.357116,111.337088 232.612927,111.337088 C231.865272,111.337088 231.181173,111.203042 230.556008,110.932638 C229.933155,110.662234 229.380791,110.288984 228.904695,109.808266 C228.428599,109.329859 228.053038,108.772873 227.782634,108.129219 C227.514542,107.486721 227.380495,106.811867 227.380495,106.102345 C227.380495,104.565434 227.877391,103.297771 228.872339,102.303979 C229.870754,101.304409 231.118772,100.807513 232.612927,100.807513 L232.612927,100.807513 Z M232.612927,84.4850527 C234.066637,84.4850527 235.289233,84.9819488 236.291114,85.9792077 C237.284906,86.973 237.782958,88.2210182 237.782958,89.7151733 C237.782958,91.2093284 237.284906,92.4677467 236.291114,93.4834948 C235.289233,94.4992429 234.066637,95.0123171 232.612927,95.0123171 C231.159217,95.0123171 229.92391,94.4992429 228.904695,93.4834948 C227.888947,92.4677467 227.380495,91.2093284 227.380495,89.7151733 C227.380495,88.2210182 227.877391,86.973 228.872339,85.9792077 C229.870754,84.9819488 231.118772,84.4850527 232.612927,84.4850527 L232.612927,84.4850527 Z" id="Fill-32"></path>
                            <path d="M82.9431916,62.692113 C83.6608021,62.692113 84.5032144,62.9093607 85.4623394,63.3531004 C86.4214645,63.7910624 87.2604101,64.208224 87.9814872,64.6068965 L106.812695,76.1221753 C107.614662,76.5277812 108.235204,77.0454776 108.673166,77.6856647 C109.111128,78.3223851 109.334154,79.3612447 109.334154,80.803399 L109.334154,89.3211231 C109.334154,90.1993581 109.111128,90.8014113 108.673166,91.1180381 C108.235204,91.4369761 107.576528,91.3618639 106.693671,90.8788347 L83.1823951,76.2435104 L59.4319159,90.277937 C58.707372,90.6835429 58.0914519,90.7390104 57.5725999,90.4605175 C57.0514368,90.1820245 56.791433,89.6389055 56.791433,88.8415605 L56.791433,80.444016 C56.791433,79.0018617 57.0133029,77.9861136 57.4512648,77.3829048 C57.8926935,76.7843183 58.5525253,76.2030654 59.4319159,75.6449239 L77.5443575,64.7328539 C78.2642791,64.327248 79.085891,63.8881305 80.0045711,63.4085679 C80.92094,62.9313165 81.9054876,62.692113 82.9431916,62.692113" id="Fill-33" opacity="0.2"></path>
                            <path d="M221.104582,117.918073 C220.957824,118.041719 220.681642,118.109898 220.280658,118.109898 L216.648694,118.109898 C216.285845,118.109898 216.018908,118.041719 215.854816,117.918073 C215.687258,117.785182 215.604057,117.518245 215.604057,117.120728 L215.604057,67.9534341 C215.604057,67.5420503 215.687258,67.280891 215.854816,67.1514669 C216.018908,67.0185761 216.285845,66.9573307 216.648694,66.9573307 L220.280658,66.9573307 C220.681642,66.9573307 220.957824,67.0185761 221.104582,67.1514669 C221.249028,67.280891 221.322985,67.5420503 221.322985,67.9534341 L221.322985,117.120728 C221.322985,117.518245 221.249028,117.785182 221.104582,117.918073" id="Fill-34"></path>
                            <path d="M171.161899,22.2193458 C173.932961,23.8695032 176.106593,25.8305095 177.689727,28.1058316 C179.275172,30.3834647 180.065584,33.0355033 180.065584,36.071192 C180.065584,37.8496179 179.767446,39.5968434 179.174638,41.3140239 C178.580673,43.0312045 177.903508,44.724118 177.145452,46.4100981 C176.389708,48.091456 175.712543,49.7254353 175.118579,51.3027916 C174.524614,52.8882369 174.228788,54.3731474 174.228788,55.7563676 C174.228788,57.2747897 174.558126,58.6591654 175.217958,59.9094947 C175.876634,61.1644463 176.865804,62.4147757 178.185468,63.6720384 C178.846455,64.3307147 178.943523,64.9870798 178.478983,65.6503783 L175.513784,69.507679 C174.922131,70.1651997 174.294655,70.26689 173.635979,69.8058166 C170.800205,67.6957415 168.690129,65.5336655 167.304598,63.3242111 C165.916756,61.1147567 165.228034,58.6268094 165.228034,55.8534357 C165.228034,54.0091421 165.54235,52.1948935 166.165204,50.4164676 C166.794991,48.6311083 167.469845,46.9046831 168.1967,45.2233253 C168.921244,43.5396563 169.594943,41.9206994 170.221263,40.3722324 C170.85105,38.824921 171.161899,37.3573441 171.161899,35.9741239 C171.161899,34.4568574 170.733181,33.1868833 169.878058,32.1618906 C169.019467,31.1415202 167.830383,30.0333263 166.314273,28.8488646 C165.589729,28.320768 165.490349,27.6274246 166.018446,26.772301 L168.983645,22.5174835 C169.317605,22.0575657 169.646943,21.8276068 169.975126,21.8276068 C170.306775,21.8276068 170.701981,21.9604976 171.161899,22.2193458" id="Fill-35"></path>
                            <path d="M139.234589,54.7244414 C147.377908,54.7244414 153.643421,56.60918 158.019574,60.3740348 C162.398038,64.143512 164.587847,69.756127 164.587847,77.2269025 C164.587847,83.4785491 162.996624,88.4371102 159.809556,92.1106748 L163.575566,95.4156118 C164.129085,95.9702866 164.160286,96.4590937 163.666856,96.8889666 L162.194657,98.4501449 C161.768251,99.0614427 161.249399,99.0614427 160.636945,98.4501449 L156.686043,94.9591608 C154.604858,96.4267377 152.123844,97.5187536 149.246468,98.2190305 C146.366782,98.9239296 143.125401,99.274068 139.507304,99.274068 C135.467423,99.274068 131.886304,98.7251712 128.762792,97.6239107 C125.638125,96.5191835 123.006886,94.9892056 120.863299,93.0293549 C118.716246,91.0718153 117.079955,88.7248477 115.947495,86.0034748 C114.816189,83.2786351 114.247648,80.2614356 114.247648,76.9541874 C114.247648,70.8331205 115.902427,65.8710927 119.206209,62.0738818 L115.166328,58.5828976 C114.861256,58.2778265 114.707565,58.0016447 114.707565,57.7543522 C114.707565,57.5139932 114.830056,57.2355002 115.073882,56.928118 L116.542614,55.3669397 C116.852308,55.060713 117.096133,54.9116442 117.278714,54.9116442 C117.461294,54.9116442 117.739787,55.060713 118.104948,55.3669397 L122.422167,59.227707 C126.589161,56.2232188 132.192531,54.7244414 139.234589,54.7244414 L139.234589,54.7244414 Z M139.198767,88.4371102 C142.642372,88.4371102 145.592549,88.0684826 148.050451,87.332383 L126.660806,68.8721142 C125.554923,69.7272377 124.692866,70.8007645 124.079257,72.0869165 C123.465648,73.3742242 123.155955,74.9354025 123.155955,76.7704514 C123.155955,78.7326133 123.573117,80.444016 124.403973,81.9127485 C125.23483,83.3861033 126.354579,84.61101 127.769,85.5886243 C129.182265,86.5697052 130.875179,87.2884713 132.840807,87.7460779 C134.808747,88.2071513 136.928067,88.4371102 139.198767,88.4371102 L139.198767,88.4371102 Z M139.53966,65.6550006 C138.00506,65.6550006 136.499349,65.7358907 135.022528,65.8861151 C133.551484,66.0398062 132.194842,66.3286993 130.965313,66.7562611 L152.264823,85.3147536 C154.53899,83.5363277 155.67954,80.811488 155.67954,77.1344567 C155.67954,74.9920255 155.230022,73.1870214 154.33792,71.7171334 C153.449285,70.2460897 152.26829,69.069717 150.790313,68.1787707 C149.314647,67.2959134 147.610178,66.6534152 145.671127,66.2535871 C143.736699,65.8537591 141.697114,65.6550006 139.53966,65.6550006 L139.53966,65.6550006 Z" id="Fill-36" opacity="0.6"></path>
                            <path d="M130.371349,103.790045 C130.922557,103.916002 131.301585,104.082405 131.515366,104.296186 C131.732613,104.508811 131.841237,104.864727 131.841237,105.353534 L131.841237,112.978001 L146.996569,116.101513 L146.996569,108.474735 C146.996569,107.556055 147.488843,107.188583 148.465301,107.37463 L152.13771,108.200865 C153.058702,108.38229 153.517464,108.875719 153.517464,109.668442 L153.517464,117.38651 L165.090521,119.772767 C165.582795,119.897568 165.902889,120.035082 166.05658,120.185306 C166.212582,120.341308 166.284228,120.723803 166.284228,121.333945 L166.284228,125.743609 C166.284228,126.231261 166.212582,126.601044 166.05658,126.846025 C165.902889,127.091006 165.551595,127.155719 165.000387,127.032072 L153.517464,124.732483 L153.517464,136.766614 L165.090521,139.155182 C165.582795,139.277673 165.902889,139.415186 166.05658,139.566566 C166.212582,139.721413 166.284228,140.073862 166.284228,140.627381 L166.284228,145.03589 C166.284228,145.523542 166.212582,145.911814 166.05658,146.185685 C165.902889,146.456089 165.551595,146.536979 165.000387,146.412177 L153.517464,144.02592 L153.517464,151.557941 C153.517464,152.475465 153.058702,152.812892 152.13771,152.569066 L148.370545,151.832967 C147.884049,151.708165 147.53391,151.570652 147.316663,151.419272 C147.102882,151.265581 146.996569,150.881931 146.996569,150.271789 L146.996569,142.737457 L131.841237,139.6151 L131.841237,147.329701 C131.841237,147.946777 131.716435,148.310782 131.47261,148.434428 C131.226473,148.55923 130.856689,148.590431 130.371349,148.523408 L126.693162,147.697173 C126.267912,147.579305 125.927018,147.423303 125.684347,147.240722 C125.440522,147.055831 125.31572,146.654847 125.31572,146.044705 L125.31572,138.235347 L113.741507,135.84909 C113.255011,135.724288 112.931451,135.560197 112.780071,135.34526 C112.625224,135.130324 112.550112,134.780185 112.550112,134.287911 L112.550112,130.061983 C112.550112,129.447219 112.625224,129.020812 112.780071,128.77352 C112.931451,128.529694 113.2839,128.468449 113.835108,128.592095 L125.31572,130.979508 L125.31572,118.854087 L113.741507,116.464363 C113.255011,116.344183 112.931451,116.193959 112.780071,116.007912 C112.625224,115.824176 112.550112,115.456704 112.550112,114.906651 L112.550112,110.679567 C112.550112,110.130671 112.625224,109.730843 112.780071,109.487017 C112.931451,109.242035 113.2839,109.179635 113.835108,109.299814 L125.31572,111.690693 L125.31572,104.158673 C125.31572,103.602842 125.440522,103.253859 125.684347,103.10479 C125.927018,102.948788 126.295645,102.903721 126.789075,102.964966 L130.371349,103.790045 L130.371349,103.790045 Z M131.841237,132.26566 L146.996569,135.481618 L146.996569,123.358508 L131.841237,120.230373 L131.841237,132.26566 L131.841237,132.26566 Z" id="Fill-37" opacity="0.6"></path>
                            <path d="M173.635979,185.419678 L149.678652,174.796501 C148.992242,174.403607 148.564681,174.075424 148.393656,173.80502 C148.223787,173.540394 148.135963,173.064298 148.135963,172.380199 L148.135963,167.39506 C148.135963,167.006788 148.223787,166.700561 148.393656,166.477536 C148.564681,166.259132 148.920597,166.271844 149.457938,166.51567 L182.283127,181.536955 C182.966071,181.88016 183.479145,182.209498 183.821194,182.524969 C184.160932,182.842752 184.382802,183.27378 184.478715,183.80881 L184.478715,186.30138 C184.478715,187.131081 184.299601,187.718112 183.928662,188.059006 C183.569279,188.399899 183.013449,188.741949 182.283127,189.085154 L149.529584,204.252041 C148.942553,204.499334 148.565836,204.509734 148.394812,204.28902 C148.223787,204.068305 148.135963,203.7147 148.135963,203.225893 L148.135963,198.538892 C148.135963,197.999239 148.207609,197.557811 148.358989,197.219228 C148.50228,196.876023 148.843174,196.581352 149.386293,196.338682 L173.635979,185.419678" id="Fill-38" opacity="0.4"></path>
                            <path d="M140.181527,34.7010003 L127.33276,29.0035897 C126.964625,28.7928729 126.735315,28.6168624 126.643592,28.4718396 C126.552488,28.3299156 126.505386,28.0745765 126.505386,27.7076813 L126.505386,25.0340569 C126.505386,24.8258191 126.552488,24.6615839 126.643592,24.5419711 C126.735315,24.4248374 126.9262,24.4316547 127.214386,24.5624231 L144.819156,32.6186225 C145.185431,32.8026898 145.460603,32.9793201 145.64405,33.1485133 C145.826258,33.318946 145.945251,33.5501147 145.996691,33.8370614 L145.996691,35.1738736 C145.996691,35.618858 145.900629,35.9336937 145.701687,36.1165215 C145.508944,36.2993493 145.210841,36.4827969 144.819156,36.6668642 L127.252811,44.8011528 C126.937975,44.9337804 126.735935,44.9393582 126.644211,44.820985 C126.552488,44.7026117 126.505386,44.5129666 126.505386,44.2508101 L126.505386,41.7370825 C126.505386,41.4476567 126.543811,41.2109102 126.624999,41.0293219 C126.701849,40.8452546 126.884676,40.687217 127.175961,40.5570684 L140.181527,34.7010003" id="Fill-58" opacity="0.2"></path>
                            <path d="M279.140893,175.310731 C279.222939,175.363887 279.258762,175.484067 279.258762,175.675892 L279.258762,181.994562 C279.258762,182.184076 279.222939,182.307722 279.140893,182.362034 C279.062315,182.412879 278.936357,182.439457 278.76071,182.439457 L276.611346,182.439457 C276.422987,182.439457 276.291252,182.412879 276.219607,182.362034 C276.150272,182.307722 276.114449,182.184076 276.114449,181.994562 L276.114449,175.675892 C276.114449,175.484067 276.150272,175.363887 276.219607,175.310731 C276.291252,175.257575 276.422987,175.233308 276.611346,175.233308 L278.76071,175.233308 C278.936357,175.233308 279.062315,175.257575 279.140893,175.310731" id="Fill-42"></path>
                            <path d="M162.450038,166.753717 C161.841052,166.586159 161.436601,166.409357 161.244776,166.215221 C161.048329,166.018773 160.952417,165.620101 160.952417,165.009959 L160.952417,161.515508 C160.952417,160.29869 161.397312,159.717437 162.281325,159.770594 L182.815846,160.934255 C183.25843,160.988567 183.646703,161.127236 183.980663,161.351417 C184.314624,161.573286 184.477559,161.988137 184.477559,162.599435 L184.477559,171.243116 C184.477559,171.961882 184.314624,172.436822 183.980663,172.661004 C183.646703,172.877096 183.25843,172.934874 182.815846,172.827406 L162.450038,166.753717" id="Fill-43"></path>
                            <path d="M235.26381,187.022457 C235.375901,186.52325 235.527281,186.180045 235.720261,185.985909 C235.913242,185.789461 236.235646,185.691238 236.677075,185.691238 L243.578153,185.691238 L246.404683,171.974594 L239.503605,171.974594 C238.671593,171.974594 238.338788,171.529698 238.506346,170.645685 L239.255157,167.322259 C239.418093,166.487936 239.865299,166.074241 240.58291,166.074241 L247.568345,166.074241 L249.72811,155.597822 C249.841356,155.154082 249.965002,154.864033 250.100204,154.724209 C250.243495,154.583229 250.587855,154.518517 251.141375,154.518517 L255.132722,154.518517 C255.57415,154.518517 255.908111,154.583229 256.128825,154.724209 C256.353006,154.864033 256.409629,155.181816 256.298694,155.681023 L254.217508,166.074241 L265.109934,166.074241 L267.270854,155.597822 C267.381789,155.154082 267.506591,154.864033 267.642948,154.724209 C267.782773,154.583229 268.102866,154.518517 268.603229,154.518517 L272.592265,154.518517 C273.033693,154.518517 273.386143,154.583229 273.634591,154.724209 C273.878417,154.864033 273.951218,155.181816 273.839127,155.681023 L271.678207,166.074241 L278.496084,166.074241 C279.325785,166.074241 279.632012,166.487936 279.412453,167.322259 L278.744532,170.731198 C278.632442,171.172626 278.506484,171.488098 278.370127,171.684545 C278.231458,171.878681 277.883631,171.974594 277.331267,171.974594 L270.51339,171.974594 L267.68686,185.691238 L274.668828,185.691238 C275.228125,185.691238 275.557464,185.804484 275.668398,186.024043 C275.780489,186.248224 275.810534,186.582184 275.749289,187.022457 L275.001633,190.351661 C274.895321,190.735311 274.753185,191.043849 274.589094,191.264563 C274.42038,191.485278 274.058686,191.597368 273.505167,191.597368 L266.437686,191.597368 L264.277921,202.072632 C264.165831,202.514061 264.016762,202.805265 263.823782,202.942778 C263.629645,203.083758 263.310707,203.150781 262.864656,203.150781 L259.040867,203.150781 C258.485037,203.150781 258.09792,203.083758 257.874895,202.942778 C257.654181,202.805265 257.598713,202.487482 257.709648,201.988275 L259.871724,191.597368 L248.897253,191.597368 L246.732866,202.072632 C246.625398,202.514061 246.490196,202.805265 246.320327,202.942778 C246.15508,203.083758 245.821119,203.150781 245.325379,203.150781 L241.498123,203.150781 C241.000071,203.150781 240.639533,203.083758 240.418818,202.942778 C240.196949,202.805265 240.140325,202.487482 240.248949,201.988275 L242.413336,191.597368 L235.596615,191.597368 C235.093941,191.597368 234.77847,191.485278 234.643268,191.264563 C234.499977,191.043849 234.459532,190.711044 234.516155,190.262682 L235.26381,187.022457 L235.26381,187.022457 Z M261.03423,185.691238 L263.946272,171.974594 L252.974112,171.974594 L250.14296,185.691238 L261.03423,185.691238 L261.03423,185.691238 Z" id="Fill-45"></path>
                            <path d="M70.992262,124.089985 C73.1589603,124.089985 75.1141887,124.343055 76.8602586,124.850352 C78.6121063,125.356492 80.131684,126.126104 81.4178361,127.161496 C82.7062993,128.200356 83.6954693,129.521175 84.385346,131.133199 C85.0786894,132.741755 85.4218944,134.631116 85.4218944,136.793192 C85.4218944,141.027209 84.1218755,144.179611 81.5241488,146.249241 C78.9217997,148.321182 75.4342823,149.35542 71.0650631,149.35542 C68.900676,149.35542 66.9211805,149.091949 65.1288878,148.562697 C63.328506,148.031134 61.7996837,147.251122 60.5354875,146.215729 C59.2678246,145.180337 58.2925215,143.867606 57.6014892,142.27985 C56.9116125,140.690938 56.5660964,138.817755 56.5660964,136.652212 C56.5660964,134.443914 56.9116125,132.546464 57.6014892,130.958707 C58.2925215,129.369795 59.25858,128.069776 60.5019759,127.05865 C61.7442162,126.045213 63.2533938,125.299869 65.0225751,124.815684 C66.7975343,124.332655 68.7828076,124.089985 70.992262,124.089985 L70.992262,124.089985 Z M71.0650631,130.645547 C69.8690457,130.645547 68.7157844,130.750704 67.614524,130.958707 C66.5074856,131.165555 65.5310269,131.500671 64.6782145,131.961744 C63.8265577,132.421662 63.1470811,133.056071 62.642096,133.858038 C62.1336441,134.664628 61.8817294,135.641087 61.8817294,136.793192 C61.8817294,137.944142 62.1336441,138.900956 62.642096,139.656701 C63.1470811,140.418223 63.8161575,141.027209 64.6412362,141.487127 C65.4697816,141.948201 66.4404624,142.265983 67.5417229,142.450875 C68.6452945,142.634611 69.7985558,142.729368 70.992262,142.729368 C72.1917462,142.729368 73.3426963,142.634611 74.4462679,142.450875 C75.5475284,142.265983 76.5286093,141.936645 77.3802662,141.451305 C78.2307675,140.969431 78.910244,140.347733 79.4198514,139.587366 C79.923681,138.829311 80.1767514,137.849385 80.1767514,136.652212 C80.1767514,135.504729 79.923681,134.549071 79.4198514,133.786393 C78.910244,133.030649 78.2307675,132.421662 77.3802662,131.961744 C76.5286093,131.500671 75.564862,131.165555 74.4797795,130.958707 C73.3981637,130.750704 72.2610805,130.645547 71.0650631,130.645547 L71.0650631,130.645547 Z M104.060121,131.199066 C104.472661,131.430181 104.77311,131.683251 104.958001,131.961744 C105.140582,132.237926 105.235339,132.628509 105.235339,133.131183 L105.235339,135.960025 C105.235339,136.379497 105.131337,136.652212 104.92449,136.793192 C104.716487,136.928394 104.427593,136.885638 104.060121,136.652212 L56.2910702,108.279444 C55.8773752,108.049485 55.5884821,107.858815 55.4290132,107.694724 C55.2660774,107.534099 55.1828762,107.222095 55.1828762,106.762177 L55.1828762,103.518485 C55.1828762,103.241148 55.2822555,103.012345 55.4602136,102.827453 C55.6451052,102.644873 55.9686655,102.667984 56.4285833,102.897943 L104.060121,131.199066 L104.060121,131.199066 Z M89.4259527,90.5390964 C91.5903398,90.5390964 93.5467239,90.7956335 95.2939493,91.3017742 C97.0423303,91.8067593 98.561908,92.5752149 99.8503712,93.6152301 C101.138834,94.6483118 102.128004,95.9714422 102.817881,97.5823101 C103.511225,99.1943335 103.85443,101.080228 103.85443,103.241148 C103.85443,107.479788 102.554411,110.627567 99.9543727,112.697197 C97.3543349,114.769138 93.8668174,115.803375 89.4952871,115.803375 C87.3332111,115.803375 85.3537156,115.543372 83.5568006,115.012964 C81.7610411,114.484867 80.2322188,113.701389 78.9668671,112.665996 C77.7026709,111.628292 76.7250566,110.316718 76.0351799,108.730117 C75.3441476,107.145827 74.9963204,105.266866 74.9963204,103.105946 C74.9963204,100.895336 75.3441476,98.9955751 76.0351799,97.4078186 C76.7250566,95.8223733 77.688804,94.5223544 78.9321999,93.510073 C80.1767514,92.4977916 81.6859289,91.7489807 83.4551102,91.2636403 C85.2277583,90.780611 87.2164983,90.5390964 89.4259527,90.5390964 L89.4259527,90.5390964 Z M89.4952871,97.0981252 C88.2969585,97.0981252 87.1460084,97.1998156 86.0424368,97.4078186 C84.9388652,97.6192884 83.9635621,97.9497821 83.1107496,98.4108555 C82.2590928,98.8707733 81.5796162,99.5028714 81.07232,100.30715 C80.5673348,101.114895 80.3142645,102.09482 80.3142645,103.241148 C80.3142645,104.393254 80.5673348,105.346601 81.07232,106.106968 C81.5796162,106.867334 82.2463815,107.479788 83.0726158,107.935083 C83.9023167,108.397312 84.8706864,108.720872 85.974258,108.89883 C87.0778296,109.086033 88.2310909,109.176168 89.4259527,109.176168 C90.6242813,109.176168 91.7752314,109.086033 92.8764919,108.89883 C93.9800635,108.720872 94.9599889,108.384601 95.8128013,107.901571 C96.6609914,107.418542 97.3427791,106.798 97.8489198,106.0411 C98.353905,105.278422 98.6092865,104.304275 98.6092865,103.105946 C98.6092865,101.952685 98.353905,100.998182 97.8489198,100.241282 C97.3427791,99.4809155 96.6609914,98.8707733 95.8128013,98.4108555 C94.9599889,97.9497821 93.9962415,97.6192884 92.9123146,97.4078186 C91.8318544,97.1998156 90.6936156,97.0981252 89.4952871,97.0981252 L89.4952871,97.0981252 Z" id="Fill-46" opacity="0.2"></path>
                        </g>
                    </g>
                </g>
            </g>
        </g>
    </g>
</svg>