<?xml version="1.0" encoding="UTF-8" standalone="no"?>
<svg width="116px" height="116px" viewBox="0 0 116 116" version="1.1" xmlns="http://www.w3.org/2000/svg" xmlns:xlink="http://www.w3.org/1999/xlink" xmlns:sketch="http://www.bohemiancoding.com/sketch/ns">
    <!-- Generator: Sketch 3.0.2 (7799) - http://www.bohemiancoding.com/sketch -->
    <title>logo.svg</title>
    <description>Created with Sketch.</description>
    <defs></defs>
    <g id="Welcome" stroke="none" stroke-width="1" fill="none" fill-rule="evenodd" sketch:type="MSPage">
        <g id="Mobile-Portrait" sketch:type="MSArtboardGroup" transform="translate(-101.000000, -92.000000)">
            <g id="content" sketch:type="MSLayerGroup">
                <g id="header" sketch:type="MSShapeGroup">
                    <g id="logo.svg" transform="translate(101.000000, 92.000000)">
                        <circle id="logobg" fill="#FFFFFF" cx="58" cy="58" r="58"></circle>
                        <g id="logo" transform="translate(20.000000, 19.000000)" fill="#DB342A">
                            <path d="M26.350759,2.96105639 C26.047507,2.9779213 25.8312404,2.79873164 25.6995652,2.42348742 L25.0499673,0.571720413 C24.9941051,0.411082156 24.9845287,0.277427752 25.0240313,0.171178826 C25.0647309,0.0632434086 25.1692731,0.00590271813 25.3400519,0 L49.650492,0.0649298995 C49.9517489,0.0476433678 50.1632274,0.209968116 50.2825331,0.5510609 L50.959663,2.48124973 C51.0035547,2.60562843 51.011136,2.72536929 50.984801,2.83836418 C50.9552738,2.95135907 50.8455445,3.00321866 50.6512237,2.99984568 L26.350759,2.96105639" id="Fill-1"></path>
                            <path d="M41,7.01253133 C41,7.57184628 40.8101135,8.04302423 40.4328173,8.42564745 C40.0530444,8.8091061 39.5713106,9 38.9876161,9 C38.7201238,9 38.4625387,8.94862155 38.2194014,8.84419382 C37.9737874,8.74101921 37.7611971,8.60150376 37.578741,8.42564745 C37.3975232,8.24979114 37.255934,8.04302423 37.1535604,7.80242272 C37.050774,7.56349206 37,7.30033417 37,7.01253133 C37,6.72431078 37.050774,6.46157059 37.1535604,6.22055138 C37.255934,5.98245614 37.3975232,5.77025898 37.578741,5.5877193 C37.7611971,5.4047619 37.9737874,5.26023392 38.2194014,5.15580618 C38.4625387,5.05137845 38.7201238,5 38.9876161,5 C39.5713106,5 40.0530444,5.19131161 40.4328173,5.57477026 C40.8101135,5.95781119 41,6.43859649 41,7.01253133" id="Fill-2"></path>
                            <path d="M56,29.0125287 C56,29.5717269 55.8109781,30.0428064 55.432109,30.426185 C55.0532398,30.8078931 54.5724309,31 53.9880314,31 C53.721007,31 53.463475,30.9482147 53.2203879,30.8442264 C52.9748246,30.7406557 52.7622782,30.601587 52.5810978,30.426185 C52.3995047,30.2486949 52.2558811,30.0428064 52.1547668,29.8018375 C52.0511762,29.5625392 52,29.2990186 52,29.0125287 C52,28.7252036 52.0511762,28.4612654 52.1547668,28.2223846 C52.2558811,27.9818334 52.3995047,27.771351 52.5810978,27.5875966 C52.7622782,27.4034245 52.9748246,27.259762 53.2203879,27.1574441 C53.463475,27.0526206 53.721007,27 53.9880314,27 C54.5724309,27 55.0532398,27.1929422 55.432109,27.5754855 C55.8109781,27.9584464 56,28.436208 56,29.0125287" id="Fill-3"></path>
                            <path d="M32,71.5081604 C32,71.9270602 31.8578256,72.2812815 31.5734767,72.5690107 C31.2903226,72.8561354 30.9265233,73 30.4904421,73 C30.2891278,73 30.0979689,72.9607092 29.9145759,72.8827322 C29.7293907,72.8047552 29.5686977,72.7007858 29.4342891,72.5690107 C29.2956989,72.4372355 29.1899642,72.2812815 29.1146953,72.1011485 C29.037037,71.9222245 29,71.7233528 29,71.5081604 C29,71.292968 29.037037,71.0953053 29.1146953,70.9163812 C29.1899642,70.7338303 29.2956989,70.5778763 29.4342891,70.4394519 C29.5686977,70.302841 29.7293907,70.1946403 29.9145759,70.1148499 C30.0979689,70.0380818 30.2891278,70 30.4904421,70 C30.9265233,70 31.2903226,70.1432601 31.5734767,70.4309893 C31.8578256,70.7175096 32,71.0777755 32,71.5081604" id="Fill-4"></path>
                            <path d="M32,59.5087684 C32,59.9278371 31.8577973,60.2809917 31.5721968,60.5700464 C31.2913762,60.854868 30.928102,61 30.4895439,61 C30.2893846,61 30.0963951,60.9588793 29.913563,60.8838944 C29.7295359,60.8046765 29.570006,60.7006652 29.4331806,60.5700464 C29.2981478,60.4370087 29.191197,60.2809917 29.1159132,60.1013908 C29.0376419,59.9205805 29,59.7240476 29,59.5087684 C29,59.2922798 29.0376419,59.0945374 29.1159132,58.9143318 C29.191197,58.7353356 29.2981478,58.5775045 29.4331806,58.4396291 C29.570006,58.3017537 29.7295359,58.1947188 29.913563,58.1148962 C30.0963951,58.0387019 30.2893846,58 30.4895439,58 C30.928102,58 31.2913762,58.1427132 31.5721968,58.4299536 C31.8577973,58.7184035 32,59.07821 32,59.5087684" id="Fill-5"></path>
                            <path d="M40,48.5084643 C40,48.9286578 39.8607847,49.2829504 39.5733918,49.5713422 C39.2907787,49.856711 38.928102,50 38.4907389,50 C38.2869946,50 38.0981876,49.9619105 37.914758,49.8833132 C37.7307309,49.805925 37.570006,49.7013301 37.4343756,49.5713422 C37.2999403,49.4389359 37.191197,49.2829504 37.1147182,49.1015719 C37.0370444,48.9226119 37,48.7261185 37,48.5084643 C37,48.2932285 37.0370444,48.095526 37.1147182,47.9165659 C37.191197,47.7363966 37.2999403,47.5798065 37.4343756,47.4407497 C37.570006,47.3035067 37.7307309,47.1958888 37.914758,47.1160822 C38.0981876,47.0399033 38.2869946,47 38.4907389,47 C38.928102,47 39.2907787,47.1451028 39.5733918,47.4316808 C39.8607847,47.7188634 40,48.0785973 40,48.5084643" id="Fill-6"></path>
                            <path d="M21,34.5090616 C21,34.9289166 20.8573134,35.2817157 20.5731343,35.5686669 C20.2901493,35.8574305 19.9283582,36 19.4907463,36 C19.2889552,36 19.0985075,35.9613371 18.9152239,35.882199 C18.7301493,35.8066855 18.5713433,35.7015707 18.4352239,35.5686669 C18.2991045,35.4363673 18.1934328,35.2817157 18.1164179,35.1010874 C18.038806,34.9216673 18,34.7253323 18,34.5090616 C18,34.2939992 18.038806,34.0964559 18.1164179,33.9164317 C18.1934328,33.7382199 18.2991045,33.5793395 18.4352239,33.442207 C18.5713433,33.3032622 18.7301493,33.1963351 18.9152239,33.1190093 C19.0985075,33.0404752 19.2889552,33 19.4907463,33 C19.9283582,33 20.2901493,33.1467982 20.5731343,33.4325413 C20.8573134,33.7200967 21,34.0789368 21,34.5090616" id="Fill-7"></path>
                            <path d="M30,26.5090653 C30,26.9284851 29.8578822,27.2802176 29.5730494,27.5684932 C29.290008,27.85556 28.9281449,28 28.491043,28 C28.2916003,28 28.098129,27.9595085 27.9148089,27.8827558 C27.7296975,27.8041902 27.571457,27.7002417 27.4347134,27.5684932 C27.3009554,27.4355359 27.1928742,27.2802176 27.1152468,27.1013296 C27.0382166,26.9212329 27,26.7242143 27,26.5090653 C27,26.2933118 27.0382166,26.095689 27.1152468,25.9143836 C27.1928742,25.7373086 27.3009554,25.5753425 27.4347134,25.4405721 C27.571457,25.30278 27.7296975,25.1946011 27.9148089,25.1166398 C28.098129,25.0392828 28.2916003,25 28.491043,25 C28.9281449,25 29.290008,25.1432313 29.5730494,25.4296938 C29.8578822,25.7185737 30,26.0775584 30,26.5090653" id="Fill-8"></path>
                            <path d="M48,20.5105783 C48,20.9282692 47.8578539,21.280677 47.5735616,21.5690107 C47.2898666,21.8567399 46.9285288,22 46.4913398,22 C46.2900657,22 46.0965558,21.9613137 45.9155883,21.8827322 C45.7292455,21.8053597 45.5715708,21.7007858 45.4342027,21.5690107 C45.3010153,21.4372355 45.1935099,21.280677 45.1146725,21.1035664 C45.0388214,20.9210155 45,20.7233528 45,20.5105783 C45,20.2941769 45.0388214,20.0977232 45.1146725,19.9163812 C45.1935099,19.7380617 45.3010153,19.5784808 45.4342027,19.4406609 C45.5715708,19.3034455 45.7292455,19.1958493 45.9155883,19.1160588 C46.0965558,19.0398952 46.2900657,19 46.4913398,19 C46.9285288,19 47.2898666,19.1450735 47.5735616,19.4303848 C47.8578539,19.7187185 48,20.0789845 48,20.5105783" id="Fill-9"></path>
                            <path d="M74,33.5096735 C74,33.9274486 73.8578822,34.2811366 73.5730494,34.5689238 C73.290008,34.8555018 72.9299363,35 72.491043,35 C72.2916003,35 72.0975318,34.9594921 71.9160032,34.8833132 C71.7296975,34.8041112 71.5696656,34.7001209 71.4347134,34.5689238 C71.3003583,34.4377267 71.1928742,34.2811366 71.1158439,34.1015719 C71.0382166,33.9214027 71,33.7249093 71,33.5096735 C71,33.2932285 71.0382166,33.095526 71.1158439,32.9165659 C71.1928742,32.7351874 71.3003583,32.5773881 71.4347134,32.4383313 C71.5696656,32.3029021 71.7296975,32.1934704 71.9160032,32.1160822 C72.0975318,32.0380895 72.2916003,32 72.491043,32 C72.9299363,32 73.290008,32.1420798 73.5730494,32.4322854 C73.8578822,32.7176542 74,33.0773881 74,33.5096735" id="Fill-10"></path>
                            <path d="M74,37.5090726 C74,37.9282258 73.8578822,38.2820565 73.5730494,38.5699597 C73.290008,38.8566532 72.9299363,39 72.491043,39 C72.2916003,39 72.0975318,38.9618952 71.9160032,38.8844758 C71.7296975,38.8040323 71.5696656,38.7 71.4347134,38.5699597 C71.3003583,38.4368952 71.1928742,38.2820565 71.1158439,38.1012097 C71.0382166,37.9209677 71,37.7256048 71,37.5090726 C71,37.2925403 71.0382166,37.0959677 71.1158439,36.9145161 C71.1928742,36.734879 71.3003583,36.577621 71.4347134,36.4385081 C71.5696656,36.3018145 71.7296975,36.1941532 71.9160032,36.1143145 C72.0975318,36.0387097 72.2916003,36 72.491043,36 C72.9299363,36 73.290008,36.1427419 73.5730494,36.43125 C73.8578822,36.7191532 74,37.0778226 74,37.5090726" id="Fill-11"></path>
                            <path d="M74,41.5081604 C74,41.9270602 73.8578822,42.2812815 73.5730494,42.5678017 C73.290008,42.8549265 72.9299363,43 72.491043,43 C72.2916003,43 72.0975318,42.9613137 71.9160032,42.8827322 C71.7296975,42.8053597 71.5696656,42.6983679 71.4347134,42.5678017 C71.3003583,42.4372355 71.1928742,42.2812815 71.1158439,42.1011485 C71.0382166,41.920411 71,41.7245618 71,41.5081604 C71,41.2935724 71.0382166,41.0947008 71.1158439,40.9145678 C71.1928742,40.7362482 71.3003583,40.5772718 71.4347134,40.438243 C71.5696656,40.3016321 71.7296975,40.1934314 71.9160032,40.1160588 C72.0975318,40.0368729 72.2916003,40 72.491043,40 C72.9299363,40 73.290008,40.1432601 73.5730494,40.4291759 C73.8578822,40.7175096 74,41.0771711 74,41.5081604" id="Fill-12"></path>
                            <path d="M36,7.43453608 C36,7.65360825 35.9779761,7.80154639 35.9327891,7.87989691 C35.8902601,7.96082474 35.787735,8 35.6271122,8 L26.3728878,8 C26.2118853,8 26.1104993,7.96082474 26.0675907,7.87989691 C26.0224036,7.80154639 26,7.65360825 26,7.43453608 L26,5.56443299 C26,5.34690722 26.0224036,5.19845361 26.0675907,5.11958763 C26.1104993,5.04020619 26.2118853,5 26.3728878,5 L35.6271122,5 C35.787735,5 35.8902601,5.04020619 35.9327891,5.11958763 C35.9779761,5.19845361 36,5.34690722 36,5.56443299 L36,7.43453608 L36,7.43453608 Z M36,11.4292404 C36,11.6503642 35.9776464,11.8007284 35.9348337,11.8787721 C35.8908843,11.9599376 35.7878306,12 35.6290824,12 L26.3720543,12 C26.2114117,12 26.1102523,11.9599376 26.0674396,11.8787721 C26.0223536,11.8007284 26,11.66077 26,11.4594173 L26,9.54266389 C26,9.34131113 26.0185648,9.20135276 26.0560734,9.12174818 C26.0916875,9.04266389 26.1905736,9 26.3493218,9 L35.6290824,9 C35.7878306,9 35.8908843,9.04266389 35.9348337,9.12174818 C35.9776464,9.20135276 36,9.35119667 36,9.57127992 L36,11.4292404 L36,11.4292404 Z" id="Fill-13"></path>
                            <path d="M62.8781669,38.4865945 L71.448166,42.1094296 C71.6930112,42.2441061 71.8446413,42.3562706 71.9080277,42.447108 C71.9689283,42.5387354 72,42.7014529 72,42.9340759 L72,44.6327365 C72,44.766623 71.9689283,44.8700987 71.9080277,44.9463232 C71.8446413,45.0217578 71.7191115,45.0178083 71.526881,44.9336849 L59.7846649,39.8112417 C59.5406482,39.6943379 59.3567035,39.5833582 59.2340737,39.4735633 C59.1135154,39.3661382 59.0339718,39.2200083 59,39.0363587 L59,38.1876208 C59,37.9044448 59.0633863,37.7030226 59.1943019,37.5880935 C59.3260461,37.4711896 59.5236623,37.3546807 59.7846649,37.2369869 L71.5003665,32.0651755 C71.7104114,31.982237 71.8446413,31.9790774 71.9080277,32.0521423 C71.9689283,32.1283668 72,32.2488252 72,32.4154922 L72,34.0138367 C72,34.1982762 71.9726569,34.3483555 71.9204564,34.4632846 C71.8678416,34.5801885 71.7464546,34.6812946 71.5533956,34.7634432 L62.8781669,38.4865945" id="Fill-14"></path>
                            <path d="M25.3089226,62.9144485 C25.1757023,62.8554596 25.0915632,62.7874258 25.0556803,62.7060211 C25.0197974,62.625403 25,62.5219758 25,62.3949531 L25,61.287142 C25,61.171917 25.0202099,61.0881528 25.0631043,61.0366359 C25.1055864,60.9851189 25.2000367,60.9878718 25.3456304,61.0452876 L33.4547454,64.6259125 C33.6366344,64.7073171 33.7727419,64.7883285 33.8630677,64.8681601 C33.953806,64.949958 34,65.087992 34,65.2834418 L34,65.8717575 C33.9756656,65.9979937 33.9191604,66.0994546 33.8362586,66.1745671 C33.7508822,66.2492864 33.624261,66.3279382 33.4547454,66.4089496 L25.3274827,69.9541811 C25.19385,70.0123835 25.1055864,70.0151363 25.0631043,69.9624396 C25.0202099,69.9121024 25,69.8393494 25,69.746147 L25,68.5710886 C25,68.4090658 25.0202099,68.2969869 25.0631043,68.2328857 C25.1055864,68.1691777 25.2124101,68.0917056 25.3806883,67.9988965 L31.3145594,65.4899029 L25.3089226,62.9144485" id="Fill-15"></path>
                            <path d="M39.9475665,55.6689901 C40.0696483,56.0251942 39.9787695,56.2240616 39.67259,56.2659914 L36.0304186,57.2052204 L38.4470917,60.0572497 C38.6109075,60.2253685 38.6772139,60.366732 38.646791,60.4805416 C38.6148079,60.5959486 38.5192487,60.7049662 38.3558229,60.8095912 L37.1318848,61.7492195 C36.9275051,61.9185363 36.7796809,61.989218 36.6864619,61.9688521 C36.5951931,61.9496842 36.4980737,61.8334785 36.3970539,61.6246279 C36.3561,61.5611341 36.2445492,61.3634647 36.0596714,61.0288245 C35.8755736,60.6949829 35.6661234,60.3391781 35.4324909,59.963806 C35.1984683,59.5876352 34.9831675,59.2370217 34.7904889,58.9139621 C34.5954701,58.5897045 34.4885998,58.3964278 34.4683178,58.334132 L32.5384116,61.687323 C32.438172,61.896573 32.335202,62 32.2326221,62 C32.1308223,62 32.0083505,61.9496842 31.8659867,61.8442605 C31.8242527,61.8238946 31.744295,61.7611994 31.6210431,61.6553765 C31.4997414,61.5511508 31.360498,61.4361432 31.2083833,61.3111523 C31.0550985,61.1861613 30.9115647,61.076345 30.7793419,60.9817033 C30.6463391,60.8878603 30.5695016,60.8191752 30.5507798,60.779242 C30.3857939,60.6742177 30.2956952,60.5743847 30.2742432,60.4805416 C30.2543512,60.3866986 30.3148071,60.2553184 30.4579509,60.0887969 L32.8761842,57.1732738 L29.3865175,56.2659914 C29.2035899,56.202897 29.0850184,56.1354099 29.0347036,56.0619328 C28.9839987,55.9884557 28.9886791,55.8387062 29.049915,55.6074929 L29.5089893,54.1036085 C29.5912873,53.7474043 29.8159489,53.65436 30.1829744,53.8208814 L33.5798121,55.2948159 L33.2135668,51.4392652 C33.1726128,51.1469542 33.3356485,51 33.703064,51 L35.3248405,51 C35.5296102,51 35.6563725,51.0319466 35.7074674,51.093843 C35.7577823,51.1573368 35.7737738,51.2715458 35.7542719,51.4392652 L35.4168894,55.3247658 L38.7840843,53.8208814 C39.0075758,53.7174544 39.1667112,53.6954912 39.2591501,53.758985 C39.3504189,53.8208814 39.4159452,53.9350904 39.4572892,54.1036085 L39.9475665,55.6689901" id="Fill-16"></path>
                            <path d="M64.9136866,30.8505107 C64.8545234,30.948468 64.7195826,31 64.5056225,31 L57.4955932,31 C57.2816331,31 57.1462871,30.948468 57.0883396,30.8505107 C57.0295816,30.7483751 57,30.5896007 57,30.3672238 L57,27.6346332 C57,27.3885794 57.0295816,27.2233055 57.0883396,27.1337047 C57.1462871,27.0454968 57.2816331,27 57.4955932,27 L64.5056225,27 C64.7195826,27 64.8545234,27.0454968 64.9136866,27.1337047 C64.9720393,27.2233055 65,27.3885794 65,27.6346332 L65,30.3672238 C65,30.5896007 64.9720393,30.7483751 64.9136866,30.8505107" id="Fill-17"></path>
                            <path d="M25.956426,47.9625895 C25.9276857,47.9872645 25.8595434,48 25.7529262,48 L22.2484645,48 C22.1409202,48 22.0732414,47.9872645 22.0445011,47.9625895 C22.0152973,47.9371186 22,47.8970549 22,47.8413372 L22,47.1581321 C22,47.0973733 22.0152973,47.0565137 22.0445011,47.0342266 C22.0732414,47.0122048 22.1409202,47 22.2484645,47 L25.7529262,47 C25.8595434,47 25.9276857,47.0122048 25.956426,47.0342266 C25.9860934,47.0565137 26,47.0973733 26,47.1581321 L26,47.8413372 C26,47.8970549 25.9860934,47.9371186 25.956426,47.9625895" id="Fill-18"></path>
                            <path d="M13.9568896,33.9622642 C13.9272222,33.9872442 13.8595434,34 13.7529262,34 L10.2480009,34 C10.1404566,34 10.0746321,33.9872442 10.0440375,33.9622642 C10.0143701,33.9372841 10,33.8971565 10,33.8418815 L10,33.1578528 C10,33.0964656 10.0143701,33.0547436 10.0440375,33.0334839 C10.0746321,33.0103641 10.1404566,33 10.2480009,33 L13.7529262,33 C13.8595434,33 13.9272222,33.0103641 13.9568896,33.0334839 C13.9856299,33.0547436 14,33.0964656 14,33.1578528 L14,33.8418815 C14,33.8971565 13.9856299,33.9372841 13.9568896,33.9622642" id="Fill-19"></path>
                            <path d="M10.9573383,39.9630712 C10.9290517,39.9875133 10.8608857,40 10.7537677,40 L7.24715975,40 C7.14096916,40 7.07326687,39.9875133 7.04451658,39.9630712 C7.01483886,39.9370351 7,39.8969182 7,39.8413921 L7,39.1575452 C7,39.097237 7.01483886,39.0552604 7.04451658,39.032678 C7.07326687,39.011424 7.14096916,39 7.24715975,39 L10.7537677,39 C10.8608857,39 10.9290517,39.011424 10.9573383,39.032678 C10.9874797,39.0552604 11,39.097237 11,39.1575452 L11,39.8413921 C11,39.8969182 10.9874797,39.9370351 10.9573383,39.9630712" id="Fill-20"></path>
                            <path d="M60.9554989,33.9622642 C60.9276857,33.9872442 60.8595434,34 60.7529262,34 L57.2480009,34 C57.1404566,34 57.0723143,33.9872442 57.0426469,33.9622642 C57.0148337,33.9372841 57,33.8971565 57,33.8418815 L57,33.1578528 C57,33.0964656 57.0148337,33.0547436 57.0426469,33.0334839 C57.0723143,33.0103641 57.1404566,33 57.2480009,33 L60.7529262,33 C60.8595434,33 60.9276857,33.0103641 60.9554989,33.0334839 C60.9860934,33.0547436 61,33.0964656 61,33.1578528 L61,33.8418815 C61,33.8971565 60.9860934,33.9372841 60.9554989,33.9622642" id="Fill-21"></path>
                            <path d="M52.9550353,69.9630712 C52.9276857,69.987779 52.860007,70 52.7529262,70 L49.2480009,70 C49.1404566,70 49.0741685,69.987779 49.0445011,69.9630712 C49.0143701,69.9370351 49,69.8974495 49,69.8419235 L49,69.1578108 C49,69.0967056 49.0143701,69.0557917 49.0445011,69.0329437 C49.0741685,69.011424 49.1404566,69 49.2480009,69 L52.7529262,69 C52.860007,69 52.9276857,69.011424 52.9550353,69.0329437 C52.9856299,69.0557917 53,69.0967056 53,69.1578108 L53,69.8419235 C53,69.8974495 52.9856299,69.9370351 52.9550353,69.9630712" id="Fill-22"></path>
                            <path d="M35.9564159,30.9630516 C35.9281326,30.9877725 35.8604382,31 35.7528689,31 L32.2480584,31 C32.1404892,31 32.0727947,30.9877725 32.0440478,30.9630516 C32.0139098,30.9375332 32,30.8976608 32,30.8421053 L32,30.1578947 C32,30.096757 32.0139098,30.0555556 32.0440478,30.0329612 C32.0727947,30.0103668 32.1404892,30 32.2480584,30 L35.7528689,30 C35.8604382,30 35.9281326,30.0103668 35.9564159,30.0329612 C35.9846992,30.0555556 36,30.096757 36,30.1578947 L36,30.8421053 C36,30.8976608 35.9846992,30.9375332 35.9564159,30.9630516" id="Fill-23"></path>
                            <path d="M66.9568796,31.9620488 C66.9285963,31.9875265 66.8590472,32 66.7528689,32 L63.2471311,32 C63.1404892,32 63.0723311,31.9875265 63.0426568,31.9620488 C63.0148371,31.9371019 63,31.8970276 63,31.8407643 L63,31.1587049 C63,31.0973992 63.0148371,31.0562633 63.0426568,31.0334395 C63.0723311,31.0119427 63.1404892,31 63.2471311,31 L66.7528689,31 C66.8590472,31 66.9285963,31.0119427 66.9568796,31.0334395 C66.9860902,31.0562633 67,31.0973992 67,31.1587049 L67,31.8407643 C67,31.8970276 66.9860902,31.9371019 66.9568796,31.9620488" id="Fill-24"></path>
                            <path d="M7.03719447,33.9573432 C7.01275239,33.9281326 7,33.8599745 7,33.7533326 L7,30.2471311 C7,30.1404892 7.01275239,30.0723311 7.03719447,30.0440478 C7.06216791,30.0143735 7.10308183,30 7.15887354,30 L7.84218916,30 C7.90302869,30 7.94473964,30.0143735 7.96652497,30.0440478 C7.98937301,30.0723311 8,30.1404892 8,30.2471311 L8,33.7533326 C8,33.8599745 7.98937301,33.9281326 7.96652497,33.9573432 C7.94473964,33.9865538 7.90302869,34 7.84218916,34 L7.15887354,34 C7.10308183,34 7.06216791,33.9865538 7.03719447,33.9573432" id="Fill-25"></path>
                            <path d="M68.03749,39.9564159 C68.0127626,39.9281326 68,39.8590472 68,39.7533326 L68,36.2466674 C68,36.1409528 68.0127626,36.0723311 68.03749,36.0431204 C68.0622175,36.0148371 68.1023664,36 68.1574049,36 L68.8423292,36 C68.903749,36 68.9452273,36.0148371 68.9675618,36.0431204 C68.9898963,36.0723311 69,36.1409528 69,36.2466674 L69,39.7533326 C69,39.8590472 68.9898963,39.9281326 68.9675618,39.9564159 C68.9452273,39.9865538 68.903749,40 68.8423292,40 L68.1574049,40 C68.1023664,40 68.0622175,39.9865538 68.03749,39.9564159" id="Fill-26"></path>
                            <path d="M25.0435639,65.0369092 C25.0718341,65.0124801 25.1408875,65 25.2470166,65 L28.7515931,65 C28.8586491,65 28.9267756,65.0124801 28.9541189,65.0369092 C28.9847063,65.063197 29,65.102496 29,65.1582581 L29,65.8420074 C29,65.9030802 28.9847063,65.9442379 28.9541189,65.9662772 C28.9267756,65.9891131 28.8586491,66 28.7515931,66 L25.2470166,66 C25.1408875,66 25.0718341,65.9891131 25.0435639,65.9662772 C25.0134399,65.9442379 25,65.9030802 25,65.8420074 L25,65.1582581 C25,65.102496 25.0134399,65.063197 25.0435639,65.0369092" id="Fill-27"></path>
                            <path d="M71.038247,48.9554989 C71.012749,48.9276857 71,48.8581527 71,48.7524626 L71,45.2475374 C71,45.1404566 71.012749,45.0732414 71.038247,45.0440375 C71.0626826,45.0148337 71.1022576,45 71.1585657,45 L71.8414343,45 C71.9033201,45 71.9447543,45.0148337 71.9665339,45.0440375 C71.9891102,45.0732414 72,45.1404566 72,45.2475374 L72,48.7524626 C72,48.8581527 71.9891102,48.9276857 71.9665339,48.9554989 C71.9447543,48.9860934 71.9033201,49 71.8414343,49 L71.1585657,49 C71.1022576,49 71.0626826,48.9860934 71.038247,48.9554989" id="Fill-28"></path>
                            <path d="M41.0371846,35.9550406 C41.0119522,35.9267671 41,35.8586327 41,35.7515643 L41,32.2475087 C41,32.1404403 41.0119522,32.0732329 41.0371846,32.0440324 C41.0626826,32.014832 41.1027888,32 41.1585657,32 L41.8416999,32 C41.9033201,32 41.9442231,32.014832 41.9665339,32.0440324 C41.9888446,32.0732329 42,32.1404403 42,32.2475087 L42,35.7515643 C42,35.8586327 41.9888446,35.9267671 41.9665339,35.9550406 C41.9442231,35.985168 41.9033201,36 41.8416999,36 L41.1585657,36 C41.1027888,36 41.0626826,35.985168 41.0371846,35.9550406" id="Fill-29"></path>
                            <path d="M25.0379374,41.9672131 C25.012523,41.9459981 25,41.8939248 25,41.8143684 L25,39.1846673 C25,39.1041466 25.012523,39.0549662 25.0379374,39.0327869 C25.0629834,39.0115718 25.1034991,39 25.1583794,39 L25.841989,39 C25.9020258,39 25.9443831,39.0115718 25.9668508,39.0327869 C25.9900552,39.0549662 26,39.1041466 26,39.1846673 L26,41.8143684 C26,41.8939248 25.9900552,41.9459981 25.9668508,41.9672131 C25.9443831,41.9893925 25.9020258,42 25.841989,42 L25.1583794,42 C25.1034991,42 25.0629834,41.9893925 25.0379374,41.9672131" id="Fill-30"></path>
                            <path d="M44.9554989,17.9631104 C44.9272222,17.9872611 44.8590798,18 44.7538533,18 L41.2475374,18 C41.1413837,18 41.0732414,17.9872611 41.0440375,17.9631104 C41.0148337,17.9373673 41,17.8964968 41,17.8412951 L41,17.1581741 C41,17.0971338 41.0148337,17.0567941 41.0440375,17.0339703 C41.0732414,17.0124735 41.1413837,17 41.2475374,17 L44.7538533,17 C44.8590798,17 44.9272222,17.0124735 44.9554989,17.0339703 C44.9856299,17.0567941 45,17.0971338 45,17.1581741 L45,17.8412951 C45,17.8964968 44.9856299,17.9373673 44.9554989,17.9631104" id="Fill-31"></path>
                            <path d="M36.9559676,13.9622942 C36.9276941,13.9864578 36.8600232,14 36.7524913,14 L33.2484357,14 C33.1413673,14 33.0736964,13.9864578 33.0449594,13.9622942 C33.0152955,13.9375996 33,13.8972384 33,13.8420074 L33,13.1582581 C33,13.0971853 33.0152955,13.0557621 33.0449594,13.0334572 C33.0736964,13.011418 33.1413673,13 33.2484357,13 L36.7524913,13 C36.8600232,13 36.9276941,13.011418 36.9559676,13.0334572 C36.986095,13.0557621 37,13.0971853 37,13.1582581 L37,13.8420074 C37,13.8972384 36.986095,13.9375996 36.9559676,13.9622942" id="Fill-32"></path>
                            <path d="M28.1316977,57.5547818 C28.0802985,57.7358403 28.0279474,57.8556175 27.9679816,57.9131848 C27.9080158,57.9716806 27.7861806,58 27.6000963,58 L26.534514,58 C26.1632973,58 25.9848278,57.8681523 26.001009,57.6039926 L26.3579481,51.4953575 C26.3755571,51.3625812 26.4160102,51.2469824 26.4826389,51.1480966 C26.5506953,51.0501393 26.6787174,51 26.8648017,51 L29.5018681,51 C29.7222185,51 29.8649942,51.0501393 29.9330506,51.1480966 C30.0001551,51.2469824 30.0158605,51.3625812 29.9844498,51.4953575 L28.1316977,57.5547818" id="Fill-33"></path>
                            <path d="M66.4911132,45.3360276 C66.6990793,45.3991912 66.8361479,45.4676552 66.9015312,45.542303 C66.9673084,45.6160675 67,45.7684551 67,46.0012327 L67,47.3334096 C67,47.7976397 66.8491458,48.0198164 66.5490129,47.9986147 L59.5632416,47.5547029 C59.4147506,47.5343846 59.2816208,47.4809385 59.1693664,47.3961315 C59.0547487,47.3117661 59,47.1536364 59,46.9204171 L59,43.6239859 C59,43.3488048 59.0547487,43.1694733 59.1693664,43.085108 C59.2816208,43.0007427 59.4147506,42.9790992 59.5632416,43.0201776 L66.4911132,45.3360276" id="Fill-34"></path>
                            <path d="M23.6649081,39.4915571 C23.6017618,39.6983213 23.5324333,39.8349825 23.4595721,39.9015409 C23.3849446,39.9673116 23.2317154,40 22.9985597,40 L21.6671878,40 C21.2022011,40 20.9809682,39.848373 21.001281,39.5474819 L21.4459548,32.5647615 C21.4671508,32.414316 21.5196991,32.2819869 21.6053662,32.1693497 C21.6883837,32.0563186 21.8460288,32 22.0800676,32 L25.3764828,32 C25.6520304,32 25.8304299,32.0563186 25.9160969,32.1693497 C25.9995561,32.2819869 26.020752,32.414316 25.9796848,32.5647615 L23.6649081,39.4915571" id="Fill-35"></path>
                            <path d="M46.5257069,11.4251065 C46.505468,11.5778502 46.4513511,11.7125532 46.3673158,11.8284139 C46.2819607,11.942671 46.1257695,12 45.8934627,12 L42.639847,12 C42.3459436,12 42.1571943,11.942671 42.0718392,11.8284139 C41.9878039,11.7125532 41.9772445,11.5778502 42.0414809,11.4251065 L44.3456304,4.54642947 C44.4098667,4.335555 44.4771829,4.19203207 44.5519787,4.11425708 C44.6241346,4.03848659 44.7768059,4 45.0091128,4 L46.3365176,4 C46.7795725,4 47,4.16276622 47,4.48910048 L46.5257069,11.4251065 L46.5257069,11.4251065 Z M51.5198063,11.4251065 C51.4986233,11.5778502 51.4509614,11.7125532 51.3772619,11.8284139 C51.3022386,11.942671 51.1486613,12 50.9178542,12 L47.6230046,12 C47.348066,12 47.1688926,11.942671 47.0846016,11.8284139 C47.000752,11.7125532 46.978245,11.5778502 47.0214937,11.4251065 L49.3339786,4.54642947 C49.3970865,4.335555 49.4703446,4.19203207 49.5550768,4.11425708 C49.6389265,4.03848659 49.7982408,4 50.0316959,4 L51.3287174,4 C51.814604,4 52.0365849,4.16276622 51.9951014,4.48910048 L51.5198063,11.4251065 L51.5198063,11.4251065 Z" id="Fill-36"></path>
                            <path d="M48,56.4706425 C48,56.648855 47.9456436,56.855598 47.8381569,57.0937659 C47.7302615,57.3311069 47.6268618,57.5390903 47.5312272,57.7168893 L44.7145036,62.378117 C44.6172342,62.5753499 44.4942171,62.7279262 44.3470871,62.8375 C44.2003657,62.9466603 43.9412533,63 43.5705672,63 L41.4874505,63 C41.271251,63 41.1237122,62.9466603 41.0472863,62.8375 C40.9692256,62.7279262 40.9872082,62.5662532 41.1057296,62.3479326 L44.6850775,56.5301845 L41.2516336,50.6537214 C41.1543643,50.4746819 41.1388339,50.3216921 41.2087207,50.193098 C41.2769727,50.0649173 41.407755,50 41.6039284,50 L43.6584365,50 C44.009914,50 44.2592177,50.0541667 44.4051217,50.1629135 C44.5530692,50.2720738 44.6932514,50.4354008 44.8317989,50.6537214 L47.5013925,55.1342557 C47.5986618,55.3124682 47.7061485,55.5154898 47.8234439,55.7437341 C47.9419654,55.9711514 48,56.2138677 48,56.4706425 L48,56.4706425 Z M54,56.4706425 C54,56.648855 53.9456386,56.855598 53.8381421,57.0937659 C53.7310543,57.3311069 53.6284626,57.5390903 53.5307757,57.7168893 L50.7142034,62.378117 C50.6165164,62.5753499 50.4943056,62.7279262 50.3475708,62.8375 C50.200836,62.9466603 49.9408824,63 49.5701625,63 L47.486038,63 C47.2706362,63 47.1234927,62.9466603 47.0470598,62.8375 C46.9685833,62.7279262 46.9882024,62.5662532 47.1063259,62.3479326 L50.6847747,56.5301845 L47.2518345,50.6537214 C47.1545563,50.4746819 47.1390245,50.3216921 47.2081002,50.193098 C47.2763585,50.0649173 47.4071527,50 47.6045703,50 L49.6572224,50 C50.0287598,50 50.2838086,50.0541667 50.4199163,50.1629135 C50.5580678,50.2720738 50.6945842,50.4354008 50.8323269,50.6537214 L53.5013469,55.1342557 C53.5986252,55.3124682 53.7069391,55.5154898 53.824654,55.7437341 C53.9415513,55.9711514 54,56.2138677 54,56.4706425 L54,56.4706425 Z" id="Fill-37"></path>
                            <path d="M36,71.0132841 C36,71.5712177 35.8060518,72.0420664 35.4200996,72.4258303 C35.0326893,72.8091021 34.5572974,73 33.988577,73 C33.4349253,73 32.9663386,72.8091021 32.5803864,72.4258303 C32.1939482,72.0420664 32,71.5712177 32,71.0132841 C32,70.4533825 32.1939482,69.9781058 32.5803864,69.5869619 C32.9663386,69.195326 33.4349253,69 33.988577,69 C34.5572974,69 35.0326893,69.1928659 35.4200996,69.5741697 C35.8060518,69.9579336 36,70.4371464 36,71.0132841 L36,71.0132841 Z M41,71.0132841 C41,71.5712177 40.8065143,72.0420664 40.4190569,72.4258303 C40.0320856,72.8091021 39.5556636,73 38.9883325,73 C38.7190083,73 38.4642684,72.9488315 38.2187652,72.8450185 C37.9737482,72.7402214 37.7608167,72.601968 37.5794847,72.4258303 C37.3981526,72.2501845 37.2566845,72.0420664 37.1536218,71.803444 C37.0500729,71.5628536 37,71.298647 37,71.0132841 C37,70.7239852 37.0500729,70.4607626 37.1536218,70.2211562 C37.2566845,69.9820418 37.3981526,69.7709717 37.5794847,69.5869619 C37.7608167,69.403936 37.9737482,69.2597786 38.2187652,69.1559656 C38.4642684,69.0511685 38.7190083,69 38.9883325,69 C39.5717064,69 40.0539621,69.1928659 40.4321828,69.5741697 C40.8108896,69.9579336 41,70.4371464 41,71.0132841 L41,71.0132841 Z M46,71.0132841 C46,71.5712177 45.8109126,72.0420664 45.4317657,72.4258303 C45.053591,72.8091021 44.5786851,73 44.0123952,73 C43.444647,73 42.9663386,72.8091021 42.5803864,72.4258303 C42.1934621,72.0420664 42,71.5712177 42,71.0132841 C42,70.4533825 42.1934621,69.9781058 42.5803864,69.5869619 C42.9663386,69.195326 43.444647,69 44.0123952,69 C44.5786851,69 45.053591,69.1928659 45.4317657,69.5741697 C45.8109126,69.9579336 46,70.4371464 46,71.0132841 L46,71.0132841 Z" id="Fill-38"></path>
                            <path d="M22.4797784,26 C22.6026788,26 22.7463898,26.0376428 22.9109114,26.1161321 C23.0750404,26.1922187 23.2195367,26.266303 23.3424371,26.334781 L26.568867,28.3470708 C26.7066882,28.417551 26.8123119,28.5080539 26.8873086,28.6193806 C26.9623053,28.7311078 27,28.9133151 27,29.1648013 L27,30.6520937 C27,30.8058687 26.9623053,30.9111885 26.8873086,30.9664514 C26.8123119,31.0225152 26.6988351,31.0080988 26.5476637,30.924804 L22.519829,28.3682949 L18.4523363,30.8198846 C18.3278653,30.8899643 18.2226343,30.9007766 18.1331094,30.8511201 C18.0443698,30.8014636 18,30.7085579 18,30.5687989 L18,29.1023302 C18,28.8500431 18.0380873,28.6726412 18.1126914,28.5669209 C18.1872955,28.462402 18.3023428,28.3614872 18.4523363,28.2633755 L21.5539025,26.3560051 C21.6771956,26.2871267 21.8189433,26.2094383 21.9756119,26.1257431 C22.1334584,26.0416474 22.3019065,26 22.4797784,26" id="Fill-39"></path>
                            <path d="M54,22.4619075 C54,22.6941887 53.9311952,22.9658045 53.7923784,23.2759267 C53.653964,23.5868771 53.5215852,23.8584929 53.3960465,24.0920162 L49.775947,30.1855668 C49.6487989,30.4435189 49.4862425,30.6451605 49.2854611,30.7867651 C49.0826679,30.9296118 48.756348,31 48.3048917,31 L45.6263319,31 C45.3486984,31 45.1611952,30.9296118 45.0610057,30.7867651 C44.9596091,30.6451605 44.9845559,30.4315115 45.1362484,30.1458181 L49.7373197,22.5393346 L45.3249587,14.8533538 C45.1978106,14.6210726 45.1801065,14.4210872 45.2678226,14.2529836 C45.3563434,14.0844659 45.5249353,14 45.7772197,14 L48.4175546,14 C48.8698156,14 49.1909048,14.0716304 49.378408,14.2128209 C49.567923,14.3560816 49.7501955,14.5689025 49.9252253,14.8533538 L53.3594311,20.7146232 C53.4853721,20.9473184 53.6225794,21.2139656 53.7746743,21.5108383 C53.9239526,21.807711 54,22.1257002 54,22.4619075" id="Fill-40"></path>
                            <path d="M36.0551719,65.9615126 C36.0183906,65.9360036 36,65.8872231 36,65.8171851 L36,65.1821437 C36,65.1188185 36.0183906,65.0720519 36.0551719,65.0434102 C36.0930791,65.0143209 36.1711455,65 36.289371,65 L50.7102537,65 C50.8284792,65 50.9069209,65.0143209 50.9444528,65.0434102 C50.9827353,65.0720519 51,65.1188185 51,65.1821437 L51,65.8171851 C51,65.8872231 50.9827353,65.9360036 50.9444528,65.9615126 C50.9069209,65.9870217 50.8284792,66 50.7102537,66 L36.289371,66 C36.1711455,66 36.0930791,65.9870217 36.0551719,65.9615126" id="Fill-41"></path>
                            <path d="M37.6454418,79.5922384 C37.5585718,79.0035744 37.3024063,78.5456782 36.8729049,78.2172964 C36.4462319,77.8876613 35.7524841,77.7255594 34.7888334,77.7255594 L30.8146325,77.7255594 C29.784314,77.7255594 28.9026847,77.5726488 28.1697444,77.265992 C27.435996,76.9605886 26.8400275,76.5244174 26.3790105,75.9578962 C25.9200138,75.3930461 25.5798067,74.7195711 25.3612175,73.9383066 C25.1414163,73.1578776 25.0230306,72.2901309 25,71.3396621 C25,71.1140563 25.1099006,71 25.3288938,71 L27.5281186,71 C27.748324,71 27.8695379,71.1353635 27.8909524,71.4077616 C27.9564079,72.3586482 28.2303514,73.0032959 28.7111666,73.3433757 C29.192386,73.68262 29.784314,73.8530777 30.4857387,73.8530777 L34.6571142,73.8530777 C35.8171316,73.8530777 36.7363372,74.0740878 37.4167515,74.5148547 C38.0939333,74.9568749 38.587274,75.5279918 38.8947534,76.2307121 L38.9925326,76.2307121 C39.2996079,75.5062668 39.7982012,74.9280475 40.4875045,74.4993965 C41.1772118,74.0694922 42.0899527,73.8530777 43.2309799,73.8530777 L46.6132527,73.8530777 C47.3352837,73.8530777 47.9272118,73.68262 48.3866126,73.3433757 C48.8464175,73.0032959 49.0993505,72.3465324 49.1421795,71.3739207 C49.164402,71.1236654 49.3070304,71 49.5692566,71 L51.6408027,71 C51.8804023,71 52,71.1236654 52,71.3739207 C51.9793936,72.3690929 51.8581797,73.2585647 51.6408027,74.040247 C51.4205974,74.8215115 51.0860469,75.484124 50.6375554,76.0268313 C50.1882557,76.5691208 49.607641,76.9885804 48.8969233,77.2831213 C48.1845894,77.5776622 47.3138693,77.7255594 46.2843589,77.7255594 L43.1635041,77.7255594 C42.2220759,77.7255594 41.5376212,77.8780522 41.1125643,78.1838734 C40.6842751,78.4884412 40.4277056,78.9367283 40.3400275,79.5245567 C40.3169969,79.7280197 40.2725518,79.8583697 40.2079043,79.9160245 C40.1420448,79.9715904 40.0333563,80 39.8806267,80 L38.1060547,80 C37.821202,80 37.6672603,79.8654721 37.6454418,79.5922384" id="Fill-42"></path>
                            <path d="M8,52.399407 C8,52.6219097 7.97065297,52.7779079 7.91531286,52.8657595 C7.85787653,52.9552532 7.70527198,53 7.45666073,53 L0.579394193,53 C0.328267477,53 0.169793523,52.9449901 0.1027146,52.8337388 C0.0343779478,52.7216664 0,52.5677208 0,52.3682074 L0,26.6330242 C0,26.4322792 0.0343779478,26.276281 0.1027146,26.1658507 C0.169793523,26.0537783 0.328267477,26 0.579394193,26 L7.45666073,26 C7.70527198,26 7.85787653,26.0496731 7.91531286,26.1490193 C7.97065297,26.2495971 8,26.3879428 8,26.5656986 L8,28.365425 C8,28.5657595 7.96646054,28.7053368 7.89812389,28.7821043 C7.82936799,28.8605139 7.67131328,28.8991029 7.42228278,28.8991029 L3.84655696,28.8991029 L3.84655696,50.1004865 L7.45666073,50.1004865 C7.70527198,50.1004865 7.85787653,50.138665 7.91531286,50.2162536 C7.97065297,50.2938422 8,50.43383 8,50.6329329 L8,52.399407" id="Fill-43"></path>
                            <path d="M65.8782999,51 C65.3644552,51.9335921 64.7555571,52.6658042 64.0492194,53.2000862 C63.3404954,53.733937 62.5152417,54 61.5722649,54 C61.019842,54 60.4761688,53.8999569 59.9436316,53.7003019 C59.411492,53.4993532 58.8825342,53.2725313 58.3599398,53.0163864 C57.837743,52.7606727 57.3302617,52.5338508 56.8386888,52.3333333 C56.3463205,52.1323846 55.8841784,52.0327727 55.4550465,52.0327727 C54.9821661,52.0327727 54.5530341,52.1453213 54.1640712,52.3669685 C53.773915,52.589047 53.3841566,52.9215179 52.9947959,53.3673997 C52.7899739,53.589047 52.5851519,53.622251 52.3811253,53.4665804 L51.1804308,52.4661492 C50.9760065,52.2669254 50.9445872,52.0556274 51.0897523,51.8331177 C51.7439896,50.8779646 52.4165217,50.1668823 53.1017806,49.6998706 C53.7894258,49.2319966 54.5621815,49 55.4248203,49 C55.9971288,49 56.5622785,49.1047865 57.1147014,49.3165157 C57.6683174,49.5273825 58.2068204,49.7559293 58.7286194,49.9995688 C59.2520093,50.2449332 59.7543203,50.4726175 60.235155,50.6834843 C60.716785,50.8947822 61.1733591,51 61.6020934,51 C62.0749737,51 62.4679138,50.8555412 62.7876748,50.567486 C63.1054472,50.2781371 63.4502641,49.8771022 63.8173529,49.3661061 C63.9812105,49.1216041 64.1967708,49.087969 64.463636,49.2656317 L65.7860306,50.266063 C65.928014,50.3786115 66,50.4894351 66,50.5989651 C66,50.7115136 65.959831,50.8451919 65.8782999,51" id="Fill-44"></path>
                            <path d="M77.880145,52.8396447 C77.8000974,52.9465482 77.6348099,53 77.386446,53 L70.5101412,53 C70.2851425,53 70.1414895,52.957157 70.0856726,52.8731031 C70.0289902,52.7861929 70,52.6364464 70,52.4210072 L70,50.7211594 C70,50.5281618 70.0289902,50.3951445 70.0856726,50.3200672 C70.1414895,50.2445818 70.2959598,50.2074512 70.5443237,50.2074512 L74.1525231,50.2074512 L74.1525231,29.7925488 L70.5443237,29.7925488 C70.2959598,29.7925488 70.1414895,29.7509298 70.0856726,29.6652438 C70.0289902,29.5799658 70,29.4506207 70,29.2796566 L70,27.5781767 C70,27.3639616 70.0289902,27.2146231 70.0856726,27.127713 C70.1414895,27.0444751 70.2959598,27 70.5443237,27 L77.386446,27 C77.6348099,27 77.8000974,27.0542678 77.880145,27.1611714 C77.9593272,27.2684829 78,27.4178214 78,27.610819 L78,52.389589 C78,52.5825866 77.9593272,52.7323331 77.880145,52.8396447" id="Fill-45"></path>
                            <path d="M16.9707122,32.8892665 C16.9195401,32.9487345 16.8458369,32.9794938 16.7469296,32.9794938 L15.3274755,32.9794938 C15.2018365,32.9794938 15.0991103,32.9593977 15.019297,32.9187954 C14.9371925,32.8781931 14.8661625,32.7994493 14.8039158,32.6784626 L12.5439403,28.5464612 L12.4889493,28.5464612 L10.2851104,32.5980783 C10.1965138,32.758847 10.1201375,32.8662995 10.0521626,32.9187954 C9.98189636,32.9729318 9.86733187,33 9.70617782,33 L8.24891749,33 C8.12404219,33 8.04613834,32.9655496 8.01635157,32.8991094 C7.98389163,32.8326693 7.99993066,32.752285 8.06294113,32.6587767 L11.5365365,26.5618702 C11.6224599,26.4142255 11.7152571,26.2842161 11.815692,26.1706117 C11.9153631,26.0557769 12.0516948,26 12.2265966,26 L12.7127319,26 C12.9361327,26 13.0911766,26.0389618 13.1793913,26.1201664 C13.2653147,26.2005507 13.3592576,26.326869 13.4593105,26.5007617 L16.932524,32.6181744 C17.006991,32.7383408 17.0199749,32.8285681 16.9707122,32.8892665" id="Fill-46"></path>
                            <path d="M56,39.4458484 C56,41.8731377 55.4096289,43.739462 54.2252671,45.0432959 C53.0417098,46.3486551 51.2762266,47 48.9280133,47 C46.9642652,47 45.4058945,46.5267453 44.252097,45.5771851 L43.2121108,46.7002593 C43.0391819,46.8642396 42.8835459,46.873392 42.750833,46.7273351 L42.2601976,46.2887832 C42.0663564,46.1610312 42.0663564,46.0062033 42.2601976,45.8239182 L43.3564863,44.6459297 C42.8944042,44.0262368 42.5521659,43.2875629 42.3317821,42.4291453 C42.1093876,41.571109 42,40.6043881 42,39.5278385 C42,38.3239182 42.1725267,37.255377 42.5187866,36.3252657 C42.8658509,35.3940103 43.3464323,34.6091931 43.9621395,33.9700514 C44.5790532,33.3316723 45.314202,32.8443077 46.1720097,32.5060507 C47.0274043,32.1681751 47.9761002,32 49.0144778,32 C50.9392164,32 52.4983914,32.4923222 53.6916006,33.4777292 L54.7878892,32.2734276 C54.885212,32.182285 54.9716764,32.1361418 55.0480869,32.1361418 C55.1232908,32.1361418 55.2117661,32.1731327 55.3082845,32.2459704 L55.7985178,32.6837596 C55.894634,32.7749021 55.9428933,32.8485026 55.9428933,32.9030355 C55.9428933,32.9575685 55.894634,33.03994 55.7985178,33.1497686 L54.5860048,34.4356791 C55.5286683,35.6769716 56,37.3476636 56,39.4458484 L56,39.4458484 Z M46,40.1551352 C46,41.2613344 46.1313931,42.2100339 46.3928058,43 L53,36.1259381 C52.6941792,35.7706384 52.3105298,35.493883 51.8508829,35.2964943 C51.3898627,35.0995168 50.8308698,35 50.1739045,35 C49.4729889,35 48.8599738,35.1336486 48.3330281,35.4005346 C47.8074559,35.6670094 47.3693264,36.0284774 47.0181818,36.4820602 C46.6688685,36.9360543 46.4115762,37.4809294 46.2463048,38.1113396 C46.0824068,38.7433947 46,39.4256194 46,40.1551352 L46,40.1551352 Z M53,39.7763219 C53,39.2779015 52.9717448,38.7919105 52.9188802,38.3142058 C52.8632813,37.8360868 52.7602865,37.3981563 52.6089844,37 L46,43.896266 C46.6316406,44.6329173 47.6023438,45 48.9111979,45 C49.6727214,45 50.3171224,44.8554042 50.8412109,44.5674556 C51.3634766,44.2786783 51.7841146,43.8970946 52.1017578,43.4185613 C52.4162109,42.9408566 52.6454427,42.3889896 52.7871745,41.7608887 C52.929362,41.1348594 53,40.4727847 53,39.7763219 L53,39.7763219 Z" id="Fill-47"></path>
                            <path d="M22.9895178,44.687075 C23.0340052,44.8760145 22.9367628,44.9854006 22.7001528,45.0160618 C22.1934688,45.1105316 21.7592244,45.2671525 21.3934828,45.4859246 C21.0285286,45.7055254 20.7049123,45.9636599 20.4226338,46.2607424 C20.1411427,46.557825 19.8990209,46.8901265 19.6986308,47.2580614 C19.4966658,47.6272393 19.3080864,48.0076044 19.1281684,48.3979137 C19.3376135,48.663092 19.6234352,49.0119671 19.9883894,49.4424675 C20.3537374,49.8737966 20.7049123,50.2993249 21.0474259,50.7211241 C21.4509622,51.2228911 21.8808759,51.7404031 22.3418914,52.2715884 C22.4009454,52.3353969 22.423386,52.4244802 22.4088193,52.5421531 C22.3942527,52.658583 22.3107896,52.7182481 22.163548,52.7182481 L20.1769688,52.7182481 C20.0147669,52.7182481 19.8769741,52.698774 19.7655587,52.658583 C19.6541434,52.6204636 19.5470586,52.5392527 19.4407613,52.4116357 C19.1592702,52.1000512 18.9065187,51.8104268 18.6832943,51.5440055 C18.4899906,51.3252334 18.3116473,51.1135051 18.1478706,50.910478 C17.9837003,50.7070365 17.8880327,50.5893636 17.8569309,50.558288 C17.3215072,51.2158473 16.6797862,51.787638 15.9282246,52.2715884 C15.1758756,52.7571961 14.2802221,53 13.2392955,53 C11.9302634,53 10.896817,52.6283361 10.1385627,51.8841795 C9.38109566,51.1412659 9,50.1120427 9,48.7965098 C9,48.2180896 9.0897622,47.6703307 9.26810552,47.1528187 C9.44684254,46.6361354 9.68463363,46.1505277 9.9818725,45.6976529 C10.2795051,45.2431207 10.6318611,44.8287796 11.0405153,44.4525579 C11.4499569,44.0771649 11.8794769,43.7490068 12.3247447,43.4668405 C11.9231769,42.9654878 11.5660966,42.3945258 11.25311,41.7518828 C10.9416981,41.1108972 10.785008,40.4844135 10.785008,39.8740891 C10.785008,39.2803383 10.8885495,38.7433523 11.0976009,38.2652027 C11.3054713,37.7882961 11.5924741,37.3809988 11.9574283,37.0441395 C12.3204141,36.7085232 12.744816,36.4495601 13.2286658,36.2701504 C13.7113345,36.0903264 14.2207743,36 14.756198,36 C15.3061883,36 15.8164156,36.0857686 16.285305,36.2581345 C16.753407,36.4296717 17.1589116,36.6691608 17.5002442,36.9745302 C17.8431516,37.2803139 18.1144067,37.6478345 18.3159779,38.0775062 C18.5171555,38.5080065 18.6171537,38.9902995 18.6171537,39.5223135 C18.6171537,40.0845743 18.5317221,40.5942138 18.3600716,41.0479173 C18.1888148,41.5020351 17.9655904,41.9167906 17.6907921,42.2930123 C17.414419,42.6688196 17.1053693,43.0002925 16.7644304,43.2907456 C16.4219167,43.58037 16.073104,43.8422335 15.7164173,44.0771649 C16.0876706,44.5938483 16.4219167,45.0363645 16.7195493,45.4042994 C17.0167882,45.7718199 17.3144207,46.1360257 17.6116596,46.4956738 C18.0431481,45.6814936 18.5726663,44.9613688 19.19549,44.3352994 C19.8218569,43.7088157 20.541923,43.2861878 21.3600189,43.0678301 C21.5533226,43.0052646 21.7356028,42.9621731 21.9072533,42.9381413 C22.0777228,42.9149382 22.2666958,42.8950498 22.4753536,42.8801336 C22.6249573,42.8801336 22.7214123,42.9493285 22.765506,43.0914475 L22.9895178,44.687075 L22.9895178,44.687075 Z M14.0445247,51 C14.3172884,51 14.5948656,50.9385113 14.8760529,50.8159963 C15.1552347,50.6944059 15.4251905,50.5330559 15.6827116,50.3324087 C15.9394304,50.1312991 16.182511,49.8982894 16.4095467,49.6375405 C16.6377858,49.3754045 16.8331328,49.0957004 17,48.7988904 C16.5314882,48.1534905 16.0762134,47.5159501 15.6365824,46.8862691 C15.1981548,46.257975 14.7577216,45.6278317 14.3172884,45 C14.0156438,45.2279242 13.7240273,45.4711049 13.44284,45.7332409 C13.162856,45.9963014 12.9169675,46.2792418 12.7043722,46.5862228 C12.491777,46.8908923 12.3221019,47.223301 12.1925391,47.5797503 C12.0641797,47.938049 12,48.3185391 12,48.7202959 C12,49.4895978 12.1748897,50.060564 12.5222623,50.4359686 C12.8720417,50.8118354 13.3770558,51 14.0445247,51 L14.0445247,51 Z M16,40.5138584 C16,40.1525424 15.8801752,39.8099701 15.6389331,39.485344 C15.3992834,39.1611167 15.0374204,39 14.5565287,39 C14.0756369,39 13.6954618,39.1427717 13.4167994,39.4291127 C13.138535,39.7154536 13,40.0851446 13,40.5373878 C13,40.9585244 13.1277866,41.3916251 13.383758,41.8362911 C13.6389331,42.2809571 13.9100318,42.6685942 14.196258,43 C14.3921178,42.8791625 14.593551,42.7371884 14.8053344,42.5704885 C15.0159236,42.404985 15.2105892,42.2207378 15.3921178,42.0169492 C15.571258,41.8131605 15.718949,41.5878365 15.8312102,41.3389831 C15.9430732,41.0897308 16,40.8145563 16,40.5138584 L16,40.5138584 Z" id="Fill-48"></path>
                            <path d="M39.7423935,37.6387361 C39.706094,37.8123914 39.654734,37.9338286 39.5914028,38.0006191 C39.52421,38.0690287 39.419173,38.103436 39.2712716,38.103436 L36.9708838,38.103436 L36.0274815,42.8973736 L38.3290278,42.8973736 C38.6059085,42.8973736 38.7163518,43.0532181 38.6615163,43.3632879 L38.4120534,44.5250375 C38.3564456,44.8148677 38.2089304,44.9609972 37.9683493,44.9609972 L35.6393852,44.9609972 L34.9191865,48.622735 C34.8825008,48.777365 34.8411811,48.8793723 34.7936827,48.9267329 C34.7488875,48.974903 34.6326517,49 34.4472923,49 L33.1177245,49 C32.9690508,49 32.8586074,48.974903 32.7863945,48.9267329 C32.7110922,48.8793723 32.6913978,48.7668405 32.7296282,48.5923756 L33.4227952,44.9609972 L29.7909087,44.9609972 L29.0699378,48.622735 C29.0328659,48.777365 28.9919323,48.8793723 28.9459786,48.9267329 C28.8984803,48.974903 28.7938294,49 28.6262336,49 L27.2966658,49 C27.1479921,49 27.0317563,48.974903 26.949503,48.9267329 C26.8664775,48.8793723 26.8425352,48.7668405 26.8815379,48.5923756 L27.6005781,44.9609972 L25.3283803,44.9609972 C25.0507273,44.9609972 24.949552,44.8148677 25.0233096,44.5250375 L25.2453547,43.3337381 C25.2808819,43.1795128 25.322974,43.066981 25.3693138,43.0001905 C25.4152675,42.9317808 25.5311172,42.8973736 25.7153181,42.8973736 L27.9898329,42.8973736 L28.9316905,38.103436 L26.6031126,38.103436 C26.4181393,38.103436 26.3069237,38.0653856 26.2706241,37.9868562 C26.2335522,37.9099459 26.2242842,37.793771 26.2439787,37.6387361 L26.4915108,36.4753673 C26.5278103,36.3409767 26.5756948,36.234112 26.6305303,36.1567969 C26.6861382,36.0782675 26.807008,36.0402172 26.9919812,36.0402172 L29.3472046,36.0402172 L30.0685617,32.3796938 C30.1048613,32.2234445 30.1550628,32.1226516 30.2203248,32.0744815 C30.2852006,32.0255018 30.3913961,32 30.5389113,32 L31.8144159,32 C31.9997754,32 32.1291408,32.0255018 32.2021261,32.0744815 C32.2754975,32.1226516 32.2955781,32.2331595 32.2585063,32.4072196 L31.5375353,36.0402172 L35.1964533,36.0402172 L35.9170381,32.3796938 C35.95411,32.2234445 36.0000637,32.1226516 36.0564439,32.0744815 C36.1105071,32.0255018 36.2221089,32 36.38816,32 L37.6640508,32 C37.8297158,32 37.9498133,32.0255018 38.0247294,32.0744815 C38.098487,32.1226516 38.1166368,32.2331595 38.0799511,32.4072196 L37.3585939,36.0402172 L39.631564,36.0402172 C39.7991599,36.0402172 39.9057415,36.0782675 39.9509229,36.1567969 C39.9968766,36.234112 40.0100062,36.3506917 39.9926288,36.5057266 L39.7423935,37.6387361 L39.7423935,37.6387361 Z M31.0544646,39 L30,45 L33.9761665,45 L35,39 L31.0544646,39 L31.0544646,39 Z" id="Fill-49"></path>
                            <path d="M35,18.0005852 C35,18.7492295 34.9001827,19.4276519 34.6996569,20.0331214 C34.4995767,20.6397612 34.1943318,21.1656458 33.7843679,21.6127258 C33.374404,22.0594156 32.8503632,22.4019428 32.2131367,22.6406975 C31.5754646,22.8806226 30.8286173,23 29.9721492,23 C28.2966445,23 27.0489283,22.549409 26.2290005,21.648617 C25.4090727,20.7474349 25,19.540007 25,18.0243826 C25,17.2745679 25.1051647,16.5883432 25.3132659,15.9668786 C25.5231496,15.3438536 25.832405,14.814848 26.2419233,14.3755706 C26.6541152,13.9370733 27.1714719,13.5988374 27.7997861,13.3589123 C28.428546,13.1197675 29.1704915,13 30.0278508,13 C30.9012522,13 31.6538924,13.1197675 32.2813154,13.3589123 C32.9096297,13.5988374 33.4243126,13.9343424 33.8262555,14.3626965 C34.2273072,14.7941716 34.5218573,15.3173253 34.7130253,15.9313775 C34.9046388,16.5450396 35,17.2347755 35,18.0005852 L35,18.0005852 Z M32,19.5135684 C32,19.0556889 31.9649646,18.6146083 31.8967574,18.1920497 C31.8281774,17.7703526 31.7174804,17.3968987 31.5654119,17.0703957 C31.413716,16.7447542 31.2046217,16.4845856 30.9370108,16.2911821 C30.6708908,16.0969171 30.3466269,16 29.9653373,16 C29.5847931,16 29.2683563,16.0969171 29.0167723,16.2911821 C28.7666791,16.4845856 28.563921,16.740016 28.411107,17.0566119 C28.2590384,17.3749308 28.1524413,17.7436465 28.090943,18.1666359 C28.0313082,18.5891945 28,19.0294136 28,19.4872931 C28,19.9443111 28.0313082,20.3845302 28.090943,20.8079503 C28.1524413,21.2305089 28.263511,21.6043936 28.4226612,21.9296043 C28.5825568,22.2552458 28.7882967,22.5149837 29.0413716,22.7088179 C29.2914648,22.9022214 29.6153559,23 30.0119269,23 C30.3928438,23 30.7081625,22.9022214 30.9597466,22.7088179 C31.2109579,22.5149837 31.413716,22.2552458 31.5654119,21.9296043 C31.7174804,21.6043936 31.8281774,21.2348163 31.8967574,20.8195803 C31.9649646,20.4064981 32,19.9714479 32,19.5135684 L32,19.5135684 Z M30.8259881,30.5772994 C30.7513195,30.7254875 30.669764,30.8331871 30.5809592,30.900803 C30.4917919,30.9655847 30.3660152,31 30.2029043,31 L29.2920203,31 C29.1586318,31 29.0701895,30.9623456 29.0248809,30.8882516 C28.9806597,30.8129428 28.9951584,30.709697 29.0701895,30.5772994 L38.2044019,13.3975977 C38.278708,13.24779 38.3414151,13.1457588 38.3936106,13.0866455 C38.4450811,13.028342 38.545485,13 38.6933722,13 L39.7383696,13 C39.8271745,13 39.9011181,13.0340104 39.960563,13.0987921 C40.0196454,13.166408 40.012396,13.2818004 39.9384524,13.4457791 L30.8259881,30.5772994 L30.8259881,30.5772994 Z M46,25.9996099 C46,26.7493953 45.9010783,27.427011 45.6996703,28.0344074 C45.4991534,28.6402434 45.1943677,29.1645471 44.7844221,29.6123898 C44.3753676,30.0590622 43.8509046,30.401576 43.2132609,30.6395412 C42.5756171,30.879457 41.8296943,31 40.9728188,31 C39.2951609,31 38.048837,30.5486463 37.2293913,29.6467192 C36.4112824,28.7471327 36,27.5393618 36,26.0249668 C36,25.2747913 36.1047144,24.5882032 36.3141431,23.9663728 C36.5235719,23.3445424 36.8332591,22.8147772 37.2445415,22.3755169 C37.6531503,21.9370367 38.1722663,21.5988141 38.8005525,21.3596786 C39.4288388,21.1197628 40.1711969,21 41.0271812,21 C41.9018804,21 42.6527048,21.1197628 43.2823278,21.3596786 C43.9101684,21.5988141 44.4243829,21.9319654 44.8263078,22.3642038 C45.2260048,22.7948818 45.5227698,23.3164547 45.7148204,23.9320434 C45.9041975,24.5452914 46,25.23344 46,25.9996099 L46,25.9996099 Z M43,25.5135701 C43,25.0534802 42.9664492,24.6136378 42.8978565,24.1910271 C42.8285182,23.7684165 42.7181733,23.3949166 42.5657036,23.0679426 C42.4136067,22.744415 42.2037279,22.4837836 41.9371855,22.2886331 C41.6706431,22.096929 41.3463187,22 40.9657036,22 C40.584343,22 40.2689655,22.096929 40.0169618,22.2886331 C39.7653308,22.4837836 39.5621622,22.7392455 39.410438,23.054588 C39.2587139,23.3725152 39.1520969,23.742138 39.0913327,24.1656102 C39.0301957,24.5882208 39,25.0284941 39,25.4855683 C39,25.9435042 39.0301957,26.3837775 39.0913327,26.8063881 C39.1520969,27.2289987 39.2631873,27.6042218 39.4223672,27.9290418 C39.5826654,28.2551542 39.7884436,28.5162164 40.039329,28.7083513 C40.2909599,28.9035018 40.6152842,29 41.0111836,29 C41.3925443,29 41.7086673,28.9035018 41.9599254,28.7083513 C42.212302,28.5162164 42.4136067,28.2551542 42.5657036,27.9290418 C42.7181733,27.6042218 42.8285182,27.2341683 42.8978565,26.8197428 C42.9664492,26.405748 43,25.9706443 43,25.5135701 L43,25.5135701 Z" id="Fill-50"></path>
                            <path d="M7.15691227,47.5963354 C7.08817033,47.7520106 7.02494782,47.8577523 6.9662412,47.9152388 C6.90653105,47.9710469 6.78410016,48 6.59794498,48 L5.55828591,48 C5.16891553,48 4.98225859,47.879572 5.0013257,47.6399748 L5.38066076,42.4238059 C5.39772081,42.3109308 5.44037091,42.2106441 5.50810932,42.1258829 C5.57584772,42.0423806 5.70229274,42 5.88945145,42 L8.50064151,42 C8.73596975,42 8.8839907,42.0457375 8.94470439,42.1372124 C9.00290924,42.2295265 9.01495162,42.3251976 8.98183507,42.4238059 L7.15691227,47.5963354 L7.15691227,47.5963354 Z M9,36.999523 C9,37.2733127 8.94818043,37.5347007 8.84548345,37.7836871 C8.74278648,38.0321965 8.59816276,38.244932 8.41679425,38.4214166 C8.2335414,38.5983782 8.02343658,38.7400429 7.7864798,38.8430718 C7.54810976,38.9484856 7.28571429,39 7.00023554,39 C6.42880697,39 5.95348016,38.8072979 5.57331292,38.4214166 C5.19173242,38.0364894 5,37.5623658 5,36.999523 C5,36.4376342 5.19173242,35.9635106 5.57331292,35.5771524 C5.95348016,35.1917482 6.42880697,35 7.00023554,35 C7.55611824,35 8.02767636,35.1917482 8.41679425,35.5771524 C8.80544106,35.9635106 9,36.4376342 9,36.999523 L9,36.999523 Z" id="Fill-51"></path>
                        </g>
                    </g>
                </g>
            </g>
        </g>
    </g>
</svg>